<svg width="175" height="109" viewBox="0 0 175 109" fill="none" xmlns="http://www.w3.org/2000/svg">
<g opacity="0.9">
<g clip-path="url(#clip0_4234_10918)">
<path d="M11.4433 47.9059L73.4526 11.4659C74.3019 10.9694 75.0597 10.878 75.53 11.1523L77.1632 12.0277L76.2094 12.8509V48.5069C76.2094 49.7481 75.2034 51.4466 73.7662 52.2959L11.7568 88.7359C11.6262 88.8143 11.4955 88.8796 11.3649 88.9319L11.4041 90.0294C10.986 89.8073 9.81007 89.1148 9.81007 89.1148C9.40503 88.958 9 88.5791 9 88.0042V51.6949C9 50.4537 10.0061 48.7551 11.4433 47.9059Z" fill="white" fill-opacity="0.7"/>
<path d="M12.7231 93.8052V91.0614L14.7875 92.1459L75.8169 56.2808C77.2541 55.4315 79.423 55.327 80.6773 56.0456L116.216 76.2058L117.993 74.8209V78.1134C117.901 78.623 117.522 79.1325 116.83 79.5506L54.8074 116.004C53.3702 116.853 51.2013 116.957 49.947 116.239L13.4679 95.556C13.0367 95.3077 12.7623 94.9942 12.6578 94.6545C12.5794 94.3801 12.5925 94.1057 12.7101 93.8183L12.7231 93.8052Z" fill="#ADE8FF"/>
<path d="M54.7685 112.855L116.791 76.4019C118.228 75.5526 118.372 74.2983 117.118 73.5928L80.6383 52.91C79.384 52.2044 77.2021 52.3089 75.7779 53.1451L13.7555 89.5982C12.3183 90.4474 12.1746 91.7017 13.4289 92.4073L49.9081 113.09C51.1623 113.796 53.3443 113.691 54.7685 112.855Z" fill="white"/>
<path d="M96.6299 68.2497L40.4087 101.293C39.5594 101.789 38.2528 101.854 37.5081 101.436L18.9157 90.8924C18.171 90.4743 18.2625 89.7165 19.1117 89.22L75.333 56.1771C76.1823 55.6806 77.4888 55.6153 78.2336 56.0334L96.8259 66.5773C97.5707 66.9954 97.4792 67.7532 96.6299 68.2497Z" fill="#A5E4FC"/>
<path d="M61.0273 91.8849L79.3584 81.1188C80.4036 80.5047 81.9976 80.4263 82.9122 80.949L91.6531 85.9008L70.2125 98.4961L60.7922 93.1522C60.5439 93.0085 60.3741 92.8386 60.2695 92.6427C60.4002 92.3683 60.6484 92.107 61.0273 91.8849Z" fill="#DCF5FF"/>
<path d="M93.2993 88.2391L84.1403 93.6222L81.9453 92.3809L92.3194 86.2793L93.5345 86.9718C93.7827 87.1155 93.9526 87.2854 94.0571 87.4813C93.9265 87.7557 93.6782 88.017 93.2993 88.2391Z" fill="#DCF5FF"/>
<path d="M81.9441 92.3803L81.2647 92.7853L83.4597 94.0265L74.9802 99.0045C73.9349 99.6186 72.3409 99.697 71.4263 99.1744L70.8906 98.8739L81.9572 92.3672L81.9441 92.3803Z" fill="#DCF5FF"/>
<path d="M61.0144 91.1007L79.3455 80.3346C80.3907 79.7205 81.9847 79.6421 82.8993 80.1648L92.3196 85.5086L91.6402 85.9136L82.8993 80.9618C81.9847 80.4391 80.3907 80.5175 79.3455 81.1316L61.0144 91.8977C60.6355 92.1198 60.3742 92.3811 60.2566 92.6555C59.9953 92.159 60.2566 91.558 61.0144 91.1007Z" fill="#81CFED"/>
<path d="M94.0701 87.4815C93.9655 87.2985 93.8088 87.1156 93.5474 86.9719L92.3323 86.2794L70.8917 98.8747L70.1992 98.4827L92.3193 85.4824L93.5344 86.1749C94.1223 86.5015 94.2791 86.998 94.057 87.4684L94.0701 87.4815Z" fill="#81CFED"/>
<path d="M84.1391 93.6352L83.4597 94.0271L81.2646 92.7859L81.9441 92.3809L84.1391 93.6352Z" fill="#81CFED"/>
<path d="M19.7397 87.8476L72.969 56.5555L71.4011 55.667L18.1719 86.9591L19.7397 87.8476Z" fill="#DCF5FF"/>
<path d="M24.9272 84.7905L67.7824 59.6131L66.2015 58.7246L23.3594 83.902L24.9272 84.7905Z" fill="#DCF5FF"/>
<path d="M13.6504 89.7686L75.6728 53.3156C77.11 52.4794 78.1161 50.7809 78.1161 49.5266V13.2173C78.1161 11.976 76.7964 11.6363 75.3592 12.4856L13.3368 48.9386C11.8996 49.7879 10.8936 51.4733 10.8936 52.7276V89.0369C10.8936 90.2782 12.2132 90.6179 13.6504 89.7686Z" fill="white"/>
<path d="M12.2004 89.1804C12.318 89.1804 12.6316 89.1412 13.115 88.8537L75.1374 52.4007C76.3264 51.7082 77.058 50.3102 77.058 49.5393V13.23C77.058 13.1516 76.9013 13.1124 76.9013 13.0732C76.9013 13.0732 76.849 13.0732 76.8098 13.0732C76.6922 13.0732 76.3786 13.1124 75.8952 13.3999L13.8728 49.8529C12.6838 50.5454 11.9521 51.9434 11.9521 52.7143V89.0236C11.9521 89.102 12.1089 89.1542 12.1089 89.1804C12.1089 89.1804 12.1612 89.1804 12.2004 89.1804Z" fill="#DCF5FF"/>
<path d="M12.8947 55.118V85.6262C12.8947 85.992 13.1037 86.3056 13.2474 86.5277C13.6394 86.5539 14.0967 86.4232 14.5932 86.1357L72.918 51.8516C74.2899 51.0546 75.296 49.2646 75.2829 47.8797V17.3846C75.2829 17.0187 75.0739 16.7051 74.9301 16.483C74.5382 16.4569 74.0809 16.5745 73.5713 16.875L15.2465 51.1461C13.8746 51.9431 12.8816 53.7331 12.8947 55.118Z" fill="#ADE8FF"/>
<path d="M13.3639 86.7894C13.3639 86.7894 13.2724 86.7894 13.2202 86.7894H13.0895L13.0242 86.6719C12.8413 86.3844 12.6322 86.0316 12.6191 85.6266V55.1184C12.6191 53.642 13.6513 51.7736 15.1016 50.9244L73.4395 16.6402C73.9621 16.3267 74.4848 16.1829 74.9551 16.2091H75.0858L75.1511 16.3267C75.334 16.6141 75.5431 16.9669 75.5561 17.3719V47.8801C75.5561 49.3434 74.5109 51.2249 73.0606 52.0741L14.7358 86.3583C14.2523 86.6327 13.795 86.7894 13.3769 86.7894H13.3639ZM74.7722 16.7317C74.4456 16.7317 74.0797 16.8623 73.7008 17.0845L15.376 51.3817C14.0694 52.1395 13.1418 53.8119 13.1548 55.1184V85.6266C13.1548 85.8749 13.3247 86.097 13.4031 86.2799C13.7167 86.2799 14.0825 86.1492 14.4614 85.9271L72.7862 51.643C74.0667 50.8982 75.0335 49.1866 75.0205 47.9062V17.385C75.0205 17.1367 74.8506 16.9146 74.7722 16.7317Z" fill="#88D7F5"/>
<path d="M43.1006 32.9721C43.1006 33.6907 43.6885 33.939 44.4071 33.5078C45.1258 33.0897 45.7006 32.162 45.7006 31.4434C45.7006 30.7248 45.1127 30.4766 44.3941 30.9078C43.6755 31.3259 43.1006 32.2535 43.1006 32.9721Z" fill="#DCF5FF"/>
<path d="M43.5326 32.7099C43.5326 33.0104 43.6894 33.1803 43.9376 33.1933C44.0814 33.2195 44.2381 33.1933 44.408 33.0758C44.8784 32.7883 45.2703 32.1742 45.2573 31.6908C45.2573 31.2074 44.8653 31.0506 44.3949 31.325C44.3688 31.325 44.3427 31.3511 44.3165 31.3772C43.8592 31.6647 43.5195 32.2396 43.5195 32.6968L43.5326 32.7099Z" fill="#2EA8D7"/>
<path d="M43.5326 32.7106C43.5326 33.0111 43.6894 33.181 43.9376 33.194C43.9638 33.1679 44.003 33.1549 44.016 33.1287C44.4211 32.8282 44.7216 32.2925 44.7085 31.8614C44.7085 31.6523 44.617 31.5086 44.4995 31.4433C44.4472 31.4041 44.3819 31.3779 44.3165 31.3779C43.8592 31.6654 43.5195 32.2403 43.5195 32.6976L43.5326 32.7106Z" fill="white"/>
<path d="M43.808 32.7107C43.808 32.9198 43.8995 33.0635 44.0171 33.1288C44.4221 32.8283 44.7226 32.2926 44.7096 31.8615C44.7096 31.6524 44.6181 31.5087 44.5005 31.4434C44.0955 31.7569 43.795 32.2665 43.808 32.7107Z" fill="#B8E8FB"/>
<path d="M111.826 81.4975L115.236 79.4985V78.4141L111.826 80.4131V81.4975Z" fill="#49B9E4"/>
<path d="M39.4951 109.419L42.2128 110.961V110.033L39.4951 108.491V109.419Z" fill="#49B9E4"/>
<path d="M25.2259 89.1936L21.9334 91.1273L20.1826 90.1474V89.3112L25.2259 88.3574V89.1936Z" fill="#81CFED"/>
<path d="M29.3187 86.7893L26.0262 88.723L24.2754 87.7431V86.9069L29.3187 85.9531V86.7893Z" fill="#81CFED"/>
<path d="M78.4574 57.9143L75.1649 59.848L73.4141 58.855V58.0188L78.4574 57.0781V57.9143Z" fill="#81CFED"/>
<path d="M28.7152 91.179L25.4227 93.1127L22.5352 91.4795V90.6433L28.7152 90.3428V91.179Z" fill="#81CFED"/>
<path d="M32.8056 88.7757L29.5131 90.7094L26.6387 89.0762V88.1746L32.8056 87.9395V88.7757Z" fill="#81CFED"/>
<path d="M73.7529 64.7083L70.4604 66.642L67.5859 65.0088V64.1726L73.7529 63.8721V64.7083Z" fill="#81CFED"/>
<path d="M69.6625 67.1126L66.3699 69.0463L63.4824 67.4131V66.5769L69.6625 66.2764V67.1126Z" fill="#81CFED"/>
<path d="M65.5615 69.5169L62.269 71.4506L59.3945 69.8174V68.9812L65.5615 68.6807V69.5169Z" fill="#81CFED"/>
<path d="M61.471 71.9202L58.1785 73.867L55.291 72.2338V71.3976L61.471 71.084V71.9202Z" fill="#81CFED"/>
<path d="M57.3832 74.3245L54.0906 76.2713L51.2031 74.6381V73.8019L57.3832 73.4883V74.3245Z" fill="#81CFED"/>
<path d="M53.2793 76.7424L49.9867 78.6762L47.1123 77.043V76.2068L53.2793 75.9062V76.7424Z" fill="#81CFED"/>
<path d="M49.1917 79.1458L45.8992 81.0795L43.0117 79.4463V78.6101L49.1917 78.3096V79.1458Z" fill="#81CFED"/>
<path d="M45.1009 81.5491L41.8084 83.4828L38.9209 81.8496V81.0134L45.1009 80.7129V81.5491Z" fill="#81CFED"/>
<path d="M40.997 83.9534L37.7045 85.8871L34.8301 84.2539V83.4177L40.997 83.1172V83.9534Z" fill="#81CFED"/>
<path d="M36.9095 86.3577L33.617 88.3045L30.7295 86.6713V85.8351L36.9095 85.5215V86.3577Z" fill="#81CFED"/>
<path d="M81.7735 58.959L81.9434 59.8866L74.5613 64.2375L71.6738 62.6043V61.7681L81.7735 58.959Z" fill="#81CFED"/>
<path d="M34.0726 91.0742V91.9104L28.7811 95.02L25.8936 93.3868V92.5506L34.0726 91.0742Z" fill="#81CFED"/>
<path d="M85.3031 60.959L79.123 61.2595V62.0957L81.9713 63.7158L85.29 61.7952V60.959H85.3031Z" fill="#81CFED"/>
<path d="M38.3322 93.2825L32.1391 96.9278L29.2646 95.2946V94.4584L38.3322 92.4463V93.2825Z" fill="#81CFED"/>
<path d="M77.5814 69.3857L71.4014 69.6863V70.5225L74.2889 72.1557L77.5814 70.2219V69.3857Z" fill="#81CFED"/>
<path d="M73.2171 71.9854L67.0371 72.2859V73.1221L69.9246 74.7553L73.2171 72.8215V71.9854Z" fill="#81CFED"/>
<path d="M68.8535 74.5859L62.6865 74.8995V75.7357L65.561 77.3689L68.8535 75.4221V74.5859Z" fill="#81CFED"/>
<path d="M64.5033 77.1992L58.3232 77.4997V78.3359L61.2107 79.9691L64.5033 78.0354V77.1992Z" fill="#81CFED"/>
<path d="M60.139 79.7988L53.959 80.0993V80.9355L56.8465 82.5687L60.139 80.635V79.7988Z" fill="#81CFED"/>
<path d="M55.7757 82.4111L49.5957 82.7116V83.5478L52.4832 85.181L55.7757 83.2473V82.4111Z" fill="#81CFED"/>
<path d="M51.4121 85.0127L45.2451 85.3132V86.1494L48.1196 87.7826L51.4121 85.8489V85.0127Z" fill="#81CFED"/>
<path d="M47.0609 87.6123L40.8809 87.9259V88.7621L43.7684 90.3953L47.0609 88.4485V87.6123Z" fill="#81CFED"/>
<path d="M42.6947 90.2256L36.5146 90.4216V91.3623L39.4021 92.9955L42.6947 91.0618V90.2256Z" fill="#81CFED"/>
<path d="M81.9726 66.7988L75.8057 67.0993V67.9355L78.6801 69.5687L81.9726 67.635V66.7988Z" fill="#81CFED"/>
<path d="M88.6599 62.8662V63.7024L82.7019 67.204L79.8145 65.5708V64.7346L88.6599 62.8662Z" fill="#81CFED"/>
<path d="M42.8926 94.4846L35.4975 98.8224L32.623 97.1892V96.353L42.8926 93.6484V94.4846Z" fill="#81CFED"/>
<path d="M46.9814 92.0803L43.6889 94.0141L40.8145 92.3809V91.5447L46.9814 91.2441V92.0803Z" fill="#81CFED"/>
<path d="M83.8412 69.5811L77.6611 69.8816V70.7178L80.5486 72.351L83.8412 70.4173V69.5811Z" fill="#81CFED"/>
<path d="M79.7376 71.9854L73.5576 72.2989V73.1351L76.4451 74.7683L79.7376 72.8215V71.9854Z" fill="#81CFED"/>
<path d="M75.6341 74.4023L69.4541 74.7029V75.5391L72.3416 77.1723L75.6341 75.2385V74.4023Z" fill="#81CFED"/>
<path d="M71.5332 76.8076L65.3662 77.1081V77.9443L68.2406 79.5775L71.5332 77.6438V76.8076Z" fill="#81CFED"/>
<path d="M67.4297 79.2109L61.2627 79.5114V80.3476L64.1371 81.9808L67.4297 80.0471V79.2109Z" fill="#81CFED"/>
<path d="M63.3392 81.6162L57.2898 81.9951L57.1592 82.7529L60.0467 84.3861L63.3392 82.4524V81.6162Z" fill="#81CFED"/>
<path d="M59.2357 84.0195L53.0557 84.3331V85.1693L55.9432 86.8025L59.2357 84.8557V84.0195Z" fill="#81CFED"/>
<path d="M55.1351 86.4229L48.9551 86.7364V87.5726L51.8426 89.2058L55.1351 87.259V86.4229Z" fill="#81CFED"/>
<path d="M51.0312 88.8408L44.9557 89.076L44.8643 89.9775L47.7387 91.6107L51.0312 89.677V88.8408Z" fill="#81CFED"/>
<path d="M92.0189 65.6096L84.9373 69.7776L82.0498 68.1444V67.3082L92.0189 64.7734V65.6096Z" fill="#81CFED"/>
<path d="M35.9814 99.0967L38.8689 100.73L42.1615 98.7962V97.96L35.9814 98.2605V99.0967Z" fill="#81CFED"/>
<path d="M40.0723 96.6933L42.9598 98.3265L46.2523 96.3928V95.5566L40.0723 95.8571V96.6933Z" fill="#81CFED"/>
<path d="M44.1729 94.2881L47.0473 95.9213L50.3398 93.9876V93.1514L44.1729 93.4519V94.2881Z" fill="#81CFED"/>
<path d="M48.248 91.9241L51.1355 93.5573L54.4281 91.6235L54.4673 90.8135L48.248 91.0879V91.9241Z" fill="#81CFED"/>
<path d="M83.0949 73.8936V74.7298L55.2391 91.114L52.3516 89.4808V88.6316L83.0949 73.8936Z" fill="#81CFED"/>
<path d="M87.1982 72.3255L83.9056 74.2592L82.377 73.3968V72.5606L87.1982 71.4893V72.3255Z" fill="#81CFED"/>
<path d="M91.2871 69.9212L87.9946 71.8549L85.1201 70.2217V69.3855L91.2871 69.085V69.9212Z" fill="#81CFED"/>
<path d="M95.3899 67.5169L92.0974 69.4506L90.5557 68.5882V67.752L95.3899 66.6807V67.5169Z" fill="#81CFED"/>
<path d="M80.9906 63.4932L74.8105 63.7937V64.6299L77.6588 66.25L80.9775 64.3294V63.4932H80.9906Z" fill="#81CFED"/>
<path d="M76.68 66.041L70.5 66.3415V67.1777L73.3483 68.7979L76.667 66.8772V66.041H76.68Z" fill="#81CFED"/>
<path d="M72.3675 68.5752L66.1875 68.8757V69.7119L69.0358 71.332L72.3545 69.4114V68.5752H72.3675Z" fill="#81CFED"/>
<path d="M68.055 71.1104L61.875 71.4109V72.2471L64.7233 73.8672L68.042 71.9466V71.1104H68.055Z" fill="#81CFED"/>
<path d="M63.7455 73.6455L57.5654 73.946V74.7822L60.4137 76.4024L63.7324 74.4817V73.6455H63.7455Z" fill="#81CFED"/>
<path d="M59.432 76.1797L53.252 76.3495V77.3164L56.1003 78.9365L59.4189 77.0159V76.1797H59.432Z" fill="#81CFED"/>
<path d="M55.1224 78.7148L48.9424 79.0154V79.8515L51.7907 81.4717L55.1093 79.551V78.7148H55.1224Z" fill="#81CFED"/>
<path d="M50.8099 81.2617L44.6299 81.5622V82.3984L47.4782 84.0186L50.7968 82.0979V81.2617H50.8099Z" fill="#81CFED"/>
<path d="M46.4964 83.7969L40.3164 84.0974V84.9336L43.1647 86.5537L46.4834 84.6331V83.7969H46.4964Z" fill="#81CFED"/>
<path d="M42.1869 86.332L36.0068 86.6325V87.4687L38.8551 89.0889L42.1738 87.1682V86.332H42.1869Z" fill="#81CFED"/>
<path d="M37.8744 88.8672L31.6943 89.1677V90.0039L34.5426 91.624L37.8613 89.7034V88.8672H37.8744Z" fill="#81CFED"/>
<path d="M74.3548 60.3176L71.0623 62.2514L69.3115 61.2714V60.4352L74.3548 59.4814V60.3176Z" fill="#81CFED"/>
<path d="M70.2513 62.7219L66.9588 64.6556L65.208 63.6757V62.8395L70.2513 61.8857V62.7219Z" fill="#81CFED"/>
<path d="M66.1504 65.1262L62.8709 67.073L61.1201 66.08V65.2438L66.1504 64.29V65.1262Z" fill="#81CFED"/>
<path d="M62.0588 67.5432L58.7663 69.4769L57.0155 68.484L56.9502 67.6347L62.0588 66.707V67.5432Z" fill="#81CFED"/>
<path d="M57.9564 69.9475L54.6639 71.8812L52.9131 70.8883V70.0521L57.9564 69.1113V69.9475Z" fill="#81CFED"/>
<path d="M53.8529 72.3508L50.5604 74.2846L48.8096 73.2916V72.4554L53.8529 71.5146V72.3508Z" fill="#81CFED"/>
<path d="M49.7519 74.7561L46.4594 76.6898L44.7217 75.7099V74.8737L49.7519 73.9199V74.7561Z" fill="#81CFED"/>
<path d="M45.6615 77.1594L42.369 79.1062L40.6182 78.1132V77.277L45.6615 76.3232V77.1594Z" fill="#81CFED"/>
<path d="M41.558 79.5764L38.2654 81.5101L36.5146 80.5172V79.681L41.558 78.7402V79.5764Z" fill="#81CFED"/>
<path d="M37.4564 81.9807L34.1639 83.9144L32.4131 82.9215V82.0853L37.4564 81.1445V81.9807Z" fill="#81CFED"/>
<path d="M33.355 84.385L30.0624 86.3187L28.3247 85.3258L28.2725 84.5287L33.355 83.5488V84.385Z" fill="#81CFED"/>
<path d="M25.2259 88.3572L21.9203 90.2909L20.1826 89.311L23.4751 87.3643L25.2259 88.3572Z" fill="#F0FBFF"/>
<path d="M29.3187 85.9529L26.0262 87.8867L24.2754 86.9067L27.5679 84.96L29.3187 85.9529Z" fill="#F0FBFF"/>
<path d="M78.4574 57.0779L75.1518 59.0117L73.4141 58.0187L76.7066 56.085L78.4574 57.0779Z" fill="#F0FBFF"/>
<path d="M28.7152 90.3432L25.4227 92.2769L22.5352 90.6437L25.8277 88.71L28.7152 90.3432Z" fill="#F0FBFF"/>
<path d="M32.806 87.9389L29.5135 89.8726L26.626 88.2394L29.9316 86.3057L32.806 87.9389Z" fill="#F0FBFF"/>
<path d="M73.7529 63.8725L70.4604 65.8062L67.5859 64.173L70.8785 62.2393L73.7529 63.8725Z" fill="#F0FBFF"/>
<path d="M69.6625 66.2758L66.3569 68.2095L63.4824 66.5763L66.775 64.6426L69.6625 66.2758Z" fill="#F0FBFF"/>
<path d="M65.5615 68.6801L62.269 70.6138L59.3945 68.9806L62.6871 67.0469L65.5615 68.6801Z" fill="#F0FBFF"/>
<path d="M61.471 71.0844L58.1785 73.0311L55.291 71.3979L58.5835 69.4512L61.471 71.0844Z" fill="#F0FBFF"/>
<path d="M57.3832 73.4887L54.0776 75.4354L51.2031 73.8022L54.4957 71.8555L57.3832 73.4887Z" fill="#F0FBFF"/>
<path d="M53.2793 75.9057L49.9867 77.8394L47.1123 76.2062L50.4048 74.2725L53.2793 75.9057Z" fill="#F0FBFF"/>
<path d="M49.1917 78.31L45.8861 80.2437L43.0117 78.6105L46.3042 76.6768L49.1917 78.31Z" fill="#F0FBFF"/>
<path d="M45.1009 80.7133L41.7953 82.647L38.9209 81.0138L42.2134 79.0801L45.1009 80.7133Z" fill="#F0FBFF"/>
<path d="M40.997 83.1176L37.7045 85.0513L34.8301 83.4181L38.1226 81.4844L40.997 83.1176Z" fill="#F0FBFF"/>
<path d="M36.9095 85.5219L33.6039 87.4686L30.7295 85.8354L34.022 83.8887L36.9095 85.5219Z" fill="#F0FBFF"/>
<path d="M79.0559 57.417L81.9434 59.0502L74.5483 63.401L71.6738 61.7678L79.0559 57.417Z" fill="#F0FBFF"/>
<path d="M31.1851 89.4414L34.0726 91.0746L28.7811 94.1842L25.8936 92.551L31.1851 89.4414Z" fill="#F0FBFF"/>
<path d="M82.4283 59.3242L79.1357 61.2579L81.984 62.8781L85.3158 60.9574L82.4283 59.3242Z" fill="#F0FBFF"/>
<path d="M38.3322 92.4467L32.1391 96.092L29.2646 94.4588L35.4447 90.8135L38.3322 92.4467Z" fill="#F0FBFF"/>
<path d="M74.6939 67.7529L71.4014 69.6866L74.2758 71.3198L77.5814 69.3861L74.6939 67.7529Z" fill="#F0FBFF"/>
<path d="M70.3296 70.3525L67.0371 72.2862L69.9246 73.9194L73.2171 71.9857L70.3296 70.3525Z" fill="#F0FBFF"/>
<path d="M65.9791 72.9531L62.6865 74.8999L65.561 76.5331L68.8535 74.5863L65.9791 72.9531Z" fill="#F0FBFF"/>
<path d="M61.6158 75.5654L58.3232 77.4991L61.1977 79.1323L64.5033 77.1986L61.6158 75.5654Z" fill="#F0FBFF"/>
<path d="M57.2515 78.166L53.959 80.0997L56.8334 81.7329L60.139 79.7992L57.2515 78.166Z" fill="#F0FBFF"/>
<path d="M52.8882 80.7783L49.5957 82.712L52.4832 84.3452L55.7757 82.4115L52.8882 80.7783Z" fill="#F0FBFF"/>
<path d="M48.5376 83.3789L45.2451 85.3126L48.1196 86.9458L51.4121 85.0121L48.5376 83.3789Z" fill="#F0FBFF"/>
<path d="M44.1734 85.9795L40.8809 87.9263L43.7553 89.5595L47.0609 87.6127L44.1734 85.9795Z" fill="#F0FBFF"/>
<path d="M39.8072 88.5928L36.5146 90.5265L39.3891 92.1597L42.6947 90.226L39.8072 88.5928Z" fill="#F0FBFF"/>
<path d="M79.0982 65.165L75.8057 67.0987L78.6801 68.7319L81.9726 66.7982L79.0982 65.165Z" fill="#F0FBFF"/>
<path d="M85.7854 61.2324L88.6599 62.8656L82.6889 66.3672L79.8145 64.734L85.7854 61.2324Z" fill="#F0FBFF"/>
<path d="M42.8926 93.6488L35.4975 97.9866L32.623 96.3534L40.0051 92.0156L42.8926 93.6488Z" fill="#F0FBFF"/>
<path d="M46.9814 91.2445L43.6889 93.1782L40.8145 91.545L44.107 89.6113L46.9814 91.2445Z" fill="#F0FBFF"/>
<path d="M80.9537 67.9482L77.6611 69.882L80.5356 71.5152L83.8412 69.5814L80.9537 67.9482Z" fill="#F0FBFF"/>
<path d="M76.8501 70.3525L73.5576 72.2993L76.4321 73.9325L79.7376 71.9857L76.8501 70.3525Z" fill="#F0FBFF"/>
<path d="M72.7466 72.7695L69.4541 74.7032L72.3416 76.3364L75.6341 74.4027L72.7466 72.7695Z" fill="#F0FBFF"/>
<path d="M68.6587 75.1738L65.3662 77.1075L68.2406 78.7407L71.5332 76.807L68.6587 75.1738Z" fill="#F0FBFF"/>
<path d="M64.5552 77.5781L61.2627 79.5118L64.1371 81.145L67.4297 79.2113L64.5552 77.5781Z" fill="#F0FBFF"/>
<path d="M60.4517 79.9824L57.1592 81.9161L60.0336 83.5493L63.3392 81.6156L60.4517 79.9824Z" fill="#F0FBFF"/>
<path d="M56.3482 82.3867L53.0557 84.3335L55.9301 85.9667L59.2357 84.0199L56.3482 82.3867Z" fill="#F0FBFF"/>
<path d="M52.2476 84.79L48.9551 86.7368L51.8426 88.37L55.1351 86.4232L52.2476 84.79Z" fill="#F0FBFF"/>
<path d="M48.1591 87.207L44.8535 89.1407L47.741 90.7739L51.0335 88.8402L48.1591 87.207Z" fill="#F0FBFF"/>
<path d="M92.0189 64.7738L84.9242 68.9418L82.0498 67.3085L89.1444 63.1406L92.0189 64.7738Z" fill="#F0FBFF"/>
<path d="M35.9814 98.2609L38.8559 99.8941L42.1615 97.9603L39.274 96.3271L35.9814 98.2609Z" fill="#F0FBFF"/>
<path d="M40.0697 95.8566L42.9441 97.4898L46.2367 95.5561L43.3492 93.9229L40.0566 95.8566H40.0697Z" fill="#F0FBFF"/>
<path d="M44.1732 93.4523L47.0477 95.0855L50.3402 93.1518L47.4527 91.5186L44.1602 93.4523H44.1732Z" fill="#F0FBFF"/>
<path d="M48.248 91.087L51.1225 92.7202L54.415 90.7865L51.5406 89.1533L48.248 91.087Z" fill="#F0FBFF"/>
<path d="M80.2205 72.2598L83.0949 73.893L55.2391 90.2642L52.3516 88.631L80.2205 72.2598Z" fill="#F0FBFF"/>
<path d="M87.1982 71.4893L83.8926 73.423L82.377 72.5607L85.6695 70.627L87.1982 71.4893Z" fill="#F0FBFF"/>
<path d="M91.2871 69.0853L87.9946 71.0191L85.1201 69.3859L88.3996 67.4521L91.2871 69.0853Z" fill="#F0FBFF"/>
<path d="M95.3899 66.682L92.0843 68.6157L90.5557 67.7534L93.8482 65.8066L95.3899 66.682Z" fill="#F0FBFF"/>
<path d="M78.1031 61.8604L74.8105 63.7941L77.6588 65.4142L80.9906 63.4936L78.1031 61.8604Z" fill="#F0FBFF"/>
<path d="M73.7925 64.4082L70.5 66.3419L73.3483 67.962L76.68 66.0414L73.7925 64.4082Z" fill="#F0FBFF"/>
<path d="M69.48 66.9424L66.1875 68.8761L69.0358 70.4962L72.3675 68.5756L69.48 66.9424Z" fill="#F0FBFF"/>
<path d="M65.1675 69.4775L61.875 71.4113L64.7233 73.0314L68.055 71.1107L65.1675 69.4775Z" fill="#F0FBFF"/>
<path d="M60.858 72.0117L57.5654 73.9454L60.4137 75.5656L63.7455 73.6449L60.858 72.0117Z" fill="#F0FBFF"/>
<path d="M56.5445 74.5469L53.252 76.4806L56.1003 78.1007L59.432 76.1801L56.5445 74.5469Z" fill="#F0FBFF"/>
<path d="M52.2349 77.082L48.9424 79.0157L51.7907 80.6359L55.1224 78.7152L52.2349 77.082Z" fill="#F0FBFF"/>
<path d="M47.9224 79.6289L44.6299 81.5626L47.4782 83.1828L50.8099 81.2621L47.9224 79.6289Z" fill="#F0FBFF"/>
<path d="M43.6089 82.1641L40.3164 84.0978L43.1647 85.7179L46.4964 83.7973L43.6089 82.1641Z" fill="#F0FBFF"/>
<path d="M39.2994 84.6982L36.0068 86.632L38.8551 88.2521L42.1869 86.3314L39.2994 84.6982Z" fill="#F0FBFF"/>
<path d="M34.9869 87.2334L31.6943 89.1671L34.5426 90.7872L37.8744 88.8666L34.9869 87.2334Z" fill="#F0FBFF"/>
<path d="M74.3548 59.4822L71.0623 61.416L69.3115 60.436L72.6041 58.4893L74.3548 59.4822Z" fill="#F0FBFF"/>
<path d="M70.2513 61.8865L66.9588 63.8203L65.208 62.8403L68.5005 60.8936L70.2513 61.8865Z" fill="#F0FBFF"/>
<path d="M66.1504 64.2905L62.8578 66.2372L61.1201 65.2443L64.4126 63.3105L66.1504 64.2905Z" fill="#F0FBFF"/>
<path d="M62.0599 66.7069L58.7543 68.6406L57.0166 67.6476L60.3091 65.7139L62.0599 66.7069Z" fill="#F0FBFF"/>
<path d="M57.9564 69.1111L54.6508 71.0449L52.9131 70.0519L56.2056 68.1182L57.9564 69.1111Z" fill="#F0FBFF"/>
<path d="M53.8529 71.5154L50.5604 73.4492L48.8096 72.4562L52.1021 70.5225L53.8529 71.5154Z" fill="#F0FBFF"/>
<path d="M49.7519 73.9197L46.4594 75.8534L44.7217 74.8735L48.0142 72.9268L49.7519 73.9197Z" fill="#F0FBFF"/>
<path d="M45.6615 76.3237L42.3559 78.2704L40.6182 77.2775L43.9107 75.3438L45.6615 76.3237Z" fill="#F0FBFF"/>
<path d="M41.558 78.741L38.2524 80.6747L36.5146 79.6818L39.8072 77.748L41.558 78.741Z" fill="#F0FBFF"/>
<path d="M37.4564 81.1453L34.1508 83.079L32.4131 82.0861L35.7056 80.1523L37.4564 81.1453Z" fill="#F0FBFF"/>
<path d="M33.3558 83.5486L30.0633 85.4824L28.3125 84.4894L31.605 82.5557L33.3558 83.5486Z" fill="#F0FBFF"/>
<path d="M141.551 57.8613C142.884 63.9237 137.657 70.2214 129.87 71.933C122.083 73.6445 114.701 70.1168 113.355 64.0544C112.01 57.992 117.249 51.6943 125.036 49.9827C132.823 48.2712 140.205 51.7989 141.551 57.8613Z" fill="#DAF5FF"/>
<path d="M106.193 41.6607C106.363 41.3994 108.415 38.8777 112.06 36.1993C115.261 33.8605 120.422 30.8946 126.876 30.0584C133.67 29.17 140.687 30.8032 147.755 34.8797C153.569 38.2375 156.496 41.5692 156.496 44.8226V48.6639C156.496 45.4105 153.569 42.0788 147.755 38.7209C140.687 34.6445 133.67 33.0243 126.876 33.8997C120.435 34.7359 115.261 37.7018 112.06 40.0406C108.401 42.719 106.35 45.2407 106.193 45.502V41.6607Z" fill="#1CA3D7"/>
<path d="M106.259 41.4512H103.686V45.2925H106.259V41.4512Z" fill="white"/>
<path d="M135.762 58.9463L136.833 60.292V64.1333L135.762 62.7876V58.9463Z" fill="white"/>
<path d="M136.834 60.2923C137.03 60.24 141.694 58.9988 146.738 56.7385C153.519 53.6942 157.674 50.2449 158.758 46.7563C158.967 46.1031 159.059 45.4629 159.059 44.8096V48.6509C159.059 49.3041 158.954 49.9574 158.758 50.5976C157.661 54.0861 153.506 57.5355 146.738 60.5798C141.694 62.8532 137.03 64.0813 136.834 64.1336V60.2923Z" fill="white"/>
<path d="M103.686 41.4517C103.686 41.321 103.725 41.0597 105.097 39.6225C105.841 38.8255 107.096 37.5973 108.807 36.2385C111.76 33.8867 116.594 30.764 122.84 29.2614C126.89 28.2815 131.071 28.0855 135.239 28.6735C140.021 29.3529 144.842 31.0906 149.585 33.8213C155.896 37.4666 159.084 41.1511 159.084 44.7964C159.084 45.4497 158.979 46.103 158.783 46.7432C157.686 50.2317 153.531 53.6811 146.763 56.7253C141.72 58.9988 137.055 60.2269 136.859 60.2792L135.788 58.9334C135.971 58.8812 153.884 54.073 156.262 46.4688C156.431 45.9201 156.523 45.3583 156.523 44.8095C156.523 41.5562 153.596 38.2245 147.782 34.8666C140.713 30.7901 133.697 29.17 126.903 30.0454C120.462 30.8816 115.288 33.8475 112.087 36.1862C108.428 38.8647 106.377 41.3863 106.22 41.6476C106.22 41.6476 106.273 41.5562 106.273 41.4386H103.699L103.686 41.4517Z" fill="#7BD7FA"/>
<path d="M111.147 40.0796C111.147 40.0796 108.09 36.4735 104.47 36.9961C100.851 37.5057 96.7878 41.347 96.1607 50.114C95.5335 58.8679 102.524 59.874 105.542 59.7041C108.573 59.5343 114.648 50.6235 111.134 40.0796H111.147Z" fill="#60D3FF"/>
<path d="M102.616 46.1679C102.694 45.7367 104.615 34.5787 109.41 35.1144C114.205 35.6501 115.577 38.1979 116.1 46.9388C116.609 55.6796 108.404 62.4868 106.235 61.5722C104.066 60.6446 100.918 55.6666 102.629 46.1679H102.616Z" fill="#FCFEFF"/>
<path d="M111.865 44.025C111.865 44.025 109.396 51.0804 110.48 53.0533C111.552 55.0262 114.034 49.3949 114.126 47.8401C114.217 46.2853 113.015 40.0399 111.865 44.025Z" fill="#A5E4FC"/>
<path d="M130.962 72.8475C137.622 71.3821 142.095 65.9893 140.954 60.8025C139.813 55.6157 133.489 52.5989 126.829 54.0643C120.169 55.5298 115.696 60.9225 116.837 66.1094C117.978 71.2962 124.302 74.313 130.962 72.8475Z" fill="white"/>
<path d="M140.374 63.4411C141.302 67.6482 137.67 72.0383 132.261 73.2272C126.852 74.4162 121.717 71.9729 120.789 67.7527C119.861 63.5456 123.494 59.1556 128.903 57.9666C134.312 56.7776 139.447 59.2209 140.374 63.4411Z" fill="#ADE8FF"/>
<path d="M130.576 28.9606L128.459 27.4972C128.459 27.4972 129.609 25.6942 131.346 25.1846C133.084 24.6751 154.525 27.8761 157.948 36.9306C161.737 46.978 159.072 48.6243 159.072 48.6243C159.072 48.6243 159.346 44.6524 158.066 44.2996C156.785 43.9468 156.498 44.7961 156.498 44.7961H155.165C154.695 44.7961 151.69 40.4844 148.867 38.2764C146.032 36.0683 137.866 32.1747 136.311 32.2008C134.744 32.227 130.589 28.9475 130.589 28.9475L130.576 28.9606Z" fill="white"/>
<path d="M128.459 27.5107C128.459 27.5107 129.922 35.3109 130.171 35.4808C130.432 35.6506 147.483 38.3813 150.919 42.7191C154.342 47.0569 154.773 49.082 154.773 49.082C154.773 49.082 159.66 45.5543 155.204 36.9441C150.749 28.3339 128.459 27.5107 128.459 27.5107Z" fill="#A5E4FC"/>
<path d="M35.3916 66.3548V48.2459L58.8182 34.71V52.8189L35.3916 66.3548Z" fill="#5ACAF6"/>
<path d="M49.8675 48.3376L49.0967 49.3829L58.8306 51.3035V52.8322L56.8446 53.982C56.8446 53.982 47.2806 52.1266 47.1238 52.0874C46.9931 52.2573 37.4422 65.1922 37.4422 65.1922L35.417 66.3682V64.8787L45.1509 51.6955L35.417 49.801V48.2723L37.403 47.1095L46.3398 48.8602C46.3398 48.8602 47.1368 49.004 47.1499 49.0301C47.2544 48.8472 47.9208 47.9457 47.9208 47.9457L56.8054 35.9253L58.8306 34.7363V36.2389L49.8675 48.3638V48.3376Z" fill="#14B4F2"/>
<path d="M35.3916 66.3545L36.7766 65.5575L47.1245 51.5642L47.4512 51.6165C47.4512 51.6165 47.7517 51.6818 47.8301 51.6949C47.9084 51.6949 57.5117 53.5894 57.5117 53.5894L58.8182 52.8316V51.7994L48.7708 49.8265C48.7708 49.8265 48.5487 49.7873 48.5225 49.6958C48.5487 49.6174 48.7577 49.3431 48.7577 49.3431L58.8182 35.7156V34.7227L57.4463 35.5197L47.1114 49.5129L36.7243 47.4878L35.3916 48.2717V49.2908L45.7918 51.329L35.3916 65.4138V66.3806V66.3545Z" fill="white"/>
<path d="M35.3916 58.7899V55.811L58.8313 42.2881V45.267L35.3916 58.7899Z" fill="#14B4F2"/>
<path d="M35.3916 57.9141V56.686L58.8182 43.1631V44.3913L35.3916 57.9141Z" fill="white"/>
<path d="M45.6602 60.4219V42.313L48.5607 40.6406V58.7495L45.6602 60.4219Z" fill="#14B4F2"/>
<path d="M46.3135 60.0571V41.9351L47.8944 41.0205V59.1425L46.3135 60.0571Z" fill="white"/>
</g>
</g>
<defs>
<clipPath id="clip0_4234_10918">
<path d="M0 16C0 7.16345 7.16344 0 16 0H175V109H0V16Z" fill="white"/>
</clipPath>
</defs>
</svg>
