<svg width="101" height="72" viewBox="0 0 101 72" fill="none" xmlns="http://www.w3.org/2000/svg">
<g opacity="0.8">
<g clip-path="url(#clip0_4706_5490)">
<path d="M46.0927 11.9299C46.1046 13.6517 44.9884 15.3735 42.7322 16.7153C38.2198 19.387 30.8574 19.4582 26.2856 16.8815C24.0057 15.5991 22.8538 13.8892 22.8301 12.1674L23.2338 51.305C23.2457 53.0268 24.4094 54.7248 26.6894 56.0191C31.2611 58.5958 38.6235 58.5127 43.1359 55.8528C45.3921 54.5229 46.5083 52.7893 46.4965 51.0675L46.0927 11.9299Z" fill="#B0F2EC"/>
<path d="M42.6353 7.21617C38.0636 4.63946 30.7012 4.72258 26.1888 7.38241C21.6764 10.0422 21.7239 14.3051 26.2838 16.8818C30.8556 19.4585 38.2179 19.3754 42.7303 16.7156C47.2427 14.0439 47.1952 9.79289 42.6353 7.21617Z" fill="#EBFFFD"/>
<path d="M69.6212 37.1633L55.5615 45.4753L55.7396 62.2299L69.7993 53.9179L69.6212 37.1633Z" fill="#CCEDEB"/>
<path d="M55.5619 45.4757L41.3359 37.4487L41.5022 54.2033L55.74 62.2303L55.5619 45.4757Z" fill="#C8FBF7"/>
<path d="M69.6216 37.1635L55.3956 29.1365L41.3359 37.4485L55.5619 45.4755L69.6216 37.1635Z" fill="#EFFEFD"/>
<path d="M6.97698 32.911L12.4182 42.9389L9.62182 41.3273L4.1875 31.2993L6.97698 32.911Z" fill="#BCF4EF"/>
<path d="M19.6015 13.585L14.2016 16.705L11.4053 15.0865L16.812 11.9734L19.6015 13.585Z" fill="white"/>
<path d="M14.2011 16.7049L11.3979 33.7855L8.6084 32.1739L11.4048 15.0864L14.2011 16.7049Z" fill="#BCF4EF"/>
<path d="M8.69194 28.7855L3.08543 32.0294L0.289062 30.4109L5.89558 27.1738L8.69194 28.7855Z" fill="white"/>
<path d="M3.08543 32.0294V35.1631L0.289062 33.5515V30.4109L3.08543 32.0294Z" fill="#C7F6F2"/>
<path d="M19.6024 13.585V16.7187L16.4066 18.5645L12.4186 42.9388L6.97744 32.9108L3.08594 35.163V32.0292L8.69245 28.7853L11.3993 33.7855L14.2025 16.7049L19.6024 13.585Z" fill="#7CE4D9"/>
<path d="M20.3567 55.854C20.1707 55.9642 20.0054 56.0537 19.847 56.1501L18.373 55.303C18.5315 55.2066 18.6968 55.117 18.8827 55.0068L20.3567 55.854Z" fill="white"/>
<path d="M19.8456 56.1501C19.8042 56.3843 19.7698 56.5978 19.7216 56.8113C19.5356 57.5689 19.1706 58.2163 18.5714 58.6915C17.979 59.1599 17.4211 59.2976 17.0423 59.0772L15.5684 58.2301C15.9472 58.4505 16.5051 58.3196 17.0974 57.8444C17.6897 57.3692 18.0617 56.7218 18.2476 55.9642C18.3027 55.7438 18.3303 55.5303 18.3716 55.303L19.8456 56.1501Z" fill="#B1FBF3"/>
<path d="M15.348 50.0205C15.348 51.6872 13.8534 61.2262 15.8439 62.3695L14.37 61.5223C14.1564 61.3983 13.9705 61.1917 13.8396 60.9162C12.6756 58.485 13.874 50.2684 13.874 49.1733L15.348 50.0205Z" fill="#C7F6F2"/>
<path d="M10.3346 52.9128C10.3071 53.388 10.004 57.7959 9.84559 59.5797C9.71472 61.0261 9.30147 62.5206 8.54383 64.0427C8.13746 64.8554 7.37982 66.6599 8.16501 67.1145L6.69106 66.2673C6.09184 65.923 6.42245 64.8279 6.64974 64.1736C6.99412 63.168 8.1168 61.5564 8.37852 58.7326C8.54383 56.9488 8.83999 52.5409 8.86754 52.0657L10.3415 52.9128H10.3346Z" fill="#C7F6F2"/>
<path d="M20.3421 44.6689C8.37149 51.5838 11.8015 49.5934 10.1416 50.5989C7.95134 51.9282 6.9182 54.931 6.39474 57.4862C6.40852 57.5069 4.93457 56.6598 4.93457 56.6598C5.44425 54.0908 6.4774 51.0741 8.66765 49.7518C10.3276 48.7462 6.89754 50.7298 18.8682 43.8218L20.3421 44.6689Z" fill="#EDFFFE"/>
<path d="M20.3429 44.6687V47.1137C19.2271 47.7542 18.1182 48.3947 16.9817 49.0559C16.9128 49.7102 16.5202 55.041 16.4376 57.0521C16.4169 57.5893 16.4996 58.099 16.6373 58.5191C16.9335 59.4351 17.8082 59.2974 18.5727 58.6913C19.1651 58.2161 19.537 57.5687 19.723 56.8111C19.7781 56.5907 19.8056 56.3772 19.847 56.1499C20.0054 56.0535 20.1707 55.9639 20.3566 55.8537C20.2051 57.1623 20.0329 58.4571 19.3648 59.8415C18.9585 60.6955 18.435 61.4462 17.7531 61.9697C17.0299 62.5275 16.3412 62.6584 15.8453 62.3691C13.8547 61.219 15.3493 51.5078 15.3493 50.0202C14.2198 50.6745 13.104 51.315 11.9606 51.9762C11.6576 56.5493 11.5129 60.4682 10.6658 64.2356C10.4109 65.3582 9.69462 67.1352 8.5375 67.1903C7.95894 67.2178 7.76609 66.6875 7.84185 66.1021C7.93139 65.4064 8.24134 64.6488 8.54439 64.0428C9.30203 62.5207 9.71528 61.0261 9.84615 59.5798C10.0114 57.796 10.3076 53.3881 10.3352 52.9128C8.88877 53.698 8.08981 54.3454 7.11866 56.7353C6.93269 57.1899 6.73295 57.4309 6.40234 57.5067C6.91203 54.9377 7.94517 51.9211 10.1354 50.5987C11.7953 49.5931 8.36531 51.5767 20.336 44.6687H20.3429Z" fill="#7CE4D9"/>
<path d="M94.7197 56.2775L75.1934 44.941L80.7654 39.011L100.299 50.3475L94.7197 56.2775Z" fill="#99ECE4"/>
<path d="M77.5966 43.6325L80.2689 40.788C80.6546 40.3817 81.2676 40.2853 81.7567 40.5676L97.6188 49.776C98.2938 50.1686 98.4247 51.0846 97.8943 51.6494L95.2219 54.4938C94.8362 54.9002 94.2232 54.9966 93.7342 54.7142L77.8721 45.5059C77.1971 45.1133 77.0662 44.1973 77.5966 43.6325Z" fill="#35B597"/>
<path d="M94.3409 54.8794C93.9759 54.8794 95.1812 55.5199 78.0173 45.5402C77.5007 45.244 77.4043 44.5415 77.8107 44.1076L80.4831 41.2631C80.6552 41.0772 80.9032 40.9739 81.158 40.9739C81.5231 40.9739 80.3178 40.3333 97.4817 50.3131C97.9982 50.6092 98.0947 51.3117 97.6883 51.7456L95.0159 54.5901C94.8437 54.7761 94.5958 54.8794 94.3409 54.8794Z" fill="#D7FAF8"/>
<path d="M74.7041 67.8344L55.1777 56.4979L75.1931 44.9409L94.7195 56.2775L74.7041 67.8344Z" fill="#9FEEE7"/>
<path d="M74.7041 70.6237L55.1777 59.2803V56.4978L74.7041 67.8343V70.6237Z" fill="#81E6DB"/>
<path d="M100.299 50.3477V55.8437L74.7051 70.624V67.8346L94.7205 56.2776L100.299 50.3477Z" fill="#43C7B1"/>
<path d="M77.7292 47.6612V48.591C77.7292 48.77 77.6052 48.956 77.371 49.0937L75.8351 49.9891C75.353 50.2715 74.5747 50.2715 74.0857 49.9891L72.5359 49.0937C72.288 48.956 72.1709 48.77 72.1709 48.5841V47.6543C72.1709 47.8403 72.2949 48.0262 72.5359 48.164L74.0857 49.0593C74.5678 49.3417 75.353 49.3417 75.8351 49.0593L77.371 48.164C77.6121 48.0262 77.7292 47.8471 77.7292 47.6612Z" fill="white" fill-opacity="0.5"/>
<path d="M73.3972 50.1612V51.091C73.3972 51.27 73.2732 51.456 73.039 51.5937L71.5031 52.4891C71.0209 52.7715 70.2426 52.7715 69.7536 52.4891L68.2039 51.5937C67.956 51.456 67.8389 51.27 67.8389 51.0841V50.1543C67.8389 50.3403 67.9628 50.5262 68.2039 50.664L69.7536 51.5593C70.2358 51.8417 71.0209 51.8417 71.5031 51.5593L73.039 50.664C73.2801 50.5262 73.3972 50.3471 73.3972 50.1612Z" fill="white" fill-opacity="0.5"/>
<path d="M69.0983 52.6407V53.5705C69.0983 53.7495 68.9744 53.9355 68.7402 54.0732L67.2042 54.9686C66.7221 55.251 65.9438 55.251 65.4548 54.9686L63.9051 54.0732C63.6571 53.9355 63.54 53.7495 63.54 53.5636V52.6338C63.54 52.8197 63.664 53.0057 63.9051 53.1434L65.4548 54.0388C65.9369 54.3212 66.7221 54.3212 67.2042 54.0388L68.7402 53.1434C68.9812 53.0057 69.0983 52.8266 69.0983 52.6407Z" fill="white" fill-opacity="0.5"/>
<path d="M64.8366 55.0997V56.0295C64.8366 56.2085 64.7126 56.3945 64.4785 56.5322L62.9425 57.4276C62.4604 57.71 61.6821 57.71 61.1931 57.4276L59.6434 56.5322C59.3954 56.3945 59.2783 56.2085 59.2783 56.0226V55.0928C59.2783 55.2787 59.4023 55.4647 59.6434 55.6024L61.1931 56.4978C61.6752 56.7802 62.4604 56.7802 62.9425 56.4978L64.4785 55.6024C64.7195 55.4647 64.8366 55.2856 64.8366 55.0997Z" fill="white" fill-opacity="0.5"/>
<path d="M77.3712 48.157L75.8353 49.0524C75.3531 49.3348 74.5748 49.3348 74.0858 49.0524L72.5361 48.157C72.0609 47.8815 72.0402 47.4339 72.5361 47.1446L74.072 46.2492C74.5542 45.9669 75.3325 45.9738 75.8215 46.2492L77.3712 47.1446C77.8396 47.4132 77.8671 47.8678 77.3712 48.1501V48.157Z" fill="white"/>
<path d="M73.0389 50.657L71.5029 51.5524C71.0208 51.8348 70.2425 51.8348 69.7535 51.5524L68.2038 50.657C67.7285 50.3815 67.701 49.9339 68.2038 49.6446L69.7397 48.7492C70.2218 48.4669 71.0001 48.4738 71.4891 48.7492L73.0389 49.6446C73.5072 49.9132 73.5348 50.3678 73.0389 50.6502V50.657Z" fill="white"/>
<path d="M68.741 53.1434L67.2051 54.0387C66.7229 54.3211 65.9446 54.3211 65.4556 54.0387L63.9059 53.1434C63.4307 52.8679 63.4031 52.4202 63.9059 52.1309L65.4418 51.2356C65.924 50.9532 66.7023 50.9601 67.1913 51.2356L68.741 52.1309C69.2094 52.3995 69.2369 52.8541 68.741 53.1365V53.1434Z" fill="white"/>
<path d="M64.4773 55.6024L62.9414 56.4977C62.4593 56.7801 61.681 56.7801 61.1919 56.4977L59.6422 55.6024C59.167 55.3269 59.1394 54.8792 59.6422 54.5899L61.1782 53.6946C61.6603 53.4122 62.4386 53.4191 62.9276 53.6946L64.4773 54.5899C64.9457 54.8585 64.9732 55.3131 64.4773 55.5955V55.6024Z" fill="white"/>
<path d="M82.3161 50.3062V51.236C82.3161 51.4151 82.1921 51.601 81.958 51.7388L80.422 52.6341C79.9399 52.9165 79.1616 52.9165 78.6726 52.6341L77.1229 51.7388C76.8749 51.601 76.7578 51.4151 76.7578 51.2291V50.2993C76.7578 50.4853 76.8818 50.6712 77.1229 50.809L78.6726 51.7043C79.1547 51.9867 79.9399 51.9867 80.422 51.7043L81.958 50.809C82.199 50.6712 82.3161 50.4922 82.3161 50.3062Z" fill="white" fill-opacity="0.5"/>
<path d="M77.9841 52.8062V53.736C77.9841 53.9151 77.8601 54.101 77.6259 54.2388L76.09 55.1341C75.6079 55.4165 74.8296 55.4165 74.3405 55.1341L72.7908 54.2388C72.5429 54.101 72.4258 53.9151 72.4258 53.7291V52.7993C72.4258 52.9853 72.5498 53.1712 72.7908 53.309L74.3405 54.2043C74.8227 54.4867 75.6079 54.4867 76.09 54.2043L77.6259 53.309C77.867 53.1712 77.9841 52.9922 77.9841 52.8062Z" fill="white" fill-opacity="0.5"/>
<path d="M73.6794 55.2925V56.2223C73.6794 56.4014 73.5554 56.5874 73.3212 56.7251L71.7853 57.6204C71.3032 57.9028 70.5249 57.9028 70.0358 57.6204L68.4861 56.7251C68.2382 56.5874 68.1211 56.4014 68.1211 56.2154V55.2856C68.1211 55.4716 68.2451 55.6576 68.4861 55.7953L70.0358 56.6907C70.518 56.973 71.3032 56.973 71.7853 56.6907L73.3212 55.7953C73.5623 55.6576 73.6794 55.4785 73.6794 55.2925Z" fill="white" fill-opacity="0.5"/>
<path d="M69.4235 57.7515V58.6813C69.4235 58.8604 69.2996 59.0463 69.0654 59.1841L67.5294 60.0794C67.0473 60.3618 66.269 60.3618 65.78 60.0794L64.2303 59.1841C63.9823 59.0463 63.8652 58.8604 63.8652 58.6744V57.7446C63.8652 57.9306 63.9892 58.1165 64.2303 58.2543L65.78 59.1496C66.2621 59.432 67.0473 59.432 67.5294 59.1496L69.0654 58.2543C69.3064 58.1165 69.4235 57.9375 69.4235 57.7515Z" fill="#DDF6F2"/>
<path d="M81.9578 50.8089L80.4219 51.7042C79.9397 51.9866 79.1614 51.9866 78.6724 51.7042L77.1227 50.8089C76.6475 50.5334 76.6199 50.0857 77.1227 49.7965L78.6586 48.9011C79.1408 48.6187 79.9191 48.6256 80.4081 48.9011L81.9578 49.7965C82.4262 50.0651 82.4537 50.5196 81.9578 50.802V50.8089Z" fill="white"/>
<path d="M77.6258 53.3089L76.0898 54.2042C75.6077 54.4866 74.8294 54.4866 74.3404 54.2042L72.7907 53.3089C72.3154 53.0334 72.2879 52.5857 72.7907 52.2965L74.3266 51.4011C74.8087 51.1187 75.587 51.1256 76.0761 51.4011L77.6258 52.2965C78.0941 52.5651 78.1217 53.0196 77.6258 53.302V53.3089Z" fill="white"/>
<path d="M73.3214 55.7886L71.7855 56.684C71.3033 56.9664 70.525 56.9664 70.036 56.684L68.4863 55.7886C68.011 55.5131 67.9904 55.0655 68.4863 54.7762L70.0222 53.8808C70.5044 53.5985 71.2827 53.6053 71.7717 53.8808L73.3214 54.7762C73.7898 55.0448 73.8173 55.4994 73.3214 55.7817V55.7886Z" fill="white"/>
<path d="M69.0642 58.2542L67.5283 59.1496C67.0462 59.4319 66.2679 59.4319 65.7789 59.1496L64.2291 58.2542C63.7539 57.9787 63.7263 57.531 64.2291 57.2418L65.7651 56.3464C66.2472 56.064 67.0255 56.0709 67.5145 56.3464L69.0642 57.2418C69.5326 57.5104 69.5602 57.9649 69.0642 58.2473V58.2542Z" fill="white"/>
<path d="M86.9714 52.9922V53.922C86.9714 54.1011 86.8474 54.2871 86.6132 54.4248L85.0773 55.3202C84.5952 55.6025 83.8169 55.6025 83.3278 55.3202L81.7781 54.4248C81.5302 54.2871 81.4131 54.1011 81.4131 53.9151V52.9854C81.4131 53.1713 81.5371 53.3573 81.7781 53.495L83.3278 54.3904C83.81 54.6727 84.5952 54.6727 85.0773 54.3904L86.6132 53.495C86.8543 53.3573 86.9714 53.1782 86.9714 52.9922Z" fill="white" fill-opacity="0.5"/>
<path d="M82.6442 55.4925V56.4223C82.6442 56.6013 82.5203 56.7873 82.2861 56.9251L80.7501 57.8204C80.268 58.1028 79.4897 58.1028 79.0007 57.8204L77.451 56.9251C77.203 56.7873 77.0859 56.6013 77.0859 56.4154V55.4856C77.0859 55.6716 77.2099 55.8575 77.451 55.9953L79.0007 56.8906C79.4828 57.173 80.268 57.173 80.7501 56.8906L82.2861 55.9953C82.5271 55.8575 82.6442 55.6784 82.6442 55.4925Z" fill="white" fill-opacity="0.5"/>
<path d="M78.3415 57.9786V58.9084C78.3415 59.0874 78.2175 59.2734 77.9833 59.4111L76.4474 60.3065C75.9653 60.5889 75.187 60.5889 74.698 60.3065L73.1482 59.4111C72.9003 59.2734 72.7832 59.0874 72.7832 58.9015V57.9717C72.7832 58.1576 72.9072 58.3436 73.1482 58.4813L74.698 59.3767C75.1801 59.6591 75.9653 59.6591 76.4474 59.3767L77.9833 58.4813C78.2244 58.3436 78.3415 58.1645 78.3415 57.9786Z" fill="white" fill-opacity="0.5"/>
<path d="M74.0778 60.4373V61.3671C74.0778 61.5462 73.9539 61.7321 73.7197 61.8699L72.1837 62.7652C71.7016 63.0476 70.9233 63.0476 70.4343 62.7652L68.8846 61.8699C68.6366 61.7321 68.5195 61.5462 68.5195 61.3602V60.4304C68.5195 60.6164 68.6435 60.8023 68.8846 60.9401L70.4343 61.8354C70.9164 62.1178 71.7016 62.1178 72.1837 61.8354L73.7197 60.9401C73.9607 60.8023 74.0778 60.6233 74.0778 60.4373Z" fill="#DDF6F2"/>
<path d="M86.614 53.4949L85.0781 54.3903C84.596 54.6727 83.8177 54.6727 83.3287 54.3903L81.7789 53.4949C81.3037 53.2194 81.2762 52.7718 81.7789 52.4825L83.3149 51.5871C83.797 51.3048 84.5753 51.3116 85.0643 51.5871L86.614 52.4825C87.0824 52.7511 87.11 53.2057 86.614 53.488V53.4949Z" fill="white"/>
<path d="M82.2879 55.9949L80.7519 56.8903C80.2698 57.1727 79.4915 57.1727 79.0025 56.8903L77.4528 55.9949C76.9775 55.7194 76.95 55.2718 77.4528 54.9825L78.9887 54.0871C79.4708 53.8048 80.2491 53.8116 80.7382 54.0871L82.2879 54.9825C82.7562 55.2511 82.7838 55.7057 82.2879 55.988V55.9949Z" fill="white"/>
<path d="M77.9832 58.4813L76.4473 59.3766C75.9651 59.659 75.1868 59.659 74.6978 59.3766L73.1481 58.4813C72.6728 58.2058 72.6453 57.7581 73.1481 57.4688L74.684 56.5735C75.1662 56.2911 75.9445 56.298 76.4335 56.5735L77.9832 57.4688C78.4515 57.7374 78.4791 58.192 77.9832 58.4744V58.4813Z" fill="white"/>
<path d="M73.7189 60.9402L72.1829 61.8356C71.7008 62.118 70.9225 62.118 70.4335 61.8356L68.8838 60.9402C68.4085 60.6648 68.3878 60.2171 68.8838 59.9278L70.4197 59.0325C70.9018 58.7501 71.6801 58.757 72.1691 59.0325L73.7189 59.9278C74.1872 60.1964 74.2148 60.651 73.7189 60.9334V60.9402Z" fill="white"/>
<path d="M91.5593 55.6436V56.5734C91.5593 56.7525 91.4353 56.9384 91.2011 57.0762L89.6652 57.9715C89.1831 58.2539 88.4048 58.2539 87.9157 57.9715L86.366 57.0762C86.1181 56.9384 86.001 56.7525 86.001 56.5665V55.6367C86.001 55.8227 86.125 56.0086 86.366 56.1464L87.9157 57.0417C88.3979 57.3241 89.1831 57.3241 89.6652 57.0417L91.2011 56.1464C91.4422 56.0086 91.5593 55.8296 91.5593 55.6436Z" fill="#63D0C0"/>
<path d="M87.2272 58.1439V59.0736C87.2272 59.2527 87.1033 59.4387 86.8691 59.5764L85.3332 60.4718C84.851 60.7542 84.0727 60.7542 83.5837 60.4718L82.034 59.5764C81.786 59.4387 81.6689 59.2527 81.6689 59.0668V58.137C81.6689 58.3229 81.7929 58.5089 82.034 58.6466L83.5837 59.542C84.0658 59.8244 84.851 59.8244 85.3332 59.542L86.8691 58.6466C87.1102 58.5089 87.2272 58.3298 87.2272 58.1439Z" fill="#43C7B1"/>
<path d="M82.9216 60.6231V61.5529C82.9216 61.732 82.7976 61.9179 82.5634 62.0557L81.0275 62.951C80.5454 63.2334 79.7671 63.2334 79.278 62.951L77.7283 62.0557C77.4804 61.9179 77.3633 61.732 77.3633 61.546V60.6162C77.3633 60.8022 77.4873 60.9881 77.7283 61.1259L79.278 62.0212C79.7602 62.3036 80.5454 62.3036 81.0275 62.0212L82.5634 61.1259C82.8045 60.9881 82.9216 60.8091 82.9216 60.6231Z" fill="#43C7B1"/>
<path d="M78.6657 63.0887V64.0185C78.6657 64.1975 78.5417 64.3835 78.3076 64.5212L76.7716 65.4166C76.2895 65.699 75.5112 65.699 75.0222 65.4166L73.4725 64.5212C73.2245 64.3835 73.1074 64.1975 73.1074 64.0116V63.0818C73.1074 63.2677 73.2314 63.4537 73.4725 63.5915L75.0222 64.4868C75.5043 64.7692 76.2895 64.7692 76.7716 64.4868L78.3076 63.5915C78.5486 63.4537 78.6657 63.2746 78.6657 63.0887Z" fill="#43C7B1"/>
<path d="M91.2003 56.1463L89.6644 57.0416C89.1822 57.324 88.4039 57.324 87.9149 57.0416L86.3652 56.1463C85.89 55.8708 85.8693 55.4231 86.3652 55.1339L87.9011 54.2385C88.3833 53.9561 89.1616 53.963 89.6506 54.2385L91.2003 55.1339C91.6687 55.4025 91.6962 55.857 91.2003 56.1394V56.1463Z" fill="white"/>
<path d="M86.8692 58.6463L85.3333 59.5416C84.8512 59.824 84.0729 59.824 83.5839 59.5416L82.0341 58.6463C81.5589 58.3708 81.5382 57.9231 82.0341 57.6339L83.5701 56.7385C84.0522 56.4561 84.8305 56.463 85.3195 56.7385L86.8692 57.6339C87.3376 57.9025 87.3652 58.357 86.8692 58.6394V58.6463Z" fill="white"/>
<path d="M82.5642 61.1258L81.0283 62.0211C80.5462 62.3035 79.7679 62.3035 79.2789 62.0211L77.7291 61.1258C77.2539 60.8503 77.2263 60.4026 77.7291 60.1133L79.2651 59.218C79.7472 58.9356 80.5255 58.9425 81.0145 59.218L82.5642 60.1133C83.0326 60.382 83.0602 60.8365 82.5642 61.1189V61.1258Z" fill="white"/>
<path d="M78.3067 63.5848L76.7708 64.4801C76.2887 64.7625 75.5104 64.7625 75.0214 64.4801L73.4716 63.5848C72.9964 63.3093 72.9757 62.8616 73.4716 62.5723L75.0076 61.677C75.4897 61.3946 76.268 61.4015 76.757 61.677L78.3067 62.5723C78.7751 62.8409 78.8027 63.2955 78.3067 63.5779V63.5848Z" fill="white"/>
<path d="M55.1777 56.4978C76.9426 68.9707 74.8281 67.7173 74.6352 67.7173L94.685 56.2085L100.305 50.3474L94.7746 56.3394L74.7041 67.9927L55.1846 56.4978H55.1777Z" fill="white" fill-opacity="0.3"/>
</g>
</g>
<defs>
<clipPath id="clip0_4706_5490">
<path d="M0 0H100.603V72H16C7.16344 72 0 64.8366 0 56V0Z" fill="white"/>
</clipPath>
</defs>
</svg>
