<svg width="88" height="72" viewBox="0 0 88 72" fill="none" xmlns="http://www.w3.org/2000/svg">
<g clip-path="url(#clip0_4706_4012)">
<path d="M82.1113 7.64751C82.3552 7.80616 83.9102 8.55056 84.0138 11.4916C84.1053 14.0177 83.0321 17.3248 80.8247 21.3214C78.477 25.5804 75.7391 28.4604 72.678 29.8882C70.556 30.8767 69.3669 30.2299 69.1962 30.1323L68.0742 29.4855C68.245 29.5831 69.434 30.2299 71.5561 29.2414C74.6171 27.8136 77.3611 24.9336 79.7027 20.6746C81.904 16.678 82.9772 13.3709 82.8918 10.8448C82.7882 7.90378 81.2332 7.15938 80.9893 7.00073L82.1113 7.64751Z" fill="#BCE2AD"/>
<path d="M68.5868 31.2C68.5868 31.2 68.6417 31.2305 68.6844 31.2549C68.6844 31.2549 67.4831 30.5593 67.4648 30.5471L68.5868 31.1939V31.2Z" fill="#CCE9BF"/>
<path d="M68.5443 31.1758L67.4407 30.5412C67.4224 30.529 68.5443 31.1758 68.5443 31.1758Z" fill="#CCE9BF"/>
<path d="M82.6618 6.48217C82.2532 6.2503 80.5337 5.44488 77.8933 6.84217C75.4115 8.15403 72.8566 10.9608 70.3077 15.1832C68.8137 17.6605 67.7588 20.0767 67.1795 22.3588C67.0332 22.9323 66.9173 23.4998 66.832 24.0612L65.71 23.4144C65.7953 22.8591 65.9112 22.2917 66.0575 21.7181C66.6368 19.4361 67.6917 17.0198 69.1857 14.5425C71.7346 10.3201 74.2834 7.51336 76.7713 6.20149C79.4117 4.8042 81.1374 5.60963 81.5398 5.84149L82.6618 6.48827V6.48217Z" fill="#BCE2AD"/>
<path d="M66.8251 24.0611L67.5203 25.3729L66.3922 24.7262L65.7031 23.4082L66.8251 24.0611Z" fill="#CCE9BF"/>
<path d="M67.5215 25.3731C67.4788 25.5989 67.241 26.8741 66.8446 28.6619L65.7227 28.0151C66.119 26.2273 66.3507 24.9521 66.3995 24.7263L67.5215 25.3731Z" fill="#CCE9BF"/>
<path d="M66.8446 28.6617C67.1617 30.2664 68.0276 30.8827 68.3935 31.0963L67.2715 30.4495C66.9056 30.2359 66.0397 29.6196 65.7227 28.0149L66.8446 28.6617Z" fill="#CCE9BF"/>
<path d="M74.5087 28.8451C74.338 28.9916 72.9904 30.1509 71.6794 31.3468C69.0024 33.7936 64.8376 37.8451 62.8437 41.1034L61.7217 40.4566C63.7218 37.1983 67.8804 33.1468 70.5574 30.7C71.8684 29.498 72.8257 28.6865 72.9904 28.54L74.5087 28.8451Z" fill="#BCE2AD"/>
<path d="M62.8368 41.1033L63.4466 41.5243L62.3246 40.8776L61.7148 40.4565L62.8368 41.1033Z" fill="#CCE9BF"/>
<path d="M75.8798 28.8452C73.5993 30.755 66.2636 36.9361 63.4526 41.5245L62.8428 41.1035C64.8428 37.8452 69.0015 33.7937 71.6785 31.3469C72.9895 30.1449 73.9468 29.3334 74.1115 29.1869L75.3615 28.8452H75.8798Z" fill="#CCE9BF"/>
<path d="M66.8244 24.0611C66.3122 26.996 64.7329 36.057 62.1718 40.7858L61.0498 40.139C63.6109 35.4102 65.1902 26.3431 65.7024 23.4143L66.8244 24.0611Z" fill="#BCE2AD"/>
<path d="M66.8257 24.061L67.5148 25.379C67.4721 25.6048 67.2343 26.88 66.8379 28.6678C66.0513 32.219 64.6366 37.7776 62.8378 41.1092L62.167 40.7919C64.7281 36.0631 66.3135 26.996 66.8196 24.0671L66.8257 24.061Z" fill="#CCE9BF"/>
<path d="M66.8243 24.061L67.5133 25.379C67.4706 25.6048 67.2328 26.88 66.8365 28.6678C66.7694 28.3261 66.7145 27.9539 66.6779 27.5573C66.5804 26.4468 66.6291 25.2753 66.8182 24.061H66.8243Z" fill="#CCE9BF"/>
<path d="M71.6789 31.3464C72.99 30.1444 74.24 29.0522 74.4047 28.8997L75.5144 29.1254C74.5693 29.8881 73.5876 30.5044 72.5936 30.9681C72.2765 31.1146 71.9716 31.2427 71.6729 31.3464H71.6789Z" fill="#CCE9BF"/>
<path d="M80.8921 20.4976C80.8921 20.4976 80.8678 20.4976 80.8556 20.4854L70.7332 14.64C70.6966 14.6217 70.6844 14.5728 70.7027 14.5362C70.721 14.4996 70.7698 14.4874 70.8064 14.5057L80.9287 20.3511C80.9653 20.3695 80.9775 20.4183 80.9592 20.4549C80.947 20.4793 80.9165 20.4915 80.8921 20.4915V20.4976Z" fill="#C9E8BB"/>
<path d="M80.27 21.6389C80.27 21.6389 80.2457 21.6389 80.2335 21.6267L70.0867 15.763C70.0502 15.7447 70.038 15.6959 70.0563 15.6593C70.0745 15.6227 70.1233 15.6105 70.1599 15.6288L80.3066 21.4925C80.3432 21.5108 80.3554 21.5596 80.3371 21.5962C80.3249 21.6206 80.2944 21.6328 80.27 21.6328V21.6389Z" fill="#C9E8BB"/>
<path d="M79.5943 22.7493C79.5943 22.7493 79.5699 22.7493 79.5577 22.7371L69.4354 16.8917C69.3988 16.8734 69.3866 16.8246 69.4049 16.7879C69.4232 16.7513 69.472 16.7391 69.5086 16.7574L79.6309 22.6029C79.6675 22.6212 79.6797 22.67 79.6614 22.7066C79.6492 22.731 79.6187 22.7432 79.5943 22.7432V22.7493Z" fill="#C9E8BB"/>
<path d="M81.5081 19.2777C81.5081 19.2777 81.4837 19.2777 81.4715 19.2655L71.5809 13.5482C71.5443 13.5299 71.5321 13.481 71.5504 13.4444C71.5748 13.4078 71.6175 13.3956 71.6541 13.4139L81.5447 19.1312C81.5813 19.1495 81.5934 19.1983 81.5752 19.2349C81.563 19.2594 81.5325 19.2716 81.5081 19.2716V19.2777Z" fill="#C9E8BB"/>
<path d="M78.8562 23.9024C78.8562 23.9024 78.8318 23.9024 78.8196 23.8902L68.9168 18.1668C68.8802 18.1485 68.868 18.0997 68.8863 18.0631C68.9046 18.0265 68.9534 18.0143 68.99 18.0326L78.8928 23.756C78.9294 23.7743 78.9416 23.8231 78.9233 23.8597C78.9111 23.8841 78.8806 23.8963 78.8562 23.8963V23.9024Z" fill="#C9E8BB"/>
<path d="M82.0682 18.0509C82.0682 18.0509 82.0438 18.0509 82.0316 18.0387L72.452 12.5045C72.4154 12.4862 72.4032 12.4373 72.4215 12.4007C72.4398 12.3641 72.4886 12.3519 72.5252 12.3702L82.1048 17.9045C82.1414 17.9228 82.1536 17.9716 82.1353 18.0082C82.1231 18.0326 82.0926 18.0448 82.0682 18.0448V18.0509Z" fill="#C9E8BB"/>
<path d="M78.0562 24.9889C78.0562 24.9889 78.0318 24.9889 78.0196 24.9767L68.4461 19.4486C68.4095 19.4241 68.3973 19.3814 68.4156 19.3448C68.4339 19.3082 68.4827 19.296 68.5193 19.3143L78.0928 24.8425C78.1294 24.8669 78.1416 24.9096 78.1233 24.9462C78.1111 24.9706 78.0806 24.9828 78.0562 24.9828V24.9889Z" fill="#C9E8BB"/>
<path d="M82.594 16.7636C82.594 16.7636 82.5696 16.7636 82.5574 16.7514L73.4656 11.4979C73.4291 11.4796 73.4169 11.4308 73.4352 11.3941C73.4535 11.3575 73.5022 11.3453 73.5388 11.3636L82.6306 16.6172C82.6672 16.6355 82.6794 16.6843 82.6611 16.7209C82.6489 16.7453 82.6184 16.7575 82.594 16.7575V16.7636Z" fill="#C9E8BB"/>
<path d="M77.1673 26.0688C77.1673 26.0688 77.1429 26.0688 77.1307 26.0566L68.0877 20.8336C68.0511 20.8153 68.0389 20.7664 68.0572 20.7298C68.0816 20.6932 68.1243 20.681 68.1609 20.6993L77.2039 25.9224C77.2405 25.9407 77.2527 25.9895 77.2344 26.0261C77.2222 26.0505 77.1917 26.0627 77.1673 26.0627V26.0688Z" fill="#C9E8BB"/>
<path d="M83.1184 15.1954C83.1184 15.1954 83.094 15.1954 83.0818 15.1832L74.4656 10.2042C74.4291 10.1859 74.4169 10.1371 74.4352 10.1004C74.4596 10.0638 74.5022 10.0516 74.5388 10.0699L83.155 15.0489C83.1916 15.0733 83.2038 15.116 83.1855 15.1526C83.1733 15.1771 83.1428 15.1893 83.1184 15.1893V15.1954Z" fill="#C9E8BB"/>
<path d="M76.0087 27.2706C76.0087 27.2706 75.9843 27.2706 75.9721 27.2584L67.4657 22.3404C67.4291 22.316 67.4169 22.2733 67.4352 22.2367C67.4535 22.2001 67.5022 22.1879 67.5388 22.2062L76.0452 27.1241C76.0818 27.1485 76.094 27.1913 76.0757 27.2279C76.0635 27.2523 76.033 27.2645 76.0087 27.2645V27.2706Z" fill="#C9E8BB"/>
<path d="M67.5442 22.5297C67.5442 22.5297 67.5198 22.5297 67.5076 22.5175C67.4711 22.4992 67.4589 22.4504 67.4772 22.4138L74.7884 9.74058C74.8067 9.70397 74.8555 9.69176 74.8921 9.71007C74.9286 9.72838 74.9408 9.77719 74.9225 9.8138L67.6113 22.487C67.6113 22.487 67.5686 22.5236 67.5442 22.5236V22.5297Z" fill="#C9E8BB"/>
<path d="M83.4592 13.7861C83.4592 13.7861 83.4348 13.7861 83.4226 13.7739L75.5809 9.2403C75.5443 9.222 75.5321 9.17318 75.5504 9.13657C75.5687 9.09996 75.6175 9.08776 75.6541 9.10607L83.4958 13.6396C83.5324 13.6579 83.5446 13.7067 83.5263 13.7434C83.5141 13.7678 83.4836 13.78 83.4592 13.78V13.7861Z" fill="#C9E8BB"/>
<path d="M74.8926 28.2348C74.8926 28.2348 74.8682 28.2348 74.856 28.2226L67.2948 23.8538C67.2582 23.8355 67.246 23.7867 67.2643 23.7501C67.2826 23.7135 67.3313 23.7013 67.3679 23.7196L74.9292 28.0884C74.9658 28.1067 74.978 28.1555 74.9597 28.1921C74.9475 28.2165 74.917 28.2287 74.8926 28.2287V28.2348Z" fill="#C9E8BB"/>
<path d="M67.0745 24.9583C67.0745 24.9583 67.0501 24.9583 67.0379 24.946C67.0013 24.9277 66.9891 24.8789 67.0074 24.8423L76.5809 8.24571C76.6053 8.2091 76.648 8.19689 76.6846 8.2152C76.7212 8.2335 76.7334 8.28232 76.7151 8.31893L67.1416 24.9155C67.1416 24.9155 67.0989 24.9521 67.0745 24.9521V24.9583Z" fill="#C9E8BB"/>
<path d="M67.0931 26.7949C67.0931 26.7949 67.0687 26.7949 67.0565 26.7826C67.0199 26.7643 67.0077 26.7155 67.026 26.6789L78.1422 7.40977C78.1605 7.37316 78.2093 7.36095 78.2459 7.37926C78.2825 7.39756 78.2947 7.44638 78.2764 7.48299L67.1601 26.7521C67.1601 26.7521 67.1174 26.7888 67.0931 26.7888V26.7949Z" fill="#C9E8BB"/>
<path d="M67.5022 27.6734C67.5022 27.6734 67.4778 27.6734 67.4657 27.6612C67.4291 27.6429 67.4169 27.5941 67.4352 27.5575L79.2344 7.10459C79.2527 7.06798 79.3015 7.05578 79.338 7.07408C79.3746 7.09239 79.3868 7.1412 79.3685 7.17781L67.5693 27.6307C67.5693 27.6307 67.5266 27.6673 67.5022 27.6673V27.6734Z" fill="#C9E8BB"/>
<path d="M67.7093 28.8693C67.7093 28.8693 67.6849 28.8693 67.6727 28.8571C67.6361 28.8388 67.6239 28.79 67.6422 28.7534L80.167 7.04356C80.1914 7.00695 80.2341 6.99474 80.2707 7.01305C80.3073 7.03135 80.3195 7.08017 80.3012 7.11678L67.7763 28.8266C67.7763 28.8266 67.7337 28.8632 67.7093 28.8632V28.8693Z" fill="#C9E8BB"/>
<path d="M68.2034 29.5893C68.2034 29.5893 68.179 29.5893 68.1668 29.5771C68.1302 29.5588 68.118 29.51 68.1363 29.4734L81.0514 7.09238C81.0697 7.05577 81.1185 7.04357 81.1551 7.06188C81.1917 7.08018 81.2039 7.129 81.1856 7.16561L68.2705 29.5466C68.2705 29.5466 68.2278 29.5832 68.2034 29.5832V29.5893Z" fill="#C9E8BB"/>
<path d="M68.8567 29.9678C68.8567 29.9678 68.8323 29.9678 68.8201 29.9555C68.7836 29.9372 68.7714 29.8884 68.7897 29.8518L81.7048 7.4708C81.7231 7.43419 81.7718 7.42199 81.8084 7.44029C81.845 7.4586 81.8572 7.50741 81.8389 7.54402L68.9238 29.925C68.9238 29.925 68.8811 29.9616 68.8567 29.9616V29.9678Z" fill="#C9E8BB"/>
<path d="M69.5022 30.3398C69.5022 30.3398 69.4778 30.3398 69.4657 30.3276C69.4291 30.3093 69.4169 30.2605 69.4352 30.2239L82.3503 7.84287C82.3747 7.80626 82.4173 7.79406 82.4539 7.81236C82.4905 7.83067 82.5027 7.87948 82.4844 7.91609L69.5693 30.2971C69.5693 30.2971 69.5266 30.3337 69.5022 30.3337V30.3398Z" fill="#C9E8BB"/>
<path d="M70.3753 30.4069C70.3753 30.4069 70.3509 30.4069 70.3387 30.3947C70.3021 30.3764 70.2899 30.3276 70.3082 30.291L82.8331 8.58115C82.8513 8.54454 82.9001 8.53234 82.9367 8.55065C82.9733 8.56895 82.9855 8.61776 82.9672 8.65438L70.4424 30.3642C70.4424 30.3642 70.3997 30.4008 70.3753 30.4008V30.4069Z" fill="#C9E8BB"/>
<path d="M71.5081 29.9859C71.5081 29.9859 71.4837 29.9859 71.4715 29.9737C71.4349 29.9554 71.4227 29.9066 71.441 29.87L83.2402 9.41709C83.2646 9.38048 83.3073 9.36828 83.3439 9.38658C83.3805 9.40489 83.3927 9.4537 83.3744 9.49031L71.5752 29.9432C71.5752 29.9432 71.5325 29.9798 71.5081 29.9798V29.9859Z" fill="#C9E8BB"/>
<path d="M72.4778 29.9006C72.4778 29.9006 72.4534 29.9006 72.4412 29.8884C72.4047 29.8701 72.3925 29.8212 72.4107 29.7846L83.527 10.5155C83.5514 10.4789 83.5941 10.4667 83.6307 10.485C83.6673 10.5033 83.6795 10.5521 83.6612 10.5887L72.5449 29.8579C72.5449 29.8579 72.5022 29.8945 72.4778 29.8945V29.9006Z" fill="#C9E8BB"/>
<path d="M74.2395 28.7166C74.2395 28.7166 74.2152 28.7166 74.203 28.7044C74.1664 28.6861 74.1542 28.6373 74.1725 28.6007L83.5814 12.2909C83.5996 12.2543 83.6484 12.2421 83.685 12.2604C83.7216 12.2787 83.7338 12.3275 83.7155 12.3641L74.3066 28.6739C74.3066 28.6739 74.2639 28.7105 74.2395 28.7105V28.7166Z" fill="#C9E8BB"/>
<path d="M75.9407 27.3806C75.9407 27.3806 75.9163 27.3806 75.9041 27.3684C75.8675 27.3501 75.8553 27.3012 75.8736 27.2646L83.1849 14.5914C83.2032 14.5548 83.252 14.5426 83.2885 14.5609C83.3251 14.5792 83.3373 14.628 83.319 14.6646L76.0078 27.3379C76.0078 27.3379 75.9651 27.3745 75.9407 27.3745V27.3806Z" fill="#C9E8BB"/>
<path d="M82.6606 6.48236C82.7093 6.51287 82.7398 6.53117 82.752 6.53727L82.1118 7.64168C82.1118 7.64168 82.0935 7.62948 82.063 7.61117C81.7764 7.44642 80.191 6.65931 77.8311 7.91015C75.6054 9.09388 73.2761 11.6749 70.9162 15.5861C68.4039 19.7474 67.2819 23.5671 67.5807 26.9291C67.7881 29.26 68.9771 29.9922 69.154 30.0959C69.1601 30.0959 69.1906 30.1203 69.1966 30.1203C69.3674 30.2179 70.5565 30.8647 72.6785 29.8763C75.7396 28.4485 78.4836 25.5685 80.8251 21.3095C83.0264 17.3129 84.0996 14.0057 84.0143 11.4796C83.9106 8.53863 82.3557 7.79422 82.1118 7.63558L82.752 6.53117C82.752 6.53117 82.7947 6.54948 82.8435 6.57998C83.252 6.81185 84.807 7.90405 84.9167 10.8939C85.0204 13.7068 83.8679 17.319 81.4898 21.639C80.0934 24.1712 78.5324 26.2946 76.8494 27.942C76.4103 28.3691 75.9713 28.7657 75.5201 29.1257L74.1176 29.1807C73.9468 29.3271 72.9956 30.1447 71.6845 31.3407C70.0199 31.9325 69.0198 31.4444 68.6905 31.2552C68.6479 31.2308 68.6113 31.2125 68.593 31.2003C68.5259 31.1576 68.471 31.1332 68.3978 31.0905C68.032 30.8769 67.1661 30.2607 66.849 28.6559C66.6905 27.5454 66.788 26.1908 66.8307 25.9651V24.0491C66.9161 23.4939 67.0319 22.9264 67.1783 22.3468C67.7576 20.0647 68.8125 17.6485 70.3065 15.1712C72.8553 10.9488 75.4042 8.14202 77.8921 6.83015C80.5324 5.43287 82.2581 6.23829 82.6606 6.47015V6.48236Z" fill="#CCE9BF"/>
<path d="M63.7253 41.2564L61.0801 39.8401L54.0002 53.0802L56.6455 54.4965L63.7253 41.2564Z" fill="#D6EDCC"/>
<path d="M45.7461 4.16177L8.56448 27.1167L7.02441 26.2276L44.206 3.27271" fill="#F5FBF3"/>
<path d="M3.83407 87.8862L7.59962 85.5408L6.36418 51.519L2.59863 53.856L3.83407 87.8862Z" fill="#BCE2AB"/>
<path d="M12.2387 37.5312L8.47318 39.8767C4.67378 42.2391 2.42292 47.0824 2.60062 53.8647L6.36616 51.5193C6.18 44.7454 8.43933 39.8936 12.2387 37.5312Z" fill="#BCE2AB"/>
<path d="M23.7471 38.2425L27.5126 35.8971C21.0392 32.4085 15.0313 31.9852 10.5888 34.6947L6.82324 37.0402C11.2573 34.3306 17.2737 34.7624 23.7471 38.2425Z" fill="#E84343"/>
<path d="M23.8223 40.9012L27.5878 38.5643L27.5116 35.9055L23.7461 38.2425L23.8223 40.9012Z" fill="#E84343"/>
<path d="M23.7463 38.2423C17.2729 34.7537 11.265 34.3304 6.82248 37.0399C2.38844 39.7495 0.0529573 45.2702 0.247581 52.5944L1.48302 86.6161L3.83543 87.8862L2.59999 53.8645C2.22767 40.2236 11.7473 34.4066 23.814 40.9095L23.7378 38.2507L23.7463 38.2423Z" fill="#C7E7B9"/>
<path d="M45.7461 4.16187L8.56445 27.1507L9.5545 60.2156L46.7361 37.2268L45.7461 4.16187Z" fill="#EDF7E9"/>
<path d="M9.55452 60.2152L8.01446 59.3262L7.02441 26.2612L8.56448 27.1503L9.55452 60.2152Z" fill="#DCF0D3"/>
<path d="M19.7847 51.7737L19.3193 36.2615L35.9047 26.0076L36.3701 41.5197L19.7847 51.7737ZM22.0779 37.7433L22.3572 46.9981L33.62 40.0295L33.3407 30.7747L22.0779 37.7433Z" fill="#CFEAC2"/>
<path d="M31.8691 49.1313L35.6347 46.7943L35.677 45.4988L31.9114 47.8442L31.8691 49.1313Z" fill="#A7CD96"/>
<path d="M31.9117 47.8445L35.6772 45.4991L31.6747 43.3484L27.9092 45.6938L31.9117 47.8445Z" fill="#C0E4B1"/>
<path d="M27.9092 45.6936L27.9853 48.3523L31.8694 49.1313L31.9117 47.8443L27.9092 45.6936Z" fill="#A7CD96"/>
<path d="M47.6094 67.0999C47.6094 67.0491 47.6094 67.0068 47.6094 66.9644C47.6179 66.9306 47.6094 67.0999 47.6094 67.0999Z" fill="white" fill-opacity="0.8"/>
<path d="M47.6015 66.9896C47.6015 67.0319 47.6015 67.0743 47.6015 67.1166C47.5676 67.1843 47.4999 67.142 47.4407 67.0997C47.4407 67.0997 47.2715 66.9642 47.1699 66.7864C47.4153 67.0404 47.5338 67.0997 47.6015 66.9981V66.9896Z" fill="white" fill-opacity="0.8"/>
<path d="M47.146 66.754C47.146 66.754 47.1112 66.7021 47.0938 66.6848C47.0938 66.6848 47.1112 66.7079 47.146 66.754Z" fill="white" fill-opacity="0.8"/>
<path d="M48.6761 60.2158C48.659 60.3005 48.642 60.3767 48.625 60.4614C48.6335 60.4021 48.642 60.3513 48.6505 60.292L48.6761 60.2158Z" fill="white" fill-opacity="0.8"/>
<path d="M45.8652 64.771C45.8652 64.771 45.916 64.8557 45.9414 64.898C45.1036 65.2367 44.4267 65.1605 44.1728 65.1097C44.139 65.1012 44.1051 65.0928 44.0713 65.0758C44.8667 65.1351 45.2983 65.0165 45.8652 64.771Z" fill="white" fill-opacity="0.8"/>
<path d="M47.3555 63.3232C47.3837 63.4473 47.3922 63.5207 47.3809 63.5433C47.3217 63.6449 47.2709 63.7127 47.2455 63.7465C46.7717 64.407 46.4501 64.6271 46.0693 64.8388C46.0439 64.7965 46.0185 64.7541 45.9932 64.7033C46.2809 64.5425 46.7717 64.2292 47.3555 63.3147V63.3232Z" fill="white" fill-opacity="0.8"/>
<path d="M47.4395 63.179C47.5664 62.8657 47.761 62.5947 47.9049 62.2899C48.2518 61.5363 48.4803 60.825 48.5649 60.5541C48.5733 60.5287 48.5818 60.4863 48.5987 60.4609C48.5903 60.5371 48.5733 60.6133 48.5649 60.698C48.548 60.7742 48.548 60.7996 48.5226 60.8674C48.0572 62.3915 47.6087 63.1536 47.4648 63.3991C47.4564 63.2975 47.4395 63.179 47.4395 63.179Z" fill="white" fill-opacity="0.8"/>
<path d="M39.9252 65.2286C39.9252 65.2286 39.9507 65.2286 40.0018 65.2117C39.9678 65.2117 39.9337 65.2286 39.9082 65.2371H39.9337L39.9252 65.2286Z" fill="white" fill-opacity="0.8"/>
<path d="M47.2042 57.159C47.159 57.2268 46.9926 57.4921 46.7049 57.9549C46.688 57.8618 46.6711 57.7687 46.6542 57.6755C46.6542 57.6671 46.6457 57.6501 46.6542 57.6332C46.6626 57.6078 46.688 57.5824 46.7049 57.557C46.7557 57.4723 47.0519 56.9812 47.0519 56.9812C47.0688 56.9812 47.0772 56.9981 47.0942 57.0066C47.1196 57.0235 47.2211 57.0913 47.2465 57.1082C47.238 57.1251 47.2211 57.1421 47.2126 57.159H47.2042Z" fill="white" fill-opacity="0.8"/>
<path d="M44.1477 61.7739C44.1477 61.7739 44.0969 61.8332 44.08 61.8671C43.1576 63.0864 42.5145 63.6791 42.0661 64.0601C42.0322 64.0347 41.9899 64.0093 41.9561 63.9754C42.6245 63.3827 43.2253 62.6969 43.9784 61.6808C43.9954 61.6554 44.0292 61.613 44.0461 61.5876C44.08 61.6469 44.1138 61.7147 44.1477 61.7739Z" fill="white" fill-opacity="0.8"/>
<path d="M46.5083 58.2854C45.6791 59.6063 44.9429 60.7071 44.3252 61.5453C44.2913 61.4776 44.2575 61.4183 44.2236 61.3506C44.909 60.3853 45.5691 59.3777 46.4491 57.9721C46.4745 57.9383 46.4999 57.8959 46.5168 57.8621C46.5337 57.9467 46.5507 58.0314 46.5676 58.1161C46.5676 58.1838 46.5507 58.2177 46.5083 58.2854Z" fill="white" fill-opacity="0.8"/>
<path d="M41.8037 64.1109C41.8037 64.1109 41.8375 64.0855 41.846 64.0686C41.8799 64.094 41.9137 64.1194 41.956 64.1448C41.9391 64.1533 41.9222 64.1702 41.9137 64.1787C40.9575 64.9323 40.2383 65.1355 40.0859 65.1694C40.6698 64.9323 41.2029 64.6105 41.8037 64.1025V64.1109Z" fill="white" fill-opacity="0.8"/>
<path d="M39.7064 62.0108C39.7064 62.0108 39.6726 62.087 39.6556 62.1209C38.9956 63.5434 38.5471 64.3901 38.2171 64.9744C38.1833 64.9659 38.1579 64.949 38.124 64.9405C38.5894 64.043 39.0125 63.1624 39.5287 61.9939C39.5456 61.96 39.5625 61.9177 39.5795 61.8838C39.6218 61.9261 39.6556 61.9769 39.6979 62.0193L39.7064 62.0108Z" fill="white" fill-opacity="0.8"/>
<path d="M41.6012 57.1254C41.6266 57.0746 41.652 57.0069 41.6689 56.9561C41.7112 57.0407 41.762 57.1339 41.8043 57.2185C41.7789 57.2693 40.1965 60.9442 39.8157 61.774C39.7734 61.7232 39.7396 61.6724 39.6973 61.63C39.875 61.2321 39.9427 61.0627 41.6012 57.1339V57.1254Z" fill="white" fill-opacity="0.8"/>
<path d="M41.7861 56.6767C41.9469 56.3295 42.2262 55.7368 42.2262 55.7368C42.2346 55.7368 42.4377 55.7368 42.4885 55.7368C42.4631 55.7876 42.4292 55.8638 42.4039 55.9231C42.1923 56.3634 42.0654 56.6428 41.9384 56.9392C41.9046 56.8714 41.8031 56.6767 41.8031 56.6767H41.7861Z" fill="white" fill-opacity="0.8"/>
<path d="M38.0206 65.152C38.0206 65.152 38.046 65.1012 38.0545 65.0842C38.0799 65.0927 38.1137 65.1096 38.1391 65.1181C38.1306 65.1435 38.1137 65.1604 38.1053 65.1858C37.8345 65.66 37.1067 66.9047 36.9883 67.0571C36.9883 67.0571 37.6314 65.8886 38.0206 65.152Z" fill="white" fill-opacity="0.8"/>
<path d="M36.9485 58.5479C36.9485 58.4886 36.9654 58.4124 36.9738 58.3616C37.0641 58.497 37.1008 58.6241 37.0838 58.7426C36.8384 60.4022 36.6692 62.0195 36.5677 63.6706C36.3561 63.298 36.94 58.5987 36.94 58.5479H36.9485Z" fill="white" fill-opacity="0.8"/>
<path d="M36.5505 64.0261C36.4569 65.8296 36.4994 66.7356 36.5249 67.3368C36.5164 67.2606 36.3888 66.2868 36.4824 63.9329C36.4824 63.8906 36.4824 63.8482 36.4824 63.8059C36.4994 63.8228 36.5164 63.8482 36.5334 63.8652C36.559 63.9075 36.5505 63.9329 36.5505 64.0176V64.0261Z" fill="white" fill-opacity="0.8"/>
<path d="M36.541 67.5568V67.4722C36.541 67.4722 36.541 67.4891 36.541 67.5653L36.558 67.7093L36.541 67.5568Z" fill="white" fill-opacity="0.8"/>
<path d="M37.1936 56.9641L37.2106 56.854C37.2106 56.854 37.3121 56.8032 37.329 56.7948C37.3629 56.7778 37.3883 56.7609 37.4221 56.7524C37.2867 57.4383 37.2106 57.9379 37.1683 58.2342C37.1175 58.1665 37.0752 58.0987 37.0244 58.0395C37.0244 57.9802 37.0836 57.633 37.1936 56.9726V56.9641Z" fill="white" fill-opacity="0.8"/>
<path d="M34.8734 59.843L34.8564 59.7584C34.8564 59.7076 34.8564 59.6822 34.8649 59.6652C34.8649 59.6483 34.8649 59.6229 34.8649 59.606C34.8734 59.6652 34.8903 59.7414 34.8988 59.7922C35.0003 60.3426 35.0849 60.7575 35.1442 61.0285C35.1272 60.9946 35.1188 60.9692 35.1103 60.9353C35.0595 60.7999 35.0341 60.639 34.8734 59.843Z" fill="white" fill-opacity="0.8"/>
<path d="M35.2547 61.5284L35.2718 61.6131C35.2718 61.6131 35.1867 61.2998 35.1611 61.2151C35.1952 61.3054 35.2235 61.4098 35.2462 61.5284H35.2547Z" fill="white" fill-opacity="0.8"/>
<path d="M48.7594 59.225C48.7763 59.3097 48.7763 59.3436 48.7848 59.3774C48.7425 59.6653 48.6579 60.275 48.624 60.4528C48.624 60.4867 48.5394 60.8846 48.5225 60.927C48.5309 60.8507 48.5817 60.5375 48.5902 60.4613C48.6663 59.9278 48.7255 59.479 48.7594 59.2166V59.225Z" fill="white" fill-opacity="0.8"/>
<path d="M46.5683 58.1157C46.5514 58.031 46.5344 57.9463 46.5175 57.8617C46.4244 57.4129 46.3229 56.9726 46.2129 56.5408C46.2383 56.5492 46.4075 56.6339 46.4244 56.6424C46.8645 58.4798 47.2368 60.9523 47.4399 63.1792C47.4399 63.2384 47.4483 63.2977 47.4568 63.357C47.5922 64.8134 47.6514 66.1597 47.6091 67.1334C47.6091 67.1588 47.6006 67.2858 47.6006 67.2858C47.6006 67.2265 47.6006 67.0233 47.6006 66.981C47.6176 64.9827 47.2537 61.4434 46.5598 58.1157H46.5683Z" fill="white" fill-opacity="0.8"/>
<path d="M41.2203 55.7705H41.2965C41.4742 56.1007 47.2029 66.8458 47.2198 66.8796C47.1944 66.8458 47.1691 66.8034 47.1437 66.7611C44.7405 63.3149 43.0989 59.4369 41.0342 55.7874C41.0934 55.7874 41.1611 55.779 41.2203 55.7705Z" fill="white" fill-opacity="0.8"/>
<path d="M36.3115 57.4302C36.3708 57.3879 36.43 57.3456 36.4892 57.3032C36.6754 57.5572 37.1154 58.1669 37.1662 58.2346C38.1901 59.6402 39.0024 60.7494 39.7047 61.63C39.7471 61.6808 39.7809 61.7316 39.8232 61.774C41.4733 63.84 42.4718 64.6105 44.0796 65.0847C44.1134 65.0932 44.198 65.1186 44.198 65.1186C44.1388 65.1016 43.9949 65.0762 43.9949 65.0762C43.2249 64.8645 42.5818 64.5682 41.9641 64.1448C41.9302 64.1194 41.8964 64.094 41.8541 64.0686C40.314 62.9763 38.9263 61.0458 36.32 57.4218L36.3115 57.4302Z" fill="white" fill-opacity="0.8"/>
<path d="M35.112 60.944C35.112 60.944 35.1373 61.0033 35.1458 61.0371C35.5435 62.0109 35.992 62.9338 36.5589 63.662C37.3882 64.7289 38.4883 65.3809 40.0453 65.1777C40.1045 65.1777 40.1468 65.1692 40.1806 65.1607C40.1129 65.1777 40.0537 65.1946 39.986 65.2115C39.3006 65.3385 38.6829 65.3131 38.1329 65.1184C38.1075 65.1099 38.0736 65.093 38.0482 65.0845C37.4898 64.8644 36.982 64.4664 36.5251 63.8737C36.5082 63.8568 36.4913 63.8314 36.4743 63.8144C35.992 63.1709 35.5604 62.3157 35.1543 61.2234C35.1543 61.2065 35.0443 60.8339 35.0273 60.7747C35.0527 60.8339 35.0697 60.8932 35.095 60.944H35.112Z" fill="white" fill-opacity="0.8"/>
<path d="M36.9882 67.0572C36.9882 67.0572 37.0136 67.0233 37.0305 67.0063C37.0051 67.0487 36.9797 67.0826 36.9543 67.1249C36.6836 67.4975 36.5736 67.5906 36.5312 67.4636C36.5312 67.4382 36.5059 67.2942 36.5059 67.2942C36.5059 67.3112 36.5228 67.3281 36.5312 67.345C36.5989 67.4467 36.7089 67.4043 36.9882 67.0572Z" fill="white" fill-opacity="0.8"/>
<path d="M36.5668 67.7096C36.5668 67.6673 36.5583 67.6165 36.5498 67.5657C36.5498 67.5657 36.5753 67.8112 36.5838 67.9044C36.5838 67.9044 36.5668 67.7689 36.5583 67.7096H36.5668Z" fill="#DBDBDB" fill-opacity="0.8"/>
<path d="M35.2799 61.6214C35.2461 61.4859 35.2122 61.3589 35.1699 61.2234C35.1699 61.2573 35.1953 61.3335 35.2038 61.3843C35.3645 62.0786 35.4153 62.2903 35.6438 63.1793C35.6438 63.1793 35.3984 62.104 35.2799 61.6214Z" fill="#DBDBDB" fill-opacity="0.8"/>
<path d="M35.1695 61.2148C35.0934 61.0116 35.0172 60.7915 34.9157 60.4866C34.9072 60.4358 34.8903 60.385 34.8818 60.3342C34.9326 60.4612 34.9918 60.6391 35.0426 60.7661C35.0849 60.9185 35.1272 61.0709 35.1695 61.2148Z" fill="#DBDBDB" fill-opacity="0.8"/>
<path d="M36.534 67.455C36.534 67.455 36.5255 67.4127 36.5255 67.4042L36.5 67.2095C36.5 67.2095 36.5085 67.2687 36.517 67.2857C36.517 67.3449 36.534 67.3958 36.5425 67.455H36.534Z" fill="#DBDBDB" fill-opacity="0.8"/>
<path d="M36.5912 67.9548C36.5912 67.904 36.5742 67.8447 36.5742 67.7939C36.6083 68.031 36.6253 68.175 36.6678 68.3697C36.6678 68.4036 36.6678 68.4375 36.6763 68.4629C36.6508 68.3443 36.6253 68.1919 36.5912 67.9464V67.9548Z" fill="#DBDBDB" fill-opacity="0.8"/>
<path d="M35.6533 63.2301C35.6195 63.1031 35.5771 62.9422 35.5518 62.8152C35.5518 62.8152 35.6787 63.3232 35.721 63.4841C35.721 63.4841 35.6702 63.2724 35.6533 63.2216V63.2301Z" fill="#DBDBDB" fill-opacity="0.8"/>
<path d="M36.5077 67.3454V67.2522C36.4992 67.1845 36.4821 67.1167 36.4736 67.0405C36.4736 67.1337 36.4907 67.2099 36.4907 67.2099L36.5162 67.4046C36.5162 67.4046 36.5162 67.3623 36.5162 67.3454H36.5077Z" fill="#DBDBDB" fill-opacity="0.8"/>
<path d="M47.6176 67.0322L47.6346 66.8374C47.6346 66.8374 47.6346 66.8882 47.6176 66.9221C47.6176 66.9813 47.6091 67.0406 47.6006 67.0914C47.6006 67.0745 47.6006 67.0576 47.6091 67.0322H47.6176Z" fill="#DBDBDB" fill-opacity="0.8"/>
<path d="M48.7597 60.0466C48.7597 60.0466 48.7682 60.0043 48.7767 59.9874C48.7767 59.9366 48.7936 59.8858 48.7936 59.835C48.7936 59.835 48.709 60.1144 48.6836 60.216C48.6667 60.3007 48.6243 60.4954 48.6243 60.4954C48.6243 60.5377 48.6159 60.5716 48.6074 60.614C48.6497 60.4785 48.7005 60.3091 48.7597 60.0551V60.0466Z" fill="#DBDBDB"/>
<path d="M48.2529 62.5611C48.3883 61.8329 48.4306 61.5281 48.5322 60.9354C48.566 60.7829 48.5999 60.6221 48.6337 60.4612C48.4983 61.3248 48.3799 61.9091 48.3291 62.1885L48.2614 62.5611H48.2529Z" fill="#DBDBDB" fill-opacity="0.8"/>
<path d="M47.5918 67.5062C47.5918 67.4384 47.6088 67.1929 47.6088 67.1421C47.6088 67.2268 47.5918 67.5062 47.5918 67.5062Z" fill="#DBDBDB" fill-opacity="0.8"/>
<path d="M47.6191 66.8798C47.6191 66.8121 47.6362 66.7359 47.6447 66.6597C47.6447 66.7387 47.639 66.8629 47.6276 67.0322C47.6276 66.973 47.6276 66.9222 47.6276 66.8714L47.6191 66.8798Z" fill="#DBDBDB" fill-opacity="0.8"/>
<path d="M48.2012 62.8492L48.3288 62.1887C48.3288 62.1887 48.2267 62.7137 48.2012 62.8492Z" fill="#DBDBDB" fill-opacity="0.8"/>
<path d="M47.5332 68.0903C47.5587 67.8617 47.5757 67.7516 47.5928 67.5061V67.396C47.5928 67.523 47.5758 67.7008 47.5417 67.9972C47.5417 68.031 47.5417 68.0649 47.5417 68.0988L47.5332 68.0903Z" fill="#DBDBDB" fill-opacity="0.8"/>
<path d="M37.2691 63.7972C37.2521 63.7295 37.2436 63.6617 37.2266 63.594C37.2436 63.6617 37.2606 63.7295 37.2691 63.7972Z" fill="white" fill-opacity="0.8"/>
<path d="M36.6748 68.4716C36.6748 68.4716 36.751 68.9289 36.971 69.3183C36.8525 69.1321 36.751 68.9373 36.7002 68.7426C36.7002 68.7172 36.6917 68.6156 36.6748 68.4377C36.6748 68.4462 36.6748 68.4631 36.6748 68.4716Z" fill="white" fill-opacity="0.8"/>
<path d="M36.6774 68.4713L36.6689 68.3782C36.7705 68.8439 36.889 69.1741 37.0582 69.4451C37.0243 69.4027 36.999 69.3604 36.9736 69.318C36.7536 68.9286 36.6774 68.4713 36.6774 68.4713Z" fill="white" fill-opacity="0.8"/>
<path d="M38.249 69.7078C38.249 69.7078 38.2835 69.7419 38.2921 69.759C38.2921 69.759 38.2576 69.7163 38.249 69.7078Z" fill="white" fill-opacity="0.8"/>
<path d="M35.6279 63.0947C35.7125 63.4249 35.9156 64.1869 36.1949 65.0675C36.4318 65.8127 36.5475 66.1993 36.5418 66.2276C36.1695 65.1437 35.8902 64.1361 35.7295 63.4841L35.6279 63.0862V63.0947Z" fill="white" fill-opacity="0.8"/>
<path d="M36.6502 66.558C36.6163 66.4564 36.6079 66.4395 36.6163 66.3887C36.6333 66.3887 36.6586 66.4395 36.6671 66.4733C37.1748 67.8281 37.6571 68.7849 38.2241 69.5555C38.2241 69.5555 38.1733 69.5809 38.1564 69.5893C37.8095 69.1067 37.2764 68.2769 36.6502 66.558Z" fill="white" fill-opacity="0.8"/>
<path d="M37.252 63.9496C37.252 63.9496 37.269 63.8903 37.286 63.8564C37.303 63.9411 37.32 64.0173 37.337 64.102C37.337 64.102 37.269 63.975 37.252 63.9496Z" fill="white" fill-opacity="0.8"/>
<path d="M36.4639 62.4937C36.5231 62.536 36.5823 62.5699 36.65 62.6122C36.65 62.6122 36.98 63.2218 37.1577 63.5267C37.1577 63.5436 37.1154 63.6537 37.107 63.6875C36.9377 63.3827 36.4808 62.5275 36.4723 62.4937H36.4639Z" fill="white" fill-opacity="0.8"/>
<path d="M37.2521 63.9499C36.9813 64.7628 36.7613 65.6349 36.6259 66.3547C36.5583 66.7272 36.5244 67.0236 36.5075 67.2607C36.5075 67.2353 36.4736 67.0574 36.4736 67.049C36.4736 66.1514 36.8206 64.6019 37.1083 63.6874C37.1083 63.6874 37.176 63.4842 37.1844 63.4419C37.1929 63.4927 37.2691 63.8399 37.2775 63.8653C37.2691 63.8991 37.2437 63.9584 37.2437 63.9584L37.2521 63.9499Z" fill="white" fill-opacity="0.8"/>
<path d="M37.1074 63.6792C37.1074 63.6792 37.133 63.603 37.1415 63.5691C37.133 63.603 37.1159 63.6453 37.1074 63.6792Z" fill="white" fill-opacity="0.8"/>
<path d="M37.252 63.9504C37.252 63.9504 37.2691 63.8906 37.2862 63.8564C37.2776 63.8906 37.2691 63.9163 37.252 63.9504Z" fill="white" fill-opacity="0.8"/>
<path d="M37.056 69.4453C37.4622 69.9195 38.0038 69.6739 38.2238 69.5639C38.2576 69.5639 38.2746 69.6993 38.2746 69.6993C37.6653 69.9618 37.3437 69.7586 37.1491 69.5639C37.1237 69.5385 37.0984 69.5046 37.073 69.4792C37.0476 69.4453 37.056 69.4538 37.056 69.4538V69.4453Z" fill="white" fill-opacity="0.8"/>
<path d="M38.3021 69.6821C38.3529 69.6821 38.3782 69.7075 38.3867 69.7329C38.9536 70.4442 39.4783 70.8591 40.0875 71.0708C40.0706 71.0708 40.0537 71.0708 40.0368 71.0708C39.326 70.9522 38.3359 69.8599 38.2852 69.7329C38.2852 69.6991 38.3021 69.6906 38.3021 69.6906V69.6821Z" fill="white" fill-opacity="0.8"/>
<path d="M44.3351 70.9438C44.3351 70.9438 44.2837 70.9609 44.2666 70.9609C44.3094 70.9439 44.3179 70.9438 44.3351 70.9438Z" fill="white" fill-opacity="0.8"/>
<path d="M42.1849 70.5036C42.1849 70.5036 42.1341 70.4697 42.1172 70.4612C42.151 70.4358 42.1849 70.4104 42.2187 70.385C42.2357 70.4019 42.2695 70.4189 42.2864 70.4273C42.9803 70.8761 43.5726 71.037 44.1988 70.9608C44.1819 70.9608 44.165 70.9693 44.148 70.9777C43.9365 71.037 43.2088 71.1555 42.1849 70.5036Z" fill="white" fill-opacity="0.8"/>
<path d="M39.9847 68.3023C39.9847 68.3023 39.9339 68.2345 39.917 68.2091C39.9508 68.1668 39.9762 68.1329 40.0101 68.0906C40.0355 68.116 40.0608 68.1583 40.0778 68.1837C40.8224 69.1659 41.4486 69.8179 42.1086 70.3006C42.0748 70.326 42.0409 70.3514 42.0071 70.3852C41.5925 70.0889 40.924 69.547 39.9847 68.3023Z" fill="white" fill-opacity="0.8"/>
<path d="M37.4036 63.9499C38.3344 65.618 39.096 66.8458 39.866 67.9042C39.8407 67.9465 39.8068 67.9889 39.7814 68.0312C38.4952 66.2531 37.3275 64.077 37.3275 64.0685C37.3105 64.0007 37.3021 63.9415 37.2852 63.8737L37.3105 63.7891L37.4036 63.9499Z" fill="white" fill-opacity="0.8"/>
<path d="M44.2155 68.158C44.2155 68.158 44.1732 68.1072 44.1562 68.0902C44.1901 68.031 44.2324 67.9802 44.2663 67.9209C44.2832 67.9378 44.3086 67.9717 44.3255 67.9886C44.9601 68.7422 45.4594 69.1741 45.9502 69.3857C45.9248 69.4281 45.8909 69.4704 45.8656 69.5128C45.5525 69.3858 45.0363 69.1148 44.2155 68.158Z" fill="white" fill-opacity="0.8"/>
<path d="M41.1777 63.8482C41.1777 63.8482 41.4147 63.8313 41.4231 63.8313L41.4654 63.8906C41.8378 64.4325 41.8462 64.4325 41.9562 64.6188C41.9139 64.6865 41.8716 64.7542 41.8293 64.8135C41.7278 64.6526 41.6516 64.5341 41.1777 63.8482Z" fill="white" fill-opacity="0.8"/>
<path d="M42.041 65.1439C42.041 65.1439 41.9902 65.0677 41.9648 65.0338C42.0072 64.966 42.041 64.8983 42.0833 64.8306C42.1087 64.8644 42.1341 64.9068 42.1595 64.9491C43.0395 66.3123 43.598 67.1167 44.1565 67.8026C44.1226 67.8619 44.0888 67.9211 44.0465 67.972C43.6488 67.4893 43.0987 66.7781 42.041 65.1439Z" fill="white" fill-opacity="0.8"/>
<path d="M46.07 69.4283C46.5523 69.5807 46.9077 69.496 47.17 69.1658C47.1446 69.2081 47.1192 69.242 47.0854 69.2758C46.8061 69.5891 46.4338 69.6738 45.9853 69.5468C45.9684 69.5468 45.9515 69.5383 45.9346 69.5299C45.96 69.4875 45.9853 69.4537 46.0192 69.4113C46.0361 69.4113 46.053 69.4198 46.07 69.4283Z" fill="white" fill-opacity="0.8"/>
<path d="M47.5327 65.8464C47.575 66.0665 47.6258 66.3967 47.6427 66.6677C47.6427 66.6846 47.6258 66.8624 47.6173 66.8878C47.6089 66.7862 47.5835 66.5576 47.4735 66.0665C47.4735 66.0411 47.465 66.0242 47.4735 65.9903C47.4904 65.931 47.5073 65.8718 47.5243 65.8125C47.5243 65.8294 47.5243 65.8464 47.5327 65.8633V65.8464Z" fill="white" fill-opacity="0.8"/>
<path d="M46.8232 63.2728C46.9247 63.5437 47.1786 64.2719 47.4071 65.2287C47.4804 65.5279 47.4917 65.7537 47.4409 65.9061C47.1871 64.8646 46.8909 64.0602 46.6963 63.5437C46.6794 63.5098 46.6624 63.459 46.6455 63.4167C46.6455 63.3998 46.7386 63.222 46.7724 63.1458C46.7894 63.1796 46.8063 63.2304 46.8147 63.2728H46.8232Z" fill="white" fill-opacity="0.8"/>
<path d="M46.3835 62.8321C46.3835 62.8321 46.3581 62.7813 46.3496 62.7644C46.3581 62.7644 46.5188 62.6712 46.5612 62.6543C46.5612 62.6543 46.6796 62.8998 46.7135 62.9845C46.6712 63.0777 46.6204 63.1623 46.5781 63.2555C46.5358 63.1708 46.4765 63.0269 46.3835 62.8321Z" fill="white" fill-opacity="0.8"/>
<path d="M37.386 63.0015C37.4368 63.0269 37.6145 63.1031 37.6145 63.1031C37.5214 63.3063 37.403 63.5857 37.3099 63.7889L37.2845 63.8736C37.2845 63.8736 37.2083 63.5095 37.1914 63.4587C37.2506 63.3232 37.3268 63.1369 37.386 63.0015Z" fill="white" fill-opacity="0.8"/>
<path d="M41.8385 64.8139C41.8808 64.7462 42.2954 64.0858 42.4731 63.7979C42.5408 63.7979 42.7355 63.7725 42.7355 63.7725C39.4522 69.0391 39.3253 69.2339 38.3437 69.6657C38.3353 69.6657 38.2845 69.6911 38.2845 69.6911C38.2845 69.6911 38.2676 69.5557 38.2676 69.5387C38.8261 69.217 39.063 69.0815 39.7823 68.0315C39.8076 67.9892 39.8415 67.9469 39.8669 67.9045C40.2984 67.261 40.9077 66.2957 41.83 64.8139H41.8385Z" fill="white" fill-opacity="0.8"/>
<path d="M44.0558 67.9632C44.0897 67.904 44.1235 67.8447 44.1659 67.7939C44.9867 66.4899 45.7821 64.9065 46.586 63.2554C46.6283 63.1623 46.916 62.578 47.0175 62.3748C47.0683 62.3409 47.1191 62.3071 47.1698 62.2732C47.0683 62.5526 46.7129 63.3062 46.679 63.3824C44.6059 67.7431 42.5242 71.3925 40.1464 71.1046C40.0872 71.0962 40.028 71.0792 39.9688 71.0623C39.9941 71.0623 40.0195 71.0623 40.0449 71.0623C40.0618 71.0623 40.0788 71.0623 40.0957 71.0623C41.5342 71.1639 42.8204 69.8938 44.0558 67.9548V67.9632Z" fill="white" fill-opacity="0.8"/>
<path d="M48.2772 62.4341C48.2772 62.4341 48.2095 62.7897 48.201 62.849C48.0233 63.7719 47.8033 64.788 47.5241 65.7871C47.5071 65.8464 47.4902 65.9057 47.4733 65.965C46.8133 68.2596 45.8232 70.4018 44.2578 70.9607C44.1985 70.9776 44.1393 70.9861 44.0801 71.003C44.1055 71.003 44.1224 70.9861 44.1478 70.9776C44.1647 70.9776 44.1816 70.9692 44.1985 70.9607C46.4833 70.0631 47.5748 65.948 48.2772 62.4341Z" fill="white" fill-opacity="0.8"/>
<path d="M47.5331 67.989V68.0906C47.4654 68.5563 47.3724 68.8019 47.2877 68.9882C47.2708 69.022 47.2539 69.0559 47.2285 69.0898C47.3301 68.8866 47.4401 68.641 47.5331 67.9975V67.989Z" fill="white" fill-opacity="0.8"/>
<path d="M48.9625 59.1743L48.9795 59.1235L48.7764 59.9957C48.7764 59.9957 48.7764 59.9533 48.7764 59.9279C48.7764 59.911 48.7764 59.8941 48.7764 59.8856C48.8779 59.5046 48.9202 59.3183 48.9541 59.1828L48.9625 59.1743Z" fill="white" fill-opacity="0.8"/>
<path d="M50.6378 52.815C50.4178 52.9675 49.9355 53.3739 49.1654 54.2968C49.1654 54.2037 49.1316 54.1021 49.1654 54.0089C49.1824 53.9497 49.2585 53.9073 49.2924 53.865C49.5378 53.5856 50.1555 52.9167 50.6801 52.5864C50.6801 52.6542 50.6717 52.7219 50.6547 52.7981L50.6378 52.815Z" fill="white" fill-opacity="0.8"/>
<path d="M49.0052 54.5002C48.2097 55.4994 47.6343 56.4392 47.2705 57.0573L47.2366 57.1166C47.2366 57.1166 47.0589 56.9981 47.042 56.9896C47.6936 55.9058 48.3113 55.0252 48.9882 54.2039C49.0052 54.2885 49.0052 54.3817 49.0136 54.4833L48.9967 54.5002H49.0052Z" fill="white" fill-opacity="0.8"/>
<path d="M50.707 52.7733C50.724 52.6971 50.7409 52.6294 50.7493 52.5532C50.8424 52.5024 50.8932 52.4939 50.9355 52.4939L50.8593 52.6971C50.8593 52.6971 50.7663 52.731 50.707 52.7733Z" fill="white" fill-opacity="0.8"/>
<path d="M50.6037 48.6239C49.9521 48.4461 49.1144 48.5815 48.1328 49.0218C48.0989 48.9456 48.0651 48.8779 48.0312 48.8101C49.0298 48.3868 49.859 48.2682 50.5529 48.4545C50.5698 48.4545 50.5867 48.463 50.6037 48.4715C50.6206 48.5307 50.6375 48.5815 50.6544 48.6408C50.6375 48.6408 50.6206 48.6323 50.6037 48.6239Z" fill="white" fill-opacity="0.8"/>
<path d="M44.4787 51.7736C44.4787 51.7736 44.538 51.6974 44.5718 51.6636C44.6141 51.7482 44.6564 51.8329 44.6987 51.9261C44.6734 51.9599 44.6395 52.0023 44.6141 52.0446C43.421 53.6111 42.8033 55.059 42.5325 55.6771L42.4986 55.7618C42.4479 55.7618 42.2448 55.7618 42.2363 55.7618C42.8371 54.28 43.5733 52.9845 44.4872 51.7991L44.4787 51.7736Z" fill="white" fill-opacity="0.8"/>
<path d="M47.8705 49.1407C46.305 49.9281 45.205 51.2744 44.8496 51.7147C44.8073 51.6301 44.765 51.5454 44.7227 51.4607C45.7127 50.2668 46.6858 49.4624 47.7689 48.9205C47.7943 48.912 47.8282 48.8951 47.8536 48.8782C47.8874 48.9544 47.9213 49.0221 47.9551 49.0983C47.9297 49.1068 47.9043 49.1237 47.8789 49.1322L47.8705 49.1407Z" fill="white" fill-opacity="0.8"/>
<path d="M51.6971 49.8261C51.6971 49.8854 51.6971 49.9277 51.6971 49.9701C51.6378 49.3265 51.3163 48.9032 50.7578 48.683C50.7409 48.6237 50.724 48.5729 50.707 48.5137C51.2824 48.7508 51.6209 49.1741 51.6886 49.8346L51.6971 49.8261Z" fill="white" fill-opacity="0.8"/>
<path d="M38.7591 51.9008C38.6998 51.8415 38.6491 51.7738 38.5898 51.7145C39.3176 50.0211 40.1722 48.7256 41.2723 47.6248C41.3061 47.5909 41.3484 47.5571 41.3738 47.5232C41.433 47.574 41.4923 47.6163 41.5515 47.6671C41.5177 47.701 41.4754 47.7349 41.45 47.7687C39.8507 49.3606 39.0299 51.2742 38.7591 51.9008Z" fill="white" fill-opacity="0.8"/>
<path d="M48.5391 45.906C47.9467 45.6351 47.3036 45.4827 46.6182 45.4657C46.2628 45.4573 45.8905 45.4827 45.5266 45.5419C45.4335 45.5589 45.3743 45.5673 45.332 45.5589C45.2812 45.525 45.2305 45.4911 45.1797 45.4573C46.3136 45.2541 47.3036 45.3472 48.2767 45.7621C48.3444 45.796 48.4121 45.8298 48.4798 45.8637C48.5137 45.8806 48.5391 45.8976 48.5729 45.9145C48.556 45.9145 48.5391 45.8976 48.5306 45.8976L48.5391 45.906Z" fill="white" fill-opacity="0.8"/>
<path d="M44.8496 45.5335C44.8496 45.5335 44.9258 45.5165 44.9596 45.5081C45.0273 45.5504 45.0612 45.5758 45.1289 45.6181C45.095 45.6181 45.0527 45.6351 45.0189 45.6435C43.2842 46.0838 42.108 47.1507 41.7187 47.5063C41.6595 47.4555 41.6002 47.4132 41.541 47.3624C42.5903 46.4225 43.6396 45.8383 44.8496 45.5335Z" fill="white" fill-opacity="0.8"/>
<path d="M38.5883 52.3158C37.8267 54.2464 37.5475 55.9483 37.4544 56.5072L37.4205 56.7442C37.4205 56.7442 37.3444 56.7781 37.3105 56.8035C37.2851 56.812 37.2174 56.8543 37.209 56.8543C37.4375 55.2032 37.8436 53.6198 38.419 52.1295C38.436 52.0872 38.4613 52.0279 38.4783 51.9856C38.5375 52.0449 38.5883 52.1126 38.6475 52.1719C38.6306 52.2142 38.6052 52.2735 38.5883 52.3158Z" fill="white" fill-opacity="0.8"/>
<path d="M34.1875 54.8222C34.1875 54.7714 34.1875 54.7036 34.1875 54.6528C34.2665 54.7375 34.306 54.8363 34.306 54.9492C34.3737 56.9813 34.7375 58.878 34.8645 59.5893C34.8645 59.6401 34.8645 59.657 34.8645 59.674C34.8645 59.6909 34.8645 59.7163 34.8645 59.7332C34.4752 57.8789 34.2721 56.3463 34.196 54.8222H34.1875Z" fill="white" fill-opacity="0.8"/>
<path d="M39.1221 44.9831C38.7667 45.144 38.4198 45.3302 38.0898 45.5504C37.9544 45.6407 37.8275 45.6774 37.709 45.6605C38.7075 44.9577 39.7314 44.5766 40.933 44.4496C40.933 44.4496 41.0684 44.4412 41.1276 44.4412C41.1699 44.4412 41.3138 44.4412 41.3476 44.4412C41.3138 44.4412 41.2714 44.4412 41.2461 44.4412C40.5099 44.5089 39.7991 44.6867 39.1221 44.9915V44.9831Z" fill="white" fill-opacity="0.8"/>
<path d="M35.178 49.2338C35.1188 49.2084 35.068 49.1915 35.0088 49.1745C35.6096 47.7605 36.3796 46.7105 37.4374 45.8638C37.4712 45.8384 37.5051 45.813 37.5389 45.7876C37.5981 45.7876 37.6489 45.8045 37.7251 45.813C37.6912 45.8384 37.6574 45.8638 37.6235 45.8892C36.0835 47.117 35.398 48.7088 35.1696 49.2338H35.178Z" fill="white" fill-opacity="0.8"/>
<path d="M34.2822 52.0448C34.4345 50.7408 34.7645 49.8264 34.8745 49.53C34.883 49.4961 34.8999 49.4538 34.9168 49.4199C34.9676 49.4369 35.0268 49.4623 35.0776 49.4877C35.0607 49.5215 35.0438 49.5639 35.0353 49.5977C34.3499 51.4182 34.2822 53.2556 34.2907 54.4834C34.1891 54.3394 34.0537 53.9584 34.2822 52.0533V52.0448Z" fill="white" fill-opacity="0.8"/>
<path d="M32.3265 49.276C32.2165 49.7925 32.1827 50.3513 32.1996 50.961C32.225 51.6384 32.3773 52.2988 32.4619 52.9677C32.0896 51.5114 32.0304 50.3852 32.225 49.3099C32.225 49.2929 32.2335 49.2675 32.2419 49.2421C32.2758 49.2252 32.3011 49.2167 32.335 49.2083C32.335 49.2337 32.3265 49.2591 32.3181 49.276H32.3265Z" fill="white" fill-opacity="0.8"/>
<path d="M32.5641 53.3403C32.7503 54.077 32.9618 54.7036 33.0549 54.9745L33.0972 55.1015C33.0972 55.1015 32.9957 54.856 32.9787 54.8136C32.7333 54.1532 32.6149 53.696 32.5133 53.3149C32.5049 53.2726 32.488 53.2218 32.4795 53.1794C32.4964 53.1794 32.5133 53.1964 32.5303 53.2048C32.5387 53.2472 32.5557 53.3065 32.5641 53.3488V53.3403Z" fill="white" fill-opacity="0.8"/>
<path d="M34.1289 46.4308C32.8342 47.3537 32.4957 48.5984 32.3857 49.0048C32.3519 49.0133 32.318 49.0302 32.2842 49.0472C32.555 47.9972 33.0711 47.2182 33.8835 46.5832C33.9512 46.5408 34.0104 46.4985 34.0781 46.4562C34.112 46.4308 34.1458 46.4138 34.1796 46.3884C34.1627 46.4054 34.1373 46.4138 34.1204 46.4308H34.1289Z" fill="white" fill-opacity="0.8"/>
<path d="M31.5325 51.6553L31.5071 51.613C31.4225 51.359 31.3802 51.1727 31.3633 51.0457C31.3633 50.9949 31.3464 50.9441 31.3379 50.8933C31.3379 50.834 31.3379 50.8086 31.3379 50.7832C31.3717 51.1727 31.4902 51.5199 31.5325 51.6638V51.6553Z" fill="white"/>
<path d="M51.7049 50.0466C51.7049 50.0889 51.7049 50.1312 51.7049 50.1736C51.6794 50.4953 51.6709 50.5546 51.5773 50.961C51.5773 50.961 51.5518 51.0034 51.5518 51.0118C51.6709 50.5715 51.6964 50.2328 51.7049 50.0381V50.0466Z" fill="white" fill-opacity="0.8"/>
<path d="M50.6461 52.7983C50.663 52.7221 50.6715 52.6459 50.6884 52.5782C50.9677 51.0032 50.9592 49.7077 50.6546 48.6408C50.6376 48.5816 50.6207 48.5308 50.6038 48.4715C50.2653 47.43 49.6222 46.6087 48.666 45.9736C48.7591 46.0244 48.8522 46.0752 48.9368 46.126C49.8084 46.7272 50.4007 47.5147 50.7138 48.5138C50.7307 48.5646 50.7476 48.6239 50.7646 48.6832C51.1454 50.0634 51.0692 51.8415 50.3922 54.043C50.3922 54.0515 50.3161 54.2801 50.2992 54.3309C50.443 53.7974 50.5615 53.2894 50.6546 52.8152L50.6461 52.7983Z" fill="white" fill-opacity="0.8"/>
<path d="M48.7853 59.3774C48.7853 59.3774 48.7769 59.3012 48.7684 59.2673C48.9884 57.4299 49.0646 55.8634 49.0138 54.4748C49.0138 54.3732 49.0138 54.28 49.0054 54.1869C48.9038 52.0616 48.5146 50.402 47.9476 49.098C47.9138 49.0218 47.8799 48.9541 47.8461 48.8779C45.9675 44.8051 42.4135 44.441 41.3643 44.4241C41.4404 44.4241 41.7197 44.4241 41.7281 44.4241C42.642 44.4749 43.9367 44.695 45.1806 45.4656C45.2313 45.4994 45.2821 45.5333 45.3329 45.5672C47.7615 47.1506 49.9531 50.8677 48.7769 59.3858L48.7853 59.3774Z" fill="white" fill-opacity="0.8"/>
<path d="M34.2471 46.3546C34.2894 46.3292 34.4417 46.2361 34.4755 46.2192C34.4925 46.2107 34.5094 46.2022 34.5263 46.1938C38.1057 44.4664 44.3421 46.6002 46.4153 56.6509C46.3984 56.6425 46.2291 56.5578 46.2037 56.5493C44.1644 46.8458 37.8518 44.3733 34.2471 46.3546Z" fill="white" fill-opacity="0.8"/>
<path d="M32.3348 49.2079C32.3348 49.2079 32.2671 49.2333 32.2417 49.2418C31.8017 49.4281 31.497 49.7498 31.3786 50.1901C31.3447 50.3256 31.3278 50.478 31.3193 50.6389C31.3193 50.622 31.3193 50.5966 31.3193 50.5796C31.3193 50.5542 31.3193 50.5288 31.3193 50.5034C31.3193 50.478 31.3193 50.4526 31.3193 50.4188C31.5817 48.0818 35.6518 48.1241 39.0874 52.29C40.162 53.594 40.8728 54.8895 41.2875 55.7532C41.2875 55.7532 41.0928 55.7701 41.0251 55.7701C40.2974 54.3053 39.4766 53.1114 38.6389 52.1546C38.5797 52.0868 38.5289 52.0276 38.4696 51.9683C37.3273 50.7236 36.1426 49.9107 35.0764 49.4704C35.0256 49.445 34.9664 49.4281 34.9156 49.4027C33.8918 49.0132 32.9863 48.9624 32.3432 49.191L32.3348 49.2079Z" fill="white" fill-opacity="0.8"/>
<path d="M32.4358 52.9592C32.8758 53.137 33.5359 53.6874 34.2636 54.4579C35.0252 55.2623 35.8206 56.253 36.4806 57.303C36.4214 57.3453 36.3621 57.3876 36.3029 57.43C34.9152 55.22 33.2482 53.6027 32.5204 53.2048C32.5035 53.1963 32.4866 53.1878 32.4697 53.1794C32.3766 53.1286 32.3004 53.1116 32.2497 53.1116C32.2497 53.0947 32.1735 52.9423 32.165 52.9253C32.2327 52.9084 32.3174 52.9253 32.4274 52.9592H32.4358Z" fill="white" fill-opacity="0.8"/>
<path d="M34.8831 60.3346C34.9 60.4108 34.9085 60.4531 34.9169 60.487C34.9169 60.487 34.7054 59.7842 34.6885 59.7334C34.7308 59.8858 34.7985 60.089 34.8831 60.3346Z" fill="white" fill-opacity="0.8"/>
<path d="M49.0817 58.3191C49.1155 58.1836 49.1494 58.0482 49.1832 57.9211V57.9804C49.1324 58.4122 49.0901 58.6155 48.8701 59.5723L48.887 59.5045C48.9717 59.115 49.0224 58.7086 49.0817 58.3191Z" fill="#DBDBDB"/>
<path d="M50.834 52.8151C50.851 52.7643 50.8765 52.722 50.8935 52.6712C50.9276 52.6204 50.9361 52.595 50.9531 52.5696C50.9361 52.6204 50.885 52.7389 50.885 52.7389C50.885 52.7559 50.868 52.7728 50.834 52.8151Z" fill="#DBDBDB"/>
<path d="M51.0361 52.3326L51.1978 51.9939C51.1638 52.0701 51.1127 52.1632 51.0787 52.2394C51.0617 52.2733 51.0532 52.2987 51.0361 52.3326Z" fill="#DBDBDB"/>
<path d="M49.5729 56.5324C49.8775 55.6856 50.0045 55.2961 50.0891 55.0167L50.1652 54.7627C49.9791 55.3385 49.9283 55.474 49.666 56.1937C49.6321 56.3037 49.5983 56.4138 49.5645 56.5239L49.5729 56.5324Z" fill="#DBDBDB"/>
<path d="M48.8698 59.5723L48.9975 59.0388C48.9975 59.0388 48.9039 59.4537 48.8613 59.6146C48.8613 59.6146 48.8613 59.5807 48.8698 59.5723Z" fill="#DBDBDB"/>
<path d="M50.8839 52.7307L50.952 52.5698C50.952 52.5698 50.969 52.502 50.935 52.4851C50.9095 52.5444 50.8839 52.6291 50.8584 52.6883C50.8839 52.6883 50.8924 52.6968 50.8839 52.7307Z" fill="#DBDBDB"/>
<path d="M51.1797 52.0448C51.3912 51.5876 51.4589 51.3505 51.5605 51.0203C51.5689 51.0033 51.5774 50.9864 51.5859 50.9695C51.4674 51.4013 51.3574 51.6553 51.2051 51.994L51.1797 52.0448Z" fill="#DBDBDB"/>
<path d="M50.0869 55.0169C50.1461 54.8052 50.2308 54.5342 50.2985 54.3226C50.3323 54.2294 50.3577 54.1278 50.3915 54.0347C50.3238 54.2548 50.0869 55.0169 50.0869 55.0169Z" fill="#DBDBDB"/>
<path d="M33.1067 55.1102C33.0729 55.0085 33.0306 54.9154 32.9883 54.8223C32.9883 54.8223 33.1321 55.2118 33.3437 55.7706C33.3437 55.7706 33.1829 55.3303 33.0983 55.1102H33.1067Z" fill="#DBDBDB"/>
<path d="M31.5312 51.6554C31.5312 51.6554 31.5143 51.6215 31.5059 51.613L31.5228 51.6638C31.6582 52.0449 31.7936 52.3158 31.9797 52.6545L31.9374 52.5698C31.8782 52.4513 31.692 52.0957 31.5651 51.74C31.5651 51.7146 31.5482 51.6808 31.5397 51.6638L31.5312 51.6554Z" fill="#DBDBDB"/>
<path d="M32.259 53.1116C32.242 53.1539 32.242 53.1793 32.259 53.1962L32.1909 53.0608C32.1654 52.9846 32.1569 52.9676 32.1824 52.9253C32.2079 52.9846 32.242 53.0438 32.2675 53.1116H32.259Z" fill="#DBDBDB"/>
<path d="M34.8323 60.2157L34.6631 59.6653C34.6631 59.6653 34.7816 60.0548 34.8323 60.2157Z" fill="#DBDBDB"/>
<path d="M33.4004 55.906C33.3581 55.7875 33.2904 55.6266 33.248 55.5081C33.3581 55.7875 33.5442 56.2532 33.8658 56.9729C33.9081 57.083 33.9504 57.1931 33.9842 57.3116L33.9335 57.1846C33.8235 56.939 33.6288 56.4733 33.4088 55.906H33.4004Z" fill="#DBDBDB"/>
<path d="M31.9727 52.6546L31.9473 52.6038C31.9473 52.6038 32.0996 52.8747 32.1165 52.9086C32.1165 52.9086 31.998 52.7054 31.9727 52.6546Z" fill="#DBDBDB"/>
<path d="M32.2769 53.2388L32.311 53.2896C32.2854 53.2472 32.2684 53.2049 32.2429 53.1626C32.2429 53.1626 32.2003 53.0948 32.1748 53.0525L32.2429 53.188C32.2429 53.188 32.2599 53.2218 32.2684 53.2388H32.2769Z" fill="#DBDBDB"/>
<path d="M34.7906 60.0633C34.6891 59.7077 34.5875 59.3352 34.5283 58.9287C34.486 58.7933 34.4437 58.6662 34.4014 58.5308C34.4606 58.9033 34.4944 59.0557 34.6721 59.6569L34.8245 60.1734C34.8245 60.1734 34.7991 60.0887 34.7906 60.0549V60.0633Z" fill="#DBDBDB"/>
<path d="M45.4254 56.1428L45.2393 56.236C45.29 56.2106 45.3662 56.1682 45.4254 56.1428Z" fill="white" fill-opacity="0.8"/>
<path d="M34.5683 58.4971C34.7094 58.7907 35.4004 60.1567 36.6415 62.5953C36.6415 62.5953 36.5907 62.5699 36.5654 62.553C36.5315 62.5361 36.4977 62.5107 36.4638 62.4853C36.4638 62.4853 34.8222 59.1576 34.5599 58.5903C34.526 58.5141 34.5006 58.4717 34.4922 58.4379C34.4922 58.404 34.4922 58.3786 34.4922 58.3447C34.5176 58.3871 34.543 58.4379 34.5599 58.4802L34.5683 58.4971Z" fill="white" fill-opacity="0.8"/>
<path d="M34.3749 58.1836C34.0957 57.5824 33.9857 57.3199 33.9857 57.3199C33.9433 57.2014 33.901 57.0913 33.8672 56.9812L33.9264 57.1082C34.0703 57.4384 34.2395 57.7602 34.3834 58.0904C34.3834 58.1074 34.3834 58.1328 34.3834 58.1582C34.3834 58.1666 34.3834 58.1751 34.3834 58.1836H34.3749Z" fill="white" fill-opacity="0.8"/>
<path d="M35.3305 56.7445C35.3305 56.7445 35.2882 56.8038 35.2713 56.8122C34.4166 55.9232 33.325 54.7462 32.5042 53.5269C32.4873 53.5015 32.4619 53.4592 32.4365 53.4253C32.4365 53.4253 32.476 53.4733 32.555 53.5692C33.2404 54.5345 34.0697 55.4829 35.3305 56.7445Z" fill="white" fill-opacity="0.8"/>
<path d="M32.1152 52.9084L32.0645 52.8237L32.1068 52.8915C32.2083 53.0523 32.2591 53.1455 32.3691 53.3064C32.3522 53.2894 32.3437 53.281 32.3268 53.264C32.2675 53.1878 32.1998 53.0693 32.1152 52.9169V52.9084Z" fill="white" fill-opacity="0.8"/>
<path d="M34.5429 54.8051C34.5429 54.8051 34.4668 54.7627 34.4245 54.7458C34.4075 54.7373 34.3822 54.7204 34.3652 54.7119C34.3652 54.7119 34.4922 54.7797 34.5345 54.8051H34.5429Z" fill="white" fill-opacity="0.8"/>
<path d="M32.3187 53.2896L32.251 53.1626C32.2764 53.188 32.3017 53.2219 32.3271 53.2557C32.3441 53.2727 32.3525 53.2811 32.3694 53.2981C32.7164 53.6706 33.2749 54.0771 34.0872 54.5512C34.1972 54.619 34.2903 54.6698 34.3918 54.7291C33.4272 54.221 32.6318 53.6791 32.3102 53.2981L32.3187 53.2896Z" fill="white" fill-opacity="0.8"/>
<path d="M35.4158 56.9813C34.8489 57.2861 34.5273 57.5994 34.5019 58.353C34.5019 58.3869 34.5019 58.4123 34.5019 58.4461C34.5019 58.5901 34.5104 58.751 34.5273 58.9288C34.5104 58.8695 34.4088 58.5562 34.4004 58.5308C34.3835 58.3953 34.375 58.2683 34.375 58.1498C34.375 58.1244 34.375 58.1075 34.375 58.082C34.375 57.4978 34.6035 57.049 35.3481 56.7781C35.3566 56.8119 35.4158 56.9728 35.4158 56.9728V56.9813Z" fill="white" fill-opacity="0.8"/>
<path d="M35.4752 56.9218C37.1845 58.6492 38.3072 59.812 38.8431 60.4104L38.7331 60.5374C37.963 59.6483 37.3115 58.954 36.1353 57.7432C35.8983 57.4976 35.6106 57.3113 35.4329 57.015C35.4329 57.0065 35.3652 56.8118 35.3652 56.8118L35.4752 56.9218Z" fill="white" fill-opacity="0.8"/>
<path d="M39.1048 60.7153C39.8071 61.5197 40.6279 62.5188 41.4233 63.8313C41.4149 63.8313 41.2118 63.8313 41.161 63.8313L41.0933 63.7212C40.6618 63.0269 40.0779 62.1463 38.9863 60.8592C38.9609 60.8254 38.9186 60.7746 38.8848 60.7407L39.0032 60.6052L39.1048 60.7153Z" fill="white" fill-opacity="0.8"/>
<path d="M45.1386 60.3259C45.7987 61.0372 46.2218 61.7315 46.5602 62.6545C46.5264 62.6714 46.3572 62.7645 46.3487 62.7645C46.1202 62.1634 45.7648 61.3928 44.9863 60.5292C45.0202 60.436 45.0709 60.3683 45.1217 60.3005L45.1386 60.3175V60.3259Z" fill="white" fill-opacity="0.8"/>
<path d="M38.0299 56.4477C38.0807 56.4477 38.1399 56.4477 38.1907 56.4392C38.2161 56.4392 38.2415 56.4561 38.2838 56.4731C39.8577 57.1166 40.797 57.5061 41.8632 58.0395C41.8124 58.0734 41.7447 58.1073 41.694 58.1411C40.5854 57.5569 39.5446 57.1081 38.1146 56.49C38.0892 56.4815 38.0553 56.4646 38.0215 56.4477H38.0299Z" fill="white" fill-opacity="0.8"/>
<path d="M42.1523 58.1835C43.3793 58.8271 44.217 59.4113 44.9532 60.131C44.9024 60.1988 44.8516 60.2665 44.7924 60.3342C44.2932 59.8262 43.5147 59.1404 41.9746 58.2936C41.9407 58.2767 41.8984 58.2513 41.873 58.2343C41.9238 58.2005 41.9915 58.1581 42.0423 58.1243L42.1438 58.1751L42.1523 58.1835Z" fill="white" fill-opacity="0.8"/>
<path d="M34.543 54.8054C34.6107 54.8393 34.7545 54.907 34.7545 54.907C35.6938 55.3897 36.6161 55.7792 37.9785 56.3465C37.5216 56.3634 34.5514 54.8224 34.543 54.8054Z" fill="white" fill-opacity="0.8"/>
<path d="M45.6881 56.1428C46.8728 56.1428 47.592 56.2021 48.159 56.346C48.1082 56.4053 48.0574 56.4731 47.9982 56.5323C47.5836 56.4138 46.9658 56.2868 45.5019 56.2444C45.4681 56.2444 45.4342 56.2444 45.4004 56.2444C45.4512 56.219 45.5273 56.1767 45.5781 56.1513H45.6796L45.6881 56.1428Z" fill="white" fill-opacity="0.8"/>
<path d="M49.1929 57.5825C49.1929 57.6502 49.1929 57.7518 49.1929 57.9127C49.1759 57.9635 49.0993 58.2853 49.0908 58.3107V58.2599C49.0993 58.1582 49.1078 58.0228 49.0908 57.8449C49.0908 57.8111 49.0908 57.7941 49.1078 57.7264C49.1334 57.6587 49.1674 57.5909 49.1929 57.5232C49.1929 57.5401 49.1929 57.5655 49.1929 57.574V57.5825Z" fill="white" fill-opacity="0.8"/>
<path d="M41.7698 56.2444C41.7698 56.2444 41.6852 56.2444 41.6514 56.2444C41.6514 56.2444 44.9431 56.1428 45.4254 56.1428C45.3746 56.1682 45.2984 56.2106 45.2392 56.236C44.8443 56.2303 43.6879 56.2331 41.7698 56.2444Z" fill="white" fill-opacity="0.8"/>
<path d="M49.0142 56.8883C49.1496 57.1169 49.1749 57.354 49.1834 57.4218C49.1496 57.5064 49.1157 57.5911 49.0734 57.6843C49.0142 57.2863 48.8618 56.846 48.1934 56.592C48.2441 56.5242 48.2949 56.465 48.3457 56.3972C48.5065 56.448 48.828 56.5835 49.0057 56.8883H49.0142Z" fill="white" fill-opacity="0.8"/>
<path d="M48.9469 54.2208L49.0654 54.1446C49.8354 53.6535 50.4024 53.2217 50.7493 52.8491C50.7324 52.8745 50.7155 52.9084 50.6985 52.9338C50.6224 53.0608 50.5462 53.1201 50.1908 53.391C49.8354 53.662 49.4123 53.9499 48.9215 54.2378C48.8961 54.2547 48.8623 54.2716 48.8369 54.2886C48.8369 54.2886 48.93 54.2293 48.9385 54.2208H48.9469Z" fill="white" fill-opacity="0.8"/>
<path d="M50.8163 52.7643C50.8163 52.7643 50.8588 52.705 50.8843 52.6711C50.8843 52.6796 50.8333 52.7982 50.8248 52.8151C50.7992 52.849 50.7737 52.8828 50.7227 52.9336C50.7312 52.8998 50.7567 52.8574 50.7822 52.8151C50.7992 52.7897 50.7992 52.7812 50.8163 52.7727V52.7643Z" fill="white" fill-opacity="0.8"/>
<path d="M38.1895 56.4392C38.1303 56.4392 38.0795 56.4392 38.0288 56.4477C36.2772 56.5578 36.0487 56.617 35.3633 56.8118C35.3633 56.8118 35.2956 56.634 35.2871 56.617C35.902 56.4759 37.9103 56.3545 41.312 56.2529C41.312 56.2529 41.6082 56.2529 41.7012 56.2529C41.6928 56.2529 38.9934 56.3969 38.1895 56.4477V56.4392Z" fill="white" fill-opacity="0.8"/>
<path d="M38.8327 60.4105C39.8143 59.3182 40.9482 58.6069 41.6929 58.1412C41.7436 58.1074 41.8113 58.0735 41.8621 58.0396C42.9198 57.413 43.5968 57.0743 45.2384 56.2361L45.4246 56.1429C47.1762 55.2539 47.7093 54.9575 48.6316 54.4156C48.7332 54.3563 48.8262 54.2971 48.9193 54.2378L48.8347 54.2886C47.87 54.8982 47.2946 55.2285 45.5853 56.1429C45.5346 56.1683 45.4584 56.2107 45.4076 56.2361C43.3598 57.3284 42.9452 57.5739 42.0398 58.1243C41.989 58.1582 41.9213 58.2005 41.8706 58.2344C40.1697 59.3182 39.4928 60.0633 39.002 60.6052L38.8835 60.7407C38.1219 61.7314 37.8511 62.4596 37.6142 63.1031C37.6142 63.1031 37.4365 63.0269 37.3857 63.0015C37.8088 61.7822 38.1727 61.2572 38.7227 60.5375L38.8327 60.4105Z" fill="white" fill-opacity="0.8"/>
<path d="M51.0869 52.2312L51.0446 52.3243C50.9599 52.4852 50.8753 52.6461 50.7907 52.807C50.7653 52.8493 50.7399 52.9001 50.7146 52.9425C50.0376 54.1702 49.2168 55.3048 48.3537 56.3971C48.3029 56.4649 48.2521 56.5241 48.2014 56.5919C47.1944 57.845 46.1282 59.0474 45.1297 60.3006C45.0789 60.3683 45.0197 60.436 44.9689 60.5038C44.1481 61.5368 43.3865 62.6121 42.735 63.7722C42.735 63.7722 42.5404 63.7891 42.4727 63.7976C44.6643 59.7587 48.4129 56.8967 50.7061 52.934C50.723 52.9086 50.7399 52.8747 50.7569 52.8493C50.8753 52.6461 50.9853 52.4429 51.0869 52.2397V52.2312Z" fill="white" fill-opacity="0.8"/>
<path d="M49.6658 56.2021C49.6658 56.2021 49.5727 56.5154 49.5643 56.5323C49.412 56.9303 49.1327 57.6669 49.1073 57.7347C48.8196 58.4628 48.3965 59.4451 47.195 62.2477C47.1103 62.307 47.0596 62.3409 47.0088 62.3748C48.2358 59.5975 49.1497 57.506 49.1835 57.4214C49.3527 57.0149 49.4797 56.6932 49.6658 56.1936V56.2021Z" fill="white" fill-opacity="0.8"/>
<path d="M41.6941 57.396C38.9609 57.4807 36.2024 56.9557 34.0107 55.8126C31.6329 54.5679 30.2706 52.7729 30.1859 50.7576C30.1013 48.7678 31.2691 46.8965 33.4692 45.491C37.6916 42.7899 44.5289 42.5105 49.0221 44.8644C51.3999 46.1091 52.7623 47.9042 52.8469 49.9194C52.9315 51.9092 51.7638 53.7805 49.5637 55.1861C47.4059 56.5662 44.5627 57.3114 41.6941 57.4045V57.396ZM34.3661 54.1615C38.4786 56.3122 45.2143 56.0413 49.0729 53.5773C50.723 52.5189 51.603 51.2403 51.5522 49.9787C51.493 48.7001 50.4437 47.4385 48.6667 46.507C44.5542 44.3563 37.8186 44.6273 33.9599 47.0913C32.3099 48.1497 31.4298 49.4283 31.4806 50.6899C31.5398 51.9685 32.5891 53.2301 34.3661 54.1615Z" fill="#B6DFA4"/>
<path d="M78.4945 67.4817H77.8848V68.0919H78.4945V67.4817Z" fill="#EDF7E9"/>
<path d="M71.6396 70.3983C69.4139 70.3983 67.3468 69.6966 65.6516 68.5068C65.0784 68.1041 64.5479 67.6464 64.0662 67.14C62.7063 65.7122 61.749 63.8939 61.377 61.8742C61.2612 61.2519 61.2002 60.6051 61.2002 59.9522C61.2002 58.0546 61.7063 56.279 62.5844 54.7475C63.3405 53.4356 64.371 52.3007 65.6028 51.4281C66.4565 50.818 67.4016 50.3359 68.42 50.0125C69.4383 49.6831 70.5176 49.5061 71.6457 49.5061C71.8896 49.5061 72.1335 49.5122 72.3713 49.5305C73.9324 49.6403 75.3897 50.0858 76.6825 50.7997C76.78 50.8546 76.8776 50.9095 76.9691 50.9644C78.7801 52.0383 80.2314 53.6431 81.1217 55.5651C81.7436 56.9014 82.0851 58.3902 82.0851 59.9583C82.0851 65.7244 77.4081 70.4044 71.6396 70.4044" fill="#D9F0CF"/>
<path d="M79.8399 58.1461C79.8399 63.9183 75.1629 68.5983 69.3944 68.5983C67.4492 68.5983 65.626 68.0675 64.071 67.14C62.7112 65.7122 61.7539 63.8939 61.3819 61.8742C61.2661 61.2519 61.2051 60.6051 61.2051 59.9522C61.2051 58.0546 61.7112 56.279 62.5893 54.7475C63.3454 53.4356 64.3759 52.3007 65.6077 51.4281C66.4614 50.818 67.4065 50.3359 68.4249 50.0125C69.4432 49.6831 70.5225 49.5061 71.6506 49.5061C71.8945 49.5061 72.1384 49.5122 72.3762 49.5305C73.9373 49.6403 75.3946 50.0858 76.6874 50.7997C76.7849 50.8546 76.8825 50.9095 76.9739 50.9644C77.7545 51.782 78.4008 52.7278 78.8765 53.7651C79.4984 55.1014 79.8399 56.5841 79.8399 58.1522V58.1461Z" fill="#FAFDF8"/>
<path d="M65.9863 57.0477C65.9863 57.0477 66.7973 55.6565 67.4132 54.9609C68.0291 54.2654 68.9194 53.3379 68.9194 53.3379C68.9194 53.3379 70.578 53.8382 71.1999 53.9969C71.8158 54.1494 73.2854 54.7718 73.2854 54.7718L73.1329 59.2809L68.462 60.8369L65.9924 57.0538L65.9863 57.0477Z" fill="#7DC75C"/>
<path d="M81.1216 55.5591L80.274 56.2791L76.7617 53.3442L75.9141 50.7937H76.6885C78.6276 51.8676 80.1947 53.5395 81.1277 55.5591H81.1216Z" fill="#7DC75C"/>
<path d="M72.3723 49.5244C72.0125 49.622 71.6162 49.738 71.2381 49.8661C70.1954 50.2139 68.5734 51.062 68.5734 51.062L67.1831 51.1414C66.5733 51.178 66.0245 51.3 65.5977 51.4281C67.305 50.2139 69.3844 49.5 71.6406 49.5C71.8845 49.5 72.1284 49.5061 72.3662 49.5244H72.3723Z" fill="#7DC75C"/>
<path d="M63.0527 57.5543C63.0527 57.5543 62.6259 59.0615 62.4734 59.9523C62.321 60.8432 62.321 62.3503 62.321 62.3503L61.3819 61.8804C61.2661 61.2581 61.2051 60.6174 61.2051 59.9584C61.2051 58.0608 61.7051 56.2852 62.5893 54.7537C62.6624 55.5652 62.7661 56.4865 62.8637 56.7916C63.0588 57.3713 63.0588 57.5665 63.0588 57.5665L63.0527 57.5543Z" fill="#7DC75C"/>
<path d="M64.0977 65.6269C64.0977 65.6269 65.2928 65.8953 65.988 65.7794C66.6831 65.6635 67.4941 65.3523 67.4941 65.3523C67.4941 65.3523 69.0369 66.8594 69.6344 67.2072C70.232 67.555 71.0857 68.0431 71.0857 68.0431L69.6344 70.197L65.6526 68.5008C65.6526 68.5008 64.2928 66.6642 64.0977 65.6208V65.6269Z" fill="#7DC75C"/>
<path d="M76.4133 62.3442C76.4133 62.3442 76.1816 64.1991 75.9133 64.8581C75.645 65.5171 75.334 66.713 75.334 66.713C75.334 66.713 77.6511 67.256 77.9194 67.372L78.1877 67.4879C78.1877 67.4879 81.0049 64.7055 81.0476 63.8208C81.0842 62.9299 80.0415 60.4954 80.0415 60.4954L76.4133 62.3503V62.3442Z" fill="#7DC75C"/>
<path d="M68.6282 60.1806L67.4678 65.3542L67.5273 65.3676L68.6877 60.1939L68.6282 60.1806Z" fill="#7DC75C"/>
<path d="M73.1478 59.2633L73.1104 59.3035L76.3926 62.3662L76.4301 62.3261L73.1478 59.2633Z" fill="#7DC75C"/>
<path d="M80.2425 56.277L80.0117 60.4871L80.0668 60.4901L80.2976 56.2801L80.2425 56.277Z" fill="#7DC75C"/>
<path d="M76.7448 53.3191L73.2715 54.7502L73.2947 54.8067L76.768 53.3756L76.7448 53.3191Z" fill="#7DC75C"/>
<path d="M68.5965 51.0617L68.542 51.0701L68.8895 53.3504L68.944 53.3421L68.5965 51.0617Z" fill="#7DC75C"/>
<path d="M66.1629 56.9161L63.0508 57.5237L63.0625 57.5836L66.1746 56.976L66.1629 56.9161Z" fill="#7DC75C"/>
<path d="M62.3383 62.3313L62.29 62.3574L64.0661 65.6416L64.1144 65.6155L62.3383 62.3313Z" fill="#7DC75C"/>
<path d="M75.3201 66.6769L71.0752 68.0178L71.0917 68.0702L75.3366 66.7293L75.3201 66.6769Z" fill="#7DC75C"/>
<path d="M81.3469 63.5034H81.042V64.1136H81.3469V63.5034Z" fill="#EDF7E9"/>
</g>
<defs>
<clipPath id="clip0_4706_4012">
<rect width="87.3" height="72" fill="white"/>
</clipPath>
</defs>
</svg>
