<svg width="81" height="72" viewBox="0 0 81 72" fill="none" xmlns="http://www.w3.org/2000/svg">
<g opacity="0.8">
<path opacity="0.3" d="M59.0263 8.87102L27.4294 10.3832L3.26218 24.34L0.669922 42.6086L12.8964 49.679L28.1438 40.8717H46.5753L60.1285 48.6981L76.9476 38.9713L79.5398 20.7027L59.0467 8.85059L59.0263 8.87102ZM42.5338 37.4795L39.6354 39.1552H35.5327L32.6343 37.4795V35.1091L35.5327 33.4335H39.6354L42.5338 35.1091V37.4795Z" fill="black"/>
<path d="M37.3085 24.1153L0.669922 40.5038V42.1999L12.8964 49.2703L28.1438 40.463H46.5753L60.1285 48.2894L76.9476 38.5626L79.5398 20.294V18.5979L37.3085 24.0948V24.1153ZM42.5338 37.1117L39.6354 37.7656H35.5327L32.6343 37.1117V34.7413L35.5327 33.0656H39.6354L42.5338 34.7413V37.1117Z" fill="#E4CF7D"/>
<path d="M59.0263 6.78679L27.4294 8.27852L3.26218 22.2558L0.669922 40.5244L12.8964 47.5948L28.1438 38.7874H46.5753L60.1285 46.6139L76.9476 36.887L79.5398 18.6185L59.0467 6.76636L59.0263 6.78679ZM42.5338 35.3953L39.6354 37.0709H35.5327L32.6343 35.3953V33.0249L35.5327 31.3492H39.6354L42.5338 33.0249V35.3953Z" fill="white"/>
<path d="M41.5959 14.756V13.5095L38.6974 13.1621H34.5947L31.6963 13.5095V14.756L34.5947 16.4317H38.6974L41.5959 14.756Z" fill="#FADB6C"/>
<path d="M41.5959 13.5099V11.1395L38.6974 9.46387H34.5947L31.6963 11.1395V13.5099L34.5947 15.1856H38.6974L41.5959 13.5099Z" fill="#FEF1B8"/>
<path d="M26.8576 20.253V19.0065L23.9591 18.6387H19.8768L16.958 19.0065V20.253L19.8768 21.9287H23.9591L26.8576 20.253Z" fill="#FCE17D"/>
<path d="M26.8576 19.007V16.6161L23.9591 14.9609H19.8768L16.958 16.6161V19.007L19.8768 20.6826L23.9591 20.6622L26.8576 19.007Z" fill="#FEF4C1"/>
<path d="M17.2433 28.8363V27.5898L14.3245 27.2424H10.2422L7.34375 27.5898V28.8363L10.2422 30.512H14.3245L17.2433 28.8363Z" fill="#E7AD26"/>
<path d="M17.2433 27.589V25.2186L14.3245 23.543H10.2422L7.34375 25.2186V27.589L10.2422 29.2647H14.3245L17.2433 27.589Z" fill="#FACE4F"/>
<path d="M18.7951 39.0941V37.8476L15.8966 37.4797H11.7939L8.89551 37.8476V39.0941L11.7939 40.7697H15.8966L18.7951 39.0941Z" fill="#FACD4E"/>
<path d="M18.7951 37.8481V35.4776L15.8966 33.802H11.7939L8.89551 35.4776V37.8481L11.7939 39.5237H15.8966L18.7951 37.8481Z" fill="#FEF6CC"/>
<path d="M59.4347 15.5941V14.3476L56.5363 14.0002H52.4336L49.5352 14.3476V15.5941L52.4336 17.2698H56.5363L59.4347 15.5941Z" fill="#FBE07A"/>
<path d="M59.4347 14.3476V11.9772L56.5363 10.3015H52.4336L49.5352 11.9772V14.3476L52.4336 16.0232H56.5363L59.4347 14.3476Z" fill="#FEF1B6"/>
<path d="M71.2736 22.4399V21.1933L68.3752 20.8459H64.2725L61.374 21.1933V22.4399L64.2725 24.1155H68.3752L71.2736 22.4399Z" fill="#F7B32E"/>
<path d="M71.2736 21.1933V18.8229L68.3752 17.1472H64.2725L61.374 18.8229V21.1933L64.2725 22.8689H68.3752L71.2736 21.1933Z" fill="#FDE58B"/>
<path d="M73.0089 32.9227V31.6762L70.1105 31.3083H66.0078L63.1094 31.6762V32.9227L66.0078 34.5983H70.1105L73.0089 32.9227Z" fill="#FACA49"/>
<path d="M73.0089 31.6767V29.3063L70.1105 27.6306H66.0078L63.1094 29.3063V31.6767L66.0078 33.3523H70.1105L73.0089 31.6767Z" fill="#FEF8D9"/>
<path opacity="0.3" d="M13.8771 67.2734L34.5335 54.8287L35.1866 54.4608L44.78 49.8426L44.9229 49.863L45.2903 49.1274L47.2294 47.8809L49.638 47.6152L51.5362 47.9831L50.8422 48.1465L49.4543 49.2909L47.0253 50.3126L45.9027 50.4556L45.9231 50.4965L37.8605 56.0139L37.2074 56.4021L15.5508 68.2542L12.6728 69.2964L12.387 69.2555L12.1217 69.1125L12.04 68.9286L13.8771 67.2734Z" fill="black"/>
<path d="M45.4736 48.4531L46.0452 47.5131L48.0659 46.2053L50.0866 46.3279L51.4746 47.2475L50.8827 47.3292L49.3314 48.6166L47.0045 49.5362L46.0452 49.4953L45.4736 48.4531Z" fill="#8F7010"/>
<path d="M36.4912 53.2143L45.2477 48.6983L45.758 48.637L46.0438 49.107L37.3689 54.8491L36.4912 53.2143Z" fill="#FDF5E9"/>
<path d="M37.5337 54.4606L46.0453 49.1067V49.5563L37.5337 55.5232L37.2275 55.094L37.5337 54.4606Z" fill="#B5AFA7"/>
<path d="M35.9619 52.7849L45.3716 48.4119L45.7594 48.6366L36.8804 53.3162L36.166 53.2549L35.9619 52.7849Z" fill="#FFFCE1"/>
<path d="M12.04 67.9681L14.122 66.0472L35.3091 53.153L35.9623 52.7852L34.3294 54.2564L14.5098 66.0064L12.1625 68.0294L12.04 67.9681Z" fill="#AF933C"/>
<path d="M12.4062 68.622L15.1006 67.7842L36.8796 55.8912L37.5328 55.5234L37.1858 55.5029L15.3455 67.4776L12.4267 68.4789L12.4062 68.622Z" fill="#D2A429"/>
<path d="M12.5695 68.52L15.5292 67.5391L37.5328 55.5235V54.4609L34.6343 55.7892L15.2639 66.8035L12.4062 68.2543L12.5695 68.52Z" fill="#FACE4F"/>
<path d="M12.5698 68.2743L15.5295 66.8643L37.5331 54.4605L36.8799 53.3162L33.7365 54.8896L14.6926 66.2104L12.2637 68.0087L12.3045 68.1517L12.5698 68.2743Z" fill="#EEBC36"/>
<path d="M12.1826 67.8864L14.5299 65.8225L35.962 52.7852L36.8805 53.3165L15.1219 66.1494L12.4071 68.009L12.3051 68.0703L12.1826 67.8864Z" fill="#E4B024"/>
<path d="M12.4074 68.6221L12.1829 68.4791L12.04 68.2134V67.9682L12.1829 67.8865L12.4074 68.0091L12.5707 68.2747V68.5199L12.4074 68.6221Z" fill="#FACA49"/>
<path opacity="0.3" d="M22.2234 68.1727L36.736 59.4471L37.185 59.1815L43.9412 55.9323L44.0229 55.9528L44.2882 55.4419L45.6558 54.5632L47.3499 54.3589L48.6767 54.6245L48.2072 54.7471L47.2275 55.5441L45.5129 56.2593L44.7169 56.3615L44.7373 56.4024L39.0629 60.2645L38.6138 60.5301L23.4073 68.8675L21.3661 69.6031L21.162 69.5623L20.9783 69.4601L20.9375 69.3375L22.2234 68.1727Z" fill="black"/>
<path d="M44.4111 54.9718L44.8194 54.2975L46.2278 53.3779L47.6566 53.4597L48.6363 54.1136L48.2077 54.1749L47.1259 55.074L45.4929 55.7075L44.8194 55.687L44.4111 54.9718Z" fill="#8F7010"/>
<path d="M38.125 58.3029L44.2484 55.1151L44.6158 55.0742L44.82 55.4216L38.7169 59.4472L38.125 58.3029Z" fill="#FDF5E9"/>
<path d="M38.8388 59.1604L44.8193 55.4209V55.7274L38.8388 59.9165L38.6143 59.6304L38.8388 59.1604Z" fill="#B5AFA7"/>
<path d="M37.7373 57.9963L44.3506 54.9312L44.616 55.0742L38.3905 58.3642L37.8802 58.3437L37.7373 57.9963Z" fill="#FFFCE1"/>
<path d="M20.9375 68.663L22.3867 67.3143L37.2667 58.2617L37.7361 57.9961L36.5931 59.0178L22.6521 67.2734L21.0191 68.7038L20.9375 68.663Z" fill="#FEF4C1"/>
<path d="M21.2031 69.1126L23.081 68.5404L38.3896 60.1826L38.8386 59.917H38.6141L23.2647 68.3156L21.2031 69.0104V69.1126Z" fill="#CDB25C"/>
<path d="M21.3052 69.051L23.3667 68.3562L38.8386 59.9167V59.1606L36.8179 60.1211L23.2034 67.8454L21.2031 68.8671L21.3052 69.051Z" fill="#FACE4F"/>
<path d="M21.3056 68.8881L23.3671 67.8868L38.839 59.1612L38.39 58.3643L36.1651 59.4677L22.7956 67.4372L21.0811 68.7042L21.1219 68.7859L21.3056 68.8881Z" fill="#FACE4F"/>
<path d="M21.0391 68.6017L22.672 67.1508L37.7356 57.9961L38.3888 58.3639L23.0802 67.396L21.2024 68.6834L21.1207 68.7447L21.0391 68.6017Z" fill="#EEBC36"/>
<path d="M21.2028 69.1127L21.0396 69.0309L20.9375 68.847V68.6631L21.0396 68.6018L21.2028 68.6835L21.3049 68.8879V69.0514L21.2028 69.1127Z" fill="#EEBC36"/>
<path opacity="0.3" d="M28.6547 69.2151L39.3299 62.7782L39.6565 62.5943L44.6369 60.2034L44.6982 60.2239L44.8819 59.8356L45.882 59.2021L47.1271 59.0591L48.1069 59.243L47.7599 59.3247L47.0455 59.9173L45.78 60.4486L45.2085 60.5099V60.5508L41.0445 63.3912L40.7179 63.5956L29.512 69.726L28.0424 70.2573L27.8791 70.2368L27.7566 70.1551L27.7158 70.0734L28.6547 69.2151Z" fill="black"/>
<path d="M44.9814 59.4878L45.2672 58.9973L46.3082 58.323L47.3696 58.3843L48.084 58.8543L47.7778 58.9156L46.9818 59.5695L45.7571 60.0395L45.2672 60.0191L44.9814 59.4878Z" fill="#8F7010"/>
<path d="M40.3496 61.9402L44.8605 59.6107L45.1259 59.5698L45.2688 59.815L40.7987 62.7985L40.3496 61.9402Z" fill="#FDF5E9"/>
<path d="M40.8801 62.5936L45.2686 59.8145V60.0597L40.8801 63.1453L40.7168 62.9205L40.8801 62.5936Z" fill="#B5AFA7"/>
<path d="M40.0645 61.7148L44.9224 59.467L45.1265 59.5692L40.5339 62.0009L40.1665 61.9805L40.0645 61.7148Z" fill="#FFFCE1"/>
<path d="M27.7158 69.562L28.7772 68.5811L39.7178 61.9194L40.0648 61.7151L39.2279 62.4916L28.9813 68.5607L27.7771 69.6029L27.7158 69.562Z" fill="#AF933C"/>
<path d="M27.8994 69.9095L29.2874 69.4804L40.5341 63.3296L40.8811 63.1457L40.6974 63.1252L29.4099 69.3169L27.8994 69.8278V69.9095Z" fill="#AF933C"/>
<path d="M27.9811 69.8478L29.5119 69.3574L40.8811 63.1452V62.5935L39.3911 63.2883L29.369 68.9691L27.8994 69.7252L27.9811 69.8478Z" fill="#FACE4F"/>
<path d="M27.9807 69.7258L29.5115 69.0105L40.8807 62.5941L40.5337 62.0015L38.9212 62.8189L29.0829 68.6632L27.8174 69.5827L27.8378 69.6645L27.9807 69.7258Z" fill="#FACE4F"/>
<path d="M27.7773 69.5211L29.002 68.4585L40.065 61.7151L40.5345 62.0012L29.2878 68.6424L27.8998 69.5824L27.8386 69.6233L27.7773 69.5211Z" fill="#EEBC36"/>
<path d="M27.8995 69.9097L27.7771 69.8484L27.7158 69.7054V69.5624L27.7771 69.5215L27.8995 69.5828L27.9812 69.7258V69.8484L27.8995 69.9097Z" fill="#AF933C"/>
<path opacity="0.3" d="M6.60959 65.6588L27.2864 53.2141L27.9396 52.8463L37.533 48.228L37.6758 48.2485L38.0433 47.5128L39.9823 46.2663L42.3909 45.9802L44.2892 46.348L43.5952 46.532L42.2072 47.6763L39.7782 48.698L38.6556 48.8411L38.676 48.8819L30.6135 54.3993L29.9603 54.7671L8.30374 66.6397L5.42572 67.6818L5.13996 67.641L4.87461 67.4775L4.79297 67.314L6.60959 65.6588Z" fill="black"/>
<path d="M38.2275 46.8386L38.7991 45.8986L40.8198 44.5908L42.8405 44.7134L44.2285 45.633L43.6162 45.7147L42.0853 47.0021L39.7584 47.9217L38.7991 47.8604L38.2275 46.8386Z" fill="#8F7010"/>
<path d="M29.2471 51.5997L38.0036 47.0633L38.5139 47.002L38.7996 47.4924L30.1248 53.2345L29.2471 51.5997Z" fill="#FDF5E9"/>
<path d="M30.2865 52.8261L38.7981 47.4927V47.9422L30.2865 53.9092L29.96 53.48L30.2865 52.8261Z" fill="#B5AFA7"/>
<path d="M28.7148 51.1506L38.1245 46.7776L38.5124 47.0024L29.6334 51.7023L28.919 51.641L28.7148 51.1506Z" fill="#FFFCE1"/>
<path d="M4.79297 66.3535L6.87494 64.4327L28.0416 51.5384L28.7152 51.1501L27.0823 52.6214L7.24235 64.3714L4.91544 66.3944L4.79297 66.3535Z" fill="#FFEC7A"/>
<path d="M5.16016 67.0075L7.85447 66.1492L29.6335 54.2767L30.2867 53.9089L29.9397 53.8884L8.09941 65.8631L5.18057 66.8644L5.16016 67.0075Z" fill="#C29723"/>
<path d="M5.32345 66.9061L8.28311 65.9253L30.2867 53.9097V52.8267L27.3883 54.1753L8.01776 65.1896L5.16016 66.6405L5.32345 66.9061Z" fill="#FEF4C1"/>
<path d="M5.3257 66.6603L8.28537 65.2503L30.2889 52.8261L29.6358 51.7021L26.4924 53.2552L7.4485 64.5964L5.01953 66.3947L5.06035 66.5377L5.3257 66.6603Z" fill="#FEF4C1"/>
<path d="M4.93555 66.2514L7.28287 64.2079L28.7149 51.1501L29.6334 51.7019L7.85439 64.5348L5.16007 66.3944L5.05802 66.4557L4.93555 66.2514Z" fill="#EDDE92"/>
<path d="M5.16038 67.0078L4.93585 66.8647L4.79297 66.5991V66.3539L4.93585 66.2517L5.16038 66.3948L5.32367 66.6604V66.9056L5.16038 67.0078Z" fill="#D7AB37"/>
</g>
</svg>
