<svg width="169" height="110" viewBox="0 0 169 110" fill="none" xmlns="http://www.w3.org/2000/svg">
<path d="M95.9973 58.9488C96.1211 66.4752 91.9135 74.2716 90.3947 76.8254C89.776 78.3442 88.4259 79.7842 86.3784 80.9768C80.427 84.4081 70.7631 84.3968 64.7892 80.9318C63.0904 79.953 61.8754 78.7942 61.1442 77.568C61.1442 77.5567 61.1104 77.5117 61.0654 77.4554C61.0429 77.4104 61.0204 77.3767 60.9979 77.3429C59.9854 75.7229 54.259 66.104 55.0803 57.3513C56.0028 47.7436 65.0255 38.0234 65.0255 38.0234C65.0255 38.0234 85.9171 39.6547 86.0071 38.1809C86.6371 38.8672 95.0186 48.1936 95.9073 57.4188C95.9073 57.4413 95.9073 57.4638 95.9073 57.4751C95.9523 57.9588 95.9861 58.4538 95.9861 58.9376L95.9973 58.9488Z" fill="#FFD88D"/>
<path d="M76.1875 43.953C76.0187 43.953 75.85 43.953 75.6812 43.953C72.9699 43.953 70.2811 43.2893 68.1548 42.1642C64.476 40.218 65.0273 37.9904 65.0273 37.9904C65.0273 37.9904 63.2047 32.8603 62.2822 31.5553L75.31 25.0977L76.1762 43.9418L76.1875 43.953Z" fill="#FFBC6B"/>
<path d="M86.0177 38.0802L85.9727 38.1365C85.9164 39.644 84.9039 41.084 82.9801 42.1978C81.0901 43.2891 78.6713 43.9078 76.185 43.9416C76.0162 43.9416 75.8475 43.9416 75.6787 43.9416V25.21L89.0327 30.9813L86.0177 38.069V38.0802Z" fill="#FFBC6B"/>
<path d="M88.0899 32.9499C87.4374 33.8499 86.4699 34.6937 85.2099 35.425C84.0736 36.0887 82.7686 36.595 81.3848 36.9775C79.596 37.4613 77.661 37.7088 75.7259 37.72H75.6584C73.6334 37.72 71.6083 37.4613 69.7296 36.9438C68.3683 36.5725 67.0858 36.055 65.9607 35.4025C64.6445 34.6375 63.6544 33.7712 62.9907 32.8262C60.9431 29.9799 61.9107 26.5936 65.9045 24.2873C69.5383 22.1835 74.7471 21.531 79.3822 22.3297C80.3723 22.4985 81.3848 26.6498 81.3848 26.6498C81.3848 26.6498 84.2536 23.8035 85.1423 24.3098C89.1924 26.6498 90.1824 30.0811 88.0899 32.9387V32.9499Z" fill="#FFFAE2"/>
<path d="M83.7789 34.6039C83.3514 34.8514 82.8901 35.0764 82.4063 35.2789C78.345 36.9889 72.7649 36.9777 68.6923 35.2339C68.2311 35.0314 67.7923 34.8177 67.3761 34.5702C62.831 31.9376 62.8085 27.7075 67.331 25.0975C70.1436 23.4662 74.0699 22.8699 77.715 23.2749C78.8175 23.3987 80.1225 28.135 80.1225 28.135C80.1225 28.135 82.8676 24.6362 83.7226 25.1312C88.2677 27.7525 88.2902 31.9938 83.7789 34.5926V34.6039Z" fill="#FFD88D"/>
<path d="M82.4074 35.2677C78.346 36.9777 72.7659 36.9665 68.6934 35.2227C69.0309 34.8514 69.4696 34.5027 70.0209 34.1989C73.0584 32.4439 77.9973 32.4551 81.0461 34.2214C81.5974 34.5364 82.0586 34.8964 82.4074 35.2677Z" fill="#E57318"/>
<path d="M73.2041 37.5403L77.1529 44.0542L78.4355 48.1718C78.4355 48.1718 77.6592 50.8268 77.5804 52.5481C77.5017 54.2694 82.1255 56.4969 82.2943 57.352C82.463 58.207 84.9493 63.5283 84.9493 63.5283L82.7218 56.2382L78.4355 52.8069L79.1217 47.9243L78.0079 43.728L74.3179 37.7316L74.9141 36.7078L73.8004 36.5391L73.2041 37.5628V37.5403Z" fill="#E57318"/>
<path d="M64.978 51.0859L58.8916 59.8274C58.8916 59.8274 59.0604 63.9449 59.1504 64.4624C59.2404 64.98 58.8129 67.545 59.0604 67.8038C59.3191 68.0625 61.1191 70.8076 61.1191 70.8076L59.7466 67.635L59.9154 64.5525L59.5779 60.2661L64.978 51.0972V51.0859Z" fill="#E57318"/>
<path d="M30.5069 59.0686C30.5069 59.0686 56.175 58.821 58.6356 65.5329C61.0961 72.2447 64.9543 87.2554 64.9543 87.2554C64.9543 87.2554 59.2616 72.0264 45.2119 80.1941C36.9858 84.9842 28.9345 90.9972 27.7261 90.6623C26.5177 90.3274 11.4342 64.0915 30.5069 59.0686Z" fill="#EFB04E"/>
<path d="M64.9546 87.2705L62.4212 91.7111L56.4228 75.6958C56.4228 75.6958 58.7232 73.9778 59.0143 70.105C59.0289 69.6537 59.2036 69.0422 58.9707 68.9694C58.7377 68.8966 55.491 67.2077 51.7638 70.964C48.0512 74.6767 48.983 75.5939 48.983 75.5939L54.3262 83.0483L52.2588 89.3379L44.0328 87.0958L43.2466 78.0398C43.2466 78.0398 37.6558 74.895 34.016 78.1709C30.3761 81.4467 29.5754 86.4697 29.5754 86.4697C29.5754 86.4697 35.5593 86.8774 37.1317 85.9893C38.7041 85.1011 39.9562 90.1678 39.9562 90.1678L43.6979 99.1654C43.6979 99.1654 38.1799 104.873 32.7639 101.772C32.5455 101.655 32.3708 101.568 32.1961 101.422C27.1003 98.5103 23.0237 96.836 23.0237 96.836L2 93.4C2 93.4 8.37699 72.8276 6.295 65.6935C4.27126 58.5886 3.07739 41.3358 24.0574 35.2063C41.7907 30.0232 51.5745 42.7626 55.127 50.2898C55.7676 51.6875 56.1898 52.925 56.4082 53.784C57.8205 59.4039 64.9691 87.2705 64.9691 87.2705H64.9546Z" fill="#FFF5D1"/>
<path opacity="0.4" d="M56.4237 75.6962C56.4237 75.6962 58.7241 73.9782 59.0152 70.1054C59.0298 69.6541 59.2045 69.0426 58.9716 68.9698C58.7386 68.897 55.4919 67.2081 51.7647 70.9644C48.0521 74.677 48.9839 75.5943 48.9839 75.5943L54.3271 83.0487L52.2597 89.3383L44.0337 87.0961L43.2475 78.0402C43.2475 78.0402 37.6567 74.8954 34.0169 78.1713C30.377 81.4471 29.5763 86.4701 29.5763 86.4701C29.5763 86.4701 35.5602 86.8778 37.1326 85.9896C38.705 85.1015 39.9571 90.1682 39.9571 90.1682L43.6988 99.1658C43.6988 99.1658 38.1808 104.873 32.7648 101.772C32.5464 101.655 24.3932 97.4915 24.2184 97.3459C28.3533 90.8525 24.9464 84.3881 24.0874 81.3598C22.0637 74.2548 20.7679 56.6672 41.8498 50.8725C55.3172 47.1745 57.9961 59.9867 58.2145 60.8602C59.6267 66.4801 64.97 87.2709 64.97 87.2709L62.4367 91.7115L56.4382 75.6962H56.4237Z" fill="#F3D586"/>
<path d="M62.467 91.3763L57.1383 75.8415C58.4778 74.5894 59.2203 72.9733 59.5843 71.2699C59.6716 70.8331 59.7153 70.2653 59.7736 69.9304C59.8027 69.712 59.8609 69.5228 59.8464 69.1006C59.8172 68.9695 59.8318 68.8239 59.628 68.5473C59.5261 68.4017 59.3077 68.2852 59.1766 68.2416L58.8418 68.1105C57.8954 67.7611 56.8617 67.6737 55.8717 67.8193C53.8625 68.1105 52.159 69.3044 50.8924 70.6147C50.2518 71.2553 49.6257 71.9251 49.0579 72.6822C48.7813 73.0753 48.5046 73.4684 48.2717 73.9488C48.1552 74.1963 48.0533 74.4584 47.9805 74.7933C47.9805 75.1718 47.7039 75.4047 48.1989 76.191L53.1491 83.2086L51.5621 88.0131L45.1269 86.2223L44.3843 77.2829L43.8311 76.9917C42.1859 76.1327 40.5552 75.6086 38.7062 75.463C36.8863 75.332 34.8189 75.8561 33.3484 77.1664C30.6695 79.6124 29.1553 82.8009 28.4419 86.2369L28.1798 87.5181L29.4902 87.5764C31.7614 87.6637 33.9307 87.7802 36.3622 87.3725C36.6533 87.3143 37.192 87.1541 37.4687 87.0377C37.5706 87.1541 37.7453 87.358 37.8472 87.5909C38.284 88.4062 38.6334 89.4399 38.9537 90.5756L42.5353 98.889C40.1039 101.087 36.5951 102.689 33.6541 101.262L28.5729 98.6414C26.8404 97.797 25.0932 96.9817 23.1423 96.21L2.03125 93.371C2.03125 93.371 22.953 97.4476 22.8074 97.4039C24.5254 98.1755 26.2434 99.0345 27.9177 99.9227L32.9553 102.733C34.8625 103.737 37.2212 103.723 39.1721 103.053C41.1667 102.383 42.8556 101.277 44.4135 99.8499L44.8794 99.4276L44.6173 98.787C44.6173 98.787 40.9192 89.7748 40.9775 89.935C40.6717 88.7848 40.3514 87.7219 39.769 86.5863C39.4196 86.0476 39.2158 85.3633 38.0365 84.8683C37.4104 84.5917 36.3767 85.1449 36.5077 85.0721C36.3767 85.1304 36.1583 85.1886 35.9399 85.2177C34.4403 85.4652 32.7223 85.4507 31.0334 85.3779C31.7614 82.961 33.0863 80.5879 34.9208 79.0009C36.697 77.3703 39.6962 77.7779 42.1277 78.8553L42.9867 88.0277L53.0326 90.7066L55.5368 82.8446L49.9023 75.1572C49.9169 75.0553 49.9606 74.9097 50.0334 74.7496C50.1644 74.4438 50.3828 74.0944 50.6012 73.7741C51.0671 73.1189 51.6203 72.4783 52.2027 71.8523C53.3092 70.6147 54.6487 69.6829 56.1337 69.4063C56.8617 69.2753 57.6333 69.319 58.3322 69.5519C58.3322 69.6101 58.3322 69.6684 58.3176 69.7412C58.2594 70.2799 58.2594 70.5856 58.1866 71.0224C57.9245 72.5948 57.1966 74.1963 56.0755 75.1718L55.6824 75.5067L62.4525 92.0897L65.0004 87.256L62.5107 91.3763H62.467Z" fill="#FBC22C"/>
<path opacity="0.5" d="M109.751 65.1999C109.564 65.1999 109.315 65.1999 108.991 65.1625C108.369 65.1003 107.908 64.9757 107.845 64.9632C107.434 64.8511 106.45 64.5896 105.404 63.9543C104.844 63.618 103.15 62.5842 101.867 60.2674C100.658 58.0877 100.634 56.0076 100.621 55.3225V51.3242C101.007 51.6481 101.443 51.9595 101.929 52.2584C104.046 53.5289 106.861 54.2139 109.851 54.2139C112.691 54.2139 115.406 53.5787 117.474 52.4079C118.034 52.0965 118.532 51.7477 118.981 51.374V55.3848C118.968 55.8955 118.931 56.3439 118.894 56.6304C118.856 56.9916 118.782 57.4026 118.707 57.6766C118.495 58.4987 118.296 59.2087 117.71 60.2799C116.963 61.6625 115.742 62.9828 114.459 63.78C113.563 64.3405 112.902 64.602 112.504 64.739C112.093 64.8761 111.134 65.175 110.087 65.1999C109.975 65.1999 109.863 65.1999 109.751 65.1999Z" fill="#121E51"/>
<path d="M117.399 60.28C117.399 61.401 116.664 62.522 115.182 63.3815C112.217 65.0879 109.452 66.9563 104.457 63.3815C103.062 62.385 102.24 61.401 102.24 60.28C102.24 59.159 102.975 58.0379 104.457 57.191C107.422 55.4845 112.217 55.4845 115.182 57.191C116.664 58.0504 117.399 59.1714 117.399 60.2924V60.28Z" fill="#FCD561"/>
<path d="M116.776 60.293C116.776 62.535 113.625 64.3536 109.739 64.3536C105.852 64.3536 102.701 62.535 102.701 60.293C102.701 58.051 105.852 56.2324 109.739 56.2324C113.625 56.2324 116.776 58.051 116.776 60.293Z" fill="#FEB30F"/>
<path d="M96 84.7803C96 86.823 97.3452 88.8533 100.036 90.4103C105.417 93.5117 114.148 93.5117 119.529 90.4103C122.219 88.8533 123.565 86.823 123.565 84.7803V87.2465C123.565 89.2768 122.219 91.3195 119.529 92.8765C114.148 95.978 105.417 95.978 100.036 92.8765C97.3452 91.3195 96 89.2892 96 87.2465V84.7803Z" fill="#E56A08"/>
<path d="M96 84.7803C96 82.75 97.3452 80.7073 100.036 79.1503C105.417 76.0488 114.148 76.0488 119.529 79.1503C122.219 80.7073 123.565 82.7376 123.565 84.7803C123.565 86.8231 122.219 88.8533 119.529 90.4103C114.148 93.5118 105.417 93.5118 100.036 90.4103C97.3452 88.8533 96 86.8231 96 84.7803Z" fill="#FDC26B"/>
<path d="M106.785 64.291C106.785 64.291 108.579 64.9263 108.841 66.0473C109.102 67.1683 109.152 75.6133 109.227 76.0492C109.301 76.4852 102.227 81.9657 102.227 81.9657L111.519 84.5565L117.834 81.9283L110.597 76.0991V65.6861L112.366 64.291H106.798H106.785Z" fill="#FEB30F"/>
<path opacity="0.5" d="M112.84 65.7605C112.591 65.8476 112.143 65.9847 111.595 66.0968C113.039 66.6822 114.895 67.7658 115.182 67.9402C115.692 68.2765 116.253 68.7747 116.452 68.9616C116.739 69.2107 117.075 69.5844 117.324 69.8709C117.611 70.1947 118.171 70.8922 118.744 71.9759C119.317 73.072 119.591 74.1805 119.591 74.1805C119.778 74.9528 119.815 75.1147 119.89 75.6503C119.977 76.3603 119.977 76.8834 119.977 77.1575V84.1202C119.977 85.6647 118.931 87.1968 116.863 88.3676C116.627 88.5046 116.39 88.6167 116.141 88.7288C112.08 90.6221 106.102 90.4353 102.39 88.2181C100.447 87.0598 99.5 85.5651 99.5 84.0704V77.0952C99.5 76.6966 99.5374 76.1485 99.5872 75.75C99.6121 75.5507 99.6993 74.9279 99.8737 74.2802C99.9733 73.9065 100.272 72.7855 100.995 71.5275C101.68 70.3317 102.95 68.6626 105.068 67.4793C105.416 67.2925 106.949 66.5701 108.07 66.1092C107.783 66.0594 107.596 66.0096 107.596 66.0096C107.123 65.885 106.039 65.5985 104.868 64.8886C104.246 64.5149 102.377 63.369 100.945 60.8031C99.5996 58.3867 99.5872 56.1073 99.5747 55.3475V47.2139C99.5747 48.7086 100.546 50.2032 102.489 51.3492C105.753 53.3047 110.785 53.6784 114.708 52.4453C115.506 52.1962 116.265 51.8723 116.95 51.4986C119.018 50.3403 120.04 48.8082 120.04 47.2637V55.4097C120.04 55.8208 119.99 56.3688 119.94 56.7799C119.902 57.1411 119.815 57.6144 119.728 57.9632C119.516 58.8226 119.28 59.6322 118.644 60.8031C117.81 62.3476 116.452 63.8049 115.02 64.7017C114.036 65.312 113.276 65.6234 112.828 65.7605H112.84Z" fill="#FE9949"/>
<path opacity="0.5" d="M109.763 88.9527C107.184 88.9527 104.693 88.3423 102.937 87.2961C101.405 86.3743 100.57 85.2284 100.57 84.0576V77.0824C100.57 76.7585 100.608 76.2229 100.658 75.8742C100.72 75.3759 100.807 74.94 100.907 74.5414C100.994 74.2051 101.268 73.1837 101.928 72.0502C102.551 70.9791 103.697 69.4595 105.602 68.3883C106.163 68.0893 108.28 67.1302 109.102 66.8438C109.538 67.068 110.074 67.3046 110.323 67.3046H110.772L111.058 67.0057C112.229 67.4665 114.047 68.4505 114.608 68.8118C115.056 69.0982 115.567 69.5591 115.754 69.7335C116.04 69.9826 116.414 70.4185 116.539 70.5556C116.788 70.842 117.286 71.4648 117.797 72.4488C118.307 73.4328 118.556 74.4168 118.556 74.4168C118.743 75.1642 118.768 75.2887 118.83 75.7745C118.918 76.4098 118.905 76.8706 118.905 77.1446V84.1198C118.905 85.3156 117.959 86.5238 116.339 87.4331C114.583 88.4171 112.241 88.9651 109.763 88.9651V88.9527Z" fill="#FFE7A9"/>
<path d="M119.23 83.5593C119.23 84.9544 118.308 86.3494 116.465 87.4206C112.766 89.5505 106.787 89.5505 103.087 87.4206C101.244 86.3494 100.322 84.9544 100.322 83.5593C100.322 82.1643 101.244 80.7692 103.087 79.698C106.787 77.5681 112.766 77.5681 116.465 79.698C118.308 80.7692 119.23 82.1643 119.23 83.5593Z" fill="#FFE19B"/>
<path d="M102.227 81.9653C102.227 81.9653 100.795 84.7803 102.925 85.7518C105.055 86.7234 105.578 86.1504 106.649 83.5596C107.708 80.9688 109.576 78.0666 108.854 78.1289C108.131 78.1912 106.113 80.9688 104.868 81.2428C103.622 81.5169 102.227 81.9777 102.227 81.9777V81.9653Z" fill="#FCEAB2"/>
<path d="M106.389 70.4316C106.389 70.4316 103.437 71.2039 103.076 73.7698C102.914 74.9157 102.478 76.2485 103.499 76.51C104.521 76.7716 104.209 76.51 104.433 74.8036C104.782 72.0883 106.389 70.4316 106.389 70.4316Z" fill="#FEFEFE"/>
<g style="mix-blend-mode:multiply" opacity="0.5">
<path d="M112.839 65.7597C112.59 65.8469 112.142 65.9839 111.594 66.096C113.039 66.6814 114.895 67.7651 115.181 67.9395C115.692 68.2758 116.252 68.774 116.452 68.9608C116.738 69.2099 117.074 69.5836 117.323 69.8701C117.61 70.1939 118.17 70.8915 118.743 71.9751C119.316 73.0712 119.59 74.1798 119.59 74.1798C119.777 74.952 119.815 75.114 119.889 75.6496C119.977 76.3595 119.977 76.8827 119.977 77.1567V84.1194C119.977 85.664 118.93 87.196 116.863 88.3669C116.626 88.5039 116.389 88.616 116.14 88.7281C116.215 85.938 116.227 80.9682 115.729 76.6086C114.994 70.1192 110.747 67.3167 110.747 67.3167C110.747 67.3167 110.585 65.6974 111.868 65.4358C113.151 65.1743 115.455 61.45 115.542 58.0122C115.592 56.0318 115.119 53.9143 114.708 52.457C115.505 52.2079 116.265 51.884 116.95 51.5103C119.017 50.352 120.039 48.8199 120.039 47.2754V55.4214C120.039 55.8325 119.989 56.3805 119.939 56.7916C119.902 57.1528 119.815 57.6261 119.727 57.9749C119.516 58.8343 119.279 59.6439 118.644 60.8148C117.809 62.3593 116.452 63.8166 115.019 64.7134C114.035 65.3238 113.275 65.6351 112.827 65.7722L112.839 65.7597Z" fill="#FCB862"/>
</g>
<path d="M96.4355 45.9561C96.4355 47.9988 97.7808 50.0291 100.471 51.586C105.852 54.6875 114.584 54.6875 119.964 51.586C122.655 50.0291 124 47.9988 124 45.9561V48.4223C124 50.4526 122.655 52.4953 119.964 54.0523C114.584 57.1538 105.852 57.1538 100.471 54.0523C97.7808 52.4953 96.4355 50.465 96.4355 48.4223V45.9561Z" fill="#E56A08"/>
<path d="M96.4355 45.9561C96.4355 43.9258 97.7808 41.8831 100.471 40.3261C105.852 37.2246 114.584 37.2246 119.964 40.3261C122.655 41.8831 124 43.9134 124 45.9561C124 47.9988 122.655 50.0291 119.964 51.5861C114.584 54.6876 105.852 54.6876 100.471 51.5861C97.7808 50.0291 96.4355 47.9988 96.4355 45.9561Z" fill="#FD8433"/>
<path d="M96.4355 45.9561C96.4355 43.9258 97.7808 41.8831 100.471 40.3261C105.852 37.2246 114.584 37.2246 119.964 40.3261C122.655 41.8831 124 43.9134 124 45.9561C124 47.9988 122.655 50.0291 119.964 51.5861C114.584 54.6876 105.852 54.6876 100.471 51.5861C97.7808 50.0291 96.4355 47.9988 96.4355 45.9561Z" fill="black" fill-opacity="0.05"/>
</svg>
