<svg width="154" height="110" viewBox="0 0 154 110" fill="none" xmlns="http://www.w3.org/2000/svg">
<g opacity="0.8">
<path d="M74.7992 22.5967C74.8164 25.1019 73.1946 27.6071 69.9165 29.5595C63.3602 33.4469 52.6632 33.5505 46.0207 29.8013C42.7081 27.9354 41.0345 25.4474 41 22.9422L41.5866 79.8884C41.6039 82.3937 43.2947 84.8643 46.6073 86.7476C53.2498 90.4967 63.9468 90.3758 70.5031 86.5057C73.7812 84.5706 75.403 82.0481 75.3858 79.5429L74.7992 22.5967Z" fill="#B0F2EC"/>
<path d="M69.777 15.7379C63.1344 11.9887 52.4374 12.1097 45.8812 15.9798C39.3249 19.8499 39.394 26.0525 46.0192 29.8017C52.6617 33.5509 63.3587 33.4299 69.915 29.5598C76.4712 25.6724 76.4022 19.4871 69.777 15.7379Z" fill="#EBFFFD"/>
<path d="M108.984 59.3125L88.5566 71.4067L88.8154 95.785L109.243 83.6909L108.984 59.3125Z" fill="#CCEDEB"/>
<path d="M88.5581 71.407L67.8887 59.7275L68.1302 84.1059L88.8169 95.7854L88.5581 71.407Z" fill="#C8FBF7"/>
<path d="M108.986 59.3123L88.3165 47.6328L67.8887 59.727L88.5581 71.4065L108.986 59.3123Z" fill="#EFFEFD"/>
<path d="M17.967 53.1243L25.8727 67.7152L21.8098 65.3702L13.9141 50.7793L17.967 53.1243Z" fill="#BCF4EF"/>
<path d="M36.309 25.0051L28.4633 29.5448L24.4004 27.1898L32.2561 22.6602L36.309 25.0051Z" fill="white"/>
<path d="M28.4638 29.5444L24.3908 54.3971L20.3379 52.0522L24.4008 27.1895L28.4638 29.5444Z" fill="#BCF4EF"/>
<path d="M20.4589 47.1223L12.3129 51.8423L8.25 49.4873L16.3959 44.7773L20.4589 47.1223Z" fill="white"/>
<path d="M12.3129 51.8423V56.402L8.25 54.057V49.4873L12.3129 51.8423Z" fill="#C7F6F2"/>
<path d="M36.3099 25.0059V29.5655L31.6665 32.2512L25.8723 67.7164L17.9666 53.1255L12.3125 56.4024V51.8428L20.4584 47.1227L24.3913 54.3982L28.4642 29.5455L36.3099 25.0059Z" fill="#7CE4D9"/>
<path d="M37.4075 86.507C37.1373 86.6674 36.8971 86.7976 36.6669 86.9379L34.5254 85.7053C34.7556 85.565 34.9957 85.4348 35.2659 85.2744L37.4075 86.507Z" fill="white"/>
<path d="M36.6657 86.9377C36.6056 87.2784 36.5556 87.5891 36.4856 87.8997C36.2154 89.0021 35.685 89.9441 34.8143 90.6355C33.9537 91.317 33.1431 91.5174 32.5927 91.1967L30.4512 89.9641C31.0016 90.2848 31.8122 90.0944 32.6728 89.4029C33.5334 88.7115 34.0738 87.7695 34.344 86.6671C34.4241 86.3464 34.4641 86.0358 34.5241 85.7051L36.6657 86.9377Z" fill="#B1FBF3"/>
<path d="M30.1297 78.0197C30.1297 80.4449 27.9581 94.3243 30.8502 95.9878L28.7087 94.7552C28.3985 94.5748 28.1283 94.2742 27.9381 93.8733C26.2469 90.3358 27.9882 78.3805 27.9882 76.7871L30.1297 78.0197Z" fill="#C7F6F2"/>
<path d="M22.8457 82.2277C22.8057 82.9192 22.3654 89.3328 22.1352 91.9283C21.9451 94.0328 21.3446 96.2074 20.2438 98.4221C19.6534 99.6046 18.5526 102.23 19.6934 102.892L17.5519 101.659C16.6812 101.158 17.1616 99.5645 17.4918 98.6125C17.9922 97.1494 19.6234 94.8044 20.0036 90.6957C20.2438 88.1002 20.6741 81.6866 20.7142 80.9951L22.8557 82.2277H22.8457Z" fill="#C7F6F2"/>
<path d="M37.3862 70.2326C19.9936 80.2939 24.9772 77.3978 22.5655 78.8609C19.3832 80.795 17.8821 85.1643 17.1215 88.8821C17.1416 88.9122 15 87.6796 15 87.6796C15.7405 83.9417 17.2416 79.5524 20.4239 77.6283C22.8357 76.1652 17.8521 79.0513 35.2447 69L37.3862 70.2326Z" fill="#EDFFFE"/>
<path d="M37.3875 70.2324V73.79C35.7663 74.7219 34.1552 75.6539 32.504 76.616C32.4039 77.568 31.8335 85.3244 31.7134 88.2506C31.6834 89.0323 31.8035 89.7739 32.0036 90.3851C32.4339 91.718 33.7048 91.5175 34.8156 90.6357C35.6763 89.9442 36.2167 89.0022 36.4869 87.8999C36.5669 87.5792 36.6069 87.2685 36.667 86.9378C36.8972 86.7975 37.1373 86.6673 37.4075 86.5069C37.1874 88.411 36.9372 90.295 35.9665 92.3092C35.3761 93.5519 34.6155 94.6442 33.6248 95.4058C32.574 96.2175 31.5733 96.4079 30.8528 95.987C27.9607 94.3135 30.1322 80.1835 30.1322 78.0189C28.4911 78.9709 26.8699 79.9029 25.2087 80.865C24.7684 87.5191 24.5582 93.2212 23.3273 98.7028C22.957 100.336 21.9163 102.922 20.2351 103.002C19.3945 103.042 19.1143 102.27 19.2243 101.419C19.3544 100.406 19.8048 99.3041 20.2451 98.4222C21.3459 96.2075 21.9463 94.0329 22.1364 91.9284C22.3766 89.3329 22.8069 82.9193 22.847 82.2279C20.7454 83.3703 19.5846 84.3123 18.1736 87.7896C17.9034 88.451 17.6132 88.8018 17.1328 88.912C17.8733 85.1741 19.3744 80.7848 22.5567 78.8607C24.9685 77.3976 19.9849 80.2837 37.3775 70.2324H37.3875Z" fill="#7CE4D9"/>
<path d="M145.453 87.1233L117.082 70.6283L125.178 62L153.559 78.495L145.453 87.1233Z" fill="#99ECE4"/>
<path d="M120.573 68.7239L124.456 64.5852C125.016 63.9939 125.907 63.8536 126.617 64.2645L149.664 77.6629C150.645 78.2341 150.835 79.5669 150.064 80.3887L146.181 84.5274C145.621 85.1187 144.73 85.259 144.02 84.8481L120.973 71.4497C119.992 70.8785 119.802 69.5457 120.573 68.7239Z" fill="#35B597"/>
<path d="M144.901 85.0887C144.371 85.0887 146.122 86.0207 121.184 71.4999C120.433 71.069 120.293 70.0468 120.884 69.4155L124.767 65.2767C125.017 65.0061 125.377 64.8558 125.747 64.8558C126.278 64.8558 124.526 63.9238 149.465 78.4446C150.215 78.8755 150.355 79.8977 149.765 80.529L145.882 84.6678C145.632 84.9384 145.272 85.0887 144.901 85.0887Z" fill="#D7FAF8"/>
<path d="M116.371 103.939L88 87.4436L117.081 70.6279L145.452 87.1229L116.371 103.939Z" fill="#9FEEE7"/>
<path d="M116.371 107.998L88 91.4929V87.4443L116.371 103.939V107.998Z" fill="#81E6DB"/>
<path d="M153.558 78.4951V86.4921L116.371 107.998V103.939L145.452 87.1234L153.558 78.4951Z" fill="#43C7B1"/>
<path d="M120.765 74.5862V75.9391C120.765 76.1996 120.585 76.4702 120.245 76.6706L118.013 77.9734C117.313 78.3842 116.182 78.3842 115.471 77.9734L113.22 76.6706C112.86 76.4702 112.689 76.1996 112.689 75.929V74.5762C112.689 74.8467 112.87 75.1173 113.22 75.3177L115.471 76.6205C116.172 77.0314 117.313 77.0314 118.013 76.6205L120.245 75.3177C120.595 75.1173 120.765 74.8568 120.765 74.5862Z" fill="white" fill-opacity="0.5"/>
<path d="M114.47 78.2239V79.5768C114.47 79.8373 114.29 80.1079 113.95 80.3083L111.718 81.6111C111.018 82.0219 109.887 82.0219 109.177 81.6111L106.925 80.3083C106.565 80.1079 106.395 79.8373 106.395 79.5667V78.2139C106.395 78.4844 106.575 78.755 106.925 78.9554L109.177 80.2582C109.877 80.6691 111.018 80.6691 111.718 80.2582L113.95 78.9554C114.3 78.755 114.47 78.4945 114.47 78.2239Z" fill="white" fill-opacity="0.5"/>
<path d="M108.226 81.8313V83.1842C108.226 83.4447 108.046 83.7153 107.706 83.9157L105.474 85.2185C104.774 85.6294 103.643 85.6294 102.932 85.2185L100.681 83.9157C100.321 83.7153 100.15 83.4447 100.15 83.1742V81.8213C100.15 82.0919 100.331 82.3624 100.681 82.5629L102.932 83.8656C103.633 84.2765 104.774 84.2765 105.474 83.8656L107.706 82.5629C108.056 82.3624 108.226 82.1019 108.226 81.8313Z" fill="white" fill-opacity="0.5"/>
<path d="M102.033 85.4094V86.7623C102.033 87.0229 101.853 87.2934 101.513 87.4939L99.2809 88.7966C98.5804 89.2075 97.4496 89.2075 96.739 88.7966L94.4874 87.4939C94.1272 87.2934 93.957 87.0229 93.957 86.7523V85.3994C93.957 85.67 94.1372 85.9406 94.4874 86.141L96.739 87.4437C97.4396 87.8546 98.5804 87.8546 99.2809 87.4437L101.513 86.141C101.863 85.9406 102.033 85.68 102.033 85.4094Z" fill="white" fill-opacity="0.5"/>
<path d="M120.246 75.3078L118.014 76.6106C117.314 77.0215 116.183 77.0215 115.472 76.6106L113.221 75.3078C112.53 74.907 112.5 74.2556 113.221 73.8347L115.452 72.5319C116.153 72.1211 117.284 72.1311 117.994 72.5319L120.246 73.8347C120.926 74.2255 120.966 74.8869 120.246 75.2978V75.3078Z" fill="white"/>
<path d="M113.951 78.9455L111.719 80.2483C111.019 80.6592 109.888 80.6592 109.177 80.2483L106.926 78.9455C106.235 78.5447 106.195 77.8933 106.926 77.4724L109.157 76.1696C109.858 75.7588 110.989 75.7688 111.699 76.1696L113.951 77.4724C114.631 77.8632 114.671 78.5246 113.951 78.9355V78.9455Z" fill="white"/>
<path d="M107.707 82.5627L105.475 83.8655C104.774 84.2763 103.644 84.2763 102.933 83.8655L100.681 82.5627C99.9909 82.1619 99.9509 81.5105 100.681 81.0896L102.913 79.7868C103.614 79.376 104.744 79.386 105.455 79.7868L107.707 81.0896C108.387 81.4804 108.427 82.1418 107.707 82.5527V82.5627Z" fill="white"/>
<path d="M101.511 86.1408L99.2796 87.4436C98.5791 87.8545 97.4483 87.8545 96.7378 87.4436L94.4861 86.1408C93.7956 85.74 93.7556 85.0886 94.4861 84.6677L96.7177 83.365C97.4182 82.9541 98.5491 82.9641 99.2596 83.365L101.511 84.6677C102.192 85.0585 102.232 85.7199 101.511 86.1308V86.1408Z" fill="white"/>
<path d="M127.429 78.4348V79.7877C127.429 80.0482 127.249 80.3188 126.909 80.5192L124.677 81.822C123.977 82.2329 122.846 82.2329 122.136 81.822L119.884 80.5192C119.524 80.3188 119.354 80.0482 119.354 79.7777V78.4248C119.354 78.6954 119.534 78.9659 119.884 79.1664L122.136 80.4691C122.836 80.88 123.977 80.88 124.677 80.4691L126.909 79.1664C127.259 78.9659 127.429 78.7054 127.429 78.4348Z" fill="white" fill-opacity="0.5"/>
<path d="M121.134 82.0725V83.4254C121.134 83.6859 120.954 83.9565 120.614 84.1569L118.382 85.4597C117.682 85.8706 116.551 85.8706 115.841 85.4597L113.589 84.1569C113.229 83.9565 113.059 83.6859 113.059 83.4154V82.0625C113.059 82.3331 113.239 82.6037 113.589 82.8041L115.841 84.1068C116.541 84.5177 117.682 84.5177 118.382 84.1068L120.614 82.8041C120.964 82.6037 121.134 82.3431 121.134 82.0725Z" fill="white" fill-opacity="0.5"/>
<path d="M114.881 85.6897V87.0426C114.881 87.3031 114.7 87.5737 114.36 87.7741L112.129 89.0769C111.428 89.4878 110.297 89.4878 109.587 89.0769L107.335 87.7741C106.975 87.5737 106.805 87.3031 106.805 87.0326V85.6797C106.805 85.9503 106.985 86.2208 107.335 86.4213L109.587 87.724C110.287 88.1349 111.428 88.1349 112.129 87.724L114.36 86.4213C114.71 86.2208 114.881 85.9603 114.881 85.6897Z" fill="white" fill-opacity="0.5"/>
<path d="M108.697 89.2678V90.6207C108.697 90.8813 108.517 91.1518 108.177 91.3523L105.945 92.655C105.244 93.0659 104.114 93.0659 103.403 92.655L101.151 91.3523C100.791 91.1518 100.621 90.8813 100.621 90.6107V89.2578C100.621 89.5284 100.801 89.799 101.151 89.9994L103.403 91.3021C104.104 91.713 105.244 91.713 105.945 91.3021L108.177 89.9994C108.527 89.799 108.697 89.5384 108.697 89.2678Z" fill="#DDF6F2"/>
<path d="M126.91 79.1662L124.678 80.469C123.978 80.8799 122.847 80.8799 122.136 80.469L119.885 79.1662C119.194 78.7654 119.154 78.114 119.885 77.6931L122.116 76.3903C122.817 75.9795 123.948 75.9895 124.658 76.3903L126.91 77.6931C127.59 78.0839 127.63 78.7453 126.91 79.1562V79.1662Z" fill="white"/>
<path d="M120.615 82.8039L118.383 84.1067C117.683 84.5176 116.552 84.5176 115.841 84.1067L113.59 82.8039C112.899 82.4031 112.859 81.7517 113.59 81.3308L115.821 80.028C116.522 79.6172 117.653 79.6272 118.363 80.028L120.615 81.3308C121.295 81.7216 121.335 82.383 120.615 82.7939V82.8039Z" fill="white"/>
<path d="M114.361 86.4123L112.129 87.7151C111.429 88.126 110.298 88.126 109.587 87.7151L107.336 86.4123C106.645 86.0115 106.615 85.3601 107.336 84.9392L109.567 83.6364C110.268 83.2256 111.399 83.2356 112.109 83.6364L114.361 84.9392C115.041 85.33 115.081 85.9914 114.361 86.4023V86.4123Z" fill="white"/>
<path d="M108.175 89.9992L105.944 91.302C105.243 91.7129 104.112 91.7129 103.402 91.302L101.15 89.9992C100.46 89.5984 100.42 88.947 101.15 88.5261L103.382 87.2234C104.082 86.8125 105.213 86.8225 105.924 87.2234L108.175 88.5261C108.856 88.9169 108.896 89.5783 108.175 89.9892V89.9992Z" fill="white"/>
<path d="M134.195 82.343V83.6959C134.195 83.9565 134.015 84.227 133.675 84.4274L131.443 85.7302C130.742 86.1411 129.612 86.1411 128.901 85.7302L126.65 84.4274C126.289 84.227 126.119 83.9564 126.119 83.6859V82.333C126.119 82.6036 126.299 82.8742 126.65 83.0746L128.901 84.3773C129.602 84.7882 130.742 84.7882 131.443 84.3773L133.675 83.0746C134.025 82.8742 134.195 82.6136 134.195 82.343Z" fill="white" fill-opacity="0.5"/>
<path d="M127.908 85.9807V87.3336C127.908 87.5941 127.728 87.8647 127.388 88.0651L125.156 89.3679C124.455 89.7788 123.325 89.7788 122.614 89.3679L120.362 88.0651C120.002 87.8647 119.832 87.5941 119.832 87.3236V85.9707C119.832 86.2413 120.012 86.5119 120.362 86.7123L122.614 88.015C123.315 88.4259 124.455 88.4259 125.156 88.015L127.388 86.7123C127.738 86.5119 127.908 86.2513 127.908 85.9807Z" fill="white" fill-opacity="0.5"/>
<path d="M121.656 89.5979V90.9508C121.656 91.2113 121.476 91.4819 121.136 91.6823L118.904 92.9851C118.203 93.396 117.073 93.396 116.362 92.9851L114.11 91.6823C113.75 91.4819 113.58 91.2113 113.58 90.9408V89.5879C113.58 89.8585 113.76 90.129 114.11 90.3295L116.362 91.6322C117.063 92.0431 118.203 92.0431 118.904 91.6322L121.136 90.3295C121.486 90.129 121.656 89.8685 121.656 89.5979Z" fill="white" fill-opacity="0.5"/>
<path d="M115.461 93.176V94.5289C115.461 94.7895 115.28 95.06 114.94 95.2605L112.709 96.5632C112.008 96.9741 110.877 96.9741 110.167 96.5632L107.915 95.2605C107.555 95.06 107.385 94.7895 107.385 94.5189V93.166C107.385 93.4366 107.565 93.7072 107.915 93.9076L110.167 95.2104C110.867 95.6212 112.008 95.6212 112.709 95.2104L114.94 93.9076C115.291 93.7072 115.461 93.4466 115.461 93.176Z" fill="#DDF6F2"/>
<path d="M133.675 83.0744L131.444 84.3772C130.743 84.7881 129.612 84.7881 128.902 84.3772L126.65 83.0744C125.96 82.6736 125.92 82.0222 126.65 81.6013L128.882 80.2985C129.582 79.8877 130.713 79.8977 131.424 80.2985L133.675 81.6013C134.356 81.9921 134.396 82.6535 133.675 83.0644V83.0744Z" fill="white"/>
<path d="M127.39 86.7121L125.159 88.0149C124.458 88.4258 123.327 88.4258 122.617 88.0149L120.365 86.7121C119.675 86.3113 119.634 85.6599 120.365 85.239L122.597 83.9362C123.297 83.5254 124.428 83.5354 125.138 83.9362L127.39 85.239C128.071 85.6298 128.111 86.2912 127.39 86.7021V86.7121Z" fill="white"/>
<path d="M121.134 90.3303L118.903 91.6331C118.202 92.0439 117.071 92.0439 116.361 91.6331L114.109 90.3303C113.419 89.9294 113.379 89.2781 114.109 88.8572L116.341 87.5544C117.041 87.1435 118.172 87.1536 118.883 87.5544L121.134 88.8572C121.815 89.248 121.855 89.9094 121.134 90.3203V90.3303Z" fill="white"/>
<path d="M114.939 93.9074L112.707 95.2102C112.007 95.6211 110.876 95.6211 110.166 95.2102L107.914 93.9074C107.223 93.5066 107.193 92.8552 107.914 92.4343L110.146 91.1316C110.846 90.7207 111.977 90.7307 112.687 91.1316L114.939 92.4343C115.62 92.8251 115.66 93.4866 114.939 93.8974V93.9074Z" fill="white"/>
<path d="M140.861 86.2005V87.5533C140.861 87.8139 140.681 88.0844 140.341 88.2849L138.109 89.5876C137.409 89.9985 136.278 89.9985 135.567 89.5876L133.316 88.2849C132.955 88.0844 132.785 87.8139 132.785 87.5433V86.1904C132.785 86.461 132.965 86.7316 133.316 86.932L135.567 88.2348C136.268 88.6456 137.409 88.6456 138.109 88.2348L140.341 86.932C140.691 86.7316 140.861 86.471 140.861 86.2005Z" fill="#63D0C0"/>
<path d="M134.566 89.8381V91.191C134.566 91.4516 134.386 91.7221 134.046 91.9226L131.814 93.2253C131.114 93.6362 129.983 93.6362 129.272 93.2253L127.021 91.9226C126.66 91.7221 126.49 91.4516 126.49 91.181V89.8281C126.49 90.0987 126.67 90.3693 127.021 90.5697L129.272 91.8725C129.973 92.2833 131.114 92.2833 131.814 91.8725L134.046 90.5697C134.396 90.3693 134.566 90.1087 134.566 89.8381Z" fill="#43C7B1"/>
<path d="M128.31 93.4456V94.7984C128.31 95.059 128.13 95.3296 127.79 95.53L125.558 96.8327C124.858 97.2436 123.727 97.2436 123.016 96.8327L120.765 95.53C120.404 95.3296 120.234 95.059 120.234 94.7884V93.4355C120.234 93.7061 120.415 93.9767 120.765 94.1771L123.016 95.4799C123.717 95.8908 124.858 95.8908 125.558 95.4799L127.79 94.1771C128.14 93.9767 128.31 93.7161 128.31 93.4456Z" fill="#43C7B1"/>
<path d="M122.127 97.0335V98.3863C122.127 98.6469 121.947 98.9175 121.606 99.1179L119.375 100.421C118.674 100.832 117.543 100.832 116.833 100.421L114.581 99.1179C114.221 98.9175 114.051 98.6469 114.051 98.3763V97.0234C114.051 97.294 114.231 97.5646 114.581 97.765L116.833 99.0678C117.533 99.4786 118.674 99.4786 119.375 99.0678L121.606 97.765C121.957 97.5646 122.127 97.304 122.127 97.0335Z" fill="#43C7B1"/>
<path d="M140.339 86.9319L138.108 88.2346C137.407 88.6455 136.276 88.6455 135.566 88.2346L133.314 86.9319C132.624 86.531 132.594 85.8796 133.314 85.4587L135.546 84.156C136.246 83.7451 137.377 83.7551 138.088 84.156L140.339 85.4587C141.02 85.8496 141.06 86.511 140.339 86.9218V86.9319Z" fill="white"/>
<path d="M134.046 90.5696L131.815 91.8723C131.114 92.2832 129.984 92.2832 129.273 91.8723L127.021 90.5696C126.331 90.1687 126.301 89.5173 127.021 89.0964L129.253 87.7937C129.954 87.3828 131.084 87.3928 131.795 87.7937L134.046 89.0964C134.727 89.4873 134.767 90.1487 134.046 90.5595V90.5696Z" fill="white"/>
<path d="M127.791 94.177L125.559 95.4797C124.858 95.8906 123.728 95.8906 123.017 95.4797L120.765 94.177C120.075 93.7761 120.035 93.1247 120.765 92.7038L122.997 91.4011C123.698 90.9902 124.828 91.0002 125.539 91.4011L127.791 92.7038C128.471 93.0947 128.511 93.7561 127.791 94.1669V94.177Z" fill="white"/>
<path d="M121.605 97.7551L119.373 99.0579C118.673 99.4687 117.542 99.4687 116.832 99.0579L114.58 97.7551C113.889 97.3542 113.859 96.7029 114.58 96.282L116.812 94.9792C117.512 94.5683 118.643 94.5784 119.353 94.9792L121.605 96.282C122.286 96.6728 122.326 97.3342 121.605 97.7451V97.7551Z" fill="white"/>
<path d="M88 87.4431C119.623 105.592 116.551 103.768 116.271 103.768L145.402 87.0222L153.568 78.4941L145.532 87.2126L116.371 104.169L88.01 87.4431H88Z" fill="white" fill-opacity="0.3"/>
</g>
</svg>
