<svg width="328" height="40" viewBox="0 0 328 40" fill="none" xmlns="http://www.w3.org/2000/svg">
<g clip-path="url(#clip0_4152_10543)">
<path d="M252.94 0C254.94 0 256.705 0.375628 258.216 1.12688C259.727 1.87814 260.985 2.90893 261.99 4.21053C262.994 5.52086 263.745 7.04084 264.261 8.79668C264.776 10.5438 265.03 12.4219 265.03 14.4224C265.03 16.4228 264.776 18.3009 264.261 20.048C263.745 21.7952 262.994 23.3239 261.99 24.6342C260.985 25.9358 259.727 26.9666 258.216 27.7178C256.705 28.4691 254.94 28.8447 252.94 28.8447C250.939 28.8447 249.175 28.4691 247.663 27.7178C246.152 26.9666 244.894 25.9358 243.89 24.6342C242.885 23.3239 242.134 21.8039 241.618 20.048C241.103 18.3009 240.85 16.4228 240.85 14.4224C240.85 12.4219 241.103 10.5438 241.618 8.79668C242.134 7.04957 242.885 5.52086 243.89 4.21053C244.894 2.90893 246.152 1.87814 247.663 1.12688C249.175 0.375628 250.939 0 252.94 0ZM252.817 25.962C254.25 25.962 255.473 25.6388 256.486 24.9924C257.5 24.3459 258.338 23.4811 258.985 22.4066C259.631 21.3322 260.111 20.1005 260.417 18.7028C260.723 17.3138 260.871 15.855 260.871 14.3175C260.871 12.7801 260.723 11.3212 260.417 9.9323C260.111 8.54335 259.64 7.31164 258.985 6.23717C258.338 5.1627 257.5 4.29788 256.486 3.65145C255.464 3.00502 254.241 2.68181 252.817 2.68181C251.393 2.68181 250.162 3.00502 249.148 3.65145C248.126 4.29788 247.296 5.1627 246.65 6.23717C246.004 7.31164 245.523 8.55208 245.217 9.9323C244.912 11.3212 244.763 12.7801 244.763 14.3175C244.763 15.855 244.912 17.3138 245.217 18.7028C245.523 20.0917 245.995 21.3234 246.65 22.4066C247.296 23.4811 248.135 24.3459 249.148 24.9924C250.162 25.6388 251.393 25.962 252.817 25.962Z" fill="#246BEB"/>
<path d="M278.365 0C280.366 0 282.13 0.375628 283.642 1.12688C285.153 1.87814 286.411 2.90893 287.415 4.21053C288.42 5.52086 289.171 7.04084 289.687 8.79668C290.202 10.5438 290.455 12.4219 290.455 14.4224C290.455 16.4228 290.202 18.3009 289.687 20.048C289.171 21.7952 288.42 23.3239 287.415 24.6342C286.411 25.9358 285.153 26.9666 283.642 27.7178C282.13 28.4691 280.366 28.8447 278.365 28.8447C276.365 28.8447 274.6 28.4691 273.089 27.7178C271.578 26.9666 270.32 25.9358 269.315 24.6342C268.311 23.3239 267.56 21.8039 267.044 20.048C266.529 18.3009 266.275 16.4228 266.275 14.4224C266.275 12.4219 266.529 10.5438 267.044 8.79668C267.56 7.04957 268.311 5.52086 269.315 4.21053C270.32 2.90893 271.578 1.87814 273.089 1.12688C274.6 0.375628 276.365 0 278.365 0ZM278.453 25.962C279.746 25.962 280.855 25.6388 281.781 24.9924C282.707 24.3459 283.458 23.4811 284.052 22.4066C284.637 21.3322 285.074 20.1005 285.345 18.7028C285.616 17.3138 285.756 15.855 285.756 14.3175C285.756 12.7801 285.616 11.3212 285.345 9.9323C285.074 8.54335 284.637 7.31164 284.052 6.23717C283.467 5.1627 282.707 4.29788 281.781 3.65145C280.855 3.00502 279.746 2.68181 278.453 2.68181C277.16 2.68181 276.05 3.00502 275.124 3.65145C274.199 4.29788 273.447 5.1627 272.853 6.23717C272.268 7.31164 271.831 8.55208 271.56 9.9323C271.29 11.3212 271.15 12.7801 271.15 14.3175C271.15 15.855 271.29 17.3138 271.56 18.7028C271.831 20.0917 272.268 21.3234 272.853 22.4066C273.439 23.4811 274.199 24.3459 275.124 24.9924C276.05 25.6388 277.16 25.962 278.453 25.962Z" fill="#246BEB"/>
<path d="M314.19 28.0936H306.398V14.6321C306.398 13.68 306.145 12.9112 305.63 12.3434C305.114 11.7756 304.442 11.4873 303.594 11.4873C302.747 11.4873 302.074 11.7756 301.559 12.3434C301.043 12.9112 300.79 13.68 300.79 14.6321V28.0936H292.998V13.4004C292.998 12.125 293.243 10.9807 293.732 9.96735C294.221 8.95403 294.911 8.09795 295.82 7.39037C296.719 6.68279 297.794 6.14119 299.052 5.76556C300.301 5.38994 301.707 5.19775 303.254 5.19775C304.555 5.19775 305.804 5.42488 307.01 5.87913C308.215 6.33337 309.307 6.96233 310.286 7.75727C311.264 6.96233 312.356 6.33337 313.561 5.87913C314.767 5.42488 316.025 5.19775 317.318 5.19775C318.846 5.19775 320.235 5.38994 321.502 5.76556C322.769 6.14119 323.843 6.68279 324.752 7.39037C325.651 8.09795 326.342 8.95403 326.839 9.96735C327.329 10.9807 327.573 12.125 327.573 13.4004V28.0848H319.781V14.6234C319.781 13.6712 319.528 12.9025 319.012 12.3347C318.497 11.7669 317.824 11.4786 316.977 11.4786C316.13 11.4786 315.457 11.7669 314.942 12.3347C314.426 12.9025 314.173 13.6712 314.173 14.6234V28.0848L314.19 28.0936Z" fill="#246BEB"/>
<path d="M278.314 19.2536C280.292 19.2536 281.896 17.0478 281.896 14.3267C281.896 11.6057 280.292 9.3999 278.314 9.3999C276.336 9.3999 274.732 11.6057 274.732 14.3267C274.732 17.0478 276.336 19.2536 278.314 19.2536Z" fill="#2E2E2E"/>
<path d="M252.816 19.2536C254.794 19.2536 256.397 17.0478 256.397 14.3267C256.397 11.6057 254.794 9.3999 252.816 9.3999C250.838 9.3999 249.234 11.6057 249.234 14.3267C249.234 17.0478 250.838 19.2536 252.816 19.2536Z" fill="#2E2E2E"/>
<path d="M266.2 40C266.086 40 265.972 40 265.859 40C260.364 39.8428 256.582 35.8244 256.424 35.6497C255.525 34.6801 255.586 33.1601 256.556 32.2516C257.525 31.3518 259.036 31.413 259.945 32.3739C260.015 32.4438 262.6 35.1168 266.034 35.1955C268.165 35.2304 270.288 34.2695 272.332 32.2865C273.284 31.3693 274.804 31.3955 275.73 32.3477C276.647 33.2998 276.621 34.8198 275.669 35.7458C272.742 38.5674 269.554 40 266.2 40Z" fill="#2E2E2E"/>
<path d="M233.53 11.9942C232.342 11.9942 231.399 12.3524 230.674 13.0687C229.949 13.785 229.599 14.7372 229.599 15.9252V27.9191H221.746V15.9602C221.746 14.4314 221.991 13.0425 222.48 11.7758C222.969 10.5092 223.659 9.43472 224.568 8.53496C225.476 7.6352 226.542 6.94509 227.8 6.44716C229.049 5.95797 230.455 5.71338 232.002 5.71338H238.938V12.003H233.539L233.53 11.9942Z" fill="#246BEB"/>
<path d="M25.2821 28.6964H18.2413V22.8873H8.39631V28.6964H1.35547V13.6975C1.35547 11.9766 1.64374 10.4042 2.22902 8.97155C2.8143 7.53892 3.62671 6.30721 4.67497 5.27642C5.72323 4.24563 6.98115 3.44196 8.44872 2.87415C9.91629 2.2976 11.5411 2.01807 13.3144 2.01807C15.0877 2.01807 16.7125 2.30634 18.1801 2.87415C19.6477 3.44196 20.9056 4.24563 21.9538 5.27642C23.0021 6.30721 23.8145 7.53892 24.3998 8.97155C24.9851 10.4042 25.2734 11.9766 25.2734 13.6975V28.6964H25.2821ZM8.39631 16.9908H18.2413V13.1297C18.2413 12.4396 18.1277 11.7931 17.9093 11.1729C17.6909 10.5527 17.3764 10.0023 16.9659 9.51315C16.5553 9.02396 16.0486 8.6396 15.4371 8.35133C14.8257 8.06305 14.1181 7.92329 13.3231 7.92329C12.5282 7.92329 11.8119 8.06305 11.2091 8.35133C10.5977 8.6396 10.091 9.02396 9.68043 9.51315C9.26986 10.0023 8.95538 10.5527 8.73699 11.1729C8.5186 11.7931 8.40504 12.4483 8.40504 13.1297V16.9908H8.39631Z" fill="#2E2E2E"/>
<path d="M39.0411 15.3564C38.0452 15.3564 37.2503 15.6535 36.6475 16.2562C36.0448 16.859 35.7478 17.6539 35.7478 18.6497V28.6956H29.1699V18.6759C29.1699 17.4006 29.3708 16.23 29.7814 15.173C30.192 14.116 30.7773 13.2075 31.5285 12.4562C32.2798 11.705 33.1795 11.1197 34.2365 10.7091C35.2848 10.2986 36.4554 10.0977 37.7569 10.0977H43.5661V15.3652H39.0411V15.3564Z" fill="#2E2E2E"/>
<path d="M66.1478 10.0979V27.0973C66.1478 28.3552 65.8683 29.4559 65.318 30.3993C64.7676 31.3427 64.0164 32.1377 63.0817 32.7928C62.147 33.4393 61.055 33.9285 59.8233 34.2517C58.5829 34.5749 57.2725 34.7409 55.9011 34.7409C54.416 34.7409 53.0445 34.5749 51.7954 34.2517C50.5462 33.9285 49.4717 33.4742 48.5632 32.8889C47.6547 32.3036 46.9471 31.6223 46.4317 30.8273C45.9163 30.0324 45.663 29.1763 45.663 28.2416H52.2409C52.2409 28.7395 52.5903 29.1152 53.2891 29.3685C53.988 29.6306 54.8615 29.7529 55.9098 29.7529C56.4077 29.7529 56.8707 29.6917 57.3075 29.5694C57.7443 29.4471 58.1286 29.2724 58.4693 29.0366C58.8013 28.8094 59.0721 28.5299 59.273 28.2067C59.4739 27.8835 59.57 27.5078 59.57 27.0885V25.1143C58.9061 25.7083 58.1024 26.1626 57.1764 26.4858C56.2505 26.809 55.1847 26.975 53.988 26.975C52.7126 26.975 51.5333 26.7478 50.4501 26.2849C49.3756 25.8306 48.4409 25.2017 47.6635 24.4067C46.8773 23.6118 46.2745 22.6858 45.829 21.6288C45.3922 20.5718 45.1738 19.4362 45.1738 18.2394C45.1738 17.0427 45.3922 15.9071 45.829 14.8326C46.2658 13.7668 46.8773 12.8409 47.6635 12.0547C48.4497 11.2685 49.3756 10.6483 50.4501 10.194C51.5246 9.73977 52.7039 9.50391 53.988 9.50391C55.2721 9.50391 56.4165 9.68735 57.3948 10.063C58.3645 10.4386 59.1856 10.954 59.8583 11.6266V10.0805H66.1566L66.1478 10.0979ZM55.6739 21.7162C56.3378 21.7162 56.9144 21.6288 57.4036 21.4454C57.8928 21.2619 58.2946 21.0173 58.6091 20.7029C58.9236 20.3884 59.1594 20.039 59.3079 19.6459C59.4564 19.2528 59.5438 18.8422 59.5612 18.3967V18.1433C59.5438 17.7066 59.4564 17.2873 59.3079 16.8854C59.1507 16.4836 58.9236 16.1254 58.6091 15.811C58.2946 15.4965 57.8928 15.2519 57.4036 15.0684C56.9144 14.885 56.3378 14.7976 55.6739 14.7976C55.01 14.7976 54.3985 14.8937 53.9181 15.0859C53.4289 15.2781 53.0271 15.5314 52.7039 15.8546C52.3806 16.1779 52.1448 16.5535 51.9875 16.9728C51.8303 17.3921 51.7604 17.8201 51.7604 18.2569C51.7604 18.6937 51.839 19.1217 51.9875 19.541C52.136 19.9603 52.3806 20.336 52.7039 20.6592C53.0271 20.9824 53.4376 21.2445 53.9181 21.4279C54.4073 21.6201 54.9926 21.7162 55.6739 21.7162Z" fill="#2E2E2E"/>
<path d="M79.1645 9.52197C80.8417 9.52197 82.318 9.78404 83.5846 10.2907C84.8513 10.8061 85.9083 11.5137 86.7469 12.4047C87.5855 13.3045 88.2232 14.3527 88.6513 15.5495C89.0793 16.755 89.2977 18.0391 89.2977 19.4106C89.2977 20.7821 89.0793 22.0749 88.6513 23.2717C88.2232 24.4772 87.5855 25.5255 86.7469 26.4165C85.9083 27.3162 84.8513 28.0151 83.5846 28.5305C82.318 29.0459 80.8417 29.2992 79.1645 29.2992C77.4872 29.2992 76.0109 29.0459 74.7443 28.5305C73.4776 28.0151 72.4206 27.3075 71.582 26.4165C70.7434 25.5167 70.1057 24.4685 69.6777 23.2717C69.2496 22.0662 69.0312 20.7821 69.0312 19.4106C69.0312 18.0391 69.2496 16.7463 69.6777 15.5495C70.1057 14.344 70.7434 13.2957 71.582 12.4047C72.4206 11.5049 73.4776 10.8061 74.7443 10.2907C76.0109 9.7753 77.4872 9.52197 79.1645 9.52197ZM79.1645 24.0579C79.7934 24.0579 80.335 23.9269 80.7805 23.6735C81.226 23.4202 81.5929 23.0708 81.8812 22.6427C82.1695 22.2147 82.3791 21.7255 82.5102 21.1664C82.6412 20.6161 82.7111 20.0308 82.7111 19.4193C82.7111 18.8078 82.6412 18.2313 82.5102 17.6722C82.3791 17.1219 82.1695 16.624 81.8812 16.1959C81.5929 15.7679 81.226 15.4272 80.7805 15.1651C80.335 14.9118 79.7934 14.7808 79.1645 14.7808C78.5355 14.7808 77.9939 14.9118 77.5484 15.1651C77.1029 15.4185 76.736 15.7679 76.4477 16.1959C76.1594 16.624 75.9498 17.1131 75.8188 17.6722C75.6877 18.2226 75.6178 18.8078 75.6178 19.4193C75.6178 20.0308 75.6877 20.6074 75.8188 21.1664C75.9498 21.7168 76.1594 22.2147 76.4477 22.6427C76.736 23.0708 77.1029 23.4115 77.5484 23.6735C77.9939 23.9356 78.5355 24.0579 79.1645 24.0579Z" fill="#2E2E2E"/>
<path d="M91.7261 23.604H101.37C101.789 23.604 102.113 23.5428 102.331 23.4293C102.549 23.3157 102.663 23.0973 102.663 22.7741C102.663 22.4509 102.549 22.2325 102.331 22.1277C102.113 22.0229 101.789 21.9704 101.37 21.9704H97.1596C96.286 21.9704 95.4823 21.8394 94.766 21.5861C94.0497 21.3328 93.4382 20.9484 92.9228 20.4417C92.4074 19.9351 92.0143 19.3061 91.7348 18.5374C91.4553 17.7774 91.3242 16.8864 91.3242 15.873C91.3242 14.8597 91.464 14.0211 91.7348 13.2873C92.0143 12.5535 92.4074 11.9421 92.9228 11.4529C93.4382 10.9637 94.0497 10.5968 94.766 10.3522C95.4823 10.1076 96.2773 9.97656 97.1596 9.97656H107.887V15.0694H99.0726C98.6533 15.0694 98.3301 15.1305 98.1117 15.2441C97.8933 15.3577 97.7798 15.576 97.7798 15.8993C97.7798 16.2225 97.8933 16.4409 98.1117 16.5457C98.3301 16.6505 98.6533 16.7029 99.0726 16.7029H102.68C104.628 16.7029 106.183 17.2096 107.363 18.2316C108.533 19.2537 109.118 20.7737 109.118 22.8003C109.118 24.827 108.533 26.2596 107.363 27.238C106.192 28.2164 104.628 28.6968 102.68 28.6968H91.7173V23.604H91.7261Z" fill="#2E2E2E"/>
<path d="M145.266 18.3098C145.039 19.9084 144.549 21.3847 143.789 22.73C143.038 24.0753 142.06 25.2371 140.872 26.2068C139.675 27.1764 138.312 27.9364 136.766 28.478C135.22 29.0196 133.551 29.2904 131.761 29.2904C129.716 29.2904 127.856 28.941 126.179 28.2421C124.501 27.5433 123.051 26.5824 121.846 25.3681C120.631 24.1452 119.697 22.7038 119.024 21.0353C118.36 19.3668 118.02 17.5673 118.02 15.6455C118.02 13.7237 118.351 11.9242 119.024 10.2644C119.688 8.60466 120.631 7.16329 121.846 5.94032C123.06 4.71735 124.501 3.76517 126.179 3.06633C127.856 2.36749 129.716 2.01807 131.761 2.01807C133.595 2.01807 135.298 2.30634 136.871 2.87415C138.443 3.45069 139.832 4.23689 141.02 5.25021C142.208 6.26354 143.178 7.4603 143.929 8.84052C144.672 10.2207 145.143 11.732 145.327 13.3743H138.033C137.919 12.5706 137.692 11.8281 137.343 11.138C137.002 10.4479 136.556 9.86257 136.015 9.36465C135.473 8.86672 134.844 8.48236 134.128 8.20282C133.412 7.92329 132.625 7.79225 131.769 7.79225C130.721 7.79225 129.769 8.00191 128.904 8.40374C128.048 8.81431 127.314 9.37338 126.703 10.081C126.091 10.7885 125.619 11.6184 125.287 12.5706C124.956 13.5228 124.79 14.5448 124.79 15.6368C124.79 16.7287 124.956 17.777 125.287 18.7291C125.619 19.6813 126.091 20.5112 126.703 21.2188C127.314 21.9263 128.048 22.4854 128.904 22.896C129.76 23.3066 130.712 23.5075 131.769 23.5075C132.59 23.5075 133.35 23.3764 134.04 23.1231C134.739 22.8698 135.351 22.5116 135.884 22.0486C136.417 21.5944 136.862 21.0441 137.211 20.4064C137.561 19.7687 137.814 19.0698 137.971 18.3011H145.266V18.3098Z" fill="#2E2E2E"/>
<path d="M156.369 23.4295V28.697H153.792C152.936 28.697 152.15 28.5572 151.442 28.2864C150.735 28.0069 150.132 27.6225 149.643 27.1246C149.154 26.6267 148.76 26.0239 148.481 25.3251C148.201 24.6175 148.07 23.84 148.07 22.9752V2.59521H154.648V22.2851C154.648 22.6258 154.753 22.9053 154.963 23.115C155.172 23.3246 155.452 23.4295 155.793 23.4295H156.369Z" fill="#2E2E2E"/>
<path d="M166.642 9.52197C167.935 9.52197 169.071 9.74036 170.049 10.1684C171.019 10.5964 171.84 11.1817 172.513 11.9242V10.0898H178.811V28.6877H172.513V26.8533C171.849 27.5958 171.028 28.1811 170.049 28.6091C169.079 29.0372 167.944 29.2555 166.642 29.2555C165.341 29.2555 164.188 29.0022 163.104 28.4868C162.03 27.9714 161.095 27.2638 160.318 26.3728C159.532 25.4731 158.929 24.4248 158.483 23.228C158.047 22.0225 157.828 20.7471 157.828 19.3931C157.828 18.0391 158.047 16.7375 158.483 15.5408C158.92 14.3527 159.532 13.3045 160.318 12.4047C161.104 11.5049 162.03 10.8061 163.104 10.2907C164.179 9.7753 165.358 9.52197 166.642 9.52197ZM168.337 24.0317C169.027 24.0317 169.612 23.9007 170.11 23.6473C170.608 23.394 171.01 23.0446 171.325 22.6165C171.639 22.1885 171.866 21.6993 172.015 21.1402C172.154 20.5899 172.233 20.0133 172.233 19.4193V19.2446C172.216 18.6681 172.128 18.1177 171.98 17.5849C171.822 17.052 171.595 16.5803 171.281 16.1697C170.966 15.7591 170.565 15.4272 170.075 15.1826C169.586 14.938 169.01 14.807 168.346 14.807C167.682 14.807 167.07 14.938 166.59 15.1913C166.101 15.4534 165.699 15.7941 165.376 16.2221C165.052 16.6502 164.817 17.1394 164.659 17.6984C164.502 18.2488 164.432 18.8253 164.432 19.4193C164.432 20.0133 164.511 20.5812 164.659 21.1402C164.808 21.6906 165.052 22.1885 165.376 22.6165C165.699 23.0446 166.109 23.3853 166.59 23.6473C167.079 23.9007 167.664 24.0317 168.346 24.0317H168.337Z" fill="#2E2E2E"/>
<path d="M181.955 23.604H191.599C192.018 23.604 192.341 23.5428 192.56 23.4293C192.778 23.3157 192.891 23.0973 192.891 22.7741C192.891 22.4509 192.778 22.2325 192.56 22.1277C192.341 22.0229 192.018 21.9704 191.599 21.9704H187.388C186.515 21.9704 185.711 21.8394 184.995 21.5861C184.278 21.3328 183.667 20.9484 183.151 20.4417C182.636 19.9351 182.243 19.3061 181.963 18.5374C181.684 17.7774 181.553 16.8864 181.553 15.873C181.553 14.8597 181.693 14.0211 181.963 13.2873C182.243 12.5535 182.636 11.9421 183.151 11.4529C183.667 10.9637 184.278 10.5968 184.995 10.3522C185.711 10.1076 186.506 9.97656 187.388 9.97656H198.115V15.0694H189.301C188.882 15.0694 188.559 15.1305 188.34 15.2441C188.122 15.3577 188.008 15.576 188.008 15.8993C188.008 16.2225 188.122 16.4409 188.34 16.5457C188.559 16.6505 188.882 16.7029 189.301 16.7029H192.909C194.857 16.7029 196.412 17.2096 197.591 18.2316C198.762 19.2537 199.347 20.7737 199.347 22.8003C199.347 24.827 198.762 26.2596 197.591 27.238C196.421 28.2164 194.857 28.6968 192.909 28.6968H181.946V23.604H181.955Z" fill="#2E2E2E"/>
<path d="M201.644 23.604H211.288C211.707 23.604 212.031 23.5428 212.249 23.4293C212.467 23.3157 212.581 23.0973 212.581 22.7741C212.581 22.4509 212.467 22.2325 212.249 22.1277C212.031 22.0229 211.707 21.9704 211.288 21.9704H207.078C206.204 21.9704 205.4 21.8394 204.684 21.5861C203.968 21.3328 203.356 20.9484 202.841 20.4417C202.325 19.9351 201.932 19.3061 201.653 18.5374C201.373 17.7774 201.242 16.8864 201.242 15.873C201.242 14.8597 201.382 14.0211 201.653 13.2873C201.932 12.5535 202.325 11.9421 202.841 11.4529C203.356 10.9637 203.968 10.5968 204.684 10.3522C205.4 10.1076 206.195 9.97656 207.078 9.97656H217.805V15.0694H208.991C208.571 15.0694 208.248 15.1305 208.03 15.2441C207.811 15.3577 207.698 15.576 207.698 15.8993C207.698 16.2225 207.811 16.4409 208.03 16.5457C208.248 16.6505 208.571 16.7029 208.991 16.7029H212.598C214.546 16.7029 216.101 17.2096 217.281 18.2316C218.451 19.2537 219.036 20.7737 219.036 22.8003C219.036 24.827 218.451 26.2596 217.281 27.238C216.11 28.2164 214.546 28.6968 212.598 28.6968H201.635V23.604H201.644Z" fill="#2E2E2E"/>
</g>
<defs>
<clipPath id="clip0_4152_10543">
<rect width="327.582" height="40" fill="white"/>
</clipPath>
</defs>
</svg>
