<svg width="30" height="30" viewBox="0 0 30 30" fill="none" xmlns="http://www.w3.org/2000/svg">
<g clip-path="url(#clip0_1794_8707)">
<path d="M0 15C0 23.2835 6.71529 30 14.9992 30C23.2831 30 30 23.2851 30 15C30 6.71494 23.2847 0 14.9992 0C6.71371 0 0 6.71494 0 15Z" fill="url(#paint0_radial_1794_8707)"/>
<path d="M7.17969 12.5483C7.17969 14.2986 7.80995 15.717 8.58712 15.717C9.36429 15.717 9.99613 14.2986 9.99613 12.5483C9.99613 10.7981 9.36587 9.37964 8.58712 9.37964C7.80837 9.37964 7.17969 10.7981 7.17969 12.5483Z" fill="#201600"/>
<path d="M20 12.5481C20 14.2983 20.6303 15.7168 21.409 15.7168C22.1878 15.7168 22.818 14.2983 22.818 12.5481C22.818 10.7979 22.1878 9.37939 21.409 9.37939C20.6303 9.37939 20 10.7979 20 12.5481Z" fill="#201600"/>
<path d="M15.0004 24.5693C12.7793 24.5693 10.6609 24.664 8.72266 24.8378C9.21078 22.5521 11.8347 20.8066 15.0004 20.8066C18.1661 20.8066 20.79 22.5521 21.2781 24.8378C19.3398 24.6656 17.2214 24.5693 15.0004 24.5693Z" fill="#ED1B24"/>
<path d="M23.0185 16.0014C24.4152 18.0309 26.2232 18.4856 26.6991 19.6127C27.1763 20.7411 27.2086 22.0942 25.8777 22.768C24.5481 23.4432 23.6274 22.5393 23.1502 21.4109C22.6743 20.2838 23.528 18.4801 23.0172 16L23.0185 16.0014Z" fill="#0D95BF" stroke="#0D95BF" stroke-linejoin="round"/>
</g>
<defs>
<radialGradient id="paint0_radial_1794_8707" cx="0" cy="0" r="1" gradientUnits="userSpaceOnUse" gradientTransform="translate(14.9992 15) scale(15.0008 15)">
<stop stop-color="#FFE89C"/>
<stop offset="1" stop-color="#FFC300"/>
</radialGradient>
<clipPath id="clip0_1794_8707">
<rect width="30" height="30" fill="white"/>
</clipPath>
</defs>
</svg>
