<svg width="30" height="30" viewBox="0 0 30 30" fill="none" xmlns="http://www.w3.org/2000/svg">
<g clip-path="url(#clip0_1794_8706)">
<path d="M0 15C0 23.2835 6.71529 30 14.9992 30C23.2831 30 30 23.2851 30 15C30 6.71494 23.2847 0 14.9992 0C6.71371 0 0 6.71494 0 15Z" fill="url(#paint0_radial_1794_8706)"/>
<path d="M7.17969 12.5483C7.17969 14.2986 7.80995 15.717 8.58712 15.717C9.36429 15.717 9.99613 14.2986 9.99613 12.5483C9.99613 10.7981 9.36587 9.37964 8.58712 9.37964C7.80837 9.37964 7.17969 10.7981 7.17969 12.5483Z" fill="#201600"/>
<path d="M21.409 15.717C22.1872 15.717 22.818 14.2984 22.818 12.5483C22.818 10.7983 22.1872 9.37964 21.409 9.37964C20.6308 9.37964 20 10.7983 20 12.5483C20 14.2984 20.6308 15.717 21.409 15.717Z" fill="#201600"/>
<path d="M22.9456 24.7921C19.2507 18.9697 10.7535 18.9697 7.05859 24.7921C7.19129 24.8774 7.32557 24.9611 7.45826 25.0464C10.9668 19.5178 19.0358 19.5178 22.5459 25.0464C22.6786 24.9611 22.8129 24.8774 22.9456 24.7921Z" fill="#ED1B24" stroke="#ED1B24" stroke-linejoin="round"/>
</g>
<defs>
<radialGradient id="paint0_radial_1794_8706" cx="0" cy="0" r="1" gradientUnits="userSpaceOnUse" gradientTransform="translate(14.9992 15) scale(15.0008 15)">
<stop stop-color="#FFE89C"/>
<stop offset="1" stop-color="#FFC300"/>
</radialGradient>
<clipPath id="clip0_1794_8706">
<rect width="30" height="30" fill="white"/>
</clipPath>
</defs>
</svg>
