<svg width="30" height="30" viewBox="0 0 30 30" fill="none" xmlns="http://www.w3.org/2000/svg">
<g clip-path="url(#clip0_1794_8705)">
<path d="M0.00158116 15C0.00158116 23.2835 6.71651 30 15.0016 30C23.2866 30 30 23.2851 30 15C30 6.71493 23.2835 0 15 0C6.71651 0 0 6.71493 0 15H0.00158116Z" fill="url(#paint0_radial_1794_8705)"/>
<path d="M8.5887 15.7153C9.36688 15.7153 9.99772 14.2967 9.99772 12.5466C9.99772 10.7966 9.36688 9.37793 8.5887 9.37793C7.81053 9.37793 7.17969 10.7966 7.17969 12.5466C7.17969 14.2967 7.81053 15.7153 8.5887 15.7153Z" fill="#201600"/>
<path d="M21.4129 15.7153C22.1911 15.7153 22.8219 14.2967 22.8219 12.5466C22.8219 10.7966 22.1911 9.37793 21.4129 9.37793C20.6347 9.37793 20.0039 10.7966 20.0039 12.5466C20.0039 14.2967 20.6347 15.7153 21.4129 15.7153Z" fill="#201600"/>
<path d="M15 24.4809C12.7791 24.4809 10.6608 24.5757 8.72266 24.7494C9.21076 22.4637 11.8345 20.7183 15 20.7183C18.1656 20.7183 20.7893 22.4637 21.2774 24.7494C19.3392 24.5773 17.221 24.4809 15 24.4809Z" fill="#ED1B24"/>
</g>
<defs>
<radialGradient id="paint0_radial_1794_8705" cx="0" cy="0" r="1" gradientUnits="userSpaceOnUse" gradientTransform="translate(14.9992 15) scale(15.0008 15)">
<stop stop-color="#FFE89C"/>
<stop offset="1" stop-color="#FFC300"/>
</radialGradient>
<clipPath id="clip0_1794_8705">
<rect width="30" height="30" fill="white"/>
</clipPath>
</defs>
</svg>
