<svg width="30" height="30" viewBox="0 0 30 30" fill="none" xmlns="http://www.w3.org/2000/svg">
<g clip-path="url(#clip0_1794_8694)">
<path d="M0 15C0 23.2835 6.71529 30 15.0008 30C23.2863 30 30 23.2851 30 15C30 6.71493 23.2831 0 14.9992 0C6.71529 0 0 6.71493 0 15Z" fill="url(#paint0_radial_1794_8694)"/>
<path d="M7.17969 12.5466C7.17969 14.2968 7.80995 15.7153 8.58712 15.7153C9.36429 15.7153 9.99614 14.2968 9.99614 12.5466C9.99614 10.7964 9.36587 9.37793 8.58712 9.37793C7.80837 9.37793 7.17969 10.7964 7.17969 12.5466Z" fill="#201600"/>
<path d="M20.0039 12.5466C20.0039 14.2968 20.6342 15.7153 21.4113 15.7153C22.1885 15.7153 22.8204 14.2968 22.8204 12.5466C22.8204 10.7964 22.1901 9.37793 21.4113 9.37793C20.6326 9.37793 20.0039 10.7964 20.0039 12.5466Z" fill="#201600"/>
<path d="M15.0004 20.9868C12.7793 20.9868 10.6609 20.892 8.72266 20.7183C9.21078 23.004 11.8347 24.7494 15.0004 24.7494C18.1661 24.7494 20.79 23.004 21.2781 20.7183C19.3398 20.8904 17.2214 20.9868 15.0004 20.9868Z" fill="#ED1B24"/>
</g>
<defs>
<radialGradient id="paint0_radial_1794_8694" cx="0" cy="0" r="1" gradientUnits="userSpaceOnUse" gradientTransform="translate(14.9992 15) scale(15.0008 15)">
<stop stop-color="#FFE89C"/>
<stop offset="1" stop-color="#FFC300"/>
</radialGradient>
<clipPath id="clip0_1794_8694">
<rect width="30" height="30" fill="white"/>
</clipPath>
</defs>
</svg>
