<svg width="30" height="30" viewBox="0 0 30 30" fill="none" xmlns="http://www.w3.org/2000/svg">
<g clip-path="url(#clip0_1794_8702)">
<path d="M15 30C23.2843 30 30 23.2843 30 15C30 6.71573 23.2843 0 15 0C6.71573 0 0 6.71573 0 15C0 23.2843 6.71573 30 15 30Z" fill="url(#paint0_radial_1794_8702)"/>
<path d="M22.9448 20.6698C19.25 26.4923 10.7533 26.4923 7.05859 20.6698C7.19128 20.5845 7.32555 20.5008 7.45824 20.4155C10.9666 25.9442 19.0352 25.9442 22.5451 20.4155C22.6778 20.5008 22.8121 20.5845 22.9448 20.6698Z" fill="#ED1B24" stroke="#ED1B24" stroke-linejoin="round"/>
<path d="M8.57862 15.6752C8.59441 15.6752 8.61179 15.6784 8.62758 15.6784C8.64496 15.6784 8.68129 15.6816 8.68129 15.6816H8.73816C8.73816 15.6816 8.77607 15.6816 8.79502 15.6816C8.8124 15.6816 8.82978 15.68 8.84873 15.6784C8.86453 15.6784 8.88191 15.6768 8.8977 15.6752C9.80598 15.5931 10.8959 14.8317 11.6415 13.6691C12.6256 12.1322 12.6351 10.4736 11.662 9.96809C10.8754 9.55897 9.68593 10.0265 8.73974 11.0343C7.79355 10.0265 6.6041 9.55897 5.81746 9.96809C4.84442 10.4752 4.85389 12.1322 5.83798 13.6691C6.58356 14.8333 7.6735 15.5947 8.58178 15.6752H8.57862Z" fill="#ED1B24"/>
<path d="M21.102 15.6752C21.1178 15.6752 21.1352 15.6784 21.151 15.6784C21.1684 15.6784 21.2047 15.6816 21.2047 15.6816H21.2616C21.2616 15.6816 21.2995 15.6816 21.3185 15.6816C21.3358 15.6816 21.3532 15.68 21.3722 15.6784C21.388 15.6784 21.4053 15.6768 21.4211 15.6752C22.3294 15.5931 23.4193 14.8317 24.1649 13.6691C25.149 12.1322 25.1585 10.4736 24.1855 9.96809C23.3988 9.55897 22.2109 10.0265 21.2632 11.0343C20.317 10.0265 19.1275 9.55897 18.3409 9.96809C17.3678 10.4752 17.3773 12.1322 18.3614 13.6691C19.107 14.8333 20.1969 15.5947 21.1052 15.6752H21.102Z" fill="#ED1B24"/>
</g>
<defs>
<radialGradient id="paint0_radial_1794_8702" cx="0" cy="0" r="1" gradientUnits="userSpaceOnUse" gradientTransform="translate(14.9992 15) scale(15.0008 15)">
<stop stop-color="#FFE89C"/>
<stop offset="1" stop-color="#FFC300"/>
</radialGradient>
<clipPath id="clip0_1794_8702">
<rect width="30" height="30" fill="white"/>
</clipPath>
</defs>
</svg>
