<svg width="30" height="30" viewBox="0 0 30 30" fill="none" xmlns="http://www.w3.org/2000/svg">
<g clip-path="url(#clip0_1794_8704)">
<path d="M0 15C0 23.2835 6.71529 30 15.0008 30C23.2863 30 30 23.2851 30 15C30 6.71494 23.2847 0 15.0008 0C6.71687 0 0 6.71652 0 15Z" fill="url(#paint0_radial_1794_8704)"/>
<path d="M7.17969 12.5483C7.17969 14.2986 7.80995 15.717 8.58712 15.717C9.36429 15.717 9.99614 14.2986 9.99614 12.5483C9.99614 10.7981 9.36587 9.37964 8.58712 9.37964C7.80837 9.37964 7.17969 10.7981 7.17969 12.5483Z" fill="#201600"/>
<path d="M20.0039 12.5483C20.0039 14.2986 20.6342 15.717 21.4113 15.717C22.1885 15.717 22.8204 14.2986 22.8204 12.5483C22.8204 10.7981 22.1901 9.37964 21.4113 9.37964C20.6326 9.37964 20.0039 10.7981 20.0039 12.5483Z" fill="#201600"/>
<path d="M21.2558 22.7353C21.2558 23.1776 20.9699 23.5362 20.6176 23.5362H9.37648C9.02421 23.5362 8.73828 23.1776 8.73828 22.7353C8.73828 22.293 9.02421 21.9329 9.37648 21.9329H20.6176C20.9699 21.9329 21.2558 22.2914 21.2558 22.7353Z" fill="#ED1B24"/>
</g>
<defs>
<radialGradient id="paint0_radial_1794_8704" cx="0" cy="0" r="1" gradientUnits="userSpaceOnUse" gradientTransform="translate(14.9992 15) scale(15.0008 15)">
<stop stop-color="#FFE89C"/>
<stop offset="1" stop-color="#FFC300"/>
</radialGradient>
<clipPath id="clip0_1794_8704">
<rect width="30" height="30" fill="white"/>
</clipPath>
</defs>
</svg>
