<svg width="30" height="30" viewBox="0 0 30 30" fill="none" xmlns="http://www.w3.org/2000/svg">
<g clip-path="url(#clip0_1794_8703)">
<path d="M0 15C0 23.2835 6.71529 30 15.0008 30C23.2863 30 30 23.2851 30 15C30 6.71494 23.2847 0 15.0008 0C6.71687 0 0 6.71494 0 15Z" fill="url(#paint0_radial_1794_8703)"/>
<path d="M8.5887 15.717C9.36688 15.717 9.99772 14.2984 9.99772 12.5483C9.99772 10.7983 9.36688 9.37964 8.5887 9.37964C7.81053 9.37964 7.17969 10.7983 7.17969 12.5483C7.17969 14.2984 7.81053 15.717 8.5887 15.717Z" fill="#201600"/>
<path d="M21.4129 15.717C22.1911 15.717 22.8219 14.2984 22.8219 12.5483C22.8219 10.7983 22.1911 9.37964 21.4129 9.37964C20.6347 9.37964 20.0039 10.7983 20.0039 12.5483C20.0039 14.2984 20.6347 15.717 21.4129 15.717Z" fill="#201600"/>
<path d="M13.0703 22.2408C13.0703 24.2848 13.9344 25.9419 14.9991 25.9419C16.0638 25.9419 16.9279 24.2848 16.9279 22.2408C16.9279 20.1968 16.0638 18.5398 14.9991 18.5398C13.9344 18.5398 13.0703 20.1968 13.0703 22.2408Z" fill="#ED1B24"/>
</g>
<defs>
<radialGradient id="paint0_radial_1794_8703" cx="0" cy="0" r="1" gradientUnits="userSpaceOnUse" gradientTransform="translate(14.9992 15) scale(15.0008 15)">
<stop stop-color="#FFE89C"/>
<stop offset="1" stop-color="#FFC300"/>
</radialGradient>
<clipPath id="clip0_1794_8703">
<rect width="30" height="30" fill="white"/>
</clipPath>
</defs>
</svg>
