<svg width="16" height="16" viewBox="0 0 16 16" fill="none" xmlns="http://www.w3.org/2000/svg">
<path d="M0.849609 4.6721C0.849609 5.08631 1.1854 5.4221 1.59961 5.4221C2.01382 5.4221 2.34961 5.08631 2.34961 4.6721H0.849609ZM4.67161 2.3501C5.08582 2.3501 5.42161 2.01431 5.42161 1.6001C5.42161 1.18588 5.08582 0.850098 4.67161 0.850098V2.3501ZM11.3276 0.850098C10.9134 0.850098 10.5776 1.18588 10.5776 1.6001C10.5776 2.01431 10.9134 2.3501 11.3276 2.3501V0.850098ZM11.8396 1.6001V0.850098V1.6001ZM14.3996 4.1601H13.6496H14.3996ZM13.6496 4.6721C13.6496 5.08631 13.9854 5.4221 14.3996 5.4221C14.8138 5.4221 15.1496 5.08631 15.1496 4.6721H13.6496ZM4.43394 13.1384C4.72683 12.8455 4.72683 12.3707 4.43394 12.0778C4.14105 11.7849 3.66617 11.7849 3.37328 12.0778L4.43394 13.1384ZM1.58128 13.8698C1.28839 14.1627 1.28839 14.6375 1.58128 14.9304C1.87417 15.2233 2.34905 15.2233 2.64194 14.9304L1.58128 13.8698ZM13.3573 14.9304C13.6502 15.2233 14.125 15.2233 14.4179 14.9304C14.7108 14.6375 14.7108 14.1627 14.4179 13.8698L13.3573 14.9304ZM12.6259 12.0778C12.333 11.7849 11.8582 11.7849 11.5653 12.0778C11.2724 12.3707 11.2724 12.8455 11.5653 13.1384L12.6259 12.0778ZM6.52994 7.86977C6.23705 7.57687 5.76217 7.57687 5.46928 7.86977C5.17639 8.16266 5.17639 8.63753 5.46928 8.93043L6.52994 7.86977ZM7.19961 9.6001L6.66928 10.1304C6.96217 10.4233 7.43705 10.4233 7.72994 10.1304L7.19961 9.6001ZM10.5299 7.33043C10.8228 7.03753 10.8228 6.56266 10.5299 6.26977C10.237 5.97687 9.76217 5.97687 9.46928 6.26977L10.5299 7.33043ZM2.34961 4.6721V4.1601H0.849609V4.6721H2.34961ZM4.15961 2.3501H4.67161V0.850098H4.15961V2.3501ZM2.34961 4.1601C2.34961 3.16046 3.15997 2.3501 4.15961 2.3501V0.850098C2.33155 0.850098 0.849609 2.33204 0.849609 4.1601H2.34961ZM11.3276 2.3501H11.8396V0.850098H11.3276V2.3501ZM13.6496 4.1601V4.6721H15.1496V4.1601H13.6496ZM11.8396 2.3501C12.8392 2.3501 13.6496 3.16046 13.6496 4.1601H15.1496C15.1496 2.33203 13.6677 0.850098 11.8396 0.850098V2.3501ZM3.37328 12.0778L1.58128 13.8698L2.64194 14.9304L4.43394 13.1384L3.37328 12.0778ZM14.4179 13.8698L12.6259 12.0778L11.5653 13.1384L13.3573 14.9304L14.4179 13.8698ZM12.8816 8.5121C12.8816 11.2083 10.6959 13.3941 7.99961 13.3941V14.8941C11.5243 14.8941 14.3816 12.0368 14.3816 8.5121H12.8816ZM7.99961 13.3941C5.30335 13.3941 3.11761 11.2083 3.11761 8.5121H1.61761C1.61761 12.0368 4.47493 14.8941 7.99961 14.8941V13.3941ZM3.11761 8.5121C3.11761 5.81584 5.30335 3.6301 7.99961 3.6301V2.1301C4.47493 2.1301 1.61761 4.98742 1.61761 8.5121H3.11761ZM7.99961 3.6301C10.6959 3.6301 12.8816 5.81584 12.8816 8.5121H14.3816C14.3816 4.98742 11.5243 2.1301 7.99961 2.1301V3.6301ZM5.46928 8.93043L6.66928 10.1304L7.72994 9.06977L6.52994 7.86977L5.46928 8.93043ZM7.72994 10.1304L10.5299 7.33043L9.46928 6.26977L6.66928 9.06977L7.72994 10.1304Z" fill="#999999"/>
</svg>
