<svg width="24" height="24" viewBox="0 0 24 24" fill="none" xmlns="http://www.w3.org/2000/svg">
<path fill-rule="evenodd" clip-rule="evenodd" d="M15 22H9C4 22 2 20 2 15V9C2 4 4 2 9 2H15C20 2 22 4 22 9V15C22 20 20 22 15 22ZM14 5.25C13.5858 5.25 13.25 5.58579 13.25 6C13.25 6.41421 13.5858 6.75 14 6.75H16.1893L6.75 16.1893V14C6.75 13.5858 6.41421 13.25 6 13.25C5.58579 13.25 5.25 13.5858 5.25 14V18C5.25 18.1017 5.27024 18.1987 5.30691 18.2871C5.34324 18.3749 5.39696 18.4572 5.46808 18.5287L5.46967 18.5303L5.47126 18.5319C5.5428 18.603 5.62511 18.6568 5.71291 18.6931C5.80134 18.7298 5.89831 18.75 6 18.75H10C10.4142 18.75 10.75 18.4142 10.75 18C10.75 17.5858 10.4142 17.25 10 17.25H7.81066L17.25 7.81066V10C17.25 10.4142 17.5858 10.75 18 10.75C18.4142 10.75 18.75 10.4142 18.75 10V6C18.75 5.7937 18.6667 5.60686 18.5319 5.47126L18.5303 5.46967L18.5287 5.46808C18.4572 5.39696 18.3749 5.34324 18.2871 5.30691C18.1987 5.27024 18.1017 5.25 18 5.25H14Z" fill="#246BEB"/>
</svg>
