<svg width="25" height="24" viewBox="0 0 25 24" fill="none" xmlns="http://www.w3.org/2000/svg">
<path fill-rule="evenodd" clip-rule="evenodd" d="M9 19H8.5C4.5 19 2.5 18 2.5 13V8C2.5 4 4.5 2 8.5 2H16.5C20.5 2 22.5 4 22.5 8V13C22.5 17 20.5 19 16.5 19H16C15.69 19 15.39 19.15 15.2 19.4L13.7 21.4C13.04 22.28 11.96 22.28 11.3 21.4L9.8 19.4C9.64 19.18 9.27 19 9 19ZM6.75 8C6.75 7.58579 7.08579 7.25 7.5 7.25H17.5C17.9142 7.25 18.25 7.58579 18.25 8C18.25 8.41421 17.9142 8.75 17.5 8.75H7.5C7.08579 8.75 6.75 8.41421 6.75 8ZM7.5 12.25C7.08579 12.25 6.75 12.5858 6.75 13C6.75 13.4142 7.08579 13.75 7.5 13.75H13.5C13.9142 13.75 14.25 13.4142 14.25 13C14.25 12.5858 13.9142 12.25 13.5 12.25H7.5Z" fill="#246BEB"/>
</svg>
