<svg width="25" height="24" viewBox="0 0 25 24" fill="none" xmlns="http://www.w3.org/2000/svg">
<path fill-rule="evenodd" clip-rule="evenodd" d="M15.5 22.75H9.5C5.09 22.75 3.75 21.41 3.75 17V7C3.75 2.59 5.09 1.25 9.5 1.25H15.5C19.91 1.25 21.25 2.59 21.25 7V17C21.25 21.41 19.91 22.75 15.5 22.75ZM14.5 6.25H10.5C10.09 6.25 9.75 5.91 9.75 5.5C9.75 5.09 10.09 4.75 10.5 4.75H14.5C14.91 4.75 15.25 5.09 15.25 5.5C15.25 5.91 14.91 6.25 14.5 6.25ZM10.2002 17.56C10.2002 18.83 11.2302 19.86 12.5002 19.86C13.7702 19.86 14.8002 18.83 14.8002 17.56C14.8002 16.29 13.7702 15.26 12.5002 15.26C11.2302 15.26 10.2002 16.29 10.2002 17.56ZM11.7002 17.55C11.7002 17.11 12.0602 16.75 12.5002 16.75C12.9402 16.75 13.3002 17.11 13.3002 17.55C13.3002 17.99 12.9402 18.35 12.5002 18.35C12.0602 18.35 11.7002 17.99 11.7002 17.55Z" fill="#246BEB"/>
</svg>
