<svg width="24" height="24" viewBox="0 0 24 24" fill="none" xmlns="http://www.w3.org/2000/svg">
<path fill-rule="evenodd" clip-rule="evenodd" d="M10.2931 6.31623C10.2931 5.36128 11.0605 4.61096 11.9983 4.61096C12.9362 4.61096 13.7036 5.37833 13.7036 6.31623C13.7036 7.25412 12.9362 8.02149 11.9983 8.02149C11.0605 8.02149 10.2931 7.27117 10.2931 6.31623ZM10.2931 12.0004C10.2931 11.0455 11.0605 10.2952 11.9983 10.2952C12.9362 10.2952 13.7036 11.0625 13.7036 12.0004C13.7036 12.9383 12.9362 13.7057 11.9983 13.7057C11.0605 13.7057 10.2931 12.9554 10.2931 12.0004ZM11.9983 15.9794C11.0605 15.9794 10.2931 16.7297 10.2931 17.6846C10.2931 18.6396 11.0605 19.3899 11.9983 19.3899C12.9362 19.3899 13.7036 18.6225 13.7036 17.6846C13.7036 16.7468 12.9362 15.9794 11.9983 15.9794Z" fill="#E6E6E6"/>
</svg>
