<svg width="32" height="32" viewBox="0 0 32 32" fill="none" xmlns="http://www.w3.org/2000/svg">
<path d="M0 8C0 3.58172 3.58172 0 8 0H24C28.4183 0 32 3.58172 32 8V24C32 28.4183 28.4183 32 24 32H8C3.58172 32 0 28.4183 0 24V8Z" fill="#E7EDF6"/>
<path d="M19.9155 8.59582L8.87923 20.0175L7.2002 24.8002L11.9829 23.1211L23.4046 12.0849C24.5928 10.8966 25.4069 8.97002 24.2186 7.78174C23.0303 6.59345 21.1037 7.40753 19.9155 8.59582Z" fill="#0F2D63"/>
<path d="M9.37102 19.5085L12.5426 22.5615M8.87923 20.0175L19.9155 8.59582C21.1037 7.40753 23.0303 6.59345 24.2186 7.78174C25.4069 8.97002 24.5928 10.8966 23.4046 12.0849L11.9829 23.1211L7.2002 24.8002L8.87923 20.0175Z" stroke="#0F2D63" stroke-linecap="round" stroke-linejoin="round"/>
<path d="M18.8003 9.59995L22.4003 13.1999" stroke="#E7EDF6" stroke-width="2" stroke-linecap="square"/>
</svg>
