<svg width="32" height="32" viewBox="0 0 32 32" fill="none" xmlns="http://www.w3.org/2000/svg">
<path d="M0 8C0 3.58172 3.58172 0 8 0H24C28.4183 0 32 3.58172 32 8V24C32 28.4183 28.4183 32 24 32H8C3.58172 32 0 28.4183 0 24V8Z" fill="#E7EDF6"/>
<path d="M14.5458 21.7455V10.2546C14.5458 9.16368 14.2568 8.72732 13.5266 8.72732H11.6861C10.956 8.72732 10.667 9.16368 10.667 10.2546V21.7455C10.667 22.8364 10.956 23.2728 11.6861 23.2728H13.5266C14.2568 23.2728 14.5458 22.8364 14.5458 21.7455Z" fill="#0F2D63" stroke="#0F2D63" stroke-linecap="round" stroke-linejoin="round"/>
<path d="M21.3339 21.7455V10.2546C21.3339 9.16368 21.0449 8.72732 20.3147 8.72732H18.4742C17.7441 8.72732 17.4551 9.16368 17.4551 10.2546V21.7455C17.4551 22.8364 17.7441 23.2728 18.4742 23.2728H20.3147C21.0449 23.2728 21.3339 22.8364 21.3339 21.7455Z" fill="#0F2D63" stroke="#0F2D63" stroke-linecap="round" stroke-linejoin="round"/>
</svg>
