<svg width="24" height="24" viewBox="0 0 24 24" fill="none" xmlns="http://www.w3.org/2000/svg">
<g clip-path="url(#clip0_3473_13454)">
<path fill-rule="evenodd" clip-rule="evenodd" d="M5 2C2.23858 2 0 4.23858 0 7V17C0 19.7614 2.23858 22 5 22H19C21.7614 22 24 19.7614 24 17V7C24 4.23858 21.7614 2 19 2H5ZM9 3.25C8.58579 3.25 8.25 3.58579 8.25 4C8.25 4.41421 8.58579 4.75 9 4.75H15C15.4142 4.75 15.75 4.41421 15.75 4C15.75 3.58579 15.4142 3.25 15 3.25H9ZM12 8.75C11.3096 8.75 10.75 9.30964 10.75 10C10.75 10.6904 11.3096 11.25 12 11.25C12.6904 11.25 13.25 10.6904 13.25 10C13.25 9.30964 12.6904 8.75 12 8.75ZM9.25 10C9.25 8.48122 10.4812 7.25 12 7.25C13.5188 7.25 14.75 8.48122 14.75 10C14.75 11.5188 13.5188 12.75 12 12.75C10.4812 12.75 9.25 11.5188 9.25 10ZM12 13.25C10.7499 13.25 9.58842 13.6289 8.7225 14.2779C7.85627 14.9271 7.25 15.8816 7.25 17C7.25 17.4142 7.58579 17.75 8 17.75C8.41421 17.75 8.75 17.4142 8.75 17C8.75 16.4599 9.04012 15.9144 9.62208 15.4782C10.2044 15.0418 11.0429 14.75 12 14.75C12.9571 14.75 13.7956 15.0418 14.3779 15.4782C14.9599 15.9144 15.25 16.4599 15.25 17C15.25 17.4142 15.5858 17.75 16 17.75C16.4142 17.75 16.75 17.4142 16.75 17C16.75 15.8816 16.1437 14.9271 15.2775 14.2779C14.4116 13.6289 13.2501 13.25 12 13.25Z" fill="#246BEB"/>
</g>
<defs>
<clipPath id="clip0_3473_13454">
<rect width="24" height="24" fill="white"/>
</clipPath>
</defs>
</svg>
