<svg width="0" height="0" class="hidden" aria-hidden="true" xmlns="http://www.w3.org/2000/svg">
  <symbol fill="none" xmlns="http://www.w3.org/2000/svg" viewBox="0 0 25 24" id="folder_open_on">
    <path d="M4 11.43V6.28C4 2.88 4.85 2.03 8.25 2.03H9.52C10.79 2.03 11.08 2.41 11.56 3.05L12.83 4.75C13.15 5.17 13.34 5.43 14.19 5.43H16.74C20.14 5.43 20.99 6.28 20.99 9.68V11.47" stroke="CurrentColor" stroke-width="1.5" stroke-miterlimit="10" stroke-linecap="round" stroke-linejoin="round"></path>
    <path fill-rule="evenodd" clip-rule="evenodd" d="M21.7698 19.3L22.1698 14.3C22.2598 13.46 21.9898 12.69 21.4998 12.1C21.4998 12.09 21.4898 12.08 21.4798 12.07C20.9398 11.42 20.1198 11 19.1898 11H5.80977C4.87977 11 4.04977 11.42 3.49977 12.09L3.47977 12.11C3.00977 12.7 2.74977 13.47 2.82977 14.3L3.22977 19.3C3.37977 20.83 3.49977 22 6.20977 22H18.7898C21.4998 22 21.6198 20.83 21.7698 19.3ZM9.92969 16.25C9.51547 16.25 9.17969 16.5858 9.17969 17C9.17969 17.4142 9.51547 17.75 9.92969 17.75H15.0697C15.4839 17.75 15.8197 17.4142 15.8197 17C15.8197 16.5858 15.4839 16.25 15.0697 16.25H9.92969Z" fill="CurrentColor"></path>
  </symbol>
  <symbol fill="none" xmlns="http://www.w3.org/2000/svg" viewBox="0 0 24 24" id="myshare_on">
    <path d="M2 9.98V9C2 4 4 2 9 2H15C20 2 22 4 22 9V15C22 20 20 22 15 22H14" stroke="CurrentColor" stroke-width="1.5" stroke-linecap="round" stroke-linejoin="round"></path>
    <path d="M13 11L18.01 5.98H14" stroke="CurrentColor" stroke-width="1.5" stroke-linecap="round" stroke-linejoin="round"></path>
    <path d="M18.0098 5.98V9.99" stroke="CurrentColor" stroke-width="1.5" stroke-linecap="round" stroke-linejoin="round"></path>
    <path d="M11 16.15V18.85C11 21.1 10.1 22 7.85 22H5.15C2.9 22 2 21.1 2 18.85V16.15C2 13.9 2.9 13 5.15 13H7.85C10.1 13 11 13.9 11 16.15Z" fill="CurrentColor" stroke="CurrentColor" stroke-width="1.5" stroke-linecap="round" stroke-linejoin="round"></path>
  </symbol>
  <symbol fill="none" xmlns="http://www.w3.org/2000/svg" viewBox="0 0 25 24" id="lock_on">
    <path d="M6.5 10V8C6.5 4.69 7.5 2 12.5 2C17.5 2 18.5 4.69 18.5 8V10" stroke="CurrentColor" stroke-width="1.5" stroke-linecap="round" stroke-linejoin="round"></path>
    <path fill-rule="evenodd" clip-rule="evenodd" d="M2.5 17C2.5 21 3.5 22 7.5 22H17.5C21.5 22 22.5 21 22.5 17V15C22.5 11 21.5 10 17.5 10H7.5C3.5 10 2.5 11 2.5 15V17ZM10.75 16C10.75 15.0335 11.5335 14.25 12.5 14.25C13.4665 14.25 14.25 15.0335 14.25 16C14.25 16.9665 13.4665 17.75 12.5 17.75C11.5335 17.75 10.75 16.9665 10.75 16ZM12.5 12.75C10.7051 12.75 9.25 14.2051 9.25 16C9.25 17.7949 10.7051 19.25 12.5 19.25C14.2949 19.25 15.75 17.7949 15.75 16C15.75 14.2051 14.2949 12.75 12.5 12.75Z" fill="CurrentColor"></path>
  </symbol>
  <symbol fill="none" xmlns="http://www.w3.org/2000/svg" viewBox="0 0 25 24" id="link_on">
    <path d="M3.77 12C2.98 11.05 2.5 9.83 2.5 8.5C2.5 5.48 4.97 3 8 3H13C16.02 3 18.5 5.48 18.5 8.5C18.5 11.52 16.03 14 13 14H10.5" stroke="CurrentColor" stroke-width="1.5" stroke-linecap="round" stroke-linejoin="round"></path>
    <path d="M21.23 12C22.02 12.95 22.5 14.17 22.5 15.5C22.5 18.52 20.03 21 17 21H12C8.98 21 6.5 18.52 6.5 15.5C6.5 12.48 8.97 10 12 10H14.5" stroke="CurrentColor" stroke-width="1.5" stroke-linecap="round" stroke-linejoin="round"></path>
  </symbol>
  <symbol fill="none" xmlns="http://www.w3.org/2000/svg" viewBox="0 0 25 24" id="mobile_on">
    <path fill-rule="evenodd" clip-rule="evenodd" d="M15.5 22.75H9.5C5.09 22.75 3.75 21.41 3.75 17V7C3.75 2.59 5.09 1.25 9.5 1.25H15.5C19.91 1.25 21.25 2.59 21.25 7V17C21.25 21.41 19.91 22.75 15.5 22.75ZM14.5 6.25H10.5C10.09 6.25 9.75 5.91 9.75 5.5C9.75 5.09 10.09 4.75 10.5 4.75H14.5C14.91 4.75 15.25 5.09 15.25 5.5C15.25 5.91 14.91 6.25 14.5 6.25ZM10.2002 17.56C10.2002 18.83 11.2302 19.86 12.5002 19.86C13.7702 19.86 14.8002 18.83 14.8002 17.56C14.8002 16.29 13.7702 15.26 12.5002 15.26C11.2302 15.26 10.2002 16.29 10.2002 17.56ZM11.7002 17.55C11.7002 17.11 12.0602 16.75 12.5002 16.75C12.9402 16.75 13.3002 17.11 13.3002 17.55C13.3002 17.99 12.9402 18.35 12.5002 18.35C12.0602 18.35 11.7002 17.99 11.7002 17.55Z" fill="CurrentColor"></path>
  </symbol>
  <symbol fill="none" xmlns="http://www.w3.org/2000/svg" viewBox="0 0 25 24" id="message_text_on">
    <path fill-rule="evenodd" clip-rule="evenodd" d="M9 19H8.5C4.5 19 2.5 18 2.5 13V8C2.5 4 4.5 2 8.5 2H16.5C20.5 2 22.5 4 22.5 8V13C22.5 17 20.5 19 16.5 19H16C15.69 19 15.39 19.15 15.2 19.4L13.7 21.4C13.04 22.28 11.96 22.28 11.3 21.4L9.8 19.4C9.64 19.18 9.27 19 9 19ZM6.75 8C6.75 7.58579 7.08579 7.25 7.5 7.25H17.5C17.9142 7.25 18.25 7.58579 18.25 8C18.25 8.41421 17.9142 8.75 17.5 8.75H7.5C7.08579 8.75 6.75 8.41421 6.75 8ZM7.5 12.25C7.08579 12.25 6.75 12.5858 6.75 13C6.75 13.4142 7.08579 13.75 7.5 13.75H13.5C13.9142 13.75 14.25 13.4142 14.25 13C14.25 12.5858 13.9142 12.25 13.5 12.25H7.5Z" fill="CurrentColor"></path>
  </symbol>
  <symbol fill="none" xmlns="http://www.w3.org/2000/svg" viewBox="0 0 24 24" id="maximize_on">
    <path fill-rule="evenodd" clip-rule="evenodd" d="M15 22H9C4 22 2 20 2 15V9C2 4 4 2 9 2H15C20 2 22 4 22 9V15C22 20 20 22 15 22ZM14 5.25C13.5858 5.25 13.25 5.58579 13.25 6C13.25 6.41421 13.5858 6.75 14 6.75H16.1893L6.75 16.1893V14C6.75 13.5858 6.41421 13.25 6 13.25C5.58579 13.25 5.25 13.5858 5.25 14V18C5.25 18.1017 5.27024 18.1987 5.30691 18.2871C5.34324 18.3749 5.39696 18.4572 5.46808 18.5287L5.46967 18.5303L5.47126 18.5319C5.5428 18.603 5.62511 18.6568 5.71291 18.6931C5.80134 18.7298 5.89831 18.75 6 18.75H10C10.4142 18.75 10.75 18.4142 10.75 18C10.75 17.5858 10.4142 17.25 10 17.25H7.81066L17.25 7.81066V10C17.25 10.4142 17.5858 10.75 18 10.75C18.4142 10.75 18.75 10.4142 18.75 10V6C18.75 5.7937 18.6667 5.60686 18.5319 5.47126L18.5303 5.46967L18.5287 5.46808C18.4572 5.39696 18.3749 5.34324 18.2871 5.30691C18.1987 5.27024 18.1017 5.25 18 5.25H14Z" fill="CurrentColor"></path>
  </symbol>
  <symbol fill="none" xmlns="http://www.w3.org/2000/svg" viewBox="0 0 25 24" id="pin_on">
    <g clip-path="url(CurrentColor313_6720)">
      <path d="M8.3 2V9L5.5 13.6667V16H19.5V13.6667L16.7 9V2" fill="CurrentColor"></path>
      <path d="M8.3 2V9L5.5 13.6667V16H19.5V13.6667L16.7 9V2" stroke="CurrentColor" stroke-width="1.5" stroke-linecap="round" stroke-linejoin="round"></path>
      <path d="M12.5 16V22" stroke="CurrentColor" stroke-width="1.5" stroke-linecap="round" stroke-linejoin="round"></path>
      <path d="M6.66699 2H18.3337" stroke="CurrentColor" stroke-width="1.5" stroke-linecap="round" stroke-linejoin="round"></path>
    </g>
    <defs>
      <clipPath id="clip0_313_6720">
        <rect width="24" height="24" fill="white" transform="translate(0.5)"></rect>
      </clipPath>
    </defs>
  </symbol>
  <symbol fill="none" xmlns="http://www.w3.org/2000/svg" viewBox="0 0 24 24" id="folder_open">
    <path d="M21.6698 14.3L21.2698 19.3C21.1198 20.83 20.9998 22 18.2898 22H5.70977C2.99977 22 2.87977 20.83 2.72977 19.3L2.32977 14.3C2.24977 13.47 2.50977 12.7 2.97977 12.11C2.98977 12.1 2.98977 12.1 2.99977 12.09C3.54977 11.42 4.37977 11 5.30977 11H18.6898C19.6198 11 20.4398 11.42 20.9798 12.07C20.9898 12.08 20.9998 12.09 20.9998 12.1C21.4898 12.69 21.7598 13.46 21.6698 14.3Z" stroke="CurrentColor" stroke-width="1.5" stroke-miterlimit="10"></path>
    <path d="M3.5 11.43V6.28C3.5 2.88 4.35 2.03 7.75 2.03H9.02C10.29 2.03 10.58 2.41 11.06 3.05L12.33 4.75C12.65 5.17 12.84 5.43 13.69 5.43H16.24C19.64 5.43 20.49 6.28 20.49 9.68V11.47" stroke="CurrentColor" stroke-width="1.5" stroke-miterlimit="10" stroke-linecap="round" stroke-linejoin="round"></path>
    <path d="M9.42969 17H14.5697" stroke="CurrentColor" stroke-width="1.5" stroke-miterlimit="10" stroke-linecap="round" stroke-linejoin="round"></path>
  </symbol>
  <symbol fill="none" xmlns="http://www.w3.org/2000/svg" viewBox="0 0 24 24" id="user_edit_on">
    <path d="M12 12C14.7614 12 17 9.76142 17 7C17 4.23858 14.7614 2 12 2C9.23858 2 7 4.23858 7 7C7 9.76142 9.23858 12 12 12Z" fill="CurrentColor" stroke="CurrentColor" stroke-width="1.5" stroke-linecap="round" stroke-linejoin="round"></path>
    <path d="M19.2101 15.74L15.67 19.2801C15.53 19.4201 15.4 19.68 15.37 19.87L15.18 21.22C15.11 21.71 15.45 22.05 15.94 21.98L17.29 21.79C17.48 21.76 17.75 21.63 17.88 21.49L21.42 17.95C22.03 17.34 22.32 16.63 21.42 15.73C20.53 14.84 19.8201 15.13 19.2101 15.74Z" stroke="CurrentColor" stroke-width="1.5" stroke-miterlimit="10" stroke-linecap="round" stroke-linejoin="round"></path>
    <path d="M18.7002 16.25C19.0002 17.33 19.8402 18.17 20.9202 18.47" stroke="CurrentColor" stroke-width="1.5" stroke-miterlimit="10" stroke-linecap="round" stroke-linejoin="round"></path>
    <path d="M3.41016 22C3.41016 18.13 7.26018 15 12.0002 15C13.0402 15 14.0402 15.15 14.9702 15.43" stroke="CurrentColor" stroke-width="1.5" stroke-linecap="round" stroke-linejoin="round"></path>
  </symbol>
  <symbol fill="none" xmlns="http://www.w3.org/2000/svg" viewBox="0 0 24 24" id="link">
    <path d="M3.27 12C2.48 11.05 2 9.83 2 8.5C2 5.48 4.47 3 7.5 3H12.5C15.52 3 18 5.48 18 8.5C18 11.52 15.53 14 12.5 14H10" stroke="CurrentColor" stroke-width="1.5" stroke-linecap="round" stroke-linejoin="round"></path>
    <path d="M20.73 12C21.52 12.95 22 14.17 22 15.5C22 18.52 19.53 21 16.5 21H11.5C8.48 21 6 18.52 6 15.5C6 12.48 8.47 10 11.5 10H14" stroke="CurrentColor" stroke-width="1.5" stroke-linecap="round" stroke-linejoin="round"></path>
  </symbol>
  <symbol fill="none" xmlns="http://www.w3.org/2000/svg" viewBox="0 0 24 24" id="maximize">
    <path d="M9 22H15C20 22 22 20 22 15V9C22 4 20 2 15 2H9C4 2 2 4 2 9V15C2 20 4 22 9 22Z" stroke="CurrentColor" stroke-width="1.5" stroke-linecap="round" stroke-linejoin="round"></path>
    <path d="M18 6L6 18" stroke="CurrentColor" stroke-width="1.5" stroke-linecap="round" stroke-linejoin="round"></path>
    <path d="M18 10V6H14" stroke="CurrentColor" stroke-width="1.5" stroke-linecap="round" stroke-linejoin="round"></path>
    <path d="M6 14V18H10" stroke="CurrentColor" stroke-width="1.5" stroke-linecap="round" stroke-linejoin="round"></path>
  </symbol>
  <symbol fill="none" xmlns="http://www.w3.org/2000/svg" viewBox="0 0 24 24" id="lock">
    <path d="M6 10V8C6 4.69 7 2 12 2C17 2 18 4.69 18 8V10" stroke="CurrentColor" stroke-width="1.5" stroke-linecap="round" stroke-linejoin="round"></path>
    <path d="M12 18.5C13.3807 18.5 14.5 17.3807 14.5 16C14.5 14.6193 13.3807 13.5 12 13.5C10.6193 13.5 9.5 14.6193 9.5 16C9.5 17.3807 10.6193 18.5 12 18.5Z" stroke="CurrentColor" stroke-width="1.5" stroke-linecap="round" stroke-linejoin="round"></path>
    <path d="M17 22H7C3 22 2 21 2 17V15C2 11 3 10 7 10H17C21 10 22 11 22 15V17C22 21 21 22 17 22Z" stroke="CurrentColor" stroke-width="1.5" stroke-linecap="round" stroke-linejoin="round"></path>
  </symbol>
  <symbol fill="none" xmlns="http://www.w3.org/2000/svg" viewBox="0 0 24 24" id="message_text">
    <path d="M8.5 19H8C4 19 2 18 2 13V8C2 4 4 2 8 2H16C20 2 22 4 22 8V13C22 17 20 19 16 19H15.5C15.19 19 14.89 19.15 14.7 19.4L13.2 21.4C12.54 22.28 11.46 22.28 10.8 21.4L9.3 19.4C9.14 19.18 8.77 19 8.5 19Z" stroke="CurrentColor" stroke-width="1.5" stroke-miterlimit="10" stroke-linecap="round" stroke-linejoin="round"></path>
    <path d="M7 8H17" stroke="CurrentColor" stroke-width="1.5" stroke-linecap="round" stroke-linejoin="round"></path>
    <path d="M7 13H13" stroke="CurrentColor" stroke-width="1.5" stroke-linecap="round" stroke-linejoin="round"></path>
  </symbol>
  <symbol fill="none" xmlns="http://www.w3.org/2000/svg" viewBox="0 0 24 24" id="mobile">
    <path d="M15 22.75H9C4.59 22.75 3.25 21.41 3.25 17V7C3.25 2.59 4.59 1.25 9 1.25H15C19.41 1.25 20.75 2.59 20.75 7V17C20.75 21.41 19.41 22.75 15 22.75ZM9 2.75C5.42 2.75 4.75 3.43 4.75 7V17C4.75 20.57 5.42 21.25 9 21.25H15C18.58 21.25 19.25 20.57 19.25 17V7C19.25 3.43 18.58 2.75 15 2.75H9Z" fill="CurrentColor"></path>
    <path d="M14 6.25H10C9.59 6.25 9.25 5.91 9.25 5.5C9.25 5.09 9.59 4.75 10 4.75H14C14.41 4.75 14.75 5.09 14.75 5.5C14.75 5.91 14.41 6.25 14 6.25Z" fill="CurrentColor"></path>
    <path d="M12.0002 19.86C10.7302 19.86 9.7002 18.83 9.7002 17.56C9.7002 16.29 10.7302 15.26 12.0002 15.26C13.2702 15.26 14.3002 16.29 14.3002 17.56C14.3002 18.83 13.2702 19.86 12.0002 19.86ZM12.0002 16.75C11.5602 16.75 11.2002 17.11 11.2002 17.55C11.2002 17.99 11.5602 18.35 12.0002 18.35C12.4402 18.35 12.8002 17.99 12.8002 17.55C12.8002 17.11 12.4402 16.75 12.0002 16.75Z" fill="CurrentColor"></path>
  </symbol>
  <symbol fill="none" xmlns="http://www.w3.org/2000/svg" viewBox="0 0 24 24" id="myshare">
    <path d="M2 9.98V9C2 4 4 2 9 2H15C20 2 22 4 22 9V15C22 20 20 22 15 22H14" stroke="CurrentColor" stroke-width="1.5" stroke-linecap="round" stroke-linejoin="round"></path>
    <path d="M13 11L18.01 5.98H14" stroke="CurrentColor" stroke-width="1.5" stroke-linecap="round" stroke-linejoin="round"></path>
    <path d="M18.0098 5.98V9.99" stroke="CurrentColor" stroke-width="1.5" stroke-linecap="round" stroke-linejoin="round"></path>
    <path d="M11 16.15V18.85C11 21.1 10.1 22 7.85 22H5.15C2.9 22 2 21.1 2 18.85V16.15C2 13.9 2.9 13 5.15 13H7.85C10.1 13 11 13.9 11 16.15Z" stroke="CurrentColor" stroke-width="1.5" stroke-linecap="round" stroke-linejoin="round"></path>
  </symbol>
  <symbol fill="none" xmlns="http://www.w3.org/2000/svg" viewBox="0 0 24 24" id="pin">
    <g clip-path="url(CurrentColor313_6625)">
      <path d="M7.8 2V9L5 13.6667V16H19V13.6667L16.2 9V2" stroke="CurrentColor" stroke-width="1.5" stroke-linecap="round" stroke-linejoin="round"></path>
      <path d="M12 16V22" stroke="CurrentColor" stroke-width="1.5" stroke-linecap="round" stroke-linejoin="round"></path>
      <path d="M6.16699 2H17.8337" stroke="CurrentColor" stroke-width="1.5" stroke-linecap="round" stroke-linejoin="round"></path>
    </g>
    <defs>
      <clipPath id="clip0_313_6625">
        <rect width="24" height="24" fill="white"></rect>
      </clipPath>
    </defs>
  </symbol>
  <symbol fill="none" xmlns="http://www.w3.org/2000/svg" viewBox="0 0 24 24" id="user_edit">
    <path d="M12 12C14.7614 12 17 9.76142 17 7C17 4.23858 14.7614 2 12 2C9.23858 2 7 4.23858 7 7C7 9.76142 9.23858 12 12 12Z" stroke="CurrentColor" stroke-width="1.5" stroke-linecap="round" stroke-linejoin="round"></path>
    <path d="M19.2101 15.74L15.67 19.2801C15.53 19.4201 15.4 19.68 15.37 19.87L15.18 21.22C15.11 21.71 15.45 22.05 15.94 21.98L17.29 21.79C17.48 21.76 17.75 21.63 17.88 21.49L21.42 17.95C22.03 17.34 22.32 16.63 21.42 15.73C20.53 14.84 19.8201 15.13 19.2101 15.74Z" stroke="CurrentColor" stroke-width="1.5" stroke-miterlimit="10" stroke-linecap="round" stroke-linejoin="round"></path>
    <path d="M18.7002 16.25C19.0002 17.33 19.8402 18.17 20.9202 18.47" stroke="CurrentColor" stroke-width="1.5" stroke-miterlimit="10" stroke-linecap="round" stroke-linejoin="round"></path>
    <path d="M3.41016 22C3.41016 18.13 7.26018 15 12.0002 15C13.0402 15 14.0402 15.15 14.9702 15.43" stroke="CurrentColor" stroke-width="1.5" stroke-linecap="round" stroke-linejoin="round"></path>
  </symbol>
  <symbol fill="none" xmlns="http://www.w3.org/2000/svg" viewBox="0 0 32 32" id="info">
    <circle cx="16" cy="16" r="13" fill="currentColor"></circle>
    <path d="M17.6371 21.7491C17.6371 22.6686 16.9469 23.4148 16.0964 23.4148C15.2459 23.4148 14.5557 22.6686 14.5557 21.7491V15.836C14.5557 14.9166 15.2459 14.1703 16.0964 14.1703C16.9469 14.1703 17.6371 14.9166 17.6371 15.836V21.7491Z" fill="white"></path>
    <path d="M16.0964 11.8593C16.9473 11.8593 17.6371 11.1694 17.6371 10.3185C17.6371 9.46758 16.9473 8.77777 16.0964 8.77777C15.2455 8.77777 14.5557 9.46758 14.5557 10.3185C14.5557 11.1694 15.2455 11.8593 16.0964 11.8593Z" fill="white"></path>
  </symbol>
  <symbol fill="none" xmlns="http://www.w3.org/2000/svg" viewBox="0 0 32 33" id="student">
    <path d="M19.4707 15.1712C22.2188 12.8653 22.5772 8.76831 20.2713 6.02026C17.9654 3.2722 13.8684 2.91376 11.1203 5.21965C8.37227 7.52554 8.01383 11.6226 10.3197 14.3706C12.6256 17.1187 16.7226 17.4771 19.4707 15.1712Z" fill="currentColor"></path>
    <path opacity="0.5" d="M15.0089 19.1386C8.50051 19.1386 3.2002 23.5035 3.2002 28.8817C3.2002 29.2455 3.48599 29.5313 3.84974 29.5313H26.1681C26.5319 29.5313 26.8177 29.2455 26.8177 28.8817C26.8177 23.5035 21.5174 19.1386 15.0089 19.1386Z" fill="currentColor"></path>
    <path d="M28.1312 17.2423C26.962 16.0731 26.0397 16.4498 25.2472 17.2423L20.6484 21.8411C20.4665 22.023 20.2977 22.3607 20.2587 22.6075L20.0119 24.3612C19.9209 24.9978 20.3626 25.4395 20.9992 25.3486L22.7529 25.1017C22.9997 25.0628 23.3505 24.8939 23.5194 24.712L28.1182 20.1133C28.9236 19.3338 29.3003 18.4115 28.1312 17.2423Z" fill="currentColor"></path>
  </symbol>
  <symbol fill="none" xmlns="http://www.w3.org/2000/svg" viewBox="0 0 32 33" id="chat">
    <path opacity="0.5" d="M23.2826 13.3163C27.5779 13.3163 31.0602 16.7986 31.0602 21.0939C31.0602 22.7584 30.5348 24.3001 29.6412 25.5657L30.6767 29.42L26.3162 28.2541C25.3842 28.6492 24.3602 28.8678 23.2826 28.8678C18.9872 28.8678 15.5049 25.3854 15.5049 21.0939C15.5049 16.8024 18.9872 13.3163 23.2826 13.3163Z" fill="currentColor" stroke="currentColor" stroke-linejoin="round"></path>
    <path d="M12.2525 2.89999C5.92837 2.89999 0.800781 8.02758 0.800781 14.3556C0.800781 16.8101 1.57548 19.0805 2.89093 20.9443L1.36838 26.6242L7.78841 24.906C9.16139 25.4852 10.6686 25.8073 12.2525 25.8073C18.5767 25.8073 23.7043 20.6797 23.7043 14.3556C23.7043 8.03142 18.5767 2.89999 12.2525 2.89999Z" fill="currentColor" stroke="currentColor" stroke-linejoin="round"></path>
    <path d="M8.4002 15.7C9.06294 15.7 9.6002 15.1627 9.6002 14.5C9.6002 13.8372 9.06294 13.3 8.4002 13.3C7.73745 13.3 7.2002 13.8372 7.2002 14.5C7.2002 15.1627 7.73745 15.7 8.4002 15.7Z" fill="white"></path>
    <path d="M12.4002 15.7C13.0629 15.7 13.6002 15.1627 13.6002 14.5C13.6002 13.8372 13.0629 13.3 12.4002 13.3C11.7375 13.3 11.2002 13.8372 11.2002 14.5C11.2002 15.1627 11.7375 15.7 12.4002 15.7Z" fill="white"></path>
    <path d="M16.4002 15.7C17.0629 15.7 17.6002 15.1627 17.6002 14.5C17.6002 13.8372 17.0629 13.3 16.4002 13.3C15.7375 13.3 15.2002 13.8372 15.2002 14.5C15.2002 15.1627 15.7375 15.7 16.4002 15.7Z" fill="white"></path>
  </symbol>
  <symbol fill="none" xmlns="http://www.w3.org/2000/svg" viewBox="0 0 17 17" id="arrow_right">
    <path d="M6 3.5L11.5 8.75L6 14" stroke="currentColor" stroke-width="1.5" stroke-linecap="round" stroke-linejoin="round"></path>
  </symbol>
  <symbol fill="none" xmlns="http://www.w3.org/2000/svg" viewBox="0 0 20 20" id="export">
    <path fill-rule="evenodd" clip-rule="evenodd" d="M10.9451 2.2915C10.9451 1.87729 10.6093 1.5415 10.1951 1.5415C9.78085 1.5415 9.44507 1.87729 9.44507 2.2915L9.44507 10.4915C9.44507 10.9057 9.78085 11.2415 10.1951 11.2415C10.6093 11.2415 10.9451 10.9057 10.9451 10.4915V2.2915ZM4.66467 5.25398C1.61178 8.30687 1.61178 13.2617 4.66467 16.3146C7.71756 19.3675 12.6724 19.3675 15.7253 16.3146C18.7782 13.2617 18.7782 8.30687 15.7253 5.25398C15.4324 4.96108 14.9576 4.96108 14.6647 5.25398C14.3718 5.54687 14.3718 6.02174 14.6647 6.31464C17.1318 8.78174 17.1318 12.7869 14.6647 15.254C12.1976 17.7211 8.19244 17.7211 5.72533 15.254C3.25822 12.7869 3.25822 8.78174 5.72533 6.31464C6.01822 6.02174 6.01822 5.54687 5.72533 5.25398C5.43244 4.96108 4.95756 4.96108 4.66467 5.25398Z" fill="currentColor"></path>
  </symbol>
  <symbol fill="none" xmlns="http://www.w3.org/2000/svg" viewBox="0 0 20 20" id="reset">
    <path d="M17.4996 11.1248C16.9537 14.7331 13.8227 17.4996 10.0419 17.4996C5.87663 17.4996 2.5 14.1418 2.5 9.9998C2.5 5.85777 5.87663 2.5 10.0419 2.5C13.1346 2.5 15.7925 4.35109 16.9563 6.99988" stroke="currentColor" stroke-width="1.5" stroke-linecap="round" stroke-linejoin="round"></path>
    <path d="M17.5102 2.89502V7.63173H12.7734" stroke="currentColor" stroke-width="1.5" stroke-linecap="round" stroke-linejoin="round"></path>
  </symbol>
  <symbol fill="none" xmlns="http://www.w3.org/2000/svg" viewBox="0 0 40 40" id="menu_off">
    <path d="M5 11.6667H35H5Z" fill="currentColor"></path>
    <path d="M5 11.6667H35" stroke="currentColor" stroke-width="1.5" stroke-linecap="round"></path>
    <path d="M5 20H35H5Z" fill="currentColor"></path>
    <path d="M5 20H35" stroke="currentColor" stroke-width="1.5" stroke-linecap="round"></path>
    <path d="M5 28.3333H35H5Z" fill="currentColor"></path>
    <path d="M5 28.3333H35" stroke="currentColor" stroke-width="1.5" stroke-linecap="round"></path>
  </symbol>
  <symbol fill="none" xmlns="http://www.w3.org/2000/svg" viewBox="0 0 40 40" id="menu_on">
    <path d="M9 31L31 9" stroke="currentColor" stroke-width="1.5" stroke-linecap="round" stroke-linejoin="round"></path>
    <path d="M31 31L9 9" stroke="currentColor" stroke-width="1.5" stroke-linecap="round" stroke-linejoin="round"></path>
  </symbol>
  <symbol fill="none" xmlns="http://www.w3.org/2000/svg" viewBox="0 0 20 20" id="time">
    <path d="M2.77441 11.2903C2.77441 12.2392 2.96131 13.1788 3.32445 14.0555C3.68758 14.9321 4.21983 15.7287 4.8908 16.3997C5.56178 17.0707 6.35835 17.6029 7.23502 17.966C8.1117 18.3292 9.05131 18.5161 10.0002 18.5161C10.9491 18.5161 11.8887 18.3292 12.7654 17.966C13.6421 17.6029 14.4387 17.0707 15.1096 16.3997C15.7806 15.7287 16.3129 14.9321 16.676 14.0555C17.0391 13.1788 17.226 12.2392 17.226 11.2903C17.226 10.3414 17.0391 9.40174 16.676 8.52506C16.3129 7.64839 15.7806 6.85182 15.1096 6.18084C14.4387 5.50987 13.6421 4.97762 12.7654 4.61448C11.8887 4.25135 10.9491 4.06445 10.0002 4.06445C9.05131 4.06445 8.1117 4.25135 7.23502 4.61448C6.35835 4.97762 5.56178 5.50987 4.8908 6.18084C4.21983 6.85182 3.68758 7.64839 3.32445 8.52506C2.96131 9.40174 2.77441 10.3414 2.77441 11.2903Z" stroke="currentColor" stroke-width="1.5" stroke-linecap="round" stroke-linejoin="round"></path>
    <path d="M10 8.19336V11.2901H12.0645" stroke="currentColor" stroke-width="1.5" stroke-linecap="round" stroke-linejoin="round"></path>
    <path d="M4.83871 2L2 4.06452" stroke="currentColor" stroke-width="1.5" stroke-linecap="round" stroke-linejoin="round"></path>
    <path d="M15.1611 2L17.9998 4.06452" stroke="currentColor" stroke-width="1.5" stroke-linecap="round" stroke-linejoin="round"></path>
  </symbol>
  <symbol fill="none" xmlns="http://www.w3.org/2000/svg" viewBox="0 0 24 24" id="search">
    <path fill-rule="evenodd" clip-rule="evenodd" d="M19.0631 11.7845C19.0631 16.0842 15.5788 19.569 11.2816 19.569C6.98437 19.569 3.5 16.0842 3.5 11.7845C3.5 7.48479 6.98437 4 11.2816 4C15.5788 4 19.0631 7.48479 19.0631 11.7845ZM17.816 18.3781C16.1387 20.0415 13.8301 21.069 11.2816 21.069C6.1555 21.069 2 16.9122 2 11.7845C2 6.65681 6.1555 2.5 11.2816 2.5C16.4076 2.5 20.5631 6.65681 20.5631 11.7845C20.5631 13.8215 19.9073 15.7053 18.7954 17.2361L22.8269 21.2689C23.1198 21.5618 23.1198 22.0368 22.8269 22.3297C22.5341 22.6227 22.0593 22.6227 21.7664 22.3297L17.816 18.3781Z" fill="currentColor"></path>
  </symbol>
  <symbol fill="none" xmlns="http://www.w3.org/2000/svg" viewBox="0 0 24 24" id="arrow_down">
    <path d="M18 9L12 15L6 9" stroke="currentColor" stroke-width="1.5" stroke-linecap="round" stroke-linejoin="round"></path>
  </symbol>
  <symbol fill="none" xmlns="http://www.w3.org/2000/svg" viewBox="0 0 12 10" id="check">
    <path d="M1 4.2L4.86719 9L11 1" stroke="currentColor" stroke-width="2" stroke-linecap="round" stroke-linejoin="round"></path>
  </symbol>
  <symbol fill="none" xmlns="http://www.w3.org/2000/svg" viewBox="0 0 16 16" id="arrow_extend">
    <path fill-rule="evenodd" clip-rule="evenodd" d="M8.75065 2.6249C8.75065 2.21069 8.41487 1.8749 8.00065 1.8749C7.58644 1.8749 7.25065 2.21069 7.25065 2.6249V7.25056H2.625C2.21079 7.25056 1.875 7.58634 1.875 8.00056C1.875 8.41477 2.21079 8.75056 2.625 8.75056H7.25065V13.3762C7.25065 13.7904 7.58644 14.1262 8.00065 14.1262C8.41487 14.1262 8.75065 13.7904 8.75065 13.3762V8.75056H13.3763C13.7905 8.75056 14.1263 8.41477 14.1263 8.00056C14.1263 7.58634 13.7905 7.25056 13.3763 7.25056H8.75065V2.6249Z" fill="currentColor"></path>
  </symbol>
  <symbol fill="none" xmlns="http://www.w3.org/2000/svg" viewBox="0 0 32 32" id="cs">
    <path d="M16 31C24.2843 31 31 24.2843 31 16C31 7.71573 24.2843 1 16 1C7.71573 1 1 7.71573 1 16C1 24.2843 7.71573 31 16 31Z" fill="currentColor"></path>
    <path d="M11 12.0004C11 12.0004 11.075 10.3505 12.7469 9.02754C13.7396 8.24208 14.9318 8.01459 16 8.00059C16.9755 7.98909 17.8474 8.14758 18.3688 8.39157C19.2599 8.81055 21 9.8305 21 12.0004C21 14.2838 19.4802 15.3187 17.7526 16.4592C16.025 17.5996 15.5833 18.7181 15.5833 20" stroke="white" stroke-width="2" stroke-miterlimit="10" stroke-linecap="round"></path>
    <path d="M16.9905 24.5312C16.9905 25.3021 16.3238 25.928 15.5 25.928C14.6762 25.928 14.0095 25.3021 14.0095 24.5312C14.0095 23.7604 14.6762 23.1345 15.5 23.1345C16.3238 23.1345 16.9905 23.7604 16.9905 24.5312Z" fill="white" stroke="white" stroke-width="0.0190606"></path>
  </symbol>
  <symbol fill="none" xmlns="http://www.w3.org/2000/svg" viewBox="0 0 32 32" id="my">
    <path d="M16 30.9998C24.2843 30.9998 31 24.2841 31 15.9999C31 7.71568 24.2843 1 16 1C7.71573 1 1 7.71568 1 15.9999C1 24.2841 7.71573 30.9998 16 30.9998Z" fill="currentColor"></path>
    <path d="M16 8.5C12.895 8.5 10.375 11.0234 10.375 14.1325C10.375 17.1816 12.76 19.6599 15.925 19.75C15.97 19.75 16.03 19.75 16.06 19.75C16.09 19.75 16.135 19.75 16.165 19.75C16.18 19.75 16.195 19.75 16.195 19.75C19.225 19.6449 21.61 17.1816 21.625 14.1325C21.625 11.0234 19.105 8.5 16 8.5Z" fill="white"></path>
    <path opacity="0.5" d="M26.3125 27.1151C23.6051 29.5194 19.9851 31 16 31C12.0149 31 8.39491 29.5194 5.6875 27.1151C6.05254 25.7811 7.04121 24.5643 8.48617 23.6261C12.6386 20.958 19.3919 20.958 23.5138 23.6261C24.974 24.5643 25.9475 25.7811 26.3125 27.1151Z" fill="white"></path>
  </symbol>
  <symbol fill="none" xmlns="http://www.w3.org/2000/svg" viewBox="0 0 16 16" id="close">
    <g opacity="0.5">
      <path d="M2 2L13.9989 14" stroke="currentColor" stroke-width="1.5" stroke-linecap="round"></path>
      <path d="M14 2L2.00105 14" stroke="currentColor" stroke-width="1.5" stroke-linecap="round"></path>
    </g>
  </symbol>
  <symbol fill="none" xmlns="http://www.w3.org/2000/svg" viewBox="0 0 20 20" id="share">
    <path d="M10.2915 9.70839L16.0998 3.90005" stroke="currentColor" stroke-width="1.5" stroke-linecap="round" stroke-linejoin="round"></path>
    <path d="M16.6666 6.73334V3.33334H13.2666" stroke="currentColor" stroke-width="1.5" stroke-linecap="round" stroke-linejoin="round"></path>
    <path d="M8.875 3.33334H7.45833C3.91667 3.33334 2.5 4.75001 2.5 8.29168V12.5417C2.5 16.0833 3.91667 17.5 7.45833 17.5H11.7083C15.25 17.5 16.6667 16.0833 16.6667 12.5417V11.125" stroke="currentColor" stroke-width="1.5" stroke-linecap="round" stroke-linejoin="round"></path>
  </symbol>
  <symbol fill="none" xmlns="http://www.w3.org/2000/svg" viewBox="0 0 20 21" id="print">
    <path d="M5.17383 6.4099H14.5026V4.44594C14.5026 2.48198 13.7662 1.5 11.5567 1.5H8.11977C5.91031 1.5 5.17383 2.48198 5.17383 4.44594V6.4099Z" stroke="currentColor" stroke-width="1.5" stroke-miterlimit="10" stroke-linecap="round" stroke-linejoin="round"></path>
    <path d="M13.766 14.2657V16.0726C13.766 18.0365 12.784 19.0185 10.8201 19.0185H8.8561C6.89214 19.0185 5.91016 18.0365 5.91016 16.0726V14.2657H13.766Z" stroke="currentColor" stroke-width="1.5" stroke-miterlimit="10" stroke-linecap="round" stroke-linejoin="round"></path>
    <path d="M18.6756 9.35585V14.2657C18.6756 16.2297 17.6937 17.2117 15.7297 17.2117H13.7657V14.2657H5.9099V17.2117H3.94594C1.98198 17.2117 1 16.2297 1 14.2657V9.35585C1 7.39189 1.98198 6.40991 3.94594 6.40991H15.7297C17.6937 6.40991 18.6756 7.39189 18.6756 9.35585Z" stroke="currentColor" stroke-width="1.5" stroke-miterlimit="10" stroke-linecap="round" stroke-linejoin="round"></path>
    <path d="M14.7475 14.2657H13.5593H4.92773" stroke="currentColor" stroke-width="1.5" stroke-miterlimit="10" stroke-linecap="round" stroke-linejoin="round"></path>
    <path d="M4.92773 10.3378H7.87367" stroke="currentColor" stroke-width="1.5" stroke-miterlimit="10" stroke-linecap="round" stroke-linejoin="round"></path>
  </symbol>
  <symbol fill="none" xmlns="http://www.w3.org/2000/svg" viewBox="0 0 20 20" id="more">
    <path fill-rule="evenodd" clip-rule="evenodd" d="M1 10C1 5.02944 5.02944 0.999999 10 1C14.9706 1 19 5.02944 19 10C19 14.9706 14.9706 19 10 19C5.02944 19 0.999999 14.9706 1 10ZM9.99835 3.84247C9.21678 3.84247 8.5773 4.46773 8.5773 5.26352C8.5773 6.05931 9.21678 6.68457 9.99835 6.68457C10.7799 6.68457 11.4194 6.0451 11.4194 5.26352C11.4194 4.48194 10.7799 3.84247 9.99835 3.84247ZM8.5773 10.0004C8.5773 9.20457 9.21678 8.57931 9.99835 8.57931C10.7799 8.57931 11.4194 9.21878 11.4194 10.0004C11.4194 10.7819 10.7799 11.4214 9.99835 11.4214C9.21678 11.4214 8.5773 10.7962 8.5773 10.0004ZM9.99835 13.3162C9.21678 13.3162 8.5773 13.9414 8.5773 14.7372C8.5773 15.533 9.21678 16.1583 9.99835 16.1583C10.7799 16.1583 11.4194 15.5188 11.4194 14.7372C11.4194 13.9556 10.7799 13.3162 9.99835 13.3162Z" fill="currentColor"></path>
  </symbol>
  <symbol fill="none" xmlns="http://www.w3.org/2000/svg" viewBox="0 0 20 20" id="pin_fill">
    <g clip-path="url(#clip0_525_7075)">
      <path d="M6.50033 1.6665V7.49984L4.16699 11.3887V13.3332H15.8337V11.3887L13.5003 7.49984V1.6665" fill="currentColor"></path>
      <path d="M6.50033 1.6665V7.49984L4.16699 11.3887V13.3332H15.8337V11.3887L13.5003 7.49984V1.6665" stroke="currentColor" stroke-linecap="round" stroke-linejoin="round"></path>
      <path d="M10 13.333V18.333" stroke="currentColor" stroke-width="1.5" stroke-linecap="round" stroke-linejoin="round"></path>
      <path d="M5.13965 1.6665H14.8619" stroke="currentColor" stroke-width="1.5" stroke-linecap="round" stroke-linejoin="round"></path>
    </g>
    <defs>
      <clipPath id="clip0_525_7075">
        <rect width="20" height="20" fill="white"></rect>
      </clipPath>
    </defs>
  </symbol>
</svg>