<svg width="16" height="16" viewBox="0 0 16 16" fill="none" xmlns="http://www.w3.org/2000/svg">
<path d="M14 13.3332C14 12.1721 12.8869 11.1844 11.3333 10.8183M10 13.3333C10 11.8605 8.20914 10.6666 6 10.6666C3.79086 10.6666 2 11.8605 2 13.3333M10 8.66659C11.4728 8.66659 12.6667 7.47268 12.6667 5.99992C12.6667 4.52716 11.4728 3.33325 10 3.33325M6 8.66659C4.52724 8.66659 3.33333 7.47268 3.33333 5.99992C3.33333 4.52716 4.52724 3.33325 6 3.33325C7.47276 3.33325 8.66667 4.52716 8.66667 5.99992C8.66667 7.47268 7.47276 8.66659 6 8.66659Z" stroke="#A9A9A9" stroke-width="1.5" stroke-linecap="round" stroke-linejoin="round"/>
</svg>
