<svg width="97" height="72" viewBox="0 0 97 72" fill="none" xmlns="http://www.w3.org/2000/svg">
<g opacity="0.9">
<g clip-path="url(#clip0_4706_3218)">
<path d="M7.74512 72.0001L9.44211 71.0206C9.44211 71.0206 9.48412 71.0122 9.50932 71.0206L7.81233 72.0001C7.81233 72.0001 7.76192 71.9833 7.74512 72.0001Z" fill="white"/>
<path d="M1.5202 26.4466L41.3912 3.09784C41.9373 2.77972 42.4245 2.72111 42.727 2.89692L43.7771 3.45783L43.1638 3.98525V26.8317C43.1638 27.627 42.517 28.7154 41.5928 29.2595L1.72182 52.6083C1.63781 52.6585 1.5538 52.7004 1.46979 52.7339L1.495 53.4371C1.22617 53.2948 0.470079 52.8511 0.470079 52.8511C0.209649 52.7506 -0.0507812 52.5078 -0.0507812 52.1395V28.8744C-0.0507812 28.0791 0.596094 26.9908 1.5202 26.4466Z" fill="white" fill-opacity="0.7"/>
<path d="M2.34331 55.8568V54.0987L3.67066 54.7936L42.9116 31.8132C43.8357 31.269 45.2303 31.202 46.0368 31.6625L68.8874 44.5801L70.0299 43.6927V45.8024C69.9711 46.1289 69.7275 46.4554 69.2823 46.7232L29.4028 70.0804C28.4787 70.6246 27.0842 70.6915 26.2777 70.2311L2.82216 56.9786C2.54493 56.8196 2.36851 56.6186 2.3013 56.401C2.2509 56.2252 2.2593 56.0494 2.33491 55.8652L2.34331 55.8568Z" fill="#ADE8FF"/>
<path d="M29.3786 68.0624L69.258 44.7053C70.1822 44.1611 70.2746 43.3574 69.4681 42.9053L46.0125 29.6529C45.2061 29.2008 43.8031 29.2678 42.8874 29.8036L3.00796 53.1607C2.08385 53.7049 1.99144 54.5086 2.79794 54.9606L26.2535 68.2131C27.0599 68.6652 28.4629 68.5982 29.3786 68.0624Z" fill="white"/>
<path d="M56.2944 39.4817L20.145 60.6538C19.599 60.972 18.7589 61.0138 18.28 60.7459L6.32543 53.9899C5.84658 53.722 5.90538 53.2365 6.45145 52.9183L42.6008 31.7462C43.1469 31.4281 43.987 31.3862 44.4659 31.6541L56.4204 38.4101C56.8993 38.678 56.8405 39.1636 56.2944 39.4817Z" fill="#A5E4FC"/>
<path d="M33.4023 54.6258L45.1889 47.7275C45.8609 47.334 46.8859 47.2838 47.4739 47.6187L53.0942 50.7916L39.3082 58.8619L33.2511 55.4379C33.0915 55.3458 32.9822 55.237 32.915 55.1114C32.999 54.9356 33.1587 54.7682 33.4023 54.6258Z" fill="#DCF5FF"/>
<path d="M54.153 52.2902L48.2639 55.7393L46.8525 54.944L53.5229 51.0344L54.3042 51.4781C54.4638 51.5702 54.573 51.679 54.6402 51.8046C54.5562 51.9804 54.3966 52.1479 54.153 52.2902Z" fill="#DCF5FF"/>
<path d="M46.8514 54.9437L46.4145 55.2032L47.8259 55.9985L42.3736 59.1881C41.7016 59.5816 40.6766 59.6318 40.0886 59.297L39.7441 59.1044L46.8598 54.9353L46.8514 54.9437Z" fill="#DCF5FF"/>
<path d="M33.3943 54.1236L45.1808 47.2253C45.8529 46.8319 46.8778 46.7816 47.4659 47.1165L53.523 50.5405L53.0862 50.8001L47.4659 47.6272C46.8778 47.2923 45.8529 47.3425 45.1808 47.736L33.3943 54.6343C33.1507 54.7766 32.9826 54.9441 32.907 55.1199C32.739 54.8018 32.907 54.4167 33.3943 54.1236Z" fill="#81CFED"/>
<path d="M54.6484 51.8046C54.5812 51.6874 54.4804 51.5702 54.3123 51.4781L53.5311 51.0344L39.7451 59.1047L39.2998 58.8536L53.5227 50.5237L54.3039 50.9674C54.682 51.1767 54.7828 51.4948 54.64 51.7962L54.6484 51.8046Z" fill="#81CFED"/>
<path d="M48.2623 55.7475L47.8254 55.9987L46.4141 55.2034L46.8509 54.9438L48.2623 55.7475Z" fill="#81CFED"/>
<path d="M6.8548 52.039L41.0804 31.9887L40.0722 31.4194L5.84668 51.4697L6.8548 52.039Z" fill="#DCF5FF"/>
<path d="M10.1898 50.0798L37.745 33.9475L36.7284 33.3782L9.18164 49.5105L10.1898 50.0798Z" fill="#DCF5FF"/>
<path d="M2.93862 53.2703L42.818 29.9131C43.7421 29.3773 44.389 28.289 44.389 27.4853V4.22025C44.389 3.42493 43.5405 3.20727 42.6164 3.75143L2.737 27.1086C1.81289 27.6527 1.16602 28.7327 1.16602 29.5364V52.8014C1.16602 53.5968 2.01451 53.8144 2.93862 53.2703Z" fill="white"/>
<path d="M2.00727 52.8928C2.08288 52.8928 2.28451 52.8677 2.59534 52.6835L42.4748 29.3264C43.2393 28.8827 43.7097 27.9869 43.7097 27.493V4.2279C43.7097 4.17767 43.6089 4.15256 43.6089 4.12744C43.6089 4.12744 43.5753 4.12744 43.5501 4.12744C43.4745 4.12744 43.2729 4.15256 42.962 4.33673L3.0826 27.6939C2.31811 28.1376 1.84766 29.0334 1.84766 29.5273V52.7924C1.84766 52.8426 1.94847 52.8761 1.94847 52.8928C1.94847 52.8928 1.98207 52.8928 2.00727 52.8928Z" fill="#DCF5FF"/>
<path d="M2.45321 31.0678V50.6158C2.45321 50.8502 2.58762 51.0511 2.68003 51.1935C2.93206 51.2102 3.2261 51.1265 3.54533 50.9423L41.0473 28.9749C41.9294 28.4642 42.5763 27.3173 42.5679 26.4299V6.89022C42.5679 6.65581 42.4334 6.45489 42.341 6.31257C42.089 6.29582 41.795 6.37117 41.4673 6.56372L3.96538 28.5228C3.08328 29.0335 2.44481 30.1804 2.45321 31.0678Z" fill="#ADE8FF"/>
<path d="M2.75522 51.3608C2.75522 51.3608 2.69642 51.3608 2.66281 51.3608H2.5788L2.5368 51.2855C2.41918 51.1013 2.28477 50.8753 2.27637 50.6157V31.0677C2.27637 30.1217 2.94004 28.9246 3.87255 28.3804L41.3829 6.41297C41.7189 6.21204 42.055 6.11995 42.3574 6.1367H42.4414L42.4834 6.21204C42.601 6.39622 42.7355 6.62226 42.7439 6.88178V26.4298C42.7439 27.3674 42.0718 28.573 41.1393 29.1171L3.63732 51.0846C3.32649 51.2604 3.03245 51.3608 2.76362 51.3608H2.75522ZM42.2398 6.47157C42.0298 6.47157 41.7946 6.55528 41.5509 6.6976L4.04897 28.6734C3.20888 29.159 2.61241 30.2306 2.62081 31.0677V50.6157C2.62081 50.7748 2.73002 50.9171 2.78043 51.0343C2.98205 51.0343 3.21728 50.9506 3.4609 50.8083L40.9629 28.8409C41.7861 28.3637 42.4078 27.267 42.3994 26.4465V6.89015C42.3994 6.73109 42.2902 6.58877 42.2398 6.47157Z" fill="#88D7F5"/>
<path d="M21.875 16.8778C21.875 17.3382 22.253 17.4973 22.7151 17.221C23.1772 16.9531 23.5468 16.3588 23.5468 15.8983C23.5468 15.4379 23.1687 15.2788 22.7067 15.5551C22.2446 15.823 21.875 16.4174 21.875 16.8778Z" fill="#DCF5FF"/>
<path d="M22.1529 16.7099C22.1529 16.9025 22.2537 17.0113 22.4134 17.0197C22.5058 17.0364 22.6066 17.0197 22.7158 16.9443C23.0182 16.7602 23.2703 16.3667 23.2619 16.0569C23.2619 15.7472 23.0098 15.6467 22.7074 15.8225C22.6906 15.8225 22.6738 15.8393 22.657 15.856C22.363 16.0402 22.1445 16.4086 22.1445 16.7016L22.1529 16.7099Z" fill="#2EA8D7"/>
<path d="M22.1529 16.7101C22.1529 16.9027 22.2537 17.0115 22.4134 17.0199C22.4302 17.0031 22.4554 16.9948 22.4638 16.978C22.7242 16.7855 22.9174 16.4422 22.909 16.166C22.909 16.032 22.8502 15.9399 22.7746 15.8981C22.741 15.8729 22.699 15.8562 22.657 15.8562C22.363 16.0404 22.1445 16.4087 22.1445 16.7017L22.1529 16.7101Z" fill="white"/>
<path d="M22.3303 16.7103C22.3303 16.8442 22.3891 16.9363 22.4648 16.9781C22.7252 16.7856 22.9184 16.4424 22.91 16.1661C22.91 16.0321 22.8512 15.9401 22.7756 15.8982C22.5152 16.0991 22.3219 16.4256 22.3303 16.7103Z" fill="#B8E8FB"/>
<path d="M66.0635 47.9704L68.2561 46.6895V45.9946L66.0635 47.2755V47.9704Z" fill="#49B9E4"/>
<path d="M22.793 67.6942L24.5404 68.682V68.096L22.793 67.1082V67.6942Z" fill="#49B9E4"/>
<path d="M19.5576 65.8608L21.305 66.8486V66.2542L19.5576 65.2664V65.8608Z" fill="#49B9E4"/>
<path d="M10.3824 52.9013L8.26538 54.1403L7.13965 53.5124V52.9766L10.3824 52.3655V52.9013Z" fill="#81CFED"/>
<path d="M13.0143 51.361L10.8972 52.6L9.77148 51.9721V51.4363L13.0143 50.8252V51.361Z" fill="#81CFED"/>
<path d="M44.609 32.8595L42.4919 34.0985L41.3662 33.4623V32.9265L44.609 32.3237V32.8595Z" fill="#81CFED"/>
<path d="M12.626 54.1737L10.509 55.4127L8.65234 54.3663V53.8305L12.626 53.6379V54.1737Z" fill="#81CFED"/>
<path d="M15.2553 52.6334L13.1383 53.8725L11.29 52.826V52.2483L15.2553 52.0977V52.6334Z" fill="#81CFED"/>
<path d="M41.5854 37.2128L39.4683 38.4518L37.6201 37.4053V36.8696L41.5854 36.677V37.2128Z" fill="#81CFED"/>
<path d="M38.9541 38.7531L36.8371 39.9921L34.9805 38.9456V38.4098L38.9541 38.2173V38.7531Z" fill="#81CFED"/>
<path d="M36.3178 40.2934L34.2008 41.5324L32.3525 40.4859V39.9501L36.3178 39.7576V40.2934Z" fill="#81CFED"/>
<path d="M33.6875 41.8336L31.5705 43.081L29.7139 42.0346V41.4988L33.6875 41.2979V41.8336Z" fill="#81CFED"/>
<path d="M31.0596 43.3742L28.9426 44.6216L27.0859 43.5751V43.0393L31.0596 42.8384V43.3742Z" fill="#81CFED"/>
<path d="M28.4203 44.9235L26.3033 46.1625L24.4551 45.116V44.5802L28.4203 44.3877V44.9235Z" fill="#81CFED"/>
<path d="M25.792 46.4635L23.675 47.7025L21.8184 46.6561V46.1203L25.792 45.9277V46.4635Z" fill="#81CFED"/>
<path d="M23.1612 48.0036L21.0441 49.2426L19.1875 48.1961V47.6603L23.1612 47.4678V48.0036Z" fill="#81CFED"/>
<path d="M20.5219 49.5438L18.4049 50.7829L16.5566 49.7364V49.2006L20.5219 49.0081V49.5438Z" fill="#81CFED"/>
<path d="M17.8946 51.0849L15.7775 52.3323L13.9209 51.2858V50.75L17.8946 50.5491V51.0849Z" fill="#81CFED"/>
<path d="M46.741 33.5291L46.8502 34.1234L42.1037 36.9112L40.2471 35.8648V35.329L46.741 33.5291Z" fill="#81CFED"/>
<path d="M16.0705 54.1067V54.6425L12.6681 56.635L10.8115 55.5885V55.0527L16.0705 54.1067Z" fill="#81CFED"/>
<path d="M49.0108 34.8103L45.0371 35.0029V35.5386L46.8685 36.5767L49.0024 35.3461V34.8103H49.0108Z" fill="#81CFED"/>
<path d="M18.8098 55.5216L14.8277 57.8573L12.9795 56.8109V56.2751L18.8098 54.9858V55.5216Z" fill="#81CFED"/>
<path d="M44.045 40.2095L40.0713 40.402V40.9378L41.9279 41.9843L44.045 40.7453V40.2095Z" fill="#81CFED"/>
<path d="M41.2403 41.8757L37.2666 42.0683V42.6041L39.1232 43.6505L41.2403 42.4115V41.8757Z" fill="#81CFED"/>
<path d="M38.434 43.5417L34.4688 43.7427V44.2785L36.317 45.3249L38.434 44.0775V43.5417Z" fill="#81CFED"/>
<path d="M35.6377 45.2163L31.6641 45.4089V45.9447L33.5207 46.9911L35.6377 45.7521V45.2163Z" fill="#81CFED"/>
<path d="M32.8311 46.8821L28.8574 47.0746V47.6104L30.714 48.6569L32.8311 47.4179V46.8821Z" fill="#81CFED"/>
<path d="M30.0254 48.5559L26.0518 48.7485V49.2842L27.9084 50.3307L30.0254 49.0917V48.5559Z" fill="#81CFED"/>
<path d="M27.2192 50.2227L23.2539 50.4152V50.951L25.1021 51.9975L27.2192 50.7584V50.2227Z" fill="#81CFED"/>
<path d="M24.4219 51.8884L20.4482 52.0894V52.6251L22.3049 53.6716L24.4219 52.4242V51.8884Z" fill="#81CFED"/>
<path d="M21.6143 53.5625L17.6406 53.6881V54.2908L19.4972 55.3373L21.6143 54.0983V53.5625Z" fill="#81CFED"/>
<path d="M46.8696 38.5518L42.9043 38.7443V39.2801L44.7525 40.3266L46.8696 39.0875V38.5518Z" fill="#81CFED"/>
<path d="M51.1689 36.0325V36.5683L47.3381 38.8119L45.4814 37.7654V37.2296L51.1689 36.0325Z" fill="#81CFED"/>
<path d="M21.7409 56.2919L16.9859 59.0713L15.1377 58.0248V57.4891L21.7409 55.7561V56.2919Z" fill="#81CFED"/>
<path d="M24.3705 54.7514L22.2535 55.9904L20.4053 54.9439V54.4081L24.3705 54.2156V54.7514Z" fill="#81CFED"/>
<path d="M48.0703 40.3352L44.0967 40.5278V41.0635L45.9533 42.11L48.0703 40.871V40.3352Z" fill="#81CFED"/>
<path d="M45.4317 41.8757L41.458 42.0767V42.6124L43.3146 43.6589L45.4317 42.4115V41.8757Z" fill="#81CFED"/>
<path d="M42.793 43.4241L38.8193 43.6166V44.1524L40.676 45.1989L42.793 43.9599V43.4241Z" fill="#81CFED"/>
<path d="M40.1576 44.9651L36.1924 45.1576V45.6934L38.0406 46.7399L40.1576 45.5009V44.9651Z" fill="#81CFED"/>
<path d="M37.519 46.5051L33.5537 46.6977V47.2335L35.4019 48.2799L37.519 47.0409V46.5051Z" fill="#81CFED"/>
<path d="M34.8877 48.0464L30.9981 48.2892L30.9141 48.7747L32.7707 49.8212L34.8877 48.5822V48.0464Z" fill="#81CFED"/>
<path d="M32.25 49.5862L28.2764 49.7871V50.3229L30.133 51.3694L32.25 50.122V49.5862Z" fill="#81CFED"/>
<path d="M29.6133 51.1265L25.6396 51.3274V51.8632L27.4963 52.9096L29.6133 51.6623V51.1265Z" fill="#81CFED"/>
<path d="M26.975 52.6753L23.0686 52.826L23.0098 53.4036L24.858 54.4501L26.975 53.2111V52.6753Z" fill="#81CFED"/>
<path d="M53.3299 37.7904L48.7765 40.461L46.9199 39.4145V38.8788L53.3299 37.2546V37.7904Z" fill="#81CFED"/>
<path d="M17.2969 59.2471L19.1535 60.2936L21.2705 59.0546V58.5188L17.2969 58.7114V59.2471Z" fill="#81CFED"/>
<path d="M19.9277 57.7069L21.7843 58.7533L23.9014 57.5143V56.9785L19.9277 57.1711V57.7069Z" fill="#81CFED"/>
<path d="M22.5654 56.1663L24.4136 57.2128L26.5307 55.9738V55.438L22.5654 55.6305V56.1663Z" fill="#81CFED"/>
<path d="M25.1855 54.6508L27.0422 55.6973L29.1592 54.4583L29.1844 53.9392L25.1855 54.115V54.6508Z" fill="#81CFED"/>
<path d="M47.5907 43.0981V43.6339L29.6799 54.1321L27.8232 53.0856V52.5415L47.5907 43.0981Z" fill="#81CFED"/>
<path d="M50.2289 42.0934L48.1118 43.3324L47.1289 42.7799V42.2441L50.2289 41.5576V42.0934Z" fill="#81CFED"/>
<path d="M52.8578 40.5531L50.7408 41.7921L48.8926 40.7457V40.2099L52.8578 40.0173V40.5531Z" fill="#81CFED"/>
<path d="M55.4961 39.0126L53.379 40.2516L52.3877 39.6991V39.1633L55.4961 38.4768V39.0126Z" fill="#81CFED"/>
<path d="M46.2383 36.4341L42.2646 36.6266V37.1624L44.0961 38.2005L46.2299 36.9699V36.4341H46.2383Z" fill="#81CFED"/>
<path d="M43.4668 38.0667L39.4932 38.2592V38.795L41.3246 39.8331L43.4584 38.6024V38.0667H43.4668Z" fill="#81CFED"/>
<path d="M40.6934 39.6904L36.7197 39.883V40.4188L38.5511 41.4569L40.685 40.2262V39.6904H40.6934Z" fill="#81CFED"/>
<path d="M37.9209 41.3149L33.9473 41.5075V42.0433L35.7787 43.0814L37.9125 41.8507V41.3149H37.9209Z" fill="#81CFED"/>
<path d="M35.1494 42.939L31.1758 43.1315V43.6673L33.0072 44.7054L35.141 43.4748V42.939H35.1494Z" fill="#81CFED"/>
<path d="M32.376 44.563L28.4023 44.6718V45.2913L30.2338 46.3294L32.3676 45.0988V44.563H32.376Z" fill="#81CFED"/>
<path d="M29.6055 46.1873L25.6318 46.3798V46.9156L27.4632 47.9537L29.5971 46.723V46.1873H29.6055Z" fill="#81CFED"/>
<path d="M26.8321 47.8196L22.8584 48.0121V48.5479L24.6898 49.586L26.8237 48.3554V47.8196H26.8321Z" fill="#81CFED"/>
<path d="M24.0586 49.4438L20.085 49.6364V50.1722L21.9164 51.2103L24.0502 49.9796V49.4438H24.0586Z" fill="#81CFED"/>
<path d="M21.2871 51.0684L17.3135 51.2609V51.7967L19.1449 52.8348L21.2787 51.6042V51.0684H21.2871Z" fill="#81CFED"/>
<path d="M18.5157 52.6921L14.542 52.8847V53.4205L16.3734 54.4586L18.5073 53.2279V52.6921H18.5157Z" fill="#81CFED"/>
<path d="M41.9713 34.3996L39.8542 35.6386L38.7285 35.0107V34.4749L41.9713 33.8638V34.3996Z" fill="#81CFED"/>
<path d="M39.3336 35.9398L37.2166 37.1789L36.0908 36.551V36.0152L39.3336 35.4041V35.9398Z" fill="#81CFED"/>
<path d="M36.6963 37.4806L34.5876 38.728L33.4619 38.0918V37.556L36.6963 36.9448V37.4806Z" fill="#81CFED"/>
<path d="M34.0651 39.0294L31.948 40.2685L30.8223 39.6322L30.7803 39.088L34.0651 38.4937V39.0294Z" fill="#81CFED"/>
<path d="M31.4273 40.5697L29.3103 41.8087L28.1846 41.1725V40.6367L31.4273 40.0339V40.5697Z" fill="#81CFED"/>
<path d="M28.7897 42.1098L26.6726 43.3488L25.5469 42.7125V42.1767L28.7897 41.574V42.1098Z" fill="#81CFED"/>
<path d="M26.1523 43.6508L24.0353 44.8898L22.918 44.2619V43.7261L26.1523 43.115V43.6508Z" fill="#81CFED"/>
<path d="M23.5211 45.1908L21.4041 46.4382L20.2783 45.802V45.2662L23.5211 44.655V45.1908Z" fill="#81CFED"/>
<path d="M20.8834 46.7397L18.7664 47.9787L17.6406 47.3424V46.8066L20.8834 46.2039V46.7397Z" fill="#81CFED"/>
<path d="M18.2467 48.2802L16.1296 49.5192L15.0039 48.8829V48.3472L18.2467 47.7444V48.2802Z" fill="#81CFED"/>
<path d="M15.6088 49.8202L13.4918 51.0592L12.3744 50.423L12.3408 49.9123L15.6088 49.2844V49.8202Z" fill="#81CFED"/>
<path d="M10.3824 52.3655L8.25698 53.6045L7.13965 52.9766L9.25669 51.7292L10.3824 52.3655Z" fill="#F0FBFF"/>
<path d="M13.0143 50.8247L10.8972 52.0637L9.77148 51.4359L11.8885 50.1885L13.0143 50.8247Z" fill="#F0FBFF"/>
<path d="M44.609 32.3233L42.4835 33.5623L41.3662 32.926L43.4833 31.687L44.609 32.3233Z" fill="#F0FBFF"/>
<path d="M12.626 53.6378L10.509 54.8768L8.65234 53.8303L10.7694 52.5913L12.626 53.6378Z" fill="#F0FBFF"/>
<path d="M15.2559 52.0977L13.1388 53.3368L11.2822 52.2903L13.4077 51.0513L15.2559 52.0977Z" fill="#F0FBFF"/>
<path d="M41.5854 36.6771L39.4683 37.9161L37.6201 36.8696L39.7372 35.6306L41.5854 36.6771Z" fill="#F0FBFF"/>
<path d="M38.9541 38.2171L36.8287 39.4561L34.9805 38.4097L37.0975 37.1707L38.9541 38.2171Z" fill="#F0FBFF"/>
<path d="M36.3178 39.7579L34.2008 40.9969L32.3525 39.9504L34.4696 38.7114L36.3178 39.7579Z" fill="#F0FBFF"/>
<path d="M33.6875 41.2979L31.5705 42.5453L29.7139 41.4989L31.8309 40.2515L33.6875 41.2979Z" fill="#F0FBFF"/>
<path d="M31.0596 42.8385L28.9342 44.0858L27.0859 43.0394L29.203 41.792L31.0596 42.8385Z" fill="#F0FBFF"/>
<path d="M28.4203 44.3878L26.3033 45.6268L24.4551 44.5803L26.5721 43.3413L28.4203 44.3878Z" fill="#F0FBFF"/>
<path d="M25.792 45.9278L23.6666 47.1668L21.8184 46.1204L23.9354 44.8813L25.792 45.9278Z" fill="#F0FBFF"/>
<path d="M23.1612 47.4679L21.0357 48.7069L19.1875 47.6604L21.3045 46.4214L23.1612 47.4679Z" fill="#F0FBFF"/>
<path d="M20.5219 49.0081L18.4049 50.2472L16.5566 49.2007L18.6737 47.9617L20.5219 49.0081Z" fill="#F0FBFF"/>
<path d="M17.8946 50.5489L15.7691 51.7963L13.9209 50.7498L16.0379 49.5024L17.8946 50.5489Z" fill="#F0FBFF"/>
<path d="M44.9936 32.541L46.8502 33.5875L42.0953 36.3753L40.2471 35.3288L44.9936 32.541Z" fill="#F0FBFF"/>
<path d="M14.2139 53.0603L16.0705 54.1068L12.6681 56.0992L10.8115 55.0528L14.2139 53.0603Z" fill="#F0FBFF"/>
<path d="M47.162 33.7632L45.0449 35.0022L46.8763 36.0403L49.0186 34.8097L47.162 33.7632Z" fill="#F0FBFF"/>
<path d="M18.8098 54.9857L14.8277 57.3214L12.9795 56.2749L16.9532 53.9392L18.8098 54.9857Z" fill="#F0FBFF"/>
<path d="M42.1883 39.1633L40.0713 40.4023L41.9195 41.4488L44.045 40.2098L42.1883 39.1633Z" fill="#F0FBFF"/>
<path d="M39.3836 40.8293L37.2666 42.0684L39.1232 43.1148L41.2403 41.8758L39.3836 40.8293Z" fill="#F0FBFF"/>
<path d="M36.5858 42.4954L34.4688 43.7428L36.317 44.7892L38.434 43.5418L36.5858 42.4954Z" fill="#F0FBFF"/>
<path d="M33.7811 44.1694L31.6641 45.4085L33.5123 46.4549L35.6377 45.2159L33.7811 44.1694Z" fill="#F0FBFF"/>
<path d="M30.9745 45.8357L28.8574 47.0747L30.7056 48.1212L32.8311 46.8822L30.9745 45.8357Z" fill="#F0FBFF"/>
<path d="M28.1688 47.5098L26.0518 48.7488L27.9084 49.7952L30.0254 48.5562L28.1688 47.5098Z" fill="#F0FBFF"/>
<path d="M25.371 49.1755L23.2539 50.4146L25.1021 51.461L27.2192 50.222L25.371 49.1755Z" fill="#F0FBFF"/>
<path d="M22.5653 50.842L20.4482 52.0894L22.2965 53.1359L24.4219 51.8885L22.5653 50.842Z" fill="#F0FBFF"/>
<path d="M19.7577 52.5164L17.6406 53.7554L19.4888 54.8018L21.6143 53.5628L19.7577 52.5164Z" fill="#F0FBFF"/>
<path d="M45.0213 37.5056L42.9043 38.7446L44.7525 39.7911L46.8696 38.5521L45.0213 37.5056Z" fill="#F0FBFF"/>
<path d="M49.3207 34.9858L51.1689 36.0323L47.3297 38.2759L45.4814 37.2295L49.3207 34.9858Z" fill="#F0FBFF"/>
<path d="M21.7409 55.7559L16.9859 58.5354L15.1377 57.4889L19.8842 54.7095L21.7409 55.7559Z" fill="#F0FBFF"/>
<path d="M24.3705 54.2154L22.2535 55.4544L20.4053 54.408L22.5223 53.1689L24.3705 54.2154Z" fill="#F0FBFF"/>
<path d="M46.2137 39.2886L44.0967 40.5276L45.9449 41.5741L48.0703 40.335L46.2137 39.2886Z" fill="#F0FBFF"/>
<path d="M43.5751 40.8293L41.458 42.0767L43.3062 43.1232L45.4317 41.8758L43.5751 40.8293Z" fill="#F0FBFF"/>
<path d="M40.9364 42.3779L38.8193 43.6169L40.676 44.6634L42.793 43.4244L40.9364 42.3779Z" fill="#F0FBFF"/>
<path d="M38.3094 43.9185L36.1924 45.1575L38.0406 46.2039L40.1576 44.9649L38.3094 43.9185Z" fill="#F0FBFF"/>
<path d="M35.6708 45.459L33.5537 46.698L35.4019 47.7445L37.519 46.5055L35.6708 45.459Z" fill="#F0FBFF"/>
<path d="M33.0311 46.9993L30.9141 48.2383L32.7623 49.2848L34.8877 48.0457L33.0311 46.9993Z" fill="#F0FBFF"/>
<path d="M30.3934 48.5398L28.2764 49.7872L30.1246 50.8337L32.25 49.5863L30.3934 48.5398Z" fill="#F0FBFF"/>
<path d="M27.7567 50.0798L25.6396 51.3272L27.4963 52.3737L29.6133 51.1263L27.7567 50.0798Z" fill="#F0FBFF"/>
<path d="M25.1284 51.6287L23.0029 52.8677L24.8595 53.9141L26.9766 52.6751L25.1284 51.6287Z" fill="#F0FBFF"/>
<path d="M53.3299 37.2545L48.7681 39.9251L46.9199 38.8786L51.4817 36.208L53.3299 37.2545Z" fill="#F0FBFF"/>
<path d="M17.2969 58.7112L19.1451 59.7577L21.2705 58.5186L19.4139 57.4722L17.2969 58.7112Z" fill="#F0FBFF"/>
<path d="M19.9273 57.1711L21.7756 58.2176L23.8926 56.9786L22.036 55.9321L19.9189 57.1711H19.9273Z" fill="#F0FBFF"/>
<path d="M22.565 55.6301L24.4133 56.6766L26.5303 55.4376L24.6737 54.3911L22.5566 55.6301H22.565Z" fill="#F0FBFF"/>
<path d="M25.1855 54.115L27.0338 55.1615L29.1508 53.9224L27.3026 52.876L25.1855 54.115Z" fill="#F0FBFF"/>
<path d="M45.7425 42.0515L47.5907 43.098L29.6799 53.5878L27.8232 52.5413L45.7425 42.0515Z" fill="#F0FBFF"/>
<path d="M50.2289 41.5579L48.1034 42.7969L47.1289 42.2444L49.246 41.0054L50.2289 41.5579Z" fill="#F0FBFF"/>
<path d="M52.8578 40.0169L50.7408 41.2559L48.8926 40.2095L51.0012 38.9705L52.8578 40.0169Z" fill="#F0FBFF"/>
<path d="M55.4961 38.4772L53.3706 39.7162L52.3877 39.1636L54.5047 37.9163L55.4961 38.4772Z" fill="#F0FBFF"/>
<path d="M44.3817 35.3879L42.2646 36.627L44.0961 37.6651L46.2383 36.4344L44.3817 35.3879Z" fill="#F0FBFF"/>
<path d="M41.6102 37.0205L39.4932 38.2595L41.3246 39.2976L43.4668 38.067L41.6102 37.0205Z" fill="#F0FBFF"/>
<path d="M38.8368 38.644L36.7197 39.8831L38.5511 40.9212L40.6934 39.6905L38.8368 38.644Z" fill="#F0FBFF"/>
<path d="M36.0643 40.2686L33.9473 41.5076L35.7787 42.5457L37.9209 41.315L36.0643 40.2686Z" fill="#F0FBFF"/>
<path d="M33.2928 41.8926L31.1758 43.1316L33.0072 44.1697L35.1494 42.939L33.2928 41.8926Z" fill="#F0FBFF"/>
<path d="M30.5194 43.5166L28.4023 44.7556L30.2338 45.7937L32.376 44.5631L30.5194 43.5166Z" fill="#F0FBFF"/>
<path d="M27.7489 45.1409L25.6318 46.3799L27.4632 47.418L29.6055 46.1873L27.7489 45.1409Z" fill="#F0FBFF"/>
<path d="M24.9754 46.7729L22.8584 48.012L24.6898 49.0501L26.8321 47.8194L24.9754 46.7729Z" fill="#F0FBFF"/>
<path d="M22.202 48.3975L20.085 49.6365L21.9164 50.6746L24.0586 49.4439L22.202 48.3975Z" fill="#F0FBFF"/>
<path d="M19.4305 50.0212L17.3135 51.2603L19.1449 52.2984L21.2871 51.0677L19.4305 50.0212Z" fill="#F0FBFF"/>
<path d="M16.659 51.6458L14.542 52.8848L16.3734 53.9229L18.5157 52.6922L16.659 51.6458Z" fill="#F0FBFF"/>
<path d="M41.9713 33.864L39.8542 35.1031L38.7285 34.4752L40.8456 33.2278L41.9713 33.864Z" fill="#F0FBFF"/>
<path d="M39.3336 35.4046L37.2166 36.6436L36.0908 36.0157L38.2079 34.7683L39.3336 35.4046Z" fill="#F0FBFF"/>
<path d="M36.6963 36.945L34.5792 38.1924L33.4619 37.5562L35.579 36.3171L36.6963 36.945Z" fill="#F0FBFF"/>
<path d="M34.065 38.4934L31.9396 39.7324L30.8223 39.0962L32.9393 37.8572L34.065 38.4934Z" fill="#F0FBFF"/>
<path d="M31.4273 40.0342L29.3019 41.2732L28.1846 40.637L30.3016 39.3979L31.4273 40.0342Z" fill="#F0FBFF"/>
<path d="M28.7897 41.5745L26.6726 42.8135L25.5469 42.1772L27.6639 40.9382L28.7897 41.5745Z" fill="#F0FBFF"/>
<path d="M26.1523 43.1145L24.0353 44.3535L22.918 43.7257L25.035 42.4783L26.1523 43.1145Z" fill="#F0FBFF"/>
<path d="M23.5211 44.6552L21.3956 45.9026L20.2783 45.2664L22.3954 44.0273L23.5211 44.6552Z" fill="#F0FBFF"/>
<path d="M20.8834 46.2044L18.758 47.4434L17.6406 46.8071L19.7577 45.5681L20.8834 46.2044Z" fill="#F0FBFF"/>
<path d="M18.2467 47.7446L16.1212 48.9837L15.0039 48.3474L17.121 47.1084L18.2467 47.7446Z" fill="#F0FBFF"/>
<path d="M15.61 49.2847L13.4929 50.5237L12.3672 49.8875L14.4842 48.6484L15.61 49.2847Z" fill="#F0FBFF"/>
<path d="M85.1779 32.8257C86.0348 36.7102 82.6744 40.7453 77.6675 41.842C72.6605 42.9387 67.9139 40.6784 67.0486 36.7939C66.1833 32.9094 69.5521 28.8742 74.5591 27.7775C79.5661 26.6808 84.3126 28.9412 85.1779 32.8257Z" fill="#DAF5FF"/>
<path d="M62.4424 22.4452C62.5516 22.2777 63.8705 20.662 66.2144 18.9458C68.2727 17.4472 71.591 15.5468 75.7411 15.0111C80.1096 14.4418 84.621 15.4882 89.1659 18.1002C92.9043 20.2518 94.7861 22.3866 94.7861 24.4711V26.9324C94.7861 24.8478 92.9043 22.7131 89.1659 20.5615C84.621 17.9495 80.1096 16.9114 75.7411 17.4723C71.5994 18.0081 68.2727 19.9085 66.2144 21.4071C63.8621 23.1233 62.5432 24.739 62.4424 24.9065V22.4452Z" fill="#1CA3D7"/>
<path d="M62.4851 22.311H60.8301V24.7723H62.4851V22.311Z" fill="white"/>
<path d="M81.4551 33.5205L82.144 34.3828V36.8441L81.4551 35.9818V33.5205Z" fill="white"/>
<path d="M82.1436 34.3832C82.2696 34.3497 85.2687 33.5544 88.5115 32.106C92.8716 30.1554 95.5431 27.9453 96.2404 25.71C96.3748 25.2915 96.4336 24.8812 96.4336 24.4626V26.9239C96.4336 27.3425 96.3664 27.7611 96.2404 28.1713C95.5347 30.4066 92.8632 32.6167 88.5115 34.5673C85.2687 36.024 82.2696 36.811 82.1436 36.8444V34.3832Z" fill="white"/>
<path d="M60.8301 22.3111C60.8301 22.2274 60.8553 22.0599 61.7374 21.139C62.2162 20.6284 63.0227 19.8414 64.1233 18.9708C66.0219 17.4639 69.1302 15.463 73.1459 14.5003C75.7502 13.8724 78.4385 13.7468 81.1184 14.1235C84.1932 14.5589 87.2931 15.6723 90.3427 17.422C94.4004 19.7577 96.4502 22.1185 96.4502 24.4543C96.4502 24.8728 96.383 25.2914 96.257 25.7016C95.5513 27.9369 92.8798 30.147 88.5281 32.0977C85.2853 33.5543 82.2862 34.3413 82.1602 34.3748L81.4713 33.5125C81.5889 33.479 93.1066 30.3982 94.6356 25.5258C94.7448 25.1742 94.8036 24.8142 94.8036 24.4626C94.8036 22.3781 92.9218 20.2433 89.1834 18.0917C84.6384 15.4798 80.1271 14.4417 75.7586 15.0026C71.6169 15.5384 68.2901 17.4387 66.2319 18.9373C63.8796 20.6535 62.5607 22.2692 62.4599 22.4367C62.4599 22.4367 62.4935 22.3781 62.4935 22.3027H60.8385L60.8301 22.3111Z" fill="#7BD7FA"/>
<path d="M65.6282 21.432C65.6282 21.432 63.6623 19.1214 61.3353 19.4563C59.0082 19.7828 56.3955 22.2441 55.9922 27.8615C55.589 33.4706 60.0835 34.1152 62.0241 34.0064C63.9732 33.8975 67.8796 28.188 65.6198 21.432H65.6282Z" fill="#60D3FF"/>
<path d="M60.1429 25.333C60.1933 25.0567 61.4282 17.9073 64.5114 18.2505C67.5945 18.5937 68.4766 20.2262 68.8127 25.8269C69.1403 31.4276 63.8645 35.7893 62.4699 35.2033C61.0754 34.6089 59.0507 31.4192 60.1513 25.333H60.1429Z" fill="#FCFEFF"/>
<path d="M66.091 23.96C66.091 23.96 64.5032 28.4808 65.2004 29.7449C65.8893 31.009 67.4855 27.4008 67.5443 26.4046C67.6031 25.4083 66.8302 21.4066 66.091 23.96Z" fill="#A5E4FC"/>
<path d="M78.369 42.4281C82.6511 41.4891 85.5275 38.0337 84.7937 34.7103C84.0598 31.3868 79.9935 29.4538 75.7114 30.3928C71.4293 31.3318 68.5529 34.7872 69.2868 38.1107C70.0207 41.4341 74.0869 43.3671 78.369 42.4281Z" fill="white"/>
<path d="M84.4214 36.4006C85.0179 39.0963 82.6824 41.9092 79.2044 42.671C75.7264 43.4328 72.4248 41.8673 71.8283 39.1632C71.2319 36.4675 73.5673 33.6546 77.0453 32.8928C80.5233 32.131 83.8249 33.6965 84.4214 36.4006Z" fill="#ADE8FF"/>
<path d="M78.1197 14.3076L76.7588 13.37C76.7588 13.37 77.4981 12.2147 78.6154 11.8882C79.7327 11.5617 93.5187 13.6128 95.7198 19.4144C98.1561 25.8522 96.4423 26.9071 96.4423 26.9071C96.4423 26.9071 96.6187 24.3621 95.7954 24.136C94.9721 23.91 94.7873 24.4542 94.7873 24.4542H93.9304C93.6279 24.4542 91.6957 21.6915 89.8811 20.2767C88.0581 18.8618 82.8075 16.3671 81.8078 16.3838C80.7997 16.4005 78.1281 14.2992 78.1281 14.2992L78.1197 14.3076Z" fill="white"/>
<path d="M76.7588 13.3784C76.7588 13.3784 77.6997 18.3763 77.8593 18.4852C78.0273 18.594 88.9906 20.3437 91.2001 23.1231C93.4011 25.9025 93.6784 27.2002 93.6784 27.2002C93.6784 27.2002 96.8203 24.9398 93.9556 19.4228C91.0909 13.9058 76.7588 13.3784 76.7588 13.3784Z" fill="#A5E4FC"/>
<path d="M16.9199 38.2673V26.6641L31.9829 17.991V29.5942L16.9199 38.2673Z" fill="#5ACAF6"/>
<path d="M26.227 26.723L25.7314 27.3928L31.9901 28.6234V29.6029L30.7131 30.3396C30.7131 30.3396 24.5636 29.1508 24.4628 29.1257C24.3788 29.2346 18.2377 37.5226 18.2377 37.5226L16.9355 38.276V37.3217L23.1943 28.8746L16.9355 27.6607V26.6812L18.2125 25.9361L23.9588 27.0579C23.9588 27.0579 24.4712 27.15 24.4796 27.1667C24.5468 27.0495 24.9753 26.4719 24.9753 26.4719L30.6879 18.7699L31.9901 18.0081V18.9708L26.227 26.7398V26.723Z" fill="#14B4F2"/>
<path d="M16.9199 38.2677L17.8104 37.7571L24.464 28.7909L24.674 28.8244C24.674 28.8244 24.8672 28.8663 24.9176 28.8746C24.9681 28.8746 31.1428 30.0885 31.1428 30.0885L31.9829 29.603V28.9416L25.5225 27.6775C25.5225 27.6775 25.3797 27.6524 25.3629 27.5938C25.3797 27.5435 25.5141 27.3677 25.5141 27.3677L31.9829 18.636V17.9998L31.1008 18.5104L24.4556 27.4766L17.7768 26.1789L16.9199 26.6812V27.3342L23.6071 28.6402L16.9199 37.665V38.2845V38.2677Z" fill="white"/>
<path d="M16.9199 33.4202V31.5114L31.9913 22.8467V24.7554L16.9199 33.4202Z" fill="#14B4F2"/>
<path d="M16.9199 32.8594V32.0725L31.9829 23.4077V24.1947L16.9199 32.8594Z" fill="white"/>
<path d="M23.5215 34.4666V22.8633L25.3865 21.7917V33.395L23.5215 34.4666Z" fill="#14B4F2"/>
<path d="M23.9414 34.2325V22.6209L24.9579 22.0349V33.6465L23.9414 34.2325Z" fill="white"/>
</g>
</g>
<defs>
<clipPath id="clip0_4706_3218">
<path d="M0 16C0 7.16344 7.16344 0 16 0H97V72H0V16Z" fill="white"/>
</clipPath>
</defs>
</svg>
