<svg width="90" height="72" viewBox="0 0 90 72" fill="none" xmlns="http://www.w3.org/2000/svg">
<g opacity="0.75">
<path d="M64.7716 32.9813C64.8555 38.0699 62.0052 43.3411 60.9764 45.0677C60.5573 46.0945 59.6428 47.0681 58.2558 47.8744C54.2243 50.1943 47.6779 50.1867 43.6312 47.8439C42.4805 47.1822 41.6574 46.3988 41.1621 45.5697C41.1621 45.5621 41.1392 45.5316 41.1087 45.4936C41.0935 45.4632 41.0782 45.4404 41.063 45.4176C40.3771 44.3223 36.4981 37.8189 37.0544 31.9013C37.6793 25.4055 43.7913 18.8337 43.7913 18.8337C43.7913 18.8337 57.9433 19.9366 58.0043 18.9402C58.431 19.4042 64.1086 25.7098 64.7107 31.9469C64.7107 31.9621 64.7107 31.9773 64.7107 31.9849C64.7411 32.312 64.764 32.6467 64.764 32.9737L64.7716 32.9813Z" fill="#FFD88D"/>
<path d="M51.3521 22.8423C51.2377 22.8423 51.1234 22.8423 51.0091 22.8423C49.1725 22.8423 47.3511 22.3935 45.9107 21.6329C43.4187 20.317 43.7921 18.811 43.7921 18.811C43.7921 18.811 42.5575 15.3425 41.9326 14.4602L50.7576 10.0942L51.3444 22.8347L51.3521 22.8423Z" fill="#FFBC6B"/>
<path d="M58.0114 18.8715L57.9809 18.9095C57.9428 19.9287 57.257 20.9023 55.9538 21.6553C54.6735 22.3932 53.035 22.8115 51.3508 22.8343C51.2364 22.8343 51.1221 22.8343 51.0078 22.8343V10.1699L60.0538 14.0719L58.0114 18.8639V18.8715Z" fill="#FFBC6B"/>
<path d="M59.4154 15.4032C58.9734 16.0117 58.318 16.5822 57.4645 17.0766C56.6948 17.5254 55.8107 17.8676 54.8734 18.1263C53.6616 18.4533 52.3508 18.6207 51.04 18.6283H50.9943C49.6226 18.6283 48.2508 18.4533 46.9781 18.1034C46.056 17.8524 45.1872 17.5025 44.4251 17.0614C43.5335 16.5442 42.8628 15.9585 42.4132 15.3195C41.0262 13.3952 41.6816 11.1057 44.387 9.54641C46.8485 8.12404 50.377 7.68288 53.5168 8.22292C54.1875 8.33702 54.8734 11.1437 54.8734 11.1437C54.8734 11.1437 56.8167 9.21934 57.4187 9.56162C60.1623 11.1437 60.8329 13.4636 59.4154 15.3956V15.4032Z" fill="#FFFAE2"/>
<path d="M56.4954 16.5214C56.2058 16.6888 55.8934 16.8409 55.5657 16.9778C52.8145 18.1339 49.0345 18.1263 46.2758 16.9474C45.9633 16.8105 45.6661 16.6659 45.3841 16.4986C42.3053 14.7187 42.29 11.8588 45.3536 10.0941C47.2589 8.99124 49.9186 8.58811 52.3877 8.86194C53.1346 8.9456 54.0186 12.1478 54.0186 12.1478C54.0186 12.1478 55.8781 9.78229 56.4573 10.117C59.5361 11.8892 59.5514 14.7568 56.4954 16.5138V16.5214Z" fill="#FFD88D"/>
<path d="M55.5653 16.9701C52.8141 18.1262 49.0342 18.1186 46.2754 16.9397C46.504 16.6887 46.8012 16.4529 47.1747 16.2475C49.2323 15.0609 52.5779 15.0685 54.6432 16.2627C55.0166 16.4757 55.329 16.7191 55.5653 16.9701Z" fill="#E57318"/>
<path d="M49.332 18.5065L52.007 22.9106L52.8758 25.6944C52.8758 25.6944 52.3499 27.4895 52.2966 28.6533C52.2432 29.817 55.3754 31.3231 55.4897 31.9011C55.604 32.4792 57.2883 36.077 57.2883 36.077L55.7793 31.1481L52.8758 28.8282L53.3406 25.5271L52.5862 22.69L50.0865 18.6358L50.4904 17.9437L49.7359 17.8296L49.332 18.5218V18.5065Z" fill="#E57318"/>
<path d="M43.7596 27.6648L39.6367 33.5748C39.6367 33.5748 39.751 36.3587 39.812 36.7086C39.873 37.0585 39.5834 38.7927 39.751 38.9677C39.9263 39.1426 41.1457 40.9985 41.1457 40.9985L40.2159 38.8536L40.3302 36.7695L40.1016 33.8715L43.7596 27.6724V27.6648Z" fill="#E57318"/>
<path d="M19.3109 39.8982C19.3109 39.8982 36.1953 39.7357 37.8138 44.1423C39.4323 48.5488 41.9702 58.4037 41.9702 58.4037C41.9702 58.4037 38.2256 48.4054 28.9837 53.7678C23.5727 56.9126 18.2766 60.8603 17.4817 60.6405C16.6868 60.4206 6.76494 43.196 19.3109 39.8982Z" fill="#EFB04E"/>
<path d="M41.9698 58.4133L40.3034 61.3287L36.3577 50.8142C36.3577 50.8142 37.8708 49.6863 38.0624 47.1437C38.072 46.8474 38.1869 46.4459 38.0336 46.3981C37.8804 46.3503 35.7447 45.2415 33.293 47.7077C30.8508 50.1451 31.4638 50.7473 31.4638 50.7473L34.9786 55.6413L33.6186 59.7707L28.2076 58.2986L27.6904 52.3532C27.6904 52.3532 24.0128 50.2885 21.6186 52.4392C19.2243 54.5899 18.6976 57.8876 18.6976 57.8876C18.6976 57.8876 22.6337 58.1553 23.6681 57.5722C24.7024 56.9891 25.526 60.3155 25.526 60.3155L27.9873 66.2227C27.9873 66.2227 24.3576 69.9697 20.7949 67.9337C20.6513 67.8573 20.5364 67.7999 20.4214 67.7043C17.0695 65.7926 14.3879 64.6934 14.3879 64.6934L0.558594 62.4375C0.558594 62.4375 4.75335 48.9312 3.38383 44.2474C2.05262 39.5828 1.2673 28.2558 15.0678 24.2317C26.7327 20.8288 33.1685 29.1926 35.5053 34.1344C35.9267 35.052 36.2044 35.8645 36.3481 36.4285C37.2771 40.1181 41.9794 58.4133 41.9794 58.4133H41.9698Z" fill="#FFF5D1"/>
<path opacity="0.4" d="M36.3586 50.8142C36.3586 50.8142 37.8718 49.6863 38.0634 47.1437C38.0729 46.8474 38.1879 46.4459 38.0346 46.3981C37.8814 46.3503 35.7457 45.2415 33.294 47.7076C30.8518 50.1451 31.4648 50.7473 31.4648 50.7473L34.9795 55.6413L33.6196 59.7706L28.2086 58.2986L27.6914 52.3531C27.6914 52.3531 24.0138 50.2885 21.6195 52.4392C19.2253 54.5899 18.6985 57.8876 18.6985 57.8876C18.6985 57.8876 22.6347 58.1552 23.669 57.5722C24.7034 56.9891 25.527 60.3155 25.527 60.3155L27.9883 66.2227C27.9883 66.2227 24.3586 69.9697 20.7959 67.9337C20.6523 67.8572 15.2891 65.1235 15.1742 65.0279C17.8941 60.7647 15.653 56.5207 15.088 54.5325C13.7568 49.8679 12.9044 38.3211 26.772 34.5167C35.6308 32.0888 37.393 40.5004 37.5366 41.074C38.4656 44.7636 41.9804 58.4133 41.9804 58.4133L40.314 61.3287L36.3682 50.8142H36.3586Z" fill="#F3D586"/>
<path d="M40.3335 61.109L36.8283 50.9099C37.7094 50.0879 38.1978 49.0269 38.4372 47.9085C38.4947 47.6218 38.5234 47.249 38.5617 47.0291C38.5809 46.8857 38.6192 46.7615 38.6096 46.4843C38.5905 46.3982 38.6 46.3027 38.466 46.121C38.3989 46.0255 38.2553 45.949 38.1691 45.9203L37.9488 45.8343C37.3263 45.6049 36.6463 45.5475 35.9951 45.6431C34.6735 45.8343 33.5529 46.6181 32.7197 47.4784C32.2983 47.899 31.8865 48.3387 31.513 48.8357C31.3311 49.0938 31.1491 49.3519 30.9959 49.6673C30.9192 49.8298 30.8522 50.0019 30.8043 50.2217C30.8043 50.4702 30.6224 50.6232 30.948 51.1393L34.2042 55.7466L33.1603 58.9009L28.9272 57.7252L28.4388 51.8562L28.0749 51.6651C26.9926 51.1011 25.92 50.757 24.7037 50.6614C23.5066 50.5754 22.1467 50.9195 21.1794 51.7798C19.4172 53.3856 18.4212 55.479 17.9519 57.7348L17.7795 58.5759L18.6414 58.6142C20.1355 58.6715 21.5625 58.748 23.1618 58.4804C23.3534 58.4421 23.7077 58.337 23.8897 58.2605C23.9567 58.337 24.0716 58.4708 24.1387 58.6237C24.426 59.159 24.6558 59.8377 24.8665 60.5833L27.2225 66.0412C25.6231 67.4846 23.3151 68.536 21.3805 67.5993L18.0381 65.8787C16.8984 65.3243 15.7492 64.7891 14.4658 64.2825L0.579102 62.4185C0.579102 62.4185 14.3413 65.0949 14.2456 65.0663C15.3757 65.5729 16.5058 66.1368 17.6071 66.7199L20.9208 68.5647C22.1754 69.2243 23.7269 69.2147 25.0102 68.775C26.3223 68.3353 27.4332 67.6089 28.4579 66.6721L28.7644 66.3949L28.592 65.9743C28.592 65.9743 26.1594 60.0575 26.1978 60.1627C25.9966 59.4076 25.7859 58.7098 25.4029 57.9642C25.173 57.6105 25.0389 57.1613 24.2632 56.8363C23.8514 56.6547 23.1714 57.0179 23.2576 56.9701C23.1714 57.0083 23.0277 57.0466 22.8841 57.0657C21.8976 57.2282 20.7676 57.2186 19.6566 57.1708C20.1355 55.5841 21.007 54.026 22.2137 52.9841C23.3821 51.9136 25.355 52.1812 26.9543 52.8886L27.5194 58.9105L34.1276 60.6693L35.7748 55.5076L32.0685 50.4607C32.0781 50.3938 32.1068 50.2982 32.1547 50.193C32.2409 49.9923 32.3845 49.7629 32.5282 49.5526C32.8347 49.1225 33.1986 48.7019 33.5817 48.2909C34.3095 47.4784 35.1906 46.8666 36.1675 46.685C36.6463 46.599 37.1539 46.6277 37.6136 46.7806C37.6136 46.8188 37.6136 46.8571 37.604 46.9049C37.5657 47.2585 37.5657 47.4593 37.5178 47.746C37.3455 48.7783 36.8666 49.8298 36.1292 50.4702L35.8706 50.6901L40.3239 61.5774L41.9999 58.4039L40.3622 61.109H40.3335Z" fill="#FBC22C"/>
<path opacity="0.5" d="M68.6235 50.0514C68.5199 50.0514 68.3818 50.0514 68.2023 50.0307C67.857 49.9962 67.6014 49.9273 67.5669 49.9204C67.339 49.8584 66.7935 49.7136 66.2134 49.3621C65.9026 49.176 64.9634 48.6039 64.2521 47.3219C63.5822 46.1157 63.5684 44.9647 63.5615 44.5856V42.373C63.7756 42.5523 64.0173 42.7246 64.2866 42.89C65.4606 43.593 67.0214 43.9721 68.6788 43.9721C70.2533 43.9721 71.7588 43.6206 72.9051 42.9727C73.2159 42.8004 73.4921 42.6074 73.7408 42.4006V44.62C73.7338 44.9026 73.7131 45.1508 73.6924 45.3093C73.6717 45.5092 73.6303 45.7366 73.5888 45.8883C73.4714 46.3432 73.3609 46.736 73.0364 47.3288C72.622 48.0939 71.9452 48.8245 71.2339 49.2656C70.7367 49.5758 70.3707 49.7205 70.1497 49.7963C69.9218 49.8722 69.3901 50.0376 68.81 50.0514C68.7478 50.0514 68.6857 50.0514 68.6235 50.0514Z" fill="#121E51"/>
<path d="M72.8644 47.3289C72.8644 47.9493 72.4569 48.5696 71.6351 49.0452C69.9915 49.9895 68.4584 51.0234 65.6892 49.0452C64.9157 48.4938 64.46 47.9493 64.46 47.3289C64.46 46.7086 64.8674 46.0883 65.6892 45.6196C67.3328 44.6753 69.9915 44.6753 71.6351 45.6196C72.4569 46.0952 72.8644 46.7155 72.8644 47.3358V47.3289Z" fill="#FCD561"/>
<path d="M72.5194 47.3358C72.5194 48.5765 70.7723 49.5828 68.6176 49.5828C66.463 49.5828 64.7158 48.5765 64.7158 47.3358C64.7158 46.0952 66.463 45.0889 68.6176 45.0889C70.7723 45.0889 72.5194 46.0952 72.5194 47.3358Z" fill="#FEB30F"/>
<path d="M61 60.8865C61 62.0169 61.7458 63.1403 63.2375 64.0019C66.2208 65.7182 71.0618 65.7182 74.0452 64.0019C75.5368 63.1403 76.2827 62.0169 76.2827 60.8865V62.2512C76.2827 63.3747 75.5368 64.5051 74.0452 65.3666C71.0618 67.0829 66.2208 67.0829 63.2375 65.3666C61.7458 64.5051 61 63.3816 61 62.2512V60.8865Z" fill="#E56A08"/>
<path d="M61 60.8865C61 59.763 61.7458 58.6326 63.2375 57.7711C66.2208 56.0548 71.0618 56.0548 74.0452 57.7711C75.5368 58.6326 76.2827 59.7561 76.2827 60.8865C76.2827 62.0169 75.5368 63.1404 74.0452 64.002C71.0618 65.7182 66.2208 65.7182 63.2375 64.002C61.7458 63.1404 61 62.0169 61 60.8865Z" fill="#FDC26B"/>
<path d="M66.9797 49.5483C66.9797 49.5483 67.9741 49.8999 68.1192 50.5202C68.2642 51.1405 68.2918 55.8137 68.3332 56.0549C68.3747 56.2962 64.4521 59.3289 64.4521 59.3289L69.6039 60.7625L73.1052 59.3082L69.0929 56.0825V50.3203L70.0735 49.5483H66.9866H66.9797Z" fill="#FEB30F"/>
<path opacity="0.5" d="M70.3356 50.3617C70.1975 50.4099 69.9489 50.4857 69.645 50.5478C70.4461 50.8717 71.4751 51.4714 71.6339 51.5679C71.9171 51.754 72.2278 52.0297 72.3383 52.1331C72.4972 52.2709 72.6836 52.4777 72.8217 52.6362C72.9806 52.8154 73.2913 53.2014 73.609 53.8011C73.9267 54.4076 74.0786 55.021 74.0786 55.021C74.1822 55.4484 74.2029 55.538 74.2443 55.8344C74.2927 56.2272 74.2927 56.5167 74.2927 56.6684V60.5213C74.2927 61.376 73.7126 62.2238 72.5662 62.8717C72.435 62.9475 72.3038 63.0095 72.1657 63.0716C69.9144 64.1192 66.5996 64.0158 64.5416 62.789C63.4643 62.148 62.9395 61.3208 62.9395 60.4937V56.6339C62.9395 56.4133 62.9602 56.1101 62.9878 55.8895C63.0016 55.7792 63.0499 55.4346 63.1466 55.0762C63.2019 54.8694 63.3676 54.2491 63.7682 53.5529C64.148 52.8912 64.8524 51.9676 66.0264 51.3128C66.2197 51.2094 67.0692 50.8097 67.6907 50.5547C67.5318 50.5271 67.4283 50.4995 67.4283 50.4995C67.1658 50.4306 66.565 50.2721 65.9159 49.8792C65.5706 49.6724 64.5347 49.0383 63.7405 47.6184C62.9947 46.2813 62.9878 45.0199 62.9809 44.5995V40.0986C62.9809 40.9257 63.5195 41.7528 64.5969 42.387C66.4062 43.4691 69.1962 43.6759 71.3715 42.9935C71.8135 42.8557 72.2347 42.6765 72.6146 42.4697C73.7609 41.8287 74.3272 40.9809 74.3272 40.1262V44.6339C74.3272 44.8614 74.2996 45.1647 74.272 45.3921C74.2512 45.592 74.2029 45.8539 74.1546 46.0469C74.0372 46.5225 73.9059 46.9705 73.5537 47.6184C73.0911 48.4731 72.3383 49.2795 71.5441 49.7758C70.9986 50.1135 70.5773 50.2858 70.3287 50.3617H70.3356Z" fill="#FE9949"/>
<path opacity="0.5" d="M68.6297 63.1957C67.2002 63.1957 65.819 62.858 64.8453 62.279C63.9959 61.769 63.5332 61.1349 63.5332 60.487V56.6271C63.5332 56.4479 63.5539 56.1515 63.5815 55.9585C63.6161 55.6828 63.6644 55.4416 63.7197 55.221C63.768 55.0349 63.9199 54.4697 64.2859 53.8425C64.6312 53.2498 65.2666 52.4089 66.3232 51.8161C66.6339 51.6507 67.8079 51.12 68.2637 50.9614C68.5054 51.0855 68.8024 51.2164 68.9405 51.2164H69.1891L69.3479 51.051C69.9971 51.3061 71.0053 51.8506 71.3161 52.0505C71.5647 52.209 71.8478 52.464 71.9514 52.5605C72.1103 52.6984 72.3175 52.9396 72.3865 53.0154C72.5246 53.1739 72.8009 53.5186 73.084 54.0631C73.3671 54.6076 73.5053 55.1521 73.5053 55.1521C73.6088 55.5657 73.6227 55.6346 73.6572 55.9034C73.7055 56.2549 73.6986 56.5099 73.6986 56.6616V60.5214C73.6986 61.1831 73.1738 61.8517 72.276 62.3548C71.3023 62.8993 70.004 63.2026 68.6297 63.2026V63.1957Z" fill="#FFE7A9"/>
<path d="M73.8796 60.2111C73.8796 60.9831 73.3685 61.755 72.3465 62.3478C70.2954 63.5264 66.9806 63.5264 64.9296 62.3478C63.9075 61.755 63.3965 60.9831 63.3965 60.2111C63.3965 59.4391 63.9075 58.6672 64.9296 58.0744C66.9806 56.8958 70.2954 56.8958 72.3465 58.0744C73.3685 58.6672 73.8796 59.4391 73.8796 60.2111Z" fill="#FFE19B"/>
<path d="M64.4527 59.3288C64.4527 59.3288 63.6585 60.8865 64.8394 61.4241C66.0203 61.9617 66.3103 61.6447 66.9042 60.211C67.4912 58.7774 68.5271 57.1714 68.1266 57.2059C67.726 57.2403 66.6073 58.7774 65.9167 58.929C65.2261 59.0806 64.4527 59.3357 64.4527 59.3357V59.3288Z" fill="#FCEAB2"/>
<path d="M66.7605 52.9463C66.7605 52.9463 65.1238 53.3736 64.9235 54.7935C64.8338 55.4276 64.5921 56.1651 65.1584 56.3099C65.7246 56.4546 65.552 56.3099 65.6763 55.3656C65.8697 53.863 66.7605 52.9463 66.7605 52.9463Z" fill="#FEFEFE"/>
<g style="mix-blend-mode:multiply" opacity="0.5">
<path d="M70.3357 50.3616C70.1976 50.4099 69.949 50.4857 69.6451 50.5477C70.4462 50.8717 71.4752 51.4713 71.634 51.5678C71.9171 51.7539 72.2279 52.0296 72.3384 52.133C72.4972 52.2709 72.6837 52.4776 72.8218 52.6362C72.9806 52.8154 73.2914 53.2014 73.6091 53.801C73.9267 54.4076 74.0787 55.021 74.0787 55.021C74.1823 55.4483 74.203 55.5379 74.2444 55.8343C74.2928 56.2272 74.2928 56.5167 74.2928 56.6683V60.5213C74.2928 61.3759 73.7127 62.2237 72.5663 62.8716C72.4351 62.9474 72.3039 63.0095 72.1658 63.0715C72.2072 61.5276 72.2141 58.7774 71.9379 56.365C71.5304 52.774 69.1755 51.2232 69.1755 51.2232C69.1755 51.2232 69.0857 50.3272 69.797 50.1824C70.5084 50.0377 71.7859 47.9768 71.8343 46.0745C71.8619 44.9785 71.5995 43.8068 71.3716 43.0004C71.8136 42.8625 72.2348 42.6833 72.6146 42.4765C73.761 41.8355 74.3273 40.9877 74.3273 40.1331V44.6408C74.3273 44.8682 74.2997 45.1715 74.272 45.399C74.2513 45.5989 74.203 45.8608 74.1546 46.0538C74.0372 46.5294 73.906 46.9774 73.5538 47.6253C73.0911 48.48 72.3384 49.2864 71.5442 49.7827C70.9987 50.1204 70.5774 50.2927 70.3288 50.3685L70.3357 50.3616Z" fill="#FCB862"/>
</g>
<path d="M61.2412 39.4023C61.2412 40.5327 61.987 41.6562 63.4787 42.5178C66.462 44.234 71.303 44.234 74.2864 42.5178C75.778 41.6562 76.5239 40.5327 76.5239 39.4023V40.7671C76.5239 41.8906 75.778 43.0209 74.2864 43.8825C71.303 45.5988 66.462 45.5988 63.4787 43.8825C61.987 43.0209 61.2412 41.8975 61.2412 40.7671V39.4023Z" fill="#E56A08"/>
<path d="M61.2412 39.4026C61.2412 38.2791 61.987 37.1488 63.4787 36.2872C66.462 34.5709 71.303 34.5709 74.2864 36.2872C75.778 37.1488 76.5239 38.2722 76.5239 39.4026C76.5239 40.533 75.778 41.6565 74.2864 42.5181C71.303 44.2343 66.462 44.2343 63.4787 42.5181C61.987 41.6565 61.2412 40.533 61.2412 39.4026Z" fill="#FD8433"/>
<path d="M61.2412 39.4026C61.2412 38.2791 61.987 37.1488 63.4787 36.2872C66.462 34.5709 71.303 34.5709 74.2864 36.2872C75.778 37.1488 76.5239 38.2722 76.5239 39.4026C76.5239 40.533 75.778 41.6565 74.2864 42.5181C71.303 44.2343 66.462 44.2343 63.4787 42.5181C61.987 41.6565 61.2412 40.533 61.2412 39.4026Z" fill="black" fill-opacity="0.05"/>
</g>
</svg>
