<svg width="158" height="110" viewBox="0 0 158 110" fill="none" xmlns="http://www.w3.org/2000/svg">
<g clip-path="url(#clip0_4234_11402)">
<path d="M132.979 14.4334C133.352 14.6758 135.729 15.8131 135.888 20.3063C136.028 24.1657 134.387 29.2182 131.012 35.3241C127.422 41.8309 123.236 46.2309 118.556 48.4123C115.312 49.9224 113.494 48.9343 113.233 48.7851L111.518 47.797C111.779 47.9462 113.597 48.9343 116.841 47.4241C121.521 45.2428 125.716 40.8428 129.296 34.336C132.662 28.2301 134.303 23.1775 134.172 19.3182C134.014 14.825 131.636 13.6877 131.264 13.4453L132.979 14.4334Z" fill="#BCE2AD"/>
<path d="M112.301 50.4174C112.301 50.4174 112.385 50.464 112.451 50.5013C112.451 50.5013 110.614 49.4386 110.586 49.4199L112.301 50.4081V50.4174Z" fill="#CCE9BF"/>
<path d="M112.237 50.3799L110.549 49.4104C110.521 49.3918 112.237 50.3799 112.237 50.3799Z" fill="#CCE9BF"/>
<path d="M133.82 12.6535C133.195 12.2992 130.566 11.0687 126.53 13.2035C122.735 15.2077 118.829 19.4958 114.932 25.9467C112.648 29.7314 111.035 33.423 110.149 36.9094C109.925 37.7857 109.748 38.6526 109.618 39.5102L107.902 38.5221C108.033 37.6738 108.21 36.8069 108.434 35.9306C109.319 32.4441 110.932 28.7526 113.216 24.9679C117.113 18.517 121.01 14.2289 124.814 12.2246C128.851 10.0899 131.489 11.3204 132.105 11.6747L133.82 12.6628V12.6535Z" fill="#BCE2AD"/>
<path d="M109.608 39.5102L110.671 41.5144L108.946 40.5263L107.893 38.5127L109.608 39.5102Z" fill="#CCE9BF"/>
<path d="M110.672 41.5145C110.607 41.8594 110.243 43.8077 109.637 46.5391L107.922 45.5509C108.528 42.8196 108.882 40.8713 108.957 40.5264L110.672 41.5145Z" fill="#CCE9BF"/>
<path d="M109.637 46.5389C110.122 48.9906 111.446 49.9321 112.005 50.2584L110.29 49.2703C109.731 48.944 108.407 48.0025 107.922 45.5508L109.637 46.5389Z" fill="#CCE9BF"/>
<path d="M121.355 46.8186C121.094 47.0424 119.033 48.8136 117.029 50.6407C112.936 54.3788 106.569 60.5686 103.52 65.5466L101.805 64.5585C104.863 59.5805 111.221 53.3907 115.314 49.6525C117.318 47.8161 118.782 46.5763 119.033 46.3525L121.355 46.8186Z" fill="#BCE2AD"/>
<path d="M103.51 65.5467L104.443 66.1899L102.727 65.2018L101.795 64.5586L103.51 65.5467Z" fill="#CCE9BF"/>
<path d="M123.452 46.8184C119.965 49.7362 108.75 59.1794 104.452 66.1895L103.52 65.5463C106.577 60.5684 112.936 54.3785 117.028 50.6404C119.033 48.804 120.497 47.5641 120.748 47.3404L122.659 46.8184H123.452Z" fill="#CCE9BF"/>
<path d="M109.608 39.5106C108.825 43.9945 106.41 57.8377 102.495 65.0623L100.779 64.0742C104.695 56.8496 107.11 42.997 107.893 38.5225L109.608 39.5106Z" fill="#BCE2AD"/>
<path d="M109.609 39.5107L110.663 41.5243C110.597 41.8692 110.234 43.8175 109.628 46.5489C108.425 51.9743 106.262 60.4667 103.512 65.5565L102.486 65.0718C106.402 57.8472 108.826 43.9946 109.6 39.5201L109.609 39.5107Z" fill="#CCE9BF"/>
<path d="M109.607 39.5107L110.661 41.5243C110.596 41.8692 110.232 43.8175 109.626 46.5489C109.523 46.0268 109.439 45.4582 109.384 44.8523C109.234 43.1557 109.309 41.3658 109.598 39.5107H109.607Z" fill="#CCE9BF"/>
<path d="M117.029 50.6405C119.033 48.804 120.944 47.1354 121.196 46.9023L122.893 47.2473C121.448 48.4125 119.947 49.354 118.427 50.0625C117.942 50.2862 117.476 50.482 117.02 50.6405H117.029Z" fill="#CCE9BF"/>
<path d="M131.115 34.0655C131.115 34.0655 131.078 34.0655 131.059 34.0469L115.583 25.1164C115.527 25.0884 115.508 25.0138 115.536 24.9579C115.564 24.902 115.639 24.8833 115.695 24.9113L131.171 33.8418C131.227 33.8698 131.245 33.9443 131.217 34.0003C131.199 34.0376 131.152 34.0562 131.115 34.0562V34.0655Z" fill="#C9E8BB"/>
<path d="M130.164 35.8093C130.164 35.8093 130.127 35.8093 130.108 35.7907L114.595 26.8322C114.539 26.8042 114.52 26.7296 114.548 26.6737C114.576 26.6178 114.651 26.5991 114.706 26.6271L130.22 35.5856C130.276 35.6135 130.294 35.6881 130.266 35.7441C130.248 35.7813 130.201 35.8 130.164 35.8V35.8093Z" fill="#C9E8BB"/>
<path d="M129.131 37.506C129.131 37.506 129.093 37.506 129.075 37.4873L113.599 28.5568C113.543 28.5288 113.524 28.4543 113.552 28.3983C113.58 28.3424 113.654 28.3237 113.71 28.3517L129.186 37.2822C129.242 37.3102 129.261 37.3848 129.233 37.4407C129.214 37.478 129.168 37.4966 129.131 37.4966V37.506Z" fill="#C9E8BB"/>
<path d="M132.057 32.2018C132.057 32.2018 132.02 32.2018 132.002 32.1831L116.88 23.4484C116.824 23.4204 116.805 23.3459 116.833 23.2899C116.87 23.234 116.936 23.2154 116.992 23.2433L132.113 31.9781C132.169 32.006 132.188 32.0806 132.16 32.1365C132.141 32.1738 132.095 32.1925 132.057 32.1925V32.2018Z" fill="#C9E8BB"/>
<path d="M128.002 39.2678C128.002 39.2678 127.965 39.2678 127.946 39.2491L112.806 30.505C112.75 30.4771 112.731 30.4025 112.759 30.3466C112.787 30.2906 112.861 30.272 112.917 30.3L128.058 39.044C128.114 39.072 128.132 39.1466 128.104 39.2025C128.086 39.2398 128.039 39.2584 128.002 39.2584V39.2678Z" fill="#C9E8BB"/>
<path d="M132.914 30.3284C132.914 30.3284 132.877 30.3284 132.858 30.3097L118.212 21.8547C118.156 21.8267 118.137 21.7521 118.165 21.6962C118.193 21.6402 118.268 21.6216 118.324 21.6496L132.97 30.1047C133.026 30.1326 133.045 30.2072 133.017 30.2631C132.998 30.3004 132.951 30.3191 132.914 30.3191V30.3284Z" fill="#C9E8BB"/>
<path d="M126.78 40.9275C126.78 40.9275 126.742 40.9275 126.724 40.9088L112.087 32.463C112.031 32.4258 112.012 32.3605 112.04 32.3046C112.068 32.2486 112.143 32.23 112.199 32.258L126.836 40.7037C126.892 40.741 126.91 40.8063 126.882 40.8622C126.864 40.8995 126.817 40.9181 126.78 40.9181V40.9275Z" fill="#C9E8BB"/>
<path d="M133.717 28.3615C133.717 28.3615 133.68 28.3615 133.661 28.3428L119.761 20.3166C119.705 20.2886 119.686 20.214 119.714 20.1581C119.742 20.1022 119.817 20.0835 119.873 20.1115L133.773 28.1378C133.829 28.1657 133.848 28.2403 133.82 28.2962C133.801 28.3335 133.754 28.3522 133.717 28.3522V28.3615Z" fill="#C9E8BB"/>
<path d="M125.42 42.5776C125.42 42.5776 125.383 42.5776 125.364 42.5589L111.538 34.5793C111.482 34.5513 111.463 34.4767 111.491 34.4208C111.529 34.3649 111.594 34.3462 111.65 34.3742L125.476 42.3538C125.532 42.3818 125.55 42.4564 125.522 42.5123C125.504 42.5496 125.457 42.5682 125.42 42.5682V42.5776Z" fill="#C9E8BB"/>
<path d="M134.519 25.9654C134.519 25.9654 134.482 25.9654 134.463 25.9468L121.29 18.34C121.234 18.312 121.215 18.2375 121.243 18.1815C121.281 18.1256 121.346 18.107 121.402 18.1349L134.575 25.7417C134.631 25.779 134.65 25.8442 134.622 25.9002C134.603 25.9375 134.556 25.9561 134.519 25.9561V25.9654Z" fill="#C9E8BB"/>
<path d="M123.648 44.4142C123.648 44.4142 123.611 44.4142 123.592 44.3956L110.587 36.882C110.531 36.8447 110.512 36.7795 110.54 36.7235C110.568 36.6676 110.643 36.6489 110.699 36.6769L123.704 44.1905C123.76 44.2278 123.779 44.293 123.751 44.3489C123.732 44.3862 123.686 44.4049 123.648 44.4049V44.4142Z" fill="#C9E8BB"/>
<path d="M110.707 37.1707C110.707 37.1707 110.67 37.1707 110.651 37.1521C110.595 37.1241 110.577 37.0495 110.605 36.9936L121.783 17.6317C121.811 17.5758 121.885 17.5571 121.941 17.5851C121.997 17.6131 122.016 17.6877 121.988 17.7436L110.81 37.1055C110.81 37.1055 110.744 37.1614 110.707 37.1614V37.1707Z" fill="#C9E8BB"/>
<path d="M135.04 23.8123C135.04 23.8123 135.003 23.8123 134.984 23.7936L122.995 16.8673C122.939 16.8394 122.92 16.7648 122.948 16.7089C122.976 16.6529 123.051 16.6343 123.107 16.6623L135.096 23.5885C135.152 23.6165 135.171 23.6911 135.143 23.747C135.124 23.7843 135.077 23.8029 135.04 23.8029V23.8123Z" fill="#C9E8BB"/>
<path d="M121.941 45.8867C121.941 45.8867 121.904 45.8867 121.886 45.8681L110.325 39.1935C110.269 39.1656 110.251 39.091 110.278 39.035C110.306 38.9791 110.381 38.9605 110.437 38.9884L121.997 45.663C122.053 45.691 122.072 45.7656 122.044 45.8215C122.025 45.8588 121.979 45.8774 121.941 45.8774V45.8867Z" fill="#C9E8BB"/>
<path d="M109.99 40.8806C109.99 40.8806 109.953 40.8806 109.934 40.862C109.879 40.834 109.86 40.7594 109.888 40.7035L124.525 15.3475C124.562 15.2916 124.627 15.273 124.683 15.3009C124.739 15.3289 124.758 15.4035 124.73 15.4594L110.093 40.8153C110.093 40.8153 110.028 40.8713 109.99 40.8713V40.8806Z" fill="#C9E8BB"/>
<path d="M110.018 43.6863C110.018 43.6863 109.98 43.6863 109.962 43.6677C109.906 43.6397 109.887 43.5651 109.915 43.5092L126.911 14.0702C126.939 14.0143 127.013 13.9956 127.069 14.0236C127.125 14.0516 127.144 14.1261 127.116 14.1821L110.12 43.621C110.12 43.621 110.055 43.677 110.018 43.677V43.6863Z" fill="#C9E8BB"/>
<path d="M110.643 45.029C110.643 45.029 110.605 45.029 110.587 45.0103C110.531 44.9823 110.512 44.9078 110.54 44.8518L128.58 13.6044C128.608 13.5484 128.683 13.5298 128.739 13.5578C128.794 13.5857 128.813 13.6603 128.785 13.7162L110.745 44.9637C110.745 44.9637 110.68 45.0196 110.643 45.0196V45.029Z" fill="#C9E8BB"/>
<path d="M110.959 46.8555C110.959 46.8555 110.922 46.8555 110.903 46.8369C110.847 46.8089 110.829 46.7344 110.857 46.6784L130.006 13.5106C130.043 13.4547 130.108 13.4361 130.164 13.464C130.22 13.492 130.239 13.5666 130.211 13.6225L111.062 46.7903C111.062 46.7903 110.996 46.8462 110.959 46.8462V46.8555Z" fill="#C9E8BB"/>
<path d="M111.715 47.9562C111.715 47.9562 111.678 47.9562 111.659 47.9375C111.603 47.9096 111.584 47.835 111.612 47.779L131.358 13.5858C131.386 13.5299 131.461 13.5112 131.517 13.5392C131.573 13.5672 131.591 13.6418 131.563 13.6977L111.818 47.8909C111.818 47.8909 111.752 47.9468 111.715 47.9468V47.9562Z" fill="#C9E8BB"/>
<path d="M112.713 48.5343C112.713 48.5343 112.676 48.5343 112.657 48.5156C112.601 48.4877 112.583 48.4131 112.611 48.3572L132.356 14.164C132.384 14.108 132.459 14.0894 132.515 14.1173C132.571 14.1453 132.59 14.2199 132.562 14.2758L112.816 48.469C112.816 48.469 112.75 48.525 112.713 48.525V48.5343Z" fill="#C9E8BB"/>
<path d="M113.701 49.1026C113.701 49.1026 113.664 49.1026 113.645 49.084C113.589 49.056 113.571 48.9815 113.599 48.9255L133.345 14.7323C133.382 14.6764 133.447 14.6577 133.503 14.6857C133.559 14.7137 133.578 14.7882 133.55 14.8442L113.804 49.0374C113.804 49.0374 113.739 49.0933 113.701 49.0933V49.1026Z" fill="#C9E8BB"/>
<path d="M115.035 49.2052C115.035 49.2052 114.998 49.2052 114.979 49.1865C114.923 49.1585 114.905 49.084 114.933 49.028L134.082 15.8602C134.11 15.8043 134.185 15.7857 134.241 15.8136C134.296 15.8416 134.315 15.9162 134.287 15.9721L115.138 49.1399C115.138 49.1399 115.073 49.1958 115.035 49.1958V49.2052Z" fill="#C9E8BB"/>
<path d="M116.768 48.5622C116.768 48.5622 116.73 48.5622 116.712 48.5435C116.656 48.5156 116.637 48.441 116.665 48.385L134.705 17.1376C134.742 17.0817 134.808 17.063 134.864 17.091C134.919 17.1189 134.938 17.1935 134.91 17.2494L116.87 48.4969C116.87 48.4969 116.805 48.5528 116.768 48.5528V48.5622Z" fill="#C9E8BB"/>
<path d="M118.25 48.4314C118.25 48.4314 118.213 48.4314 118.194 48.4128C118.138 48.3848 118.12 48.3102 118.148 48.2543L135.143 18.8153C135.181 18.7594 135.246 18.7407 135.302 18.7687C135.358 18.7967 135.376 18.8713 135.348 18.9272L118.353 48.3662C118.353 48.3662 118.287 48.4221 118.25 48.4221V48.4314Z" fill="#C9E8BB"/>
<path d="M120.944 46.6231C120.944 46.6231 120.906 46.6231 120.888 46.6045C120.832 46.5765 120.813 46.5019 120.841 46.446L135.226 21.5282C135.254 21.4723 135.329 21.4536 135.385 21.4816C135.441 21.5096 135.459 21.5841 135.431 21.6401L121.046 46.5579C121.046 46.5579 120.981 46.6138 120.944 46.6138V46.6231Z" fill="#C9E8BB"/>
<path d="M123.545 44.5809C123.545 44.5809 123.508 44.5809 123.489 44.5622C123.433 44.5343 123.415 44.4597 123.443 44.4037L134.621 25.0419C134.649 24.9859 134.723 24.9673 134.779 24.9953C134.835 25.0232 134.854 25.0978 134.826 25.1537L123.648 44.5156C123.648 44.5156 123.582 44.5715 123.545 44.5715V44.5809Z" fill="#C9E8BB"/>
<path d="M133.819 12.6533C133.894 12.6999 133.941 12.7278 133.959 12.7372L132.98 14.4244C132.98 14.4244 132.952 14.4058 132.906 14.3778C132.468 14.1261 130.044 12.9236 126.436 14.8346C123.033 16.6431 119.472 20.5863 115.864 26.5617C112.023 32.9194 110.307 38.7549 110.764 43.8914C111.081 47.4524 112.899 48.5711 113.169 48.7295C113.179 48.7295 113.225 48.7668 113.234 48.7668C113.496 48.916 115.314 49.9041 118.558 48.3939C123.238 46.2126 127.433 41.8126 131.013 35.3058C134.379 29.1999 136.02 24.1473 135.889 20.288C135.731 15.7948 133.353 14.6575 132.98 14.4151L133.959 12.7278C133.959 12.7278 134.025 12.7558 134.099 12.8024C134.724 13.1566 137.101 14.8253 137.269 19.3931C137.427 23.6905 135.665 29.2092 132.029 35.8092C129.895 39.6778 127.508 42.9219 124.935 45.4389C124.264 46.0914 123.592 46.6973 122.902 47.2473L120.758 47.3312C120.497 47.555 119.043 48.8041 117.038 50.6312C114.493 51.5355 112.964 50.7897 112.461 50.5007C112.395 50.4634 112.339 50.4355 112.312 50.4168C112.209 50.3516 112.125 50.3143 112.013 50.249C111.454 49.9227 110.13 48.9812 109.645 46.5295C109.403 44.8329 109.552 42.7634 109.617 42.4185V39.4914C109.748 38.6431 109.925 37.7761 110.149 36.8905C111.034 33.4041 112.647 29.7126 114.931 25.9278C118.828 19.477 122.725 15.1888 126.529 13.1846C130.566 11.0499 133.204 12.2804 133.819 12.6346V12.6533Z" fill="#CCE9BF"/>
<path d="M104.869 65.781L100.824 63.6172L89.9998 83.8451L94.0441 86.0089L104.869 65.781Z" fill="#D6EDCC"/>
<path d="M76.5796 6.3583L19.7325 41.4283L17.3779 40.07L74.225 5" fill="#F5FBF3"/>
<path d="M12.5021 134.271L18.2593 130.688L16.3704 78.71L10.6133 82.2804L12.5021 134.271Z" fill="#BCE2AB"/>
<path d="M25.3503 57.3398L19.5932 60.9232C13.7843 64.5324 10.3429 71.9319 10.6146 82.2938L16.3717 78.7104C16.0871 68.3615 19.5414 60.949 25.3503 57.3398Z" fill="#BCE2AB"/>
<path d="M42.9442 58.4263L48.7013 54.843C38.8042 49.5133 29.6186 48.8665 22.8265 53.0061L17.0693 56.5894C23.8485 52.4498 33.0471 53.1096 42.9442 58.4263Z" fill="#E84343"/>
<path d="M43.0608 62.4878L48.8179 58.9174L48.7015 54.8555L42.9443 58.4259L43.0608 62.4878Z" fill="#E84343"/>
<path d="M42.9444 58.426C33.0473 53.0963 23.8617 52.4495 17.0696 56.5891C10.2904 60.7287 6.71964 69.1631 7.0172 80.3529L8.90607 132.331L12.5027 134.271L10.6138 82.2933C10.0446 61.4531 24.5992 52.5659 43.0479 62.5009L42.9315 58.4389L42.9444 58.426Z" fill="#C7E7B9"/>
<path d="M76.5804 6.3584L19.7334 41.4802L21.2471 91.996L78.0941 56.8743L76.5804 6.3584Z" fill="#EDF7E9"/>
<path d="M21.2462 91.9953L18.8916 90.637L17.3779 40.1211L19.7325 41.4794L21.2462 91.9953Z" fill="#DCF0D3"/>
<path d="M36.8883 79.0983L36.1768 55.3991L61.5341 39.7334L62.2457 63.4325L36.8883 79.0983ZM40.3944 57.663L40.8213 71.8022L58.041 61.1557L57.6141 47.0165L40.3944 57.663Z" fill="#CFEAC2"/>
<path d="M55.3633 75.0613L61.1204 71.491L61.1851 69.5117L55.428 73.095L55.3633 75.0613Z" fill="#A7CD96"/>
<path d="M55.428 73.0957L61.1852 69.5124L55.0657 66.2266L49.3086 69.8099L55.428 73.0957Z" fill="#C0E4B1"/>
<path d="M49.3086 69.8096L49.425 73.8715L55.3633 75.0617L55.428 73.0954L49.3086 69.8096Z" fill="#A7CD96"/>
<path d="M79.4287 102.514C79.4287 102.436 79.4287 102.371 79.4287 102.307C79.4417 102.255 79.4287 102.514 79.4287 102.514Z" fill="white" fill-opacity="0.8"/>
<path d="M79.4166 102.346C79.4166 102.41 79.4166 102.475 79.4166 102.54C79.3649 102.643 79.2614 102.578 79.1708 102.514C79.1708 102.514 78.9121 102.307 78.7568 102.035C79.132 102.423 79.3131 102.514 79.4166 102.359V102.346Z" fill="white" fill-opacity="0.8"/>
<path d="M78.7181 101.984C78.7181 101.984 78.6658 101.906 78.6396 101.88C78.6396 101.88 78.6658 101.915 78.7181 101.984Z" fill="white" fill-opacity="0.8"/>
<path d="M81.0595 91.9971C81.0335 92.1264 81.0075 92.2429 80.9814 92.3722C80.9945 92.2817 81.0075 92.204 81.0205 92.1135L81.0595 91.9971Z" fill="white" fill-opacity="0.8"/>
<path d="M76.7613 98.9561C76.7613 98.9561 76.8389 99.0854 76.8777 99.1501C75.5969 99.6675 74.5619 99.5511 74.1738 99.4735C74.1221 99.4606 74.0703 99.4476 74.0186 99.4218C75.2347 99.5123 75.8945 99.3312 76.7613 98.9561Z" fill="white" fill-opacity="0.8"/>
<path d="M79.04 96.7444C79.0831 96.9341 79.096 97.0462 79.0788 97.0807C78.9882 97.236 78.9106 97.3394 78.8718 97.3912C78.1473 98.4002 77.6557 98.7366 77.0735 99.06C77.0347 98.9953 76.9958 98.9306 76.957 98.853C77.3969 98.6072 78.1473 98.1286 79.04 96.7314V96.7444Z" fill="white" fill-opacity="0.8"/>
<path d="M79.1689 96.5236C79.363 96.045 79.6606 95.631 79.8805 95.1653C80.4109 94.014 80.7603 92.9274 80.8896 92.5134C80.9026 92.4746 80.9155 92.4099 80.9414 92.3711C80.9284 92.4875 80.9026 92.6039 80.8896 92.7333C80.8638 92.8497 80.8638 92.8885 80.8249 92.992C80.1134 95.3205 79.4277 96.4848 79.2078 96.86C79.1948 96.7047 79.1689 96.5236 79.1689 96.5236Z" fill="white" fill-opacity="0.8"/>
<path d="M67.6813 99.6548C67.6813 99.6548 67.7203 99.6548 67.7984 99.6289C67.7463 99.6289 67.6943 99.6548 67.6553 99.6677H67.6943L67.6813 99.6548Z" fill="white" fill-opacity="0.8"/>
<path d="M78.8096 87.3263C78.7406 87.4298 78.4861 87.8352 78.0463 88.5424C78.0204 88.4001 77.9945 88.2578 77.9686 88.1155C77.9686 88.1025 77.9557 88.0766 77.9686 88.0508C77.9816 88.012 78.0204 87.9732 78.0463 87.9343C78.1239 87.805 78.5767 87.0547 78.5767 87.0547C78.6026 87.0547 78.6155 87.0806 78.6414 87.0935C78.6802 87.1194 78.8354 87.2229 78.8743 87.2487C78.8613 87.2746 78.8354 87.3005 78.8225 87.3263H78.8096Z" fill="white" fill-opacity="0.8"/>
<path d="M74.1359 94.3774C74.1359 94.3774 74.0583 94.4679 74.0325 94.5197C72.6223 96.3825 71.639 97.288 70.9533 97.8701C70.9016 97.8313 70.8369 97.7925 70.7852 97.7408C71.8072 96.8352 72.7258 95.7874 73.8772 94.2351C73.9031 94.1963 73.9548 94.1316 73.9807 94.0928C74.0325 94.1833 74.0842 94.2868 74.1359 94.3774Z" fill="white" fill-opacity="0.8"/>
<path d="M77.7451 89.0472C76.4772 91.0652 75.3516 92.747 74.4072 94.0276C74.3555 93.9241 74.3037 93.8336 74.252 93.7301C75.2999 92.2554 76.309 90.716 77.6545 88.5686C77.6933 88.5168 77.7321 88.4521 77.758 88.4004C77.7839 88.5298 77.8097 88.6591 77.8356 88.7885C77.8356 88.892 77.8097 88.9437 77.7451 89.0472Z" fill="white" fill-opacity="0.8"/>
<path d="M70.5521 97.9475C70.5521 97.9475 70.6038 97.9087 70.6168 97.8828C70.6685 97.9216 70.7203 97.9604 70.785 97.9992C70.7591 98.0122 70.7332 98.038 70.7203 98.051C69.2583 99.2023 68.1587 99.5128 67.9258 99.5645C68.8185 99.2023 69.6335 98.7107 70.5521 97.9345V97.9475Z" fill="white" fill-opacity="0.8"/>
<path d="M67.3451 94.739C67.3451 94.739 67.2933 94.8554 67.2675 94.9071C66.2583 97.0804 65.5727 98.374 65.0681 99.2666C65.0163 99.2537 64.9775 99.2278 64.9258 99.2149C65.6373 97.8437 66.2842 96.4983 67.0734 94.7131C67.0993 94.6613 67.1251 94.5967 67.151 94.5449C67.2157 94.6096 67.2675 94.6872 67.3321 94.7519L67.3451 94.739Z" fill="white" fill-opacity="0.8"/>
<path d="M70.243 87.2753C70.2818 87.1977 70.3206 87.0942 70.3464 87.0166C70.4111 87.146 70.4888 87.2883 70.5534 87.4176C70.5146 87.4952 68.0953 93.1095 67.5132 94.3773C67.4485 94.2997 67.3967 94.2221 67.332 94.1574C67.6037 93.5494 67.7072 93.2907 70.243 87.2883V87.2753Z" fill="white" fill-opacity="0.8"/>
<path d="M70.5254 86.5892C70.7712 86.0589 71.1981 85.1533 71.1981 85.1533C71.2111 85.1533 71.5216 85.1533 71.5992 85.1533C71.5604 85.2309 71.5086 85.3474 71.4698 85.4379C71.1464 86.1106 70.9523 86.5375 70.7583 86.9903C70.7065 86.8868 70.5513 86.5892 70.5513 86.5892H70.5254Z" fill="white" fill-opacity="0.8"/>
<path d="M64.7698 99.5381C64.7698 99.5381 64.8086 99.4604 64.8215 99.4346C64.8603 99.4475 64.9121 99.4734 64.9509 99.4863C64.938 99.5251 64.9121 99.551 64.8991 99.5898C64.4851 100.314 63.3725 102.216 63.1914 102.449C63.1914 102.449 64.1747 100.664 64.7698 99.5381Z" fill="white" fill-opacity="0.8"/>
<path d="M63.1284 89.4487C63.1284 89.3581 63.1543 89.2417 63.1672 89.1641C63.3052 89.371 63.3613 89.5651 63.3354 89.7462C62.9602 92.2817 62.7014 94.7525 62.5462 97.2751C62.2228 96.7059 63.1154 89.5263 63.1154 89.4487H63.1284Z" fill="white" fill-opacity="0.8"/>
<path d="M62.5205 97.8178C62.3774 100.573 62.4425 101.957 62.4815 102.876C62.4685 102.759 62.2733 101.272 62.4165 97.6755C62.4165 97.6108 62.4165 97.5461 62.4165 97.4814C62.4425 97.5073 62.4685 97.5461 62.4945 97.572C62.5335 97.6367 62.5205 97.6755 62.5205 97.8049V97.8178Z" fill="white" fill-opacity="0.8"/>
<path d="M62.5049 103.212V103.083C62.5049 103.083 62.5049 103.109 62.5049 103.225L62.5309 103.445L62.5049 103.212Z" fill="white" fill-opacity="0.8"/>
<path d="M63.5039 87.0285L63.5297 86.8603C63.5297 86.8603 63.685 86.7827 63.7109 86.7698C63.7626 86.7439 63.8014 86.718 63.8532 86.7051C63.6462 87.7529 63.5297 88.5162 63.4651 88.9689C63.3874 88.8654 63.3227 88.7619 63.2451 88.6714C63.2451 88.5808 63.3357 88.0504 63.5039 87.0414V87.0285Z" fill="white" fill-opacity="0.8"/>
<path d="M59.9565 91.4276L59.9307 91.2983C59.9307 91.2207 59.9307 91.1819 59.9436 91.156C59.9436 91.1301 59.9436 91.0913 59.9436 91.0654C59.9565 91.156 59.9824 91.2724 59.9954 91.35C60.1506 92.1909 60.28 92.8248 60.3705 93.2387C60.3447 93.187 60.3317 93.1482 60.3188 93.0964C60.2412 92.8894 60.2024 92.6436 59.9565 91.4276Z" fill="white" fill-opacity="0.8"/>
<path d="M60.5396 94.0021L60.5656 94.1314C60.5656 94.1314 60.4355 93.6528 60.3965 93.5234C60.4485 93.6614 60.4919 93.821 60.5266 94.0021H60.5396Z" fill="white" fill-opacity="0.8"/>
<path d="M81.1865 90.4827C81.2123 90.612 81.2123 90.6638 81.2253 90.7155C81.1606 91.1553 81.0312 92.0868 80.9795 92.3584C80.9795 92.4102 80.8501 93.0182 80.8242 93.0828C80.8372 92.9664 80.9148 92.4878 80.9277 92.3713C81.0442 91.5564 81.1347 90.8707 81.1865 90.4697V90.4827Z" fill="white" fill-opacity="0.8"/>
<path d="M77.8363 88.788C77.8105 88.6586 77.7846 88.5292 77.7587 88.3999C77.6164 87.7143 77.4612 87.0416 77.293 86.3818C77.3318 86.3948 77.5905 86.5241 77.6164 86.5371C78.2892 89.3442 78.8584 93.1216 79.1689 96.5238C79.1689 96.6144 79.1818 96.7049 79.1948 96.7955C79.4018 99.0205 79.4923 101.077 79.4276 102.565C79.4276 102.604 79.4147 102.798 79.4147 102.798C79.4147 102.707 79.4147 102.397 79.4147 102.332C79.4406 99.2792 78.8843 93.8719 77.8234 88.788H77.8363Z" fill="white" fill-opacity="0.8"/>
<path d="M69.6606 85.2051H69.777C70.0487 85.7096 78.8074 102.126 78.8332 102.177C78.7944 102.126 78.7556 102.061 78.7168 101.996C75.0426 96.7312 72.5327 90.8065 69.376 85.231C69.4665 85.231 69.57 85.218 69.6606 85.2051Z" fill="white" fill-opacity="0.8"/>
<path d="M62.1553 87.7409C62.2458 87.6762 62.3364 87.6116 62.427 87.5469C62.7116 87.935 63.3843 88.8664 63.462 88.9699C65.0274 91.1173 66.2694 92.8119 67.3432 94.1573C67.4079 94.2349 67.4596 94.3125 67.5243 94.3772C70.0471 97.5336 71.5737 98.7108 74.0318 99.4352C74.0836 99.4482 74.213 99.487 74.213 99.487C74.1224 99.4611 73.9025 99.4223 73.9025 99.4223C72.7251 99.0989 71.7419 98.6461 70.7975 97.9993C70.7457 97.9605 70.694 97.9217 70.6293 97.8829C68.2747 96.2141 66.1529 93.2647 62.1682 87.728L62.1553 87.7409Z" fill="white" fill-opacity="0.8"/>
<path d="M60.3198 93.1093C60.3198 93.1093 60.3586 93.1999 60.3716 93.2516C60.9796 94.7393 61.6653 96.1493 62.5321 97.2618C63.8 98.8918 65.4818 99.8879 67.8623 99.5774C67.9529 99.5774 68.0176 99.5645 68.0693 99.5515C67.9658 99.5774 67.8753 99.6033 67.7718 99.6292C66.7238 99.8232 65.7794 99.7844 64.9385 99.4869C64.8997 99.4739 64.8479 99.448 64.8091 99.4351C63.9552 99.0988 63.179 98.4908 62.4804 97.5852C62.4545 97.5594 62.4286 97.5205 62.4027 97.4947C61.6653 96.5115 61.0055 95.205 60.3845 93.5362C60.3845 93.5103 60.2163 92.9411 60.1904 92.8506C60.2292 92.9411 60.2551 93.0317 60.2939 93.1093H60.3198Z" fill="white" fill-opacity="0.8"/>
<path d="M63.1915 102.449C63.1915 102.449 63.2303 102.397 63.2562 102.371C63.2174 102.436 63.1786 102.488 63.1398 102.552C62.7258 103.121 62.5576 103.264 62.4929 103.07C62.4929 103.031 62.4541 102.811 62.4541 102.811C62.4541 102.837 62.48 102.863 62.4929 102.889C62.5964 103.044 62.7646 102.979 63.1915 102.449Z" fill="white" fill-opacity="0.8"/>
<path d="M62.5446 103.445C62.5446 103.381 62.5316 103.303 62.5186 103.226C62.5186 103.226 62.5576 103.601 62.5706 103.743C62.5706 103.743 62.5446 103.536 62.5316 103.445H62.5446Z" fill="#DBDBDB" fill-opacity="0.8"/>
<path d="M60.5783 94.1441C60.5266 93.9372 60.4748 93.7431 60.4102 93.5361C60.4102 93.5879 60.449 93.7043 60.4619 93.7819C60.7077 94.8427 60.7853 95.1661 61.1347 96.5244C61.1347 96.5244 60.7595 94.8815 60.5783 94.1441Z" fill="#DBDBDB" fill-opacity="0.8"/>
<path d="M60.4086 93.5231C60.2922 93.2126 60.1758 92.8763 60.0205 92.4106C60.0076 92.333 59.9817 92.2554 59.9688 92.1777C60.0464 92.3718 60.1369 92.6434 60.2146 92.8375C60.2793 93.0703 60.3439 93.3032 60.4086 93.5231Z" fill="#DBDBDB" fill-opacity="0.8"/>
<path d="M62.4954 103.057C62.4954 103.057 62.4824 102.992 62.4824 102.979L62.4434 102.682C62.4434 102.682 62.4564 102.772 62.4694 102.798C62.4694 102.889 62.4954 102.966 62.5084 103.057H62.4954Z" fill="#DBDBDB" fill-opacity="0.8"/>
<path d="M62.5827 103.821C62.5827 103.743 62.5566 103.653 62.5566 103.575C62.6087 103.937 62.6347 104.157 62.6997 104.455C62.6997 104.507 62.6998 104.558 62.7128 104.597C62.6737 104.416 62.6347 104.183 62.5827 103.808V103.821Z" fill="#DBDBDB" fill-opacity="0.8"/>
<path d="M61.1484 96.6016C61.0967 96.4076 61.032 96.1618 60.9932 95.9678C60.9932 95.9678 61.1872 96.7439 61.2519 96.9897C61.2519 96.9897 61.1743 96.6663 61.1484 96.5887V96.6016Z" fill="#DBDBDB" fill-opacity="0.8"/>
<path d="M62.4544 102.89V102.747C62.4414 102.644 62.4154 102.54 62.4023 102.424C62.4023 102.566 62.4284 102.683 62.4284 102.683L62.4674 102.98C62.4674 102.98 62.4674 102.915 62.4674 102.89H62.4544Z" fill="#DBDBDB" fill-opacity="0.8"/>
<path d="M79.4411 102.411L79.4671 102.113C79.4671 102.113 79.4671 102.191 79.4411 102.243C79.4411 102.333 79.428 102.424 79.415 102.501C79.415 102.475 79.415 102.45 79.428 102.411H79.4411Z" fill="#DBDBDB" fill-opacity="0.8"/>
<path d="M81.188 91.7384C81.188 91.7384 81.2009 91.6738 81.2138 91.6479C81.2138 91.5703 81.2397 91.4927 81.2397 91.415C81.2397 91.415 81.1103 91.8419 81.0715 91.9972C81.0456 92.1265 80.981 92.4241 80.981 92.4241C80.981 92.4887 80.968 92.5405 80.9551 92.6052C81.0198 92.3982 81.0974 92.1395 81.188 91.7514V91.7384Z" fill="#DBDBDB"/>
<path d="M80.4131 95.5793C80.6201 94.4668 80.6848 94.0011 80.84 93.0955C80.8918 92.8627 80.9435 92.6169 80.9953 92.3711C80.7883 93.6906 80.6071 94.5832 80.5295 95.0101L80.426 95.5793H80.4131Z" fill="#DBDBDB" fill-opacity="0.8"/>
<path d="M79.4014 103.135C79.4014 103.032 79.4274 102.657 79.4274 102.579C79.4274 102.708 79.4014 103.135 79.4014 103.135Z" fill="#DBDBDB" fill-opacity="0.8"/>
<path d="M79.4424 102.178C79.4424 102.075 79.4684 101.958 79.4814 101.842C79.4814 101.963 79.4727 102.152 79.4554 102.411C79.4554 102.32 79.4554 102.243 79.4554 102.165L79.4424 102.178Z" fill="#DBDBDB" fill-opacity="0.8"/>
<path d="M80.334 96.0198L80.5291 95.0107C80.5291 95.0107 80.373 95.8128 80.334 96.0198Z" fill="#DBDBDB" fill-opacity="0.8"/>
<path d="M79.3125 104.027C79.3515 103.677 79.3775 103.509 79.4036 103.134V102.966C79.4036 103.16 79.3776 103.432 79.3255 103.884C79.3255 103.936 79.3255 103.988 79.3255 104.04L79.3125 104.027Z" fill="#DBDBDB" fill-opacity="0.8"/>
<path d="M63.6197 97.4687C63.5937 97.3652 63.5807 97.2617 63.5547 97.1582C63.5807 97.2617 63.6067 97.3652 63.6197 97.4687Z" fill="white" fill-opacity="0.8"/>
<path d="M62.7109 104.609C62.7109 104.609 62.8274 105.308 63.1637 105.903C62.9826 105.618 62.8274 105.321 62.7497 105.023C62.7497 104.985 62.7368 104.829 62.7109 104.558C62.7109 104.571 62.7109 104.596 62.7109 104.609Z" fill="white" fill-opacity="0.8"/>
<path d="M62.7131 104.609L62.7002 104.467C62.8554 105.178 63.0366 105.683 63.2953 106.097C63.2436 106.032 63.2048 105.967 63.1659 105.903C62.8296 105.308 62.7131 104.609 62.7131 104.609Z" fill="white" fill-opacity="0.8"/>
<path d="M65.1182 106.498C65.1182 106.498 65.1705 106.55 65.1836 106.576C65.1836 106.576 65.1312 106.511 65.1182 106.498Z" fill="white" fill-opacity="0.8"/>
<path d="M61.1094 96.3948C61.2387 96.8993 61.5493 98.0635 61.9762 99.4089C62.3384 100.547 62.5152 101.138 62.5066 101.181C61.9374 99.5253 61.5104 97.9859 61.2646 96.9898L61.1094 96.3818V96.3948Z" fill="white" fill-opacity="0.8"/>
<path d="M62.6726 101.686C62.6209 101.531 62.6079 101.505 62.6209 101.428C62.6468 101.428 62.6856 101.505 62.6985 101.557C63.4747 103.627 64.2122 105.089 65.079 106.266C65.079 106.266 65.0014 106.305 64.9755 106.318C64.4451 105.58 63.63 104.313 62.6726 101.686Z" fill="white" fill-opacity="0.8"/>
<path d="M63.5918 97.7019C63.5918 97.7019 63.6178 97.6113 63.6438 97.5596C63.6699 97.6889 63.6959 97.8053 63.7219 97.9347C63.7219 97.9347 63.6178 97.7407 63.5918 97.7019Z" fill="white" fill-opacity="0.8"/>
<path d="M62.3887 95.4766C62.4792 95.5412 62.5698 95.593 62.6733 95.6577C62.6733 95.6577 63.1779 96.5891 63.4495 97.0548C63.4495 97.0807 63.3849 97.2488 63.3719 97.3006C63.1132 96.8349 62.4145 95.5283 62.4016 95.4766H62.3887Z" fill="white" fill-opacity="0.8"/>
<path d="M63.5926 97.702C63.1786 98.9438 62.8422 100.276 62.6352 101.376C62.5317 101.945 62.48 102.398 62.4541 102.76C62.4541 102.721 62.4023 102.45 62.4023 102.437C62.4023 101.065 62.9328 98.698 63.3727 97.3009C63.3727 97.3009 63.4762 96.9905 63.4891 96.9258C63.502 97.0034 63.6185 97.5338 63.6314 97.5726C63.6185 97.6243 63.5796 97.7149 63.5796 97.7149L63.5926 97.702Z" fill="white" fill-opacity="0.8"/>
<path d="M63.373 97.2883C63.373 97.2883 63.4121 97.1719 63.4251 97.1201C63.4121 97.1719 63.3861 97.2365 63.373 97.2883Z" fill="white" fill-opacity="0.8"/>
<path d="M63.5918 97.7032C63.5918 97.7032 63.618 97.6118 63.6441 97.5596C63.631 97.6118 63.618 97.6509 63.5918 97.7032Z" fill="white" fill-opacity="0.8"/>
<path d="M63.2931 106.098C63.9141 106.822 64.7421 106.447 65.0785 106.279C65.1302 106.279 65.1561 106.486 65.1561 106.486C64.2246 106.887 63.733 106.576 63.4354 106.279C63.3966 106.24 63.3578 106.188 63.319 106.149C63.2801 106.098 63.2931 106.111 63.2931 106.111V106.098Z" fill="white" fill-opacity="0.8"/>
<path d="M65.1978 106.459C65.2754 106.459 65.3142 106.498 65.3271 106.537C66.1939 107.623 66.9961 108.257 67.9275 108.581C67.9017 108.581 67.8758 108.581 67.8499 108.581C66.7632 108.399 65.2495 106.731 65.1719 106.537C65.1719 106.485 65.1978 106.472 65.1978 106.472V106.459Z" fill="white" fill-opacity="0.8"/>
<path d="M74.422 108.387C74.422 108.387 74.3435 108.413 74.3174 108.413C74.3828 108.387 74.3959 108.387 74.422 108.387Z" fill="white" fill-opacity="0.8"/>
<path d="M71.1357 107.714C71.1357 107.714 71.0581 107.663 71.0322 107.65C71.084 107.611 71.1357 107.572 71.1875 107.533C71.2133 107.559 71.2651 107.585 71.291 107.598C72.3518 108.283 73.2575 108.529 74.2148 108.413C74.189 108.413 74.1631 108.426 74.1372 108.439C73.8138 108.529 72.7012 108.71 71.1357 107.714Z" fill="white" fill-opacity="0.8"/>
<path d="M67.7724 104.351C67.7724 104.351 67.6948 104.247 67.6689 104.208C67.7207 104.144 67.7595 104.092 67.8113 104.027C67.8501 104.066 67.8889 104.131 67.9148 104.17C69.0533 105.67 70.0106 106.666 71.0197 107.404C70.968 107.443 70.9162 107.481 70.8645 107.533C70.2306 107.08 69.2085 106.252 67.7724 104.351Z" fill="white" fill-opacity="0.8"/>
<path d="M63.8247 97.7018C65.2478 100.25 66.4122 102.126 67.5895 103.743C67.5507 103.808 67.4989 103.872 67.4601 103.937C65.4936 101.22 63.7082 97.8959 63.7082 97.883C63.6824 97.7795 63.6694 97.6889 63.6436 97.5854L63.6824 97.4561L63.8247 97.7018Z" fill="white" fill-opacity="0.8"/>
<path d="M74.24 104.131C74.24 104.131 74.1753 104.053 74.1494 104.027C74.2012 103.937 74.2658 103.859 74.3176 103.769C74.3435 103.794 74.3823 103.846 74.4082 103.872C75.3785 105.023 76.1418 105.683 76.8921 106.007C76.8533 106.071 76.8016 106.136 76.7628 106.201C76.2841 106.007 75.4949 105.593 74.24 104.131Z" fill="white" fill-opacity="0.8"/>
<path d="M69.5957 97.5464C69.5957 97.5464 69.9579 97.5205 69.9709 97.5205L70.0356 97.6111C70.6048 98.439 70.6178 98.439 70.7859 98.7236C70.7213 98.8271 70.6566 98.9306 70.5919 99.0211C70.4366 98.7753 70.3202 98.5942 69.5957 97.5464Z" fill="white" fill-opacity="0.8"/>
<path d="M70.9153 99.5255C70.9153 99.5255 70.8376 99.4091 70.7988 99.3574C70.8635 99.2539 70.9153 99.1504 70.98 99.0469C71.0188 99.0986 71.0576 99.1633 71.0964 99.228C72.4419 101.311 73.2958 102.54 74.1496 103.587C74.0979 103.678 74.0461 103.769 73.9814 103.846C73.3734 103.109 72.5324 102.022 70.9153 99.5255Z" fill="white" fill-opacity="0.8"/>
<path d="M77.0742 106.072C77.8116 106.305 78.355 106.175 78.7561 105.671C78.7172 105.736 78.6784 105.787 78.6267 105.839C78.1997 106.318 77.6305 106.447 76.9448 106.253C76.9189 106.253 76.8931 106.24 76.8672 106.227C76.906 106.162 76.9448 106.111 76.9966 106.046C77.0224 106.046 77.0483 106.059 77.0742 106.072Z" fill="white" fill-opacity="0.8"/>
<path d="M79.3112 100.599C79.3758 100.935 79.4535 101.439 79.4793 101.853C79.4793 101.879 79.4535 102.151 79.4405 102.19C79.4276 102.035 79.3888 101.685 79.2206 100.935C79.2206 100.896 79.2077 100.87 79.2206 100.819C79.2465 100.728 79.2723 100.637 79.2982 100.547C79.2982 100.573 79.2982 100.599 79.3112 100.624V100.599Z" fill="white" fill-opacity="0.8"/>
<path d="M78.2258 96.6667C78.381 97.0807 78.7692 98.1932 79.1185 99.655C79.2306 100.112 79.2478 100.457 79.1702 100.69C78.7821 99.0987 78.3293 97.8698 78.0317 97.0807C78.0059 97.0289 77.98 96.9513 77.9541 96.8866C77.9541 96.8607 78.0964 96.5891 78.1482 96.4727C78.174 96.5244 78.1999 96.602 78.2129 96.6667H78.2258Z" fill="white" fill-opacity="0.8"/>
<path d="M77.5537 95.9933C77.5537 95.9933 77.5149 95.9157 77.502 95.8899C77.5149 95.8899 77.7607 95.7476 77.8254 95.7217C77.8254 95.7217 78.0065 96.0968 78.0583 96.2262C77.9936 96.3685 77.9159 96.4979 77.8513 96.6401C77.7866 96.5108 77.696 96.2909 77.5537 95.9933Z" fill="white" fill-opacity="0.8"/>
<path d="M63.7976 96.2529C63.8752 96.2917 64.1469 96.4082 64.1469 96.4082C64.0046 96.7186 63.8234 97.1455 63.6811 97.456L63.6423 97.5854C63.6423 97.5854 63.5259 97.0291 63.5 96.9515C63.5906 96.7445 63.707 96.4599 63.7976 96.2529Z" fill="white" fill-opacity="0.8"/>
<path d="M70.6051 99.0218C70.6698 98.9183 71.3037 97.9093 71.5754 97.4695C71.6789 97.4695 71.9765 97.4307 71.9765 97.4307C66.9568 105.477 66.7627 105.775 65.2619 106.434C65.249 106.434 65.1714 106.473 65.1714 106.473C65.1714 106.473 65.1455 106.266 65.1455 106.24C65.9994 105.749 66.3616 105.542 67.4613 103.938C67.5001 103.873 67.5519 103.808 67.5907 103.744C68.2505 102.76 69.182 101.286 70.5922 99.0218H70.6051Z" fill="white" fill-opacity="0.8"/>
<path d="M73.9958 103.833C74.0476 103.742 74.0993 103.652 74.164 103.574C75.419 101.582 76.6351 99.1628 77.8641 96.6402C77.9288 96.4979 78.3687 95.6054 78.5239 95.2949C78.6016 95.2431 78.6792 95.1914 78.7568 95.1396C78.6016 95.5665 78.0582 96.7179 78.0064 96.8343C74.8368 103.496 71.6542 109.072 68.0188 108.632C67.9282 108.619 67.8376 108.593 67.7471 108.567C67.7859 108.567 67.8247 108.567 67.8635 108.567C67.8894 108.567 67.9153 108.567 67.9411 108.567C70.1405 108.723 72.107 106.782 73.9958 103.82V103.833Z" fill="white" fill-opacity="0.8"/>
<path d="M80.4492 95.3857C80.4492 95.3857 80.3457 95.9291 80.3328 96.0196C80.0611 97.4297 79.7247 98.982 79.2978 100.508C79.2719 100.599 79.246 100.69 79.2201 100.78C78.211 104.286 76.6973 107.559 74.3039 108.412C74.2133 108.438 74.1228 108.451 74.0322 108.477C74.071 108.477 74.0969 108.451 74.1357 108.438C74.1616 108.438 74.1875 108.425 74.2133 108.412C77.7065 107.041 79.3754 100.754 80.4492 95.3857Z" fill="white" fill-opacity="0.8"/>
<path d="M79.3115 103.872V104.027C79.208 104.739 79.0656 105.114 78.9363 105.399C78.9104 105.45 78.8845 105.502 78.8457 105.554C79.001 105.243 79.1691 104.868 79.3115 103.885V103.872Z" fill="white" fill-opacity="0.8"/>
<path d="M81.4965 90.4057L81.5224 90.3281L81.2119 91.6606C81.2119 91.6606 81.2119 91.5959 81.2119 91.5571C81.2119 91.5312 81.2119 91.5053 81.2119 91.4924C81.3672 90.9103 81.4318 90.6257 81.4836 90.4187L81.4965 90.4057Z" fill="white" fill-opacity="0.8"/>
<path d="M84.0583 80.6901C83.7219 80.9229 82.9845 81.5439 81.8072 82.9539C81.8072 82.8116 81.7554 82.6564 81.8072 82.5141C81.8331 82.4235 81.9495 82.3589 82.0012 82.2942C82.3764 81.8673 83.3209 80.8453 84.123 80.3408C84.123 80.4443 84.11 80.5478 84.0842 80.6642L84.0583 80.6901Z" fill="white" fill-opacity="0.8"/>
<path d="M81.563 83.2653C80.3469 84.7917 79.4671 86.2277 78.9108 87.172L78.8591 87.2626C78.8591 87.2626 78.5874 87.0814 78.5615 87.0685C79.5577 85.4127 80.5021 84.0673 81.5371 82.8125C81.563 82.9419 81.563 83.0842 81.5759 83.2394L81.5501 83.2653H81.563Z" fill="white" fill-opacity="0.8"/>
<path d="M84.1641 80.6261C84.1899 80.5097 84.2158 80.4062 84.2287 80.2898C84.3711 80.2122 84.4487 80.1992 84.5134 80.1992L84.3969 80.5097C84.3969 80.5097 84.2546 80.5614 84.1641 80.6261Z" fill="white" fill-opacity="0.8"/>
<path d="M84.0072 74.2866C83.011 74.015 81.7302 74.2219 80.2295 74.8946C80.1777 74.7782 80.126 74.6747 80.0742 74.5712C81.6008 73.9244 82.8687 73.7433 83.9296 74.0279C83.9554 74.0279 83.9813 74.0408 84.0072 74.0538C84.0331 74.1443 84.0589 74.2219 84.0848 74.3125C84.0589 74.3125 84.0331 74.2996 84.0072 74.2866Z" fill="white" fill-opacity="0.8"/>
<path d="M74.6423 79.0988C74.6423 79.0988 74.7328 78.9824 74.7846 78.9307C74.8493 79.06 74.914 79.1894 74.9787 79.3317C74.9398 79.3834 74.8881 79.4481 74.8493 79.5128C73.0251 81.906 72.0807 84.1181 71.6667 85.0624L71.6149 85.1918C71.5373 85.1918 71.2268 85.1918 71.2139 85.1918C72.1324 82.928 73.258 80.9487 74.6552 79.1376L74.6423 79.0988Z" fill="white" fill-opacity="0.8"/>
<path d="M79.8293 75.0768C77.4359 76.2799 75.754 78.3367 75.2107 79.0094C75.146 78.88 75.0813 78.7507 75.0166 78.6213C76.5303 76.7973 78.0181 75.5684 79.6741 74.7405C79.7129 74.7275 79.7646 74.7017 79.8035 74.6758C79.8552 74.7922 79.9069 74.8957 79.9587 75.0121C79.9199 75.0251 79.8811 75.0509 79.8423 75.0639L79.8293 75.0768Z" fill="white" fill-opacity="0.8"/>
<path d="M85.6777 76.1233C85.6777 76.2138 85.6777 76.2785 85.6777 76.3432C85.5872 75.36 85.0956 74.7132 84.2417 74.3769C84.2158 74.2863 84.1899 74.2087 84.1641 74.1182C85.0438 74.4804 85.5613 75.1272 85.6648 76.1362L85.6777 76.1233Z" fill="white" fill-opacity="0.8"/>
<path d="M65.8974 79.2935C65.8069 79.2029 65.7292 79.0994 65.6387 79.0089C66.7513 76.4216 68.058 74.4424 69.7398 72.7607C69.7916 72.709 69.8563 72.6572 69.8951 72.6055C69.9856 72.6831 70.0762 72.7478 70.1668 72.8254C70.115 72.8771 70.0503 72.9289 70.0115 72.9806C67.5663 75.4126 66.3114 78.3362 65.8974 79.2935Z" fill="white" fill-opacity="0.8"/>
<path d="M80.852 70.1348C79.9464 69.7208 78.9631 69.488 77.9152 69.4621C77.3718 69.4492 76.8026 69.488 76.2463 69.5785C76.1039 69.6044 76.0134 69.6173 75.9487 69.6044C75.8711 69.5526 75.7934 69.5009 75.7158 69.4492C77.4494 69.1387 78.9631 69.281 80.4509 69.9149C80.5544 69.9666 80.6579 70.0183 80.7614 70.0701C80.8132 70.096 80.852 70.1218 80.9037 70.1477C80.8779 70.1477 80.852 70.1218 80.839 70.1218L80.852 70.1348Z" fill="white" fill-opacity="0.8"/>
<path d="M75.2099 69.5652C75.2099 69.5652 75.3263 69.5393 75.3781 69.5264C75.4816 69.591 75.5333 69.6299 75.6368 69.6945C75.5851 69.6945 75.5204 69.7204 75.4686 69.7333C72.8165 70.406 71.0182 72.036 70.4231 72.5793C70.3325 72.5017 70.2419 72.437 70.1514 72.3594C71.7556 70.9235 73.3598 70.0309 75.2099 69.5652Z" fill="white" fill-opacity="0.8"/>
<path d="M65.6361 79.9274C64.4718 82.8768 64.0448 85.477 63.9025 86.3308L63.8508 86.693C63.8508 86.693 63.7343 86.7447 63.6826 86.7836C63.6438 86.7965 63.5403 86.8612 63.5273 86.8612C63.8767 84.3386 64.4977 81.9195 65.3774 79.6428C65.4033 79.5781 65.4421 79.4875 65.468 79.4229C65.5585 79.5134 65.6361 79.6169 65.7267 79.7074C65.7008 79.7721 65.662 79.8627 65.6361 79.9274Z" fill="white" fill-opacity="0.8"/>
<path d="M58.9092 83.7568C58.9092 83.6792 58.9092 83.5757 58.9092 83.498C59.0299 83.6274 59.0903 83.7783 59.0903 83.9508C59.1938 87.0555 59.7501 89.9532 59.9442 91.0399C59.9442 91.1175 59.9442 91.1433 59.9442 91.1692C59.9442 91.1951 59.9442 91.2339 59.9442 91.2598C59.3491 88.4267 59.0386 86.0853 58.9221 83.7568H58.9092Z" fill="white" fill-opacity="0.8"/>
<path d="M66.4516 68.7244C65.9082 68.9702 65.3778 69.2548 64.8732 69.5911C64.6662 69.7291 64.4721 69.7852 64.291 69.7593C65.8176 68.6856 67.3831 68.1035 69.2202 67.9094C69.2202 67.9094 69.4272 67.8965 69.5177 67.8965C69.5824 67.8965 69.8024 67.8965 69.8541 67.8965C69.8024 67.8965 69.7377 67.8965 69.6989 67.8965C68.5733 68 67.4866 68.2716 66.4516 68.7373V68.7244Z" fill="white" fill-opacity="0.8"/>
<path d="M60.4228 75.2182C60.3322 75.1794 60.2546 75.1535 60.1641 75.1276C61.0826 72.9673 62.2599 71.3632 63.8771 70.0696C63.9289 70.0307 63.9806 69.9919 64.0324 69.9531C64.1229 69.9531 64.2005 69.979 64.317 69.9919C64.2652 70.0307 64.2135 70.0696 64.1617 70.1084C61.8071 71.9841 60.7592 74.4161 60.4099 75.2182H60.4228Z" fill="white" fill-opacity="0.8"/>
<path d="M59.0514 79.5132C59.2843 77.521 59.7889 76.1239 59.957 75.6711C59.97 75.6194 59.9958 75.5547 60.0217 75.5029C60.0993 75.5288 60.1899 75.5676 60.2675 75.6064C60.2417 75.6582 60.2158 75.7228 60.2028 75.7746C59.1549 78.5559 59.0514 81.363 59.0644 83.2388C58.9091 83.0189 58.7021 82.4367 59.0514 79.5261V79.5132Z" fill="white" fill-opacity="0.8"/>
<path d="M56.0618 75.2832C55.8936 76.0723 55.8419 76.9261 55.8677 77.8575C55.9065 78.8924 56.1394 79.9014 56.2688 80.9234C55.6995 78.6983 55.609 76.9778 55.9065 75.3349C55.9065 75.309 55.9195 75.2702 55.9324 75.2314C55.9842 75.2056 56.023 75.1926 56.0747 75.1797C56.0747 75.2185 56.0618 75.2573 56.0489 75.2832H56.0618Z" fill="white" fill-opacity="0.8"/>
<path d="M56.4253 81.4929C56.7099 82.6183 57.0333 83.5756 57.1756 83.9895L57.2403 84.1836C57.2403 84.1836 57.0851 83.8084 57.0592 83.7438C56.684 82.7347 56.5029 82.0362 56.3476 81.454C56.3347 81.3894 56.3088 81.3118 56.2959 81.2471C56.3218 81.2471 56.3476 81.2729 56.3735 81.2859C56.3865 81.3506 56.4123 81.4411 56.4253 81.5058V81.4929Z" fill="white" fill-opacity="0.8"/>
<path d="M58.8184 70.9368C56.839 72.3468 56.3215 74.2484 56.1533 74.8694C56.1015 74.8823 56.0498 74.9082 55.998 74.934C56.412 73.33 57.2012 72.1398 58.4432 71.1696C58.5467 71.1049 58.6373 71.0402 58.7408 70.9756C58.7925 70.9368 58.8443 70.9109 58.896 70.8721C58.8702 70.8979 58.8313 70.9109 58.8055 70.9368H58.8184Z" fill="white" fill-opacity="0.8"/>
<path d="M54.8483 78.9184L54.8095 78.8537C54.6802 78.4656 54.6155 78.181 54.5896 77.987C54.5896 77.9093 54.5637 77.8317 54.5508 77.7541C54.5508 77.6636 54.5508 77.6247 54.5508 77.5859C54.6025 78.181 54.7837 78.7114 54.8483 78.9313V78.9184Z" fill="white"/>
<path d="M85.6912 76.4602C85.6912 76.5249 85.6912 76.5896 85.6912 76.6542C85.6522 77.1458 85.6392 77.2364 85.4961 77.8573C85.4961 77.8573 85.457 77.922 85.457 77.9349C85.6392 77.2622 85.6782 76.7448 85.6912 76.4473V76.4602Z" fill="white" fill-opacity="0.8"/>
<path d="M84.0713 80.6649C84.0972 80.5484 84.1101 80.432 84.136 80.3285C84.5629 77.9224 84.55 75.9431 84.0842 74.3132C84.0584 74.2226 84.0325 74.145 84.0066 74.0545C83.4891 72.4633 82.5059 71.2085 81.0439 70.2383C81.1863 70.3159 81.3286 70.3935 81.4579 70.4711C82.7905 71.3896 83.6961 72.5927 84.1748 74.1191C84.2007 74.1968 84.2266 74.2873 84.2524 74.3779C84.8346 76.4865 84.7182 79.2031 83.6832 82.5665C83.6832 82.5794 83.5667 82.9287 83.5409 83.0063C83.7608 82.1913 83.9419 81.4152 84.0842 80.6907L84.0713 80.6649Z" fill="white" fill-opacity="0.8"/>
<path d="M81.226 90.7155C81.226 90.7155 81.2131 90.599 81.2001 90.5473C81.5365 87.7401 81.6529 85.3469 81.5753 83.2254C81.5753 83.0702 81.5753 82.9279 81.5624 82.7856C81.4071 79.5386 80.812 77.0031 79.9452 75.0109C79.8935 74.8945 79.8417 74.791 79.79 74.6746C76.9178 68.4522 71.4841 67.896 69.8799 67.8701C69.9963 67.8701 70.4233 67.8701 70.4362 67.8701C71.8334 67.9477 73.8129 68.2841 75.7147 69.4613C75.7923 69.513 75.8699 69.5648 75.9475 69.6165C79.6606 72.0356 83.0114 77.7146 81.2131 90.7284L81.226 90.7155Z" fill="white" fill-opacity="0.8"/>
<path d="M58.998 70.8199C59.0627 70.7811 59.2956 70.6388 59.3474 70.6129C59.3732 70.6 59.3991 70.587 59.425 70.5741C64.8975 67.9351 74.4324 71.195 77.6021 86.5503C77.5762 86.5374 77.3174 86.408 77.2786 86.3951C74.1607 71.5702 64.5094 67.7928 58.998 70.8199Z" fill="white" fill-opacity="0.8"/>
<path d="M56.0759 75.1794C56.0759 75.1794 55.9724 75.2182 55.9336 75.2312C55.2609 75.5158 54.7951 76.0073 54.614 76.68C54.5622 76.887 54.5364 77.1198 54.5234 77.3656C54.5234 77.3398 54.5234 77.301 54.5234 77.2751C54.5234 77.2363 54.5234 77.1975 54.5234 77.1587C54.5234 77.1198 54.5234 77.081 54.5234 77.0293C54.9245 73.4589 61.1474 73.5236 66.4 79.8882C68.043 81.8804 69.1298 83.8596 69.7637 85.1791C69.7637 85.1791 69.4662 85.205 69.3627 85.205C68.25 82.967 66.9951 81.143 65.7143 79.6812C65.6238 79.5777 65.5461 79.4872 65.4556 79.3966C63.709 77.495 61.8978 76.2531 60.2677 75.5804C60.19 75.5416 60.0995 75.5158 60.0218 75.4769C58.4564 74.8819 57.0721 74.8043 56.0889 75.1535L56.0759 75.1794Z" fill="white" fill-opacity="0.8"/>
<path d="M56.2304 80.9105C56.9031 81.1822 57.9123 82.023 59.0249 83.2002C60.1893 84.4292 61.4054 85.9427 62.4145 87.5468C62.3239 87.6115 62.2334 87.6762 62.1428 87.7408C60.0211 84.3645 57.4724 81.8937 56.3598 81.2857C56.3339 81.2727 56.308 81.2598 56.2822 81.2469C56.1398 81.1693 56.0234 81.1434 55.9458 81.1434C55.9458 81.1175 55.8293 80.8847 55.8164 80.8588C55.9199 80.8329 56.0493 80.8588 56.2175 80.9105H56.2304Z" fill="white" fill-opacity="0.8"/>
<path d="M59.9704 92.1782C59.9963 92.2947 60.0092 92.3593 60.0222 92.4111C60.0222 92.4111 59.6987 91.3374 59.6729 91.2598C59.7375 91.4926 59.841 91.8031 59.9704 92.1782Z" fill="white" fill-opacity="0.8"/>
<path d="M81.6789 89.0992C81.7307 88.8922 81.7824 88.6853 81.8342 88.4912V88.5818C81.7565 89.2415 81.6918 89.552 81.3555 91.0138L81.3813 90.9103C81.5107 90.3152 81.5883 89.6943 81.6789 89.0992Z" fill="#DBDBDB"/>
<path d="M84.3594 80.6906C84.3854 80.613 84.4244 80.5483 84.4504 80.4707C84.5025 80.393 84.5155 80.3542 84.5415 80.3154C84.5155 80.393 84.4374 80.5741 84.4374 80.5741C84.4374 80.6 84.4114 80.6259 84.3594 80.6906Z" fill="#DBDBDB"/>
<path d="M84.668 79.953L84.9152 79.4355C84.8631 79.552 84.7851 79.6943 84.733 79.8107C84.707 79.8624 84.694 79.9012 84.668 79.953Z" fill="#DBDBDB"/>
<path d="M82.4309 86.3697C82.8967 85.0761 83.0907 84.481 83.2201 84.0541L83.3365 83.666C83.0519 84.5457 82.9743 84.7527 82.5732 85.8522C82.5215 86.0204 82.4697 86.1886 82.418 86.3567L82.4309 86.3697Z" fill="#DBDBDB"/>
<path d="M81.3558 91.0132L81.5509 90.1982C81.5509 90.1982 81.4078 90.8321 81.3428 91.0779C81.3428 91.0779 81.3428 91.0262 81.3558 91.0132Z" fill="#DBDBDB"/>
<path d="M84.4355 80.5607L84.5396 80.3149C84.5396 80.3149 84.5656 80.2114 84.5136 80.1855C84.4745 80.2761 84.4355 80.4055 84.3965 80.496C84.4355 80.496 84.4485 80.509 84.4355 80.5607Z" fill="#DBDBDB"/>
<path d="M84.8877 79.513C85.2111 78.8145 85.3146 78.4522 85.4699 77.9477C85.4828 77.9219 85.4958 77.896 85.5087 77.8701C85.3276 78.5299 85.1594 78.9179 84.9265 79.4354L84.8877 79.513Z" fill="#DBDBDB"/>
<path d="M83.2178 84.0533C83.3083 83.7299 83.4377 83.316 83.5412 82.9926C83.593 82.8503 83.6318 82.695 83.6835 82.5527C83.58 82.8891 83.2178 84.0533 83.2178 84.0533Z" fill="#DBDBDB"/>
<path d="M57.2553 84.1967C57.2036 84.0414 57.1389 83.8991 57.0742 83.7568C57.0742 83.7568 57.2942 84.3519 57.6176 85.2057C57.6176 85.2057 57.3718 84.533 57.2424 84.1967H57.2553Z" fill="#DBDBDB"/>
<path d="M54.8464 78.9182C54.8464 78.9182 54.8206 78.8665 54.8076 78.8535L54.8335 78.9311C55.0405 79.5133 55.2475 79.9272 55.5321 80.4447L55.4674 80.3153C55.3769 80.1342 55.0922 79.5909 54.8982 79.0476C54.8982 79.0088 54.8723 78.957 54.8594 78.9311L54.8464 78.9182Z" fill="#DBDBDB"/>
<path d="M55.96 81.143C55.934 81.2077 55.934 81.2465 55.96 81.2724L55.8559 81.0654C55.8169 80.949 55.8039 80.9231 55.8429 80.8584C55.8819 80.949 55.934 81.0395 55.973 81.143H55.96Z" fill="#DBDBDB"/>
<path d="M59.8935 91.9971L59.6348 91.1562C59.6348 91.1562 59.8159 91.7513 59.8935 91.9971Z" fill="#DBDBDB"/>
<path d="M57.7055 85.4117C57.6408 85.2306 57.5373 84.9848 57.4727 84.8037C57.6408 85.2306 57.9255 85.9421 58.4171 87.0417C58.4818 87.2098 58.5465 87.378 58.5982 87.5591L58.5206 87.3651C58.3524 86.9899 58.0548 86.2784 57.7185 85.4117H57.7055Z" fill="#DBDBDB"/>
<path d="M55.5212 80.4448L55.4824 80.3672C55.4824 80.3672 55.7153 80.7811 55.7412 80.8329C55.7412 80.8329 55.56 80.5224 55.5212 80.4448Z" fill="#DBDBDB"/>
<path d="M55.9862 81.3373L56.0382 81.4149C55.9992 81.3503 55.9732 81.2856 55.9342 81.2209C55.9342 81.2209 55.8691 81.1174 55.8301 81.0527L55.9342 81.2597C55.9342 81.2597 55.9602 81.3115 55.9732 81.3373H55.9862Z" fill="#DBDBDB"/>
<path d="M59.8295 91.7643C59.6743 91.221 59.519 90.6518 59.4284 90.0309C59.3638 89.8239 59.2991 89.6298 59.2344 89.4229C59.3249 89.992 59.3767 90.2249 59.6484 91.1434L59.8812 91.9325C59.8812 91.9325 59.8424 91.8031 59.8295 91.7514V91.7643Z" fill="#DBDBDB"/>
<path d="M76.0893 85.7744L75.8047 85.9167C75.8823 85.8779 75.9988 85.8132 76.0893 85.7744Z" fill="white" fill-opacity="0.8"/>
<path d="M59.4914 89.3705C59.7071 89.819 60.7636 91.906 62.6611 95.6317C62.6611 95.6317 62.5835 95.5929 62.5447 95.567C62.4929 95.5411 62.4412 95.5023 62.3894 95.4635C62.3894 95.4635 59.8796 90.3796 59.4785 89.5128C59.4268 89.3964 59.3879 89.3317 59.375 89.28C59.375 89.2282 59.375 89.1894 59.375 89.1377C59.4138 89.2024 59.4526 89.28 59.4785 89.3447L59.4914 89.3705Z" fill="white" fill-opacity="0.8"/>
<path d="M59.1942 88.8916C58.7673 87.9732 58.5991 87.5721 58.5991 87.5721C58.5344 87.391 58.4697 87.2229 58.418 87.0547L58.5085 87.2487C58.7285 87.7532 58.9872 88.2448 59.2071 88.7493C59.2071 88.7752 59.2071 88.814 59.2071 88.8528C59.2071 88.8658 59.2071 88.8787 59.2071 88.8916H59.1942Z" fill="white" fill-opacity="0.8"/>
<path d="M60.6551 86.6931C60.6551 86.6931 60.5904 86.7836 60.5645 86.7966C59.2578 85.4382 57.5889 83.6401 56.334 81.7773C56.3081 81.7385 56.2693 81.6738 56.2305 81.6221C56.2305 81.6221 56.2908 81.6954 56.4116 81.842C57.4595 83.3167 58.7274 84.7656 60.6551 86.6931Z" fill="white" fill-opacity="0.8"/>
<path d="M55.7397 80.8325L55.6621 80.7031L55.7268 80.8066C55.882 81.0524 55.9597 81.1947 56.1279 81.4405C56.102 81.4146 56.089 81.4017 56.0632 81.3758C55.9726 81.2594 55.8691 81.0783 55.7397 80.8454V80.8325Z" fill="white" fill-opacity="0.8"/>
<path d="M59.4514 83.7302C59.4514 83.7302 59.3349 83.6655 59.2702 83.6396C59.2444 83.6267 59.2056 83.6008 59.1797 83.5879C59.1797 83.5879 59.3737 83.6914 59.4384 83.7302H59.4514Z" fill="white" fill-opacity="0.8"/>
<path d="M56.0498 81.4147L55.9463 81.2207C55.9851 81.2595 56.0239 81.3113 56.0627 81.363C56.0886 81.3889 56.1015 81.4018 56.1274 81.4277C56.6578 81.9969 57.5117 82.6178 58.7537 83.3422C58.9219 83.4457 59.0642 83.5233 59.2195 83.6139C57.7446 82.8377 56.5285 82.0098 56.0369 81.4277L56.0498 81.4147Z" fill="white" fill-opacity="0.8"/>
<path d="M60.7847 87.0556C59.9179 87.5213 59.4262 87.9999 59.3874 89.1513C59.3874 89.203 59.3874 89.2418 59.3874 89.2936C59.3874 89.5135 59.4004 89.7593 59.4262 90.0309C59.4004 89.9404 59.2451 89.4617 59.2322 89.4229C59.2063 89.2159 59.1934 89.0219 59.1934 88.8408C59.1934 88.802 59.1934 88.7761 59.1934 88.7373C59.1934 87.8447 59.5427 87.1591 60.6812 86.7451C60.6941 86.7969 60.7847 87.0426 60.7847 87.0426V87.0556Z" fill="white" fill-opacity="0.8"/>
<path d="M60.8762 86.9641C63.4896 89.6031 65.2059 91.3796 66.0253 92.2938L65.8571 92.4878C64.6798 91.1295 63.6836 90.0688 61.8853 88.2189C61.5231 87.8437 61.0832 87.5591 60.8115 87.1064C60.8115 87.0934 60.708 86.7959 60.708 86.7959L60.8762 86.9641Z" fill="white" fill-opacity="0.8"/>
<path d="M66.4252 92.76C67.499 93.9889 68.754 95.5154 69.9701 97.5205C69.9572 97.5205 69.6467 97.5205 69.569 97.5205L69.4655 97.3523C68.8057 96.2916 67.913 94.9462 66.2441 92.9799C66.2053 92.9281 66.1406 92.8505 66.0889 92.7988L66.27 92.5918L66.4252 92.76Z" fill="white" fill-opacity="0.8"/>
<path d="M75.6508 92.1648C76.66 93.2514 77.3068 94.3122 77.8243 95.7222C77.7726 95.7481 77.5138 95.8904 77.5009 95.8904C77.1516 94.9719 76.6082 93.7948 75.418 92.4753C75.4697 92.333 75.5473 92.2295 75.625 92.126L75.6508 92.1519V92.1648Z" fill="white" fill-opacity="0.8"/>
<path d="M64.7815 86.2405C64.8591 86.2405 64.9497 86.2405 65.0273 86.2275C65.0661 86.2275 65.1049 86.2534 65.1696 86.2793C67.576 87.2624 69.012 87.8575 70.6421 88.6725C70.5645 88.7242 70.461 88.776 70.3834 88.8277C68.6886 87.9351 67.0973 87.2495 64.9109 86.3052C64.872 86.2922 64.8203 86.2663 64.7686 86.2405H64.7815Z" fill="white" fill-opacity="0.8"/>
<path d="M71.0851 88.8913C72.9611 89.8745 74.2419 90.7671 75.3674 91.8667C75.2898 91.9702 75.2122 92.0736 75.1216 92.1771C74.3583 91.401 73.1681 90.3531 70.8135 89.0595C70.7617 89.0336 70.697 88.9948 70.6582 88.969C70.7358 88.9172 70.8393 88.8525 70.917 88.8008L71.0722 88.8784L71.0851 88.8913Z" fill="white" fill-opacity="0.8"/>
<path d="M59.4512 83.7305C59.5547 83.7822 59.7746 83.8857 59.7746 83.8857C61.2107 84.6231 62.6208 85.2181 64.7038 86.0849C64.0051 86.1107 59.4641 83.7563 59.4512 83.7305Z" fill="white" fill-opacity="0.8"/>
<path d="M76.4916 85.7744C78.3029 85.7744 79.4026 85.865 80.2694 86.0849C80.1917 86.1754 80.1141 86.2789 80.0235 86.3695C79.3896 86.1884 78.4452 85.9943 76.207 85.9297C76.1553 85.9297 76.1035 85.9297 76.0518 85.9297C76.1294 85.8908 76.2458 85.8262 76.3234 85.7874H76.4787L76.4916 85.7744Z" fill="white" fill-opacity="0.8"/>
<path d="M81.8485 87.9734C81.8485 88.0769 81.8485 88.2321 81.8485 88.4779C81.8225 88.5555 81.7054 89.0471 81.6924 89.0859V89.0083C81.7054 88.853 81.7184 88.646 81.6924 88.3744C81.6924 88.3226 81.6924 88.2968 81.7184 88.1933C81.7574 88.0898 81.8095 87.9863 81.8485 87.8828C81.8485 87.9087 81.8485 87.9475 81.8485 87.9604V87.9734Z" fill="white" fill-opacity="0.8"/>
<path d="M70.5005 85.9297C70.5005 85.9297 70.3711 85.9297 70.3193 85.9297C70.3193 85.9297 75.352 85.7744 76.0894 85.7744C76.0118 85.8132 75.8954 85.8779 75.8048 85.9167C75.2011 85.9081 73.4329 85.9124 70.5005 85.9297Z" fill="white" fill-opacity="0.8"/>
<path d="M81.5752 86.9134C81.7822 87.2627 81.8211 87.6249 81.834 87.7284C81.7822 87.8577 81.7305 87.9871 81.6658 88.1294C81.5752 87.5214 81.3424 86.8487 80.3203 86.4606C80.3979 86.3571 80.4756 86.2666 80.5532 86.1631C80.799 86.2407 81.2906 86.4477 81.5623 86.9134H81.5752Z" fill="white" fill-opacity="0.8"/>
<path d="M81.4729 82.8379L81.654 82.7214C82.8313 81.9711 83.6981 81.3114 84.2285 80.7422C84.2027 80.781 84.1768 80.8327 84.1509 80.8716C84.0345 81.0656 83.918 81.1561 83.3747 81.5701C82.8313 81.9841 82.1844 82.4239 81.4341 82.8637C81.3952 82.8896 81.3435 82.9155 81.3047 82.9413C81.3047 82.9413 81.447 82.8508 81.4599 82.8379H81.4729Z" fill="white" fill-opacity="0.8"/>
<path d="M84.3316 80.613C84.3316 80.613 84.3966 80.5224 84.4357 80.4707C84.4357 80.4836 84.3576 80.6647 84.3446 80.6906C84.3056 80.7424 84.2665 80.7941 84.1885 80.8717C84.2015 80.82 84.2405 80.7553 84.2795 80.6906C84.3056 80.6518 84.3056 80.6389 84.3316 80.6259V80.613Z" fill="white" fill-opacity="0.8"/>
<path d="M65.0264 86.227C64.9358 86.227 64.8582 86.227 64.7806 86.2399C62.1025 86.4081 61.7532 86.4986 60.7053 86.7962C60.7053 86.7962 60.6018 86.5245 60.5889 86.4986C61.529 86.283 64.5995 86.0976 69.8003 85.9424C69.8003 85.9424 70.2531 85.9424 70.3954 85.9424C70.3825 85.9424 66.2555 86.1623 65.0264 86.2399V86.227Z" fill="white" fill-opacity="0.8"/>
<path d="M66.0102 92.2938C67.5109 90.625 69.2445 89.5384 70.383 88.8269C70.4606 88.7751 70.5641 88.7234 70.6417 88.6716C72.2589 87.7144 73.2939 87.1969 75.8038 85.9162L76.0884 85.7739C78.7665 84.4156 79.5815 83.9629 80.9917 83.1349C81.1469 83.0444 81.2892 82.9538 81.4316 82.8633L81.3022 82.9409C79.8273 83.8723 78.9476 84.3768 76.3342 85.7739C76.2566 85.8127 76.1402 85.8774 76.0625 85.9162C72.9317 87.585 72.2977 87.9601 70.9134 88.801C70.8358 88.8527 70.7323 88.9174 70.6547 88.9692C68.0543 90.625 67.0193 91.7634 66.2689 92.5913L66.0878 92.7983C64.9234 94.3118 64.5094 95.4243 64.1472 96.4075C64.1472 96.4075 63.8755 96.2911 63.7979 96.2523C64.4447 94.3894 65.001 93.5874 65.842 92.4878L66.0102 92.2938Z" fill="white" fill-opacity="0.8"/>
<path d="M84.7445 79.7979L84.6798 79.9402C84.5505 80.1859 84.4211 80.4317 84.2917 80.6775C84.2529 80.7422 84.2141 80.8198 84.1753 80.8845C83.1403 82.7602 81.8853 84.4937 80.5657 86.1625C80.4881 86.266 80.4105 86.3565 80.3329 86.46C78.7933 88.3746 77.1632 90.2115 75.6366 92.126C75.5589 92.2295 75.4684 92.333 75.3908 92.4365C74.1358 94.0147 72.9715 95.6576 71.9753 97.4299C71.9753 97.4299 71.6777 97.4558 71.5742 97.4687C74.925 91.2981 80.6563 86.9257 84.1623 80.8716C84.1882 80.8327 84.2141 80.781 84.24 80.7422C84.4211 80.4317 84.5893 80.1213 84.7445 79.8108V79.7979Z" fill="white" fill-opacity="0.8"/>
<path d="M82.5721 85.8645C82.5721 85.8645 82.4298 86.3431 82.4169 86.369C82.184 86.977 81.7571 88.1025 81.7182 88.206C81.2784 89.3185 80.6315 90.8191 78.7944 95.1009C78.665 95.1915 78.5874 95.2432 78.5098 95.295C80.3857 91.0519 81.7829 87.8567 81.8347 87.7273C82.0934 87.1064 82.2875 86.6148 82.5721 85.8516V85.8645Z" fill="white" fill-opacity="0.8"/>
<path d="M70.3847 87.6888C66.2059 87.8182 61.9883 87.0161 58.6375 85.2697C55.0021 83.3681 52.9191 80.6256 52.7898 77.5468C52.6604 74.5068 54.4458 71.6479 57.8095 69.5005C64.2653 65.3739 74.7187 64.947 81.5885 68.5432C85.2239 70.4448 87.3068 73.1873 87.4362 76.2661C87.5656 79.3061 85.7802 82.165 82.4165 84.3125C79.1174 86.4211 74.7705 87.5594 70.3847 87.7017V87.6888ZM59.1809 82.7472C65.4685 86.033 75.7666 85.619 81.6661 81.8546C84.1889 80.2375 85.5344 78.2842 85.4568 76.3567C85.3662 74.4033 83.762 72.4758 81.0451 71.0528C74.7575 67.7671 64.4593 68.181 58.5599 71.9454C56.0371 73.5625 54.6916 75.5158 54.7692 77.4433C54.8598 79.3967 56.464 81.3242 59.1809 82.7472Z" fill="#B6DFA4"/>
<path d="M134.44 96.4727H133.508V97.4049H134.44V96.4727Z" fill="#EDF7E9"/>
<path d="M123.961 100.928C120.558 100.928 117.398 99.8564 114.806 98.0386C113.929 97.4233 113.118 96.7242 112.382 95.9504C110.303 93.7691 108.839 90.9911 108.27 87.9055C108.093 86.9547 108 85.9665 108 84.9691C108 82.0699 108.774 79.3572 110.116 77.0174C111.272 75.0132 112.848 73.2793 114.731 71.9462C116.036 71.014 117.481 70.2776 119.038 69.7835C120.595 69.2801 122.245 69.0098 123.97 69.0098C124.343 69.0098 124.716 69.0191 125.08 69.0471C127.466 69.2149 129.694 69.8954 131.671 70.986C131.82 71.0699 131.969 71.1538 132.109 71.2377C134.878 72.8784 137.097 75.3301 138.458 78.2665C139.409 80.3081 139.931 82.5826 139.931 84.9784C139.931 93.7877 132.78 100.938 123.961 100.938" fill="#D9F0CF"/>
<path d="M136.499 82.2098C136.499 91.0284 129.348 98.1784 120.528 98.1784C117.554 98.1784 114.767 97.3674 112.39 95.9504C110.311 93.7691 108.847 90.9911 108.278 87.9055C108.101 86.9547 108.008 85.9665 108.008 84.9691C108.008 82.0699 108.782 79.3572 110.124 77.0174C111.28 75.0132 112.856 73.2793 114.739 71.9462C116.044 71.014 117.489 70.2776 119.046 69.7835C120.603 69.2801 122.253 69.0098 123.978 69.0098C124.351 69.0098 124.724 69.0191 125.087 69.0471C127.474 69.2149 129.702 69.8954 131.679 70.986C131.828 71.0699 131.977 71.1538 132.117 71.2377C133.31 72.4869 134.298 73.9318 135.026 75.5165C135.977 77.5581 136.499 79.8233 136.499 82.2191V82.2098Z" fill="#FAFDF8"/>
<path d="M115.318 80.5311C115.318 80.5311 116.558 78.4057 117.5 77.3429C118.442 76.2802 119.803 74.8633 119.803 74.8633C119.803 74.8633 122.339 75.6277 123.289 75.8701C124.231 76.1031 126.478 77.054 126.478 77.054L126.245 83.9429L119.103 86.3201L115.328 80.5404L115.318 80.5311Z" fill="#7DC75C"/>
<path d="M138.458 78.2571L137.162 79.3571L131.792 74.8732L130.496 70.9766H131.68C134.645 72.6172 137.041 75.1715 138.467 78.2571H138.458Z" fill="#7DC75C"/>
<path d="M125.08 69.0373C124.53 69.1864 123.924 69.3636 123.346 69.5593C121.752 70.0907 119.272 71.3864 119.272 71.3864L117.147 71.5076C116.214 71.5636 115.375 71.75 114.723 71.9458C117.333 70.0907 120.512 69 123.962 69C124.335 69 124.708 69.0093 125.071 69.0373H125.08Z" fill="#7DC75C"/>
<path d="M110.833 81.3052C110.833 81.3052 110.18 83.6077 109.947 84.9687C109.714 86.3298 109.714 88.6323 109.714 88.6323L108.278 87.9145C108.101 86.9637 108.008 85.9848 108.008 84.9781C108.008 82.0789 108.772 79.3662 110.124 77.0264C110.236 78.2662 110.394 79.6738 110.544 80.1399C110.842 81.0255 110.842 81.3238 110.842 81.3238L110.833 81.3052Z" fill="#7DC75C"/>
<path d="M112.43 93.6382C112.43 93.6382 114.257 94.0484 115.32 93.8713C116.383 93.6942 117.623 93.2188 117.623 93.2188C117.623 93.2188 119.981 95.5213 120.895 96.0526C121.809 96.584 123.114 97.3298 123.114 97.3298L120.895 100.62L114.807 98.0289C114.807 98.0289 112.728 95.223 112.43 93.6289V93.6382Z" fill="#7DC75C"/>
<path d="M131.26 88.6234C131.26 88.6234 130.905 91.4573 130.495 92.4641C130.085 93.4709 129.609 95.298 129.609 95.298C129.609 95.298 133.152 96.1276 133.562 96.3048L133.973 96.4819C133.973 96.4819 138.28 92.231 138.345 90.8793C138.401 89.5183 136.807 85.7988 136.807 85.7988L131.26 88.6327V88.6234Z" fill="#7DC75C"/>
<path d="M119.356 85.3175L117.582 93.2217L117.673 93.2421L119.447 85.3379L119.356 85.3175Z" fill="#7DC75C"/>
<path d="M126.266 83.9162L126.209 83.9775L131.227 88.6567L131.285 88.5954L126.266 83.9162Z" fill="#7DC75C"/>
<path d="M137.113 79.3532L136.76 85.7852L136.844 85.7898L137.197 79.3578L137.113 79.3532Z" fill="#7DC75C"/>
<path d="M131.767 74.8351L126.457 77.0215L126.493 77.1077L131.803 74.9213L131.767 74.8351Z" fill="#7DC75C"/>
<path d="M119.308 71.3857L119.225 71.3984L119.756 74.8823L119.839 74.8696L119.308 71.3857Z" fill="#7DC75C"/>
<path d="M115.586 80.3305L110.828 81.2588L110.846 81.3503L115.604 80.422L115.586 80.3305Z" fill="#7DC75C"/>
<path d="M109.74 88.6036L109.666 88.6436L112.382 93.6611L112.455 93.6211L109.74 88.6036Z" fill="#7DC75C"/>
<path d="M129.588 95.2424L123.098 97.291L123.123 97.371L129.613 95.3224L129.588 95.2424Z" fill="#7DC75C"/>
<path d="M138.802 90.3945H138.336V91.3267H138.802V90.3945Z" fill="#EDF7E9"/>
</g>
<defs>
<clipPath id="clip0_4234_11402">
<rect width="158" height="110" fill="white"/>
</clipPath>
</defs>
</svg>
