<svg width="160" height="110" viewBox="0 0 160 110" fill="none" xmlns="http://www.w3.org/2000/svg">
<g opacity="0.8">
<path opacity="0.3" d="M92.5778 23.6517L52.7392 25.5571L22.2684 43.143L19 66.1619L34.4156 75.0707L53.64 63.9733H76.8792L93.9675 73.8348L115.174 61.5787L118.442 38.5599L92.6035 23.626L92.5778 23.6517ZM71.7835 59.6991L68.1291 61.8104H62.9562L59.3018 59.6991V56.7123L62.9562 54.601H68.1291L71.7835 56.7123V59.6991Z" fill="black"/>
<path d="M65.1952 42.8602L19 63.5102V65.6473L34.4156 74.5561L53.64 63.4587H76.8792L93.9675 73.3202L115.174 61.0641L118.442 38.0453V35.9082L65.1952 42.8345V42.8602ZM71.7835 59.236L68.1291 60.0599H62.9562L59.3018 59.236V56.2492L62.9562 54.1379H68.1291L71.7835 56.2492V59.236Z" fill="#E4CF7D"/>
<path d="M92.5778 21.0257L52.7392 22.9054L22.2684 40.5171L19 63.5359L34.4156 72.4447L53.64 61.3473H76.8792L93.9675 71.2088L115.174 58.9527L118.442 35.9339L92.6035 21L92.5778 21.0257ZM71.7835 57.0731L68.1291 59.1845H62.9562L59.3018 57.0731V54.0863L62.9562 51.975H68.1291L71.7835 54.0863V57.0731Z" fill="white"/>
<path d="M70.6009 31.0669V29.4963L66.9464 29.0586H61.7736L58.1191 29.4963V31.0669L61.7736 33.1783H66.9464L70.6009 31.0669Z" fill="#FADB6C"/>
<path d="M70.6009 29.4966V26.5098L66.9464 24.3984H61.7736L58.1191 26.5098V29.4966L61.7736 31.6079H66.9464L70.6009 29.4966Z" fill="#FEF1B8"/>
<path d="M52.0179 37.9931V36.4225L48.3634 35.959H43.2163L39.5361 36.4225V37.9931L43.2163 40.1044H48.3634L52.0179 37.9931Z" fill="#FCE17D"/>
<path d="M52.0179 36.4233V33.4108L48.3634 31.3252H43.2163L39.5361 33.4108V36.4233L43.2163 38.5347L48.3634 38.5089L52.0179 36.4233Z" fill="#FEF4C1"/>
<path d="M39.8958 48.8082V47.2375L36.2156 46.7998H31.0685L27.4141 47.2375V48.8082L31.0685 50.9195H36.2156L39.8958 48.8082Z" fill="#E7AD26"/>
<path d="M39.8958 47.2368V44.25L36.2156 42.1387H31.0685L27.4141 44.25V47.2368L31.0685 49.3481H36.2156L39.8958 47.2368Z" fill="#FACE4F"/>
<path d="M41.8528 61.7333V60.1627L38.1984 59.6992H33.0255L29.3711 60.1627V61.7333L33.0255 63.8447H38.1984L41.8528 61.7333Z" fill="#FACD4E"/>
<path d="M41.8528 60.1636V57.1768L38.1984 55.0654H33.0255L29.3711 57.1768V60.1636L33.0255 62.2749H38.1984L41.8528 60.1636Z" fill="#FEF6CC"/>
<path d="M93.093 32.1236V30.553L89.4386 30.1152H84.2658L80.6113 30.553V32.1236L84.2658 34.2349H89.4386L93.093 32.1236Z" fill="#FBE07A"/>
<path d="M93.093 30.5522V27.5654L89.4386 25.4541H84.2658L80.6113 27.5654V30.5522L84.2658 32.6636H89.4386L93.093 30.5522Z" fill="#FEF1B6"/>
<path d="M108.02 40.7486V39.178L104.365 38.7402H99.1925L95.5381 39.178V40.7486L99.1925 42.8599H104.365L108.02 40.7486Z" fill="#F7B32E"/>
<path d="M108.02 39.1782V36.1914L104.365 34.0801H99.1925L95.5381 36.1914V39.1782L99.1925 41.2896H104.365L108.02 39.1782Z" fill="#FDE58B"/>
<path d="M110.207 53.9579V52.3873L106.553 51.9238H101.38L97.7256 52.3873V53.9579L101.38 56.0693H106.553L110.207 53.9579Z" fill="#FACA49"/>
<path d="M110.207 52.3872V49.4004L106.553 47.2891H101.38L97.7256 49.4004V52.3872L101.38 54.4985H106.553L110.207 52.3872Z" fill="#FEF8D9"/>
<path opacity="0.3" d="M35.6512 97.2404L61.6955 81.5598L62.519 81.0963L74.6147 75.2772L74.7949 75.303L75.2581 74.3761L77.703 72.8054L80.7398 72.4707L83.1332 72.9342L82.2582 73.1402L80.5081 74.582L77.4456 75.8695L76.0302 76.0497L76.0559 76.1012L65.8904 83.0532L65.0668 83.5424L37.7615 98.4763L34.1328 99.7895L33.7725 99.738L33.4379 99.5577L33.335 99.326L35.6512 97.2404Z" fill="black"/>
<path d="M75.4902 73.5266L76.2108 72.3422L78.7586 70.6943L81.3065 70.8488L83.0565 72.0075L82.3101 72.1105L80.3542 73.7326L77.4204 74.8913L76.2108 74.8398L75.4902 73.5266Z" fill="#8F7010"/>
<path d="M64.165 79.5254L75.2056 73.8351L75.849 73.7578L76.2093 74.35L65.2717 81.5852L64.165 79.5254Z" fill="#FDF5E9"/>
<path d="M65.4798 81.0956L76.2115 74.3496V74.9161L65.4798 82.4345L65.0938 81.8938L65.4798 81.0956Z" fill="#B5AFA7"/>
<path d="M63.4971 78.9847L75.3611 73.4746L75.8501 73.7578L64.6552 79.6542L63.7544 79.5769L63.4971 78.9847Z" fill="#FFFCE1"/>
<path d="M33.335 98.1152L35.96 95.6949L62.6734 79.4478L63.497 78.9844L61.4381 80.8382L36.449 95.6434L33.4894 98.1925L33.335 98.1152Z" fill="#AF933C"/>
<path d="M33.7979 98.9395L37.1949 97.8838L64.6547 82.8984L65.4783 82.4349L65.0408 82.4092L37.5038 97.4976L33.8236 98.7592L33.7979 98.9395Z" fill="#D2A429"/>
<path d="M34.0037 98.8114L37.7354 97.5755L65.4783 82.4356V81.0967L61.8238 82.7703L37.4008 96.6485L33.7979 98.4767L34.0037 98.8114Z" fill="#FACE4F"/>
<path d="M34.0042 98.5019L37.7358 96.7253L65.4787 81.0962L64.6552 79.6543L60.6919 81.6369L36.6807 95.9014L33.6182 98.1672L33.6696 98.3474L34.0042 98.5019Z" fill="#EEBC36"/>
<path d="M33.5156 98.0122L36.4752 95.4117L63.4975 78.9844L64.6556 79.6538L37.2215 95.8236L33.7987 98.1667L33.67 98.244L33.5156 98.0122Z" fill="#E4B024"/>
<path d="M33.7982 98.9396L33.5151 98.7594L33.335 98.4247V98.1157L33.5151 98.0127L33.7982 98.1672L34.0041 98.5019V98.8109L33.7982 98.9396Z" fill="#FACA49"/>
<path opacity="0.3" d="M46.176 98.3735L64.474 87.3791L65.0401 87.0443L73.5586 82.9504L73.6615 82.9761L73.9961 82.3324L75.7204 81.2253L77.8564 80.9678L79.5292 81.3025L78.9373 81.457L77.702 82.4612L75.5402 83.3623L74.5365 83.4911L74.5623 83.5426L67.4078 88.409L66.8416 88.7437L47.6687 99.2489L45.0951 100.176L44.8378 100.124L44.6062 99.9956L44.5547 99.8411L46.176 98.3735Z" fill="black"/>
<path d="M74.1504 81.7398L74.6651 80.8901L76.4408 79.7314L78.2423 79.8344L79.4776 80.6584L78.9372 80.7356L77.5732 81.8685L75.5144 82.6667L74.6651 82.641L74.1504 81.7398Z" fill="#8F7010"/>
<path d="M66.2246 85.9373L73.9453 81.9206L74.4085 81.8691L74.6659 82.3069L66.9709 87.3792L66.2246 85.9373Z" fill="#FDF5E9"/>
<path d="M67.1249 87.0176L74.6654 82.3057V82.6919L67.1249 87.9703L66.8418 87.6098L67.1249 87.0176Z" fill="#B5AFA7"/>
<path d="M65.7363 85.5507L74.0746 81.6885L74.4092 81.8687L66.5599 86.0142L65.9165 85.9884L65.7363 85.5507Z" fill="#FFFCE1"/>
<path d="M44.5547 98.9913L46.3819 97.2919L65.1431 85.8855L65.735 85.5508L64.2938 86.8382L46.7165 97.2404L44.6576 99.0428L44.5547 98.9913Z" fill="#FEF4C1"/>
<path d="M44.8887 99.5574L47.2563 98.8364L66.558 88.3054L67.1241 87.9707H66.8411L47.488 98.5532L44.8887 99.4286V99.5574Z" fill="#CDB25C"/>
<path d="M45.0173 99.4797L47.6166 98.6042L67.1241 87.9703V87.0176L64.5763 88.2277L47.4108 97.9605L44.8887 99.2479L45.0173 99.4797Z" fill="#FACE4F"/>
<path d="M45.0175 99.2749L47.6168 98.0133L67.1243 87.0188L66.5581 86.0146L63.7529 87.405L46.8962 97.4468L44.7344 99.0432L44.7858 99.1462L45.0175 99.2749Z" fill="#FACE4F"/>
<path d="M44.6826 98.9141L46.7415 97.0859L65.7343 85.5508L66.5578 86.0142L47.2562 97.3949L44.8885 99.017L44.7856 99.0943L44.6826 98.9141Z" fill="#EEBC36"/>
<path d="M44.8892 99.5578L44.6834 99.4548L44.5547 99.223V98.9913L44.6834 98.9141L44.8892 99.0171L45.0179 99.2745V99.4805L44.8892 99.5578Z" fill="#EEBC36"/>
<path opacity="0.3" d="M54.2844 99.6865L67.7441 91.5758L68.1559 91.3441L74.4353 88.3315L74.5125 88.3573L74.7441 87.8681L76.0052 87.0699L77.5751 86.8896L78.8104 87.1214L78.3729 87.2244L77.4721 87.9711L75.8765 88.6405L75.1559 88.7178V88.7693L69.9059 92.3482L69.4941 92.6057L55.3653 100.33L53.5124 101L53.3065 100.974L53.1521 100.871L53.1006 100.768L54.2844 99.6865Z" fill="black"/>
<path d="M74.8701 87.4305L75.2304 86.8126L76.5429 85.9629L77.8812 86.0401L78.7819 86.6323L78.3959 86.7096L77.3922 87.5335L75.8481 88.1257L75.2304 88.1L74.8701 87.4305Z" fill="#8F7010"/>
<path d="M69.0293 90.52L74.7168 87.5847L75.0514 87.5332L75.2316 87.8422L69.5955 91.6014L69.0293 90.52Z" fill="#FDF5E9"/>
<path d="M69.6981 91.3435L75.2312 87.8418V88.1508L69.6981 92.0387L69.4922 91.7555L69.6981 91.3435Z" fill="#B5AFA7"/>
<path d="M68.6699 90.2366L74.795 87.4043L75.0523 87.533L69.2618 90.5971L68.7986 90.5713L68.6699 90.2366Z" fill="#FFFCE1"/>
<path d="M53.1006 100.124L54.4388 98.8877L68.2331 90.4938L68.6706 90.2363L67.6154 91.2148L54.6962 98.8619L53.1778 100.175L53.1006 100.124Z" fill="#AF933C"/>
<path d="M53.332 100.562L55.082 100.021L69.2623 92.2712L69.6998 92.0394L69.4682 92.0137L55.2365 99.8154L53.332 100.459V100.562Z" fill="#AF933C"/>
<path d="M53.435 100.484L55.3651 99.8664L69.6998 92.039V91.3438L67.8211 92.2192L55.185 99.3772L53.332 100.33L53.435 100.484Z" fill="#FACE4F"/>
<path d="M53.4344 100.33L55.3646 99.4293L69.6992 91.3444L69.2617 90.5977L67.2286 91.6276L54.8241 98.9916L53.2285 100.15L53.2543 100.253L53.4344 100.33Z" fill="#FACE4F"/>
<path d="M53.1777 100.072L54.7219 98.7332L68.6705 90.2363L69.2624 90.5968L55.0822 98.9649L53.3321 100.149L53.2549 100.201L53.1777 100.072Z" fill="#EEBC36"/>
<path d="M53.3322 100.562L53.1778 100.485L53.1006 100.305V100.125L53.1778 100.073L53.3322 100.15L53.4351 100.331V100.485L53.3322 100.562Z" fill="#AF933C"/>
<path opacity="0.3" d="M26.4887 95.2056L52.5588 79.525L53.3823 79.0615L65.478 73.2425L65.6581 73.2682L66.1214 72.3413L68.5662 70.7706L71.603 70.4102L73.9964 70.8736L73.1214 71.1054L71.3714 72.5473L68.3089 73.8347L66.8934 74.0149L66.9192 74.0664L56.7537 81.0184L55.9301 81.4818L28.6247 96.4415L24.996 97.7547L24.6357 97.7032L24.3012 97.4972L24.1982 97.2912L26.4887 95.2056Z" fill="black"/>
<path d="M66.3535 71.4915L67.0741 70.3071L69.6219 68.6592L72.1697 68.8137L73.9198 69.9723L73.1477 70.0753L71.2175 71.6975L68.2837 72.8561L67.0741 72.7789L66.3535 71.4915Z" fill="#8F7010"/>
<path d="M55.0312 77.4916L66.0718 71.7755L66.7152 71.6982L67.0755 72.3162L56.1379 79.5514L55.0312 77.4916Z" fill="#FDF5E9"/>
<path d="M56.3424 79.0367L67.0741 72.3164V72.8829L56.3424 80.4013L55.9307 79.8606L56.3424 79.0367Z" fill="#B5AFA7"/>
<path d="M54.3604 76.9251L66.2244 71.415L66.7134 71.6983L55.5184 77.6203L54.6177 77.5431L54.3604 76.9251Z" fill="#FFFCE1"/>
<path d="M24.1982 96.0814L26.8233 93.6611L53.511 77.414L54.3603 76.9248L52.3014 78.7787L27.2865 93.5838L24.3527 96.1329L24.1982 96.0814Z" fill="#FFEC7A"/>
<path d="M24.6611 96.9053L28.0582 95.8239L55.518 80.8642L56.3415 80.4008L55.904 80.375L28.367 95.4634L24.6869 96.7251L24.6611 96.9053Z" fill="#C29723"/>
<path d="M24.867 96.7776L28.5987 95.5417L56.3415 80.4018V79.0371L52.6871 80.7365L28.2641 94.6147L24.6611 96.4428L24.867 96.7776Z" fill="#FEF4C1"/>
<path d="M24.8704 96.4677L28.6021 94.6911L56.3449 79.0363L55.5214 77.6201L51.5581 79.577L27.5469 93.8672L24.4844 96.133L24.5358 96.3133L24.8704 96.4677Z" fill="#FEF4C1"/>
<path d="M24.3779 95.9527L27.3375 93.3779L54.3598 76.9248L55.5179 77.62L28.0581 93.7898L24.661 96.1329L24.5323 96.2102L24.3779 95.9527Z" fill="#EDDE92"/>
<path d="M24.6615 96.9058L24.3784 96.7256L24.1982 96.3908V96.0819L24.3784 95.9531L24.6615 96.1334L24.8674 96.4681V96.7771L24.6615 96.9058Z" fill="#D7AB37"/>
</g>
</svg>
