<svg width="16" height="16" viewBox="0 0 16 16" fill="none" xmlns="http://www.w3.org/2000/svg">
<path d="M2.66602 5.3335H13.3327M2.66602 5.3335V11.2003C2.66602 11.947 2.66602 12.3202 2.81134 12.6054C2.93917 12.8563 3.143 13.0605 3.39388 13.1883C3.67882 13.3335 4.05201 13.3335 4.79729 13.3335H11.2014C11.9467 13.3335 12.3193 13.3335 12.6043 13.1883C12.8552 13.0605 13.0597 12.8563 13.1875 12.6054C13.3327 12.3205 13.3327 11.9478 13.3327 11.2025V5.3335M2.66602 5.3335V4.80029C2.66602 4.05356 2.66602 3.67991 2.81134 3.39469C2.93917 3.14381 3.143 2.93999 3.39388 2.81215C3.6791 2.66683 4.05274 2.66683 4.79948 2.66683H5.33268M13.3327 5.3335V4.7981C13.3327 4.05283 13.3327 3.67963 13.1875 3.39469C13.0597 3.14381 12.8552 2.93999 12.6043 2.81215C12.3191 2.66683 11.9462 2.66683 11.1995 2.66683H10.666M10.666 1.3335V2.66683M10.666 2.66683H5.33268M5.33268 1.3335V2.66683" stroke="#A9A9A9" stroke-width="1.5" stroke-linecap="round" stroke-linejoin="round"/>
</svg>
