<svg width="32" height="32" viewBox="0 0 32 32" fill="none" xmlns="http://www.w3.org/2000/svg">
<g clip-path="url(#clip0_2618_4631)">
<path d="M10.668 6.66683C10.668 7.02045 10.8084 7.35959 11.0585 7.60964C11.3085 7.85969 11.6477 8.00016 12.0013 8.00016C12.3549 8.00016 12.6941 7.85969 12.9441 7.60964C13.1942 7.35959 13.3346 7.02045 13.3346 6.66683C13.3346 6.31321 13.1942 5.97407 12.9441 5.72402C12.6941 5.47397 12.3549 5.3335 12.0013 5.3335C11.6477 5.3335 11.3085 5.47397 11.0585 5.72402C10.8084 5.97407 10.668 6.31321 10.668 6.66683Z" fill="#AAB0BB" stroke="#AAB0BB" stroke-width="1.5" stroke-linecap="round" stroke-linejoin="round"/>
<path d="M10.668 15.9998C10.668 16.3535 10.8084 16.6926 11.0585 16.9426C11.3085 17.1927 11.6477 17.3332 12.0013 17.3332C12.3549 17.3332 12.6941 17.1927 12.9441 16.9426C13.1942 16.6926 13.3346 16.3535 13.3346 15.9998C13.3346 15.6462 13.1942 15.3071 12.9441 15.057C12.6941 14.807 12.3549 14.6665 12.0013 14.6665C11.6477 14.6665 11.3085 14.807 11.0585 15.057C10.8084 15.3071 10.668 15.6462 10.668 15.9998Z" fill="#AAB0BB" stroke="#AAB0BB" stroke-width="1.5" stroke-linecap="round" stroke-linejoin="round"/>
<path d="M10.668 25.3333C10.668 25.687 10.8084 26.0261 11.0585 26.2761C11.3085 26.5262 11.6477 26.6667 12.0013 26.6667C12.3549 26.6667 12.6941 26.5262 12.9441 26.2761C13.1942 26.0261 13.3346 25.687 13.3346 25.3333C13.3346 24.9797 13.1942 24.6406 12.9441 24.3905C12.6941 24.1405 12.3549 24 12.0013 24C11.6477 24 11.3085 24.1405 11.0585 24.3905C10.8084 24.6406 10.668 24.9797 10.668 25.3333Z" fill="#AAB0BB" stroke="#AAB0BB" stroke-width="1.5" stroke-linecap="round" stroke-linejoin="round"/>
<path d="M18.668 6.66683C18.668 7.02045 18.8084 7.35959 19.0585 7.60964C19.3085 7.85969 19.6477 8.00016 20.0013 8.00016C20.3549 8.00016 20.6941 7.85969 20.9441 7.60964C21.1942 7.35959 21.3346 7.02045 21.3346 6.66683C21.3346 6.31321 21.1942 5.97407 20.9441 5.72402C20.6941 5.47397 20.3549 5.3335 20.0013 5.3335C19.6477 5.3335 19.3085 5.47397 19.0585 5.72402C18.8084 5.97407 18.668 6.31321 18.668 6.66683Z" fill="#AAB0BB" stroke="#AAB0BB" stroke-width="1.5" stroke-linecap="round" stroke-linejoin="round"/>
<path d="M18.668 15.9998C18.668 16.3535 18.8084 16.6926 19.0585 16.9426C19.3085 17.1927 19.6477 17.3332 20.0013 17.3332C20.3549 17.3332 20.6941 17.1927 20.9441 16.9426C21.1942 16.6926 21.3346 16.3535 21.3346 15.9998C21.3346 15.6462 21.1942 15.3071 20.9441 15.057C20.6941 14.807 20.3549 14.6665 20.0013 14.6665C19.6477 14.6665 19.3085 14.807 19.0585 15.057C18.8084 15.3071 18.668 15.6462 18.668 15.9998Z" fill="#AAB0BB" stroke="#AAB0BB" stroke-width="1.5" stroke-linecap="round" stroke-linejoin="round"/>
<path d="M18.668 25.3333C18.668 25.687 18.8084 26.0261 19.0585 26.2761C19.3085 26.5262 19.6477 26.6667 20.0013 26.6667C20.3549 26.6667 20.6941 26.5262 20.9441 26.2761C21.1942 26.0261 21.3346 25.687 21.3346 25.3333C21.3346 24.9797 21.1942 24.6406 20.9441 24.3905C20.6941 24.1405 20.3549 24 20.0013 24C19.6477 24 19.3085 24.1405 19.0585 24.3905C18.8084 24.6406 18.668 24.9797 18.668 25.3333Z" fill="#AAB0BB" stroke="#AAB0BB" stroke-width="1.5" stroke-linecap="round" stroke-linejoin="round"/>
</g>
<defs>
<clipPath id="clip0_2618_4631">
<rect width="32" height="32" fill="white"/>
</clipPath>
</defs>
</svg>
