<svg width="25" height="24" viewBox="0 0 25 24" fill="none" xmlns="http://www.w3.org/2000/svg">
<path d="M4 11.43V6.28C4 2.88 4.85 2.03 8.25 2.03H9.52C10.79 2.03 11.08 2.41 11.56 3.05L12.83 4.75C13.15 5.17 13.34 5.43 14.19 5.43H16.74C20.14 5.43 20.99 6.28 20.99 9.68V11.47" stroke="#246BEB" stroke-width="1.5" stroke-miterlimit="10" stroke-linecap="round" stroke-linejoin="round"/>
<path fill-rule="evenodd" clip-rule="evenodd" d="M21.7698 19.3L22.1698 14.3C22.2598 13.46 21.9898 12.69 21.4998 12.1C21.4998 12.09 21.4898 12.08 21.4798 12.07C20.9398 11.42 20.1198 11 19.1898 11H5.80977C4.87977 11 4.04977 11.42 3.49977 12.09L3.47977 12.11C3.00977 12.7 2.74977 13.47 2.82977 14.3L3.22977 19.3C3.37977 20.83 3.49977 22 6.20977 22H18.7898C21.4998 22 21.6198 20.83 21.7698 19.3ZM9.92969 16.25C9.51547 16.25 9.17969 16.5858 9.17969 17C9.17969 17.4142 9.51547 17.75 9.92969 17.75H15.0697C15.4839 17.75 15.8197 17.4142 15.8197 17C15.8197 16.5858 15.4839 16.25 15.0697 16.25H9.92969Z" fill="#246BEB"/>
</svg>
