<svg width="25" height="24" viewBox="0 0 25 24" fill="none" xmlns="http://www.w3.org/2000/svg">
<path d="M6.5 10V8C6.5 4.69 7.5 2 12.5 2C17.5 2 18.5 4.69 18.5 8V10" stroke="#246BEB" stroke-width="1.5" stroke-linecap="round" stroke-linejoin="round"/>
<path fill-rule="evenodd" clip-rule="evenodd" d="M2.5 17C2.5 21 3.5 22 7.5 22H17.5C21.5 22 22.5 21 22.5 17V15C22.5 11 21.5 10 17.5 10H7.5C3.5 10 2.5 11 2.5 15V17ZM10.75 16C10.75 15.0335 11.5335 14.25 12.5 14.25C13.4665 14.25 14.25 15.0335 14.25 16C14.25 16.9665 13.4665 17.75 12.5 17.75C11.5335 17.75 10.75 16.9665 10.75 16ZM12.5 12.75C10.7051 12.75 9.25 14.2051 9.25 16C9.25 17.7949 10.7051 19.25 12.5 19.25C14.2949 19.25 15.75 17.7949 15.75 16C15.75 14.2051 14.2949 12.75 12.5 12.75Z" fill="#246BEB"/>
</svg>
