<svg width="205" height="26" viewBox="0 0 205 26" fill="none" xmlns="http://www.w3.org/2000/svg">
<g clip-path="url(#clip0_4178_14651)">
<path d="M158.179 0.5C159.43 0.5 160.532 0.734767 161.477 1.2043C162.421 1.67384 163.208 2.31808 163.836 3.13158C164.463 3.95054 164.933 4.90052 165.255 5.99793C165.577 7.08987 165.736 8.2637 165.736 9.51398C165.736 10.7642 165.577 11.9381 165.255 13.03C164.933 14.122 164.463 15.0774 163.836 15.8964C163.208 16.7099 162.421 17.3541 161.477 17.8237C160.532 18.2932 159.43 18.528 158.179 18.528C156.929 18.528 155.826 18.2932 154.882 17.8237C153.937 17.3541 153.151 16.7099 152.523 15.8964C151.895 15.0774 151.426 14.1274 151.104 13.03C150.781 11.9381 150.623 10.7642 150.623 9.51398C150.623 8.2637 150.781 7.08987 151.104 5.99793C151.426 4.90598 151.895 3.95054 152.523 3.13158C153.151 2.31808 153.937 1.67384 154.882 1.2043C155.826 0.734767 156.929 0.5 158.179 0.5ZM158.103 16.7262C158.998 16.7262 159.763 16.5242 160.396 16.1202C161.029 15.7162 161.553 15.1757 161.957 14.5041C162.361 13.8326 162.662 13.0628 162.853 12.1892C163.044 11.3211 163.137 10.4094 163.137 9.44846C163.137 8.48755 163.044 7.57578 162.853 6.70769C162.662 5.83959 162.367 5.06978 161.957 4.39823C161.553 3.72669 161.029 3.18618 160.396 2.78216C159.757 2.37814 158.993 2.17613 158.103 2.17613C157.213 2.17613 156.443 2.37814 155.81 2.78216C155.171 3.18618 154.652 3.72669 154.248 4.39823C153.844 5.06978 153.544 5.84505 153.353 6.70769C153.162 7.57578 153.069 8.48755 153.069 9.44846C153.069 10.4094 153.162 11.3211 153.353 12.1892C153.544 13.0573 153.839 13.8271 154.248 14.5041C154.652 15.1757 155.176 15.7162 155.81 16.1202C156.443 16.5242 157.213 16.7262 158.103 16.7262Z" fill="#246BEB"/>
<path d="M174.071 0.5C175.321 0.5 176.424 0.734767 177.369 1.2043C178.313 1.67384 179.099 2.31808 179.727 3.13158C180.355 3.95054 180.825 4.90052 181.147 5.99793C181.469 7.08987 181.627 8.2637 181.627 9.51398C181.627 10.7642 181.469 11.9381 181.147 13.03C180.825 14.122 180.355 15.0774 179.727 15.8964C179.099 16.7099 178.313 17.3541 177.369 17.8237C176.424 18.2932 175.321 18.528 174.071 18.528C172.821 18.528 171.718 18.2932 170.773 17.8237C169.829 17.3541 169.042 16.7099 168.415 15.8964C167.787 15.0774 167.317 14.1274 166.995 13.03C166.673 11.9381 166.515 10.7642 166.515 9.51398C166.515 8.2637 166.673 7.08987 166.995 5.99793C167.317 4.90598 167.787 3.95054 168.415 3.13158C169.042 2.31808 169.829 1.67384 170.773 1.2043C171.718 0.734767 172.821 0.5 174.071 0.5ZM174.125 16.7262C174.934 16.7262 175.627 16.5242 176.206 16.1202C176.784 15.7162 177.254 15.1757 177.625 14.5041C177.991 13.8326 178.264 13.0628 178.433 12.1892C178.602 11.3211 178.69 10.4094 178.69 9.44846C178.69 8.48755 178.602 7.57578 178.433 6.70769C178.264 5.83959 177.991 5.06978 177.625 4.39823C177.259 3.72669 176.784 3.18618 176.206 2.78216C175.627 2.37814 174.934 2.17613 174.125 2.17613C173.317 2.17613 172.624 2.37814 172.045 2.78216C171.467 3.18618 170.997 3.72669 170.626 4.39823C170.26 5.06978 169.987 5.84505 169.818 6.70769C169.649 7.57578 169.561 8.48755 169.561 9.44846C169.561 10.4094 169.649 11.3211 169.818 12.1892C169.987 13.0573 170.26 13.8271 170.626 14.5041C170.992 15.1757 171.467 15.7162 172.045 16.1202C172.624 16.5242 173.317 16.7262 174.125 16.7262Z" fill="#246BEB"/>
<path d="M196.461 18.0584H191.591V9.64502C191.591 9.04991 191.433 8.56946 191.111 8.21458C190.788 7.85969 190.368 7.67952 189.838 7.67952C189.309 7.67952 188.888 7.85969 188.566 8.21458C188.244 8.56946 188.086 9.04991 188.086 9.64502V18.0584H183.216V8.8752C183.216 8.07808 183.369 7.36286 183.674 6.72954C183.98 6.09621 184.412 5.56116 184.979 5.11892C185.542 4.67669 186.213 4.33818 186.999 4.10342C187.78 3.86865 188.659 3.74854 189.626 3.74854C190.439 3.74854 191.22 3.89049 191.973 4.17439C192.727 4.4583 193.409 4.8514 194.021 5.34823C194.632 4.8514 195.315 4.4583 196.068 4.17439C196.821 3.89049 197.608 3.74854 198.416 3.74854C199.371 3.74854 200.239 3.86865 201.031 4.10342C201.823 4.33818 202.494 4.67669 203.062 5.11892C203.624 5.56116 204.056 6.09621 204.367 6.72954C204.672 7.36286 204.825 8.07808 204.825 8.8752V18.053H199.955V9.63956C199.955 9.04445 199.797 8.564 199.475 8.20912C199.153 7.85423 198.732 7.67406 198.203 7.67406C197.673 7.67406 197.253 7.85423 196.931 8.20912C196.608 8.564 196.45 9.04445 196.45 9.63956V18.053L196.461 18.0584Z" fill="#246BEB"/>
<path d="M174.038 12.5336C175.275 12.5336 176.277 11.1549 176.277 9.45427C176.277 7.75364 175.275 6.375 174.038 6.375C172.802 6.375 171.8 7.75364 171.8 9.45427C171.8 11.1549 172.802 12.5336 174.038 12.5336Z" fill="#2E2E2E"/>
<path d="M158.102 12.5336C159.338 12.5336 160.34 11.1549 160.34 9.45427C160.34 7.75364 159.338 6.375 158.102 6.375C156.865 6.375 155.863 7.75364 155.863 9.45427C155.863 11.1549 156.865 12.5336 158.102 12.5336Z" fill="#2E2E2E"/>
<path d="M166.467 25.5C166.396 25.5 166.325 25.5 166.254 25.5C162.82 25.4017 160.456 22.8903 160.357 22.7811C159.795 22.175 159.833 21.225 160.439 20.6572C161.045 20.0949 161.99 20.1331 162.558 20.7337C162.601 20.7774 164.217 22.448 166.363 22.4972C167.695 22.519 169.022 21.9184 170.299 20.6791C170.895 20.1058 171.845 20.1222 172.423 20.7173C172.997 21.3124 172.98 22.2624 172.385 22.8411C170.556 24.6046 168.563 25.5 166.467 25.5Z" fill="#2E2E2E"/>
<path d="M146.048 7.99633C145.305 7.99633 144.716 8.22018 144.262 8.66787C143.809 9.11557 143.591 9.71068 143.591 10.4532V17.9494H138.683V10.475C138.683 9.51959 138.835 8.65149 139.141 7.85984C139.447 7.06818 139.878 6.39664 140.446 5.83429C141.014 5.27194 141.68 4.84062 142.466 4.52942C143.247 4.22367 144.126 4.0708 145.092 4.0708H149.427V8.00179H146.053L146.048 7.99633Z" fill="#246BEB"/>
<path d="M15.8936 18.4352H11.4931V14.8045H5.33998V18.4352H0.939453V9.06086C0.939453 7.9853 1.11962 7.00255 1.48542 6.10716C1.85122 5.21177 2.35898 4.44195 3.01414 3.7977C3.66931 3.15346 4.4555 2.65116 5.37274 2.29628C6.28997 1.93594 7.30547 1.76123 8.41379 1.76123C9.52211 1.76123 10.5376 1.9414 11.4548 2.29628C12.3721 2.65116 13.1583 3.15346 13.8134 3.7977C14.4686 4.44195 14.9764 5.21177 15.3422 6.10716C15.708 7.00255 15.8881 7.9853 15.8881 9.06086V18.4352H15.8936ZM5.33998 11.1192H11.4931V8.70598C11.4931 8.27466 11.4221 7.87064 11.2856 7.483C11.1491 7.09536 10.9526 6.7514 10.6959 6.44566C10.4393 6.13992 10.1227 5.89969 9.7405 5.71952C9.35832 5.53935 8.91608 5.45199 8.41925 5.45199C7.92242 5.45199 7.47472 5.53935 7.098 5.71952C6.71582 5.89969 6.39916 6.13992 6.14255 6.44566C5.88595 6.7514 5.6894 7.09536 5.55291 7.483C5.41641 7.87064 5.34544 8.28012 5.34544 8.70598V11.1192H5.33998Z" fill="#2E2E2E"/>
<path d="M24.4927 10.0978C23.8703 10.0978 23.3735 10.2834 22.9968 10.6601C22.62 11.0368 22.4344 11.5337 22.4344 12.1561V18.4347H18.3232V12.1725C18.3232 11.3753 18.4488 10.6437 18.7054 9.98312C18.962 9.3225 19.3278 8.75469 19.7974 8.28516C20.2669 7.81562 20.8292 7.44982 21.4899 7.19321C22.145 6.93661 22.8766 6.81104 23.6901 6.81104H27.3208V10.1032H24.4927V10.0978Z" fill="#2E2E2E"/>
<path d="M41.434 6.8112V17.4358C41.434 18.222 41.2592 18.9099 40.9153 19.4996C40.5713 20.0892 40.1018 20.586 39.5176 20.9955C38.9334 21.3995 38.2509 21.7053 37.4811 21.9073C36.7058 22.1093 35.8869 22.213 35.0297 22.213C34.1016 22.213 33.2444 22.1093 32.4637 21.9073C31.6829 21.7053 31.0114 21.4214 30.4436 21.0556C29.8758 20.6898 29.4335 20.2639 29.1114 19.7671C28.7893 19.2703 28.6309 18.7352 28.6309 18.151H32.7421C32.7421 18.4622 32.9605 18.697 33.3973 18.8553C33.834 19.0191 34.38 19.0955 35.0352 19.0955C35.3464 19.0955 35.6357 19.0573 35.9087 18.9809C36.1817 18.9045 36.4219 18.7953 36.6349 18.6478C36.8423 18.5059 37.0116 18.3312 37.1372 18.1292C37.2627 17.9272 37.3228 17.6924 37.3228 17.4303V16.1964C36.9079 16.5677 36.4056 16.8516 35.8268 17.0536C35.2481 17.2556 34.582 17.3594 33.834 17.3594C33.0369 17.3594 32.2999 17.2174 31.6229 16.928C30.9513 16.6441 30.3671 16.251 29.8812 15.7542C29.3898 15.2574 29.0131 14.6786 28.7347 14.018C28.4617 13.3574 28.3252 12.6476 28.3252 11.8996C28.3252 11.1517 28.4617 10.4419 28.7347 9.77036C29.0077 9.10428 29.3898 8.52555 29.8812 8.03418C30.3726 7.5428 30.9513 7.15516 31.6229 6.87126C32.2944 6.58735 33.0315 6.43994 33.834 6.43994C34.6366 6.43994 35.3518 6.5546 35.9633 6.78936C36.5694 7.02413 37.0826 7.34625 37.503 7.76665V6.80028H41.4394L41.434 6.8112ZM34.8878 14.0726C35.3027 14.0726 35.663 14.018 35.9688 13.9034C36.2745 13.7887 36.5257 13.6358 36.7222 13.4393C36.9188 13.2427 37.0662 13.0243 37.159 12.7787C37.2518 12.533 37.3064 12.2764 37.3173 11.9979V11.8396C37.3064 11.5666 37.2518 11.3045 37.159 11.0534C37.0607 10.8022 36.9188 10.5784 36.7222 10.3818C36.5257 10.1853 36.2745 10.0324 35.9688 9.91777C35.663 9.80312 35.3027 9.74852 34.8878 9.74852C34.4728 9.74852 34.0906 9.80858 33.7904 9.92869C33.4846 10.0488 33.2335 10.2071 33.0315 10.4091C32.8295 10.6112 32.682 10.8459 32.5838 11.108C32.4855 11.3701 32.4418 11.6376 32.4418 11.9106C32.4418 12.1836 32.491 12.4511 32.5838 12.7131C32.6766 12.9752 32.8295 13.21 33.0315 13.412C33.2335 13.614 33.4901 13.7778 33.7904 13.8924C34.0961 14.0126 34.4619 14.0726 34.8878 14.0726Z" fill="#2E2E2E"/>
<path d="M49.5686 6.45117C50.6169 6.45117 51.5396 6.61496 52.3312 6.93163C53.1229 7.25375 53.7835 7.69599 54.3076 8.25288C54.8318 8.81522 55.2303 9.47039 55.4979 10.2184C55.7654 10.9718 55.9019 11.7744 55.9019 12.6316C55.9019 13.4887 55.7654 14.2968 55.4979 15.0448C55.2303 15.7982 54.8318 16.4534 54.3076 17.0102C53.7835 17.5726 53.1229 18.0094 52.3312 18.3315C51.5396 18.6536 50.6169 18.8119 49.5686 18.8119C48.5203 18.8119 47.5977 18.6536 46.806 18.3315C46.0143 18.0094 45.3537 17.5671 44.8296 17.0102C44.3055 16.4479 43.9069 15.7927 43.6394 15.0448C43.3718 14.2913 43.2354 13.4887 43.2354 12.6316C43.2354 11.7744 43.3718 10.9663 43.6394 10.2184C43.9069 9.46493 44.3055 8.80977 44.8296 8.25288C45.3537 7.69053 46.0143 7.25375 46.806 6.93163C47.5977 6.6095 48.5203 6.45117 49.5686 6.45117ZM49.5686 15.5361C49.9617 15.5361 50.3002 15.4542 50.5787 15.2959C50.8571 15.1376 51.0864 14.9192 51.2666 14.6517C51.4468 14.3841 51.5778 14.0784 51.6597 13.729C51.7416 13.385 51.7853 13.0192 51.7853 12.637C51.7853 12.2548 51.7416 11.8945 51.6597 11.5451C51.5778 11.2011 51.4468 10.8899 51.2666 10.6224C51.0864 10.3549 50.8571 10.1419 50.5787 9.97814C50.3002 9.81981 49.9617 9.73792 49.5686 9.73792C49.1755 9.73792 48.837 9.81981 48.5586 9.97814C48.2801 10.1365 48.0508 10.3549 47.8706 10.6224C47.6905 10.8899 47.5594 11.1957 47.4775 11.5451C47.3956 11.889 47.352 12.2548 47.352 12.637C47.352 13.0192 47.3956 13.3795 47.4775 13.729C47.5594 14.0729 47.6905 14.3841 47.8706 14.6517C48.0508 14.9192 48.2801 15.1321 48.5586 15.2959C48.837 15.4597 49.1755 15.5361 49.5686 15.5361Z" fill="#2E2E2E"/>
<path d="M57.4201 15.2525H63.4476C63.7097 15.2525 63.9117 15.2143 64.0482 15.1433C64.1847 15.0723 64.2556 14.9358 64.2556 14.7338C64.2556 14.5318 64.1847 14.3953 64.0482 14.3298C63.9117 14.2643 63.7097 14.2315 63.4476 14.2315H60.816C60.2701 14.2315 59.7678 14.1496 59.3201 13.9913C58.8724 13.833 58.4902 13.5927 58.1681 13.2761C57.8459 12.9594 57.6003 12.5663 57.4256 12.0859C57.2508 11.6109 57.1689 11.054 57.1689 10.4207C57.1689 9.78733 57.2563 9.2632 57.4256 8.80458C57.6003 8.34597 57.8459 7.96379 58.1681 7.65804C58.4902 7.3523 58.8724 7.12299 59.3201 6.97012C59.7678 6.81725 60.2646 6.73535 60.816 6.73535H67.5205V9.91836H62.0117C61.7496 9.91836 61.5476 9.95658 61.4111 10.0276C61.2746 10.0985 61.2037 10.235 61.2037 10.437C61.2037 10.639 61.2746 10.7755 61.4111 10.8411C61.5476 10.9066 61.7496 10.9393 62.0117 10.9393H64.2666C65.4841 10.9393 66.4559 11.256 67.193 11.8948C67.9246 12.5336 68.2904 13.4835 68.2904 14.7502C68.2904 16.0169 67.9246 16.9122 67.193 17.5237C66.4614 18.1352 65.4841 18.4355 64.2666 18.4355H57.4146V15.2525H57.4201Z" fill="#2E2E2E"/>
<path d="M90.8823 11.9436C90.7404 12.9427 90.4346 13.8654 89.9597 14.7062C89.4901 15.547 88.8786 16.2731 88.1361 16.8792C87.3881 17.4852 86.5364 17.9602 85.57 18.2987C84.6037 18.6372 83.5609 18.8064 82.4416 18.8064C81.1641 18.8064 80.0011 18.5881 78.9529 18.1513C77.9046 17.7145 76.9983 17.1139 76.2449 16.355C75.486 15.5907 74.9018 14.6898 74.4814 13.647C74.0664 12.6042 73.8535 11.4795 73.8535 10.2784C73.8535 9.07724 74.061 7.95254 74.4814 6.91519C74.8963 5.87785 75.486 4.977 76.2449 4.21264C77.0038 3.44828 77.9046 2.85317 78.9529 2.4164C80.0011 1.97962 81.1641 1.76123 82.4416 1.76123C83.5882 1.76123 84.6528 1.9414 85.6356 2.29628C86.6183 2.65662 87.4864 3.148 88.2289 3.78132C88.9714 4.41465 89.5775 5.16263 90.047 6.02526C90.5111 6.8879 90.8059 7.83243 90.9206 8.85885H86.3617C86.2907 8.35656 86.1488 7.89248 85.9304 7.46117C85.7175 7.02985 85.439 6.66405 85.1005 6.35284C84.762 6.04164 84.3689 5.80141 83.9212 5.6267C83.4735 5.45199 82.9821 5.3701 82.4471 5.3701C81.7919 5.3701 81.1968 5.50113 80.6563 5.75228C80.1213 6.00888 79.6626 6.3583 79.2805 6.80054C78.8983 7.24278 78.6035 7.76145 78.396 8.35656C78.1885 8.95166 78.0848 9.59045 78.0848 10.2729C78.0848 10.9554 78.1885 11.6105 78.396 12.2057C78.6035 12.8008 78.8983 13.3194 79.2805 13.7617C79.6626 14.2039 80.1213 14.5533 80.6563 14.8099C81.1914 15.0665 81.7865 15.1921 82.4471 15.1921C82.9603 15.1921 83.4353 15.1102 83.8666 14.9519C84.3034 14.7936 84.6856 14.5697 85.0186 14.2803C85.3517 13.9964 85.6301 13.6525 85.8485 13.2539C86.0669 12.8554 86.2252 12.4186 86.3235 11.9381H90.8823V11.9436Z" fill="#2E2E2E"/>
<path d="M97.8215 15.1432V18.4354H96.2109C95.6758 18.4354 95.1844 18.3481 94.7422 18.1788C94.3 18.0041 93.9233 17.7639 93.6175 17.4527C93.3118 17.1415 93.0661 16.7648 92.8914 16.328C92.7167 15.8857 92.6348 15.3998 92.6348 14.8593V2.12183H96.7459V14.428C96.7459 14.6409 96.8114 14.8156 96.9425 14.9467C97.0735 15.0777 97.2482 15.1432 97.4611 15.1432H97.8215Z" fill="#2E2E2E"/>
<path d="M104.243 6.45117C105.051 6.45117 105.761 6.58766 106.373 6.85519C106.979 7.12272 107.492 7.48852 107.912 7.95259V6.80605H111.849V18.4298H107.912V17.2832C107.497 17.7473 106.984 18.1131 106.373 18.3806C105.766 18.6482 105.057 18.7847 104.243 18.7847C103.43 18.7847 102.709 18.6263 102.032 18.3042C101.36 17.9821 100.776 17.5398 100.29 16.9829C99.799 16.4206 99.4223 15.7654 99.1439 15.0175C98.8709 14.264 98.7344 13.4669 98.7344 12.6206C98.7344 11.7744 98.8709 10.9609 99.1439 10.2129C99.4168 9.47039 99.799 8.81522 100.29 8.25288C100.782 7.69053 101.36 7.25375 102.032 6.93163C102.704 6.6095 103.441 6.45117 104.243 6.45117ZM105.302 15.5197C105.734 15.5197 106.1 15.4378 106.411 15.2795C106.722 15.1212 106.973 14.9028 107.17 14.6353C107.366 14.3677 107.508 14.062 107.601 13.7126C107.688 13.3686 107.737 13.0083 107.737 12.637V12.5278C107.727 12.1675 107.672 11.8235 107.579 11.4905C107.481 11.1574 107.339 10.8626 107.142 10.606C106.946 10.3494 106.695 10.1419 106.389 9.98906C106.083 9.83619 105.723 9.7543 105.308 9.7543C104.893 9.7543 104.511 9.83619 104.21 9.99452C103.905 10.1583 103.654 10.3712 103.452 10.6388C103.25 10.9063 103.102 11.212 103.004 11.5615C102.906 11.9054 102.862 12.2658 102.862 12.637C102.862 13.0083 102.911 13.3632 103.004 13.7126C103.097 14.0565 103.25 14.3677 103.452 14.6353C103.654 14.9028 103.91 15.1157 104.21 15.2795C104.516 15.4378 104.882 15.5197 105.308 15.5197H105.302Z" fill="#2E2E2E"/>
<path d="M113.814 15.2525H119.841C120.103 15.2525 120.305 15.2143 120.442 15.1433C120.578 15.0723 120.649 14.9358 120.649 14.7338C120.649 14.5318 120.578 14.3953 120.442 14.3298C120.305 14.2643 120.103 14.2315 119.841 14.2315H117.21C116.664 14.2315 116.161 14.1496 115.714 13.9913C115.266 13.833 114.884 13.5927 114.562 13.2761C114.24 12.9594 113.994 12.5663 113.819 12.0859C113.644 11.6109 113.562 11.054 113.562 10.4207C113.562 9.78733 113.65 9.2632 113.819 8.80458C113.994 8.34597 114.24 7.96379 114.562 7.65804C114.884 7.3523 115.266 7.12299 115.714 6.97012C116.161 6.81725 116.658 6.73535 117.21 6.73535H123.914V9.91836H118.405C118.143 9.91836 117.941 9.95658 117.805 10.0276C117.668 10.0985 117.597 10.235 117.597 10.437C117.597 10.639 117.668 10.7755 117.805 10.8411C117.941 10.9066 118.143 10.9393 118.405 10.9393H120.66C121.878 10.9393 122.849 11.256 123.587 11.8948C124.318 12.5336 124.684 13.4836 124.684 14.7502C124.684 16.0169 124.318 16.9122 123.587 17.5237C122.855 18.1352 121.878 18.4355 120.66 18.4355H113.808V15.2525H113.814Z" fill="#2E2E2E"/>
<path d="M126.119 15.2525H132.147C132.409 15.2525 132.611 15.2143 132.747 15.1433C132.884 15.0723 132.955 14.9358 132.955 14.7338C132.955 14.5318 132.884 14.3953 132.747 14.3298C132.611 14.2643 132.409 14.2315 132.147 14.2315H129.515C128.969 14.2315 128.467 14.1496 128.019 13.9913C127.572 13.833 127.189 13.5927 126.867 13.2761C126.545 12.9594 126.299 12.5663 126.125 12.0859C125.95 11.6109 125.868 11.054 125.868 10.4207C125.868 9.78733 125.956 9.2632 126.125 8.80458C126.299 8.34597 126.545 7.96379 126.867 7.65804C127.189 7.3523 127.572 7.12299 128.019 6.97012C128.467 6.81725 128.964 6.73535 129.515 6.73535H136.22V9.91836H130.711C130.449 9.91836 130.247 9.95658 130.11 10.0276C129.974 10.0985 129.903 10.235 129.903 10.437C129.903 10.639 129.974 10.7755 130.11 10.8411C130.247 10.9066 130.449 10.9393 130.711 10.9393H132.966C134.183 10.9393 135.155 11.256 135.892 11.8948C136.624 12.5336 136.99 13.4836 136.99 14.7502C136.99 16.0169 136.624 16.9122 135.892 17.5237C135.161 18.1352 134.183 18.4355 132.966 18.4355H126.114V15.2525H126.119Z" fill="#2E2E2E"/>
</g>
<defs>
<clipPath id="clip0_4178_14651">
<rect width="204.739" height="25" fill="white" transform="translate(0.0917969 0.5)"/>
</clipPath>
</defs>
</svg>
