<svg width="32" height="32" viewBox="0 0 32 32" fill="none" xmlns="http://www.w3.org/2000/svg">
<rect x="0.5" y="0.5" width="31" height="31" rx="15.5" fill="#F2F2F2"/>
<rect x="0.5" y="0.5" width="31" height="31" rx="15.5" stroke="#DDDDDD"/>
<path fill-rule="evenodd" clip-rule="evenodd" d="M17.7074 21.6839C17.7074 22.6388 16.94 23.3892 16.0021 23.3892C15.0642 23.3892 14.2969 22.6218 14.2969 21.6839C14.2969 20.746 16.0021 19.9786 16.0021 19.9786C16.0021 19.9786 17.7074 20.7289 17.7074 21.6839ZM17.7074 15.9997C17.7074 16.9546 16.94 17.705 16.0021 17.705C15.0642 17.705 14.2969 16.9376 14.2969 15.9997C14.2969 15.0618 15.0642 14.2944 16.0021 14.2944C16.94 14.2944 17.7074 15.0447 17.7074 15.9997ZM16.0021 12.0207C16.94 12.0207 17.7074 11.2704 17.7074 10.3155C17.7074 9.36053 16.94 8.61021 16.0021 8.61021C15.0642 8.61021 14.2969 9.37758 14.2969 10.3155C14.2969 11.2534 15.0642 12.0207 16.0021 12.0207Z" fill="#A9A9A9"/>
</svg>
