<svg width="32" height="32" viewBox="0 0 32 32" fill="none" xmlns="http://www.w3.org/2000/svg">
<rect x="0.5" y="0.5" width="31" height="31" rx="15.5" fill="white"/>
<rect x="0.5" y="0.5" width="31" height="31" rx="15.5" stroke="#DDDDDD"/>
<path fill-rule="evenodd" clip-rule="evenodd" d="M17.7074 21.6834C17.7074 22.6384 16.94 23.3887 16.0021 23.3887C15.0642 23.3887 14.2969 22.6213 14.2969 21.6834C14.2969 20.7455 16.0021 19.9781 16.0021 19.9781C16.0021 19.9781 17.7074 20.7285 17.7074 21.6834ZM17.7074 15.9988C17.7074 16.9538 16.94 17.7041 16.0021 17.7041C15.0642 17.7041 14.2969 16.9367 14.2969 15.9988C14.2969 15.0609 15.0642 14.2936 16.0021 14.2936C16.94 14.2936 17.7074 15.0439 17.7074 15.9988ZM16.0021 12.0195C16.94 12.0195 17.7074 11.2692 17.7074 10.3143C17.7074 9.35932 16.94 8.609 16.0021 8.609C15.0642 8.609 14.2969 9.37637 14.2969 10.3143C14.2969 11.2522 15.0642 12.0195 16.0021 12.0195Z" fill="#A9A9A9"/>
</svg>
