<svg width="16" height="16" viewBox="0 0 16 16" fill="none" xmlns="http://www.w3.org/2000/svg">
<path d="M10 12.6667C10 11.1939 8.20914 10 6 10C3.79086 10 2 11.1939 2 12.6667M11.2188 3.44792C11.4664 3.69554 11.6628 3.98951 11.7968 4.31305C11.9308 4.63658 11.9999 4.98355 11.9999 5.33375C11.9999 5.68394 11.9309 6.02998 11.7969 6.35352C11.6629 6.67705 11.4664 6.97137 11.2188 7.21899M12.6667 2C13.1044 2.43774 13.4516 2.95741 13.6885 3.52935C13.9254 4.10128 14.0479 4.71418 14.0479 5.33323C14.0479 5.95229 13.9257 6.56544 13.6888 7.13737C13.4519 7.7093 13.1044 8.22903 12.6667 8.66677M6 8C4.52724 8 3.33333 6.80609 3.33333 5.33333C3.33333 3.86057 4.52724 2.66667 6 2.66667C7.47276 2.66667 8.66667 3.86057 8.66667 5.33333C8.66667 6.80609 7.47276 8 6 8Z" stroke="#A9A9A9" stroke-width="1.5" stroke-linecap="round" stroke-linejoin="round"/>
</svg>
